<?xml version="1.0" encoding="UTF-8"?>
<!DOCTYPE svg PUBLIC "-//W3C//DTD SVG 1.1//EN" "http://www.w3.org/Graphics/SVG/1.1/DTD/svg11.dtd">
<svg xmlns="http://www.w3.org/2000/svg" version="1.1" width="1024px" height="1024px" style="shape-rendering:geometricPrecision; text-rendering:geometricPrecision; image-rendering:optimizeQuality; fill-rule:evenodd; clip-rule:evenodd" xmlns:xlink="http://www.w3.org/1999/xlink">
<g><path style="opacity:1" fill="#fefefd" d="M -0.5,-0.5 C 340.833,-0.5 682.167,-0.5 1023.5,-0.5C 1023.5,340.833 1023.5,682.167 1023.5,1023.5C 682.167,1023.5 340.833,1023.5 -0.5,1023.5C -0.5,682.167 -0.5,340.833 -0.5,-0.5 Z"/></g>
<g><path style="opacity:1" fill="#090b09" d="M 477.5,113.5 C 526.281,110.05 574.281,114.55 621.5,127C 740.339,164.507 816.505,243.34 850,363.5C 874.581,458.51 874.581,553.51 850,648.5C 830.394,718.578 793.894,778.078 740.5,827C 688.205,872.135 627.539,898.802 558.5,907C 493.955,915.162 431.288,907.829 370.5,885C 339.039,872.116 310.706,854.449 285.5,832C 232.548,783.32 196.382,724.154 177,654.5C 150.385,554.338 151.052,454.338 179,354.5C 211.611,251.559 277.445,178.726 376.5,136C 409.269,123.816 442.936,116.316 477.5,113.5 Z"/></g>
<g><path style="opacity:1" fill="#fefefd" d="M 489.5,142.5 C 560.399,141.366 616.565,169.366 658,226.5C 682.425,262.025 700.425,300.692 712,342.5C 730.232,409.628 737.566,477.961 734,547.5C 731.423,589.613 725.756,631.28 717,672.5C 705.656,717.909 686.989,759.909 661,798.5C 610.078,867.807 543.245,890.641 460.5,867C 423.593,852.101 393.76,828.267 371,795.5C 346.223,759.223 327.556,719.889 315,677.5C 283.796,564.223 282.463,450.556 311,336.5C 321.197,294.209 338.531,255.209 363,219.5C 387.84,185.997 420.006,162.497 459.5,149C 469.499,146.162 479.499,143.996 489.5,142.5 Z"/></g>
</svg>
