<?xml version="1.0" encoding="UTF-8"?>
<!DOCTYPE svg PUBLIC "-//W3C//DTD SVG 1.1//EN" "http://www.w3.org/Graphics/SVG/1.1/DTD/svg11.dtd">
<svg xmlns="http://www.w3.org/2000/svg" version="1.1" width="1024px" height="1024px" style="shape-rendering:geometricPrecision; text-rendering:geometricPrecision; image-rendering:optimizeQuality; fill-rule:evenodd; clip-rule:evenodd" xmlns:xlink="http://www.w3.org/1999/xlink">
<g><path style="opacity:0.004" fill="#52524f" d="M 575.5,82.5 C 576.833,83.1667 576.833,83.1667 575.5,82.5 Z"/></g>
<g><path style="opacity:0.004" fill="#50504d" d="M 570.5,84.5 C 571.833,85.1667 571.833,85.1667 570.5,84.5 Z"/></g>
<g><path style="opacity:0.024" fill="#4c4e4b" d="M 568.5,88.5 C 567.833,87.1667 567.833,87.1667 568.5,88.5 Z"/></g>
<g><path style="opacity:0.998" fill="#101010" d="M 591.5,97.5 C 590.761,97.369 590.094,97.5357 589.5,98C 590.227,99.3988 590.727,100.899 591,102.5C 590.565,226.161 590.398,349.828 590.5,473.5C 589.711,473.783 589.044,474.283 588.5,475C 589.165,562.264 589.832,649.431 590.5,736.5C 592.037,755.137 593.537,773.804 595,792.5C 595.333,793.833 595.667,795.167 596,796.5C 596.21,794.942 596.71,793.609 597.5,792.5C 598.753,801.934 600.587,811.267 603,820.5C 604.176,825.22 606.01,829.554 608.5,833.5C 610.976,841.125 614.976,847.792 620.5,853.5C 627.408,861.745 635.741,868.079 645.5,872.5C 648.167,873.833 650.833,875.167 653.5,876.5C 653.389,877.117 653.056,877.617 652.5,878C 654.78,878.703 656.78,879.869 658.5,881.5C 659.801,880.522 660.968,880.855 662,882.5C 663.789,881.591 665.623,881.424 667.5,882C 667.167,882.333 666.833,882.667 666.5,883C 668.421,883.36 670.088,884.194 671.5,885.5C 675.728,886.396 680.062,886.396 684.5,885.5C 687.956,885.596 691.123,886.596 694,888.5C 694.333,888.167 694.667,887.833 695,887.5C 696.397,890.354 697.897,893.02 699.5,895.5C 698.552,902.281 694.719,906.281 688,907.5C 666.758,905.527 645.258,903.86 623.5,902.5C 619.366,901.515 615.032,901.182 610.5,901.5C 586.662,901.216 562.996,900.549 539.5,899.5C 556.837,899.667 574.17,899.5 591.5,899C 540.483,896.836 489.483,897.169 438.5,900C 430.617,900.197 422.95,901.031 415.5,902.5C 412.167,903.167 408.833,903.833 405.5,904.5C 404.833,904.5 404.167,904.5 403.5,904.5C 397.596,904.321 391.929,904.988 386.5,906.5C 378.685,907.465 370.851,908.465 363,909.5C 359.625,909.034 356.458,908.034 353.5,906.5C 349.172,900.978 349.505,895.811 354.5,891C 364.03,888.522 373.697,886.689 383.5,885.5C 387.57,885.568 391.237,884.568 394.5,882.5C 412.594,878.199 428.928,870.365 443.5,859C 446.063,856.938 448.063,854.438 449.5,851.5C 454.409,846.693 458.076,841.027 460.5,834.5C 467.589,821.493 471.589,807.493 472.5,792.5C 474.274,783.723 475.441,774.723 476,765.5C 476.993,748.504 477.826,731.504 478.5,714.5C 479.493,705.682 479.827,696.682 479.5,687.5C 479.543,668.667 479.877,650.001 480.5,631.5C 480.833,631.5 481.167,631.5 481.5,631.5C 481.334,635.846 481.501,640.179 482,644.5C 482.169,630.661 482.669,616.994 483.5,603.5C 483.334,610.841 483.5,618.174 484,625.5C 484.833,628 486,628.167 487.5,626C 486.692,625.692 486.025,625.192 485.5,624.5C 486.167,624.167 486.833,623.833 487.5,623.5C 486.61,622.289 486.61,620.955 487.5,619.5C 487.182,618.353 486.516,617.519 485.5,617C 487.901,614.827 487.901,612.494 485.5,610C 486.944,608.237 487.944,606.237 488.5,604C 487.582,597.491 487.582,590.824 488.5,584C 487.833,581.667 487.167,579.333 486.5,577C 487.833,576 487.833,575 486.5,574C 487.167,573.667 487.833,573.333 488.5,573C 486.915,572.915 485.582,572.749 484.5,572.5C 485.025,571.808 485.692,571.308 486.5,571C 485.483,569.951 485.316,568.784 486,567.5C 486.333,567.833 486.667,568.167 487,568.5C 487.769,565.901 487.602,563.401 486.5,561C 487.167,560.667 487.833,560.333 488.5,560C 487.432,556.393 487.432,553.06 488.5,550C 486.575,547.132 486.575,544.465 488.5,542C 487.001,538.518 486.335,535.185 486.5,532C 488.075,525.741 488.575,519.241 488,512.5C 488.5,512 489,511.5 489.5,511C 487.741,505.792 486.907,500.292 487,494.5C 486.111,495.888 485.611,495.722 485.5,494C 485.667,493.5 485.833,493 486,492.5C 486.718,493.451 487.551,493.617 488.5,493C 488.216,488.144 487.549,483.144 486.5,478C 487.167,473.333 487.833,468.667 488.5,464C 486.616,462.011 486.283,460.011 487.5,458C 484.724,456.221 485.057,455.221 488.5,455C 487.773,451.357 486.773,448.524 485.5,446.5C 486.622,441.345 487.622,435.845 488.5,430C 487.5,428.333 486.5,426.667 485.5,425C 486.833,424.333 488.167,423.667 489.5,423C 488.422,422.326 487.755,421.326 487.5,420C 487.245,413.461 487.578,406.461 488.5,399C 488.072,396.371 487.072,394.038 485.5,392C 487.754,390.946 488.087,389.446 486.5,387.5C 487.074,385.941 487.74,384.441 488.5,383C 487.5,382.667 486.5,382.333 485.5,382C 485.057,380.482 485.724,379.315 487.5,378.5C 486.975,377.808 486.308,377.308 485.5,377C 486.967,375.902 487.801,374.402 488,372.5C 489.067,371.809 490.234,371.309 491.5,371C 489.956,370.71 488.623,370.044 487.5,369C 487.752,365.663 488.085,361.996 488.5,358C 486.652,356.139 486.652,353.972 488.5,351.5C 487.975,350.808 487.308,350.308 486.5,350C 486.955,347.688 487.955,345.688 489.5,344C 488.833,343.667 488.167,343.333 487.5,343C 488.833,342.333 488.833,341.667 487.5,341C 489.991,340.374 489.991,339.541 487.5,338.5C 487.833,337.833 488.167,337.167 488.5,336.5C 487.869,332.966 487.202,329.466 486.5,326C 487.707,322.999 487.707,319.666 486.5,316C 486.615,314.105 487.282,312.438 488.5,311C 486.519,310.395 486.185,309.395 487.5,308C 485.789,306.867 485.289,305.367 486,303.5C 486.669,306.028 487.502,306.028 488.5,303.5C 486.23,302.407 485.897,300.907 487.5,299C 486.978,298.05 486.311,297.216 485.5,296.5C 488.078,296.323 488.078,295.157 485.5,293C 488.167,291.667 488.167,290.333 485.5,289C 486.471,287.796 487.471,287.296 488.5,287.5C 487.926,285.941 487.26,284.441 486.5,283C 486.833,282.667 487.167,282.333 487.5,282C 486.572,281.612 485.905,280.945 485.5,280C 486.736,278.144 486.736,276.311 485.5,274.5C 486.025,273.808 486.692,273.308 487.5,273C 486.234,272.691 485.067,272.191 484,271.5C 483.065,266.964 481.565,262.631 479.5,258.5C 480.933,256.191 480.266,254.691 477.5,254C 477.957,253.586 478.291,253.086 478.5,252.5C 475.647,250.975 474.647,248.809 475.5,246C 475,245.5 474.5,245 474,244.5C 472.989,245.337 471.822,245.67 470.5,245.5C 469.833,244.167 468.833,243.167 467.5,242.5C 467.167,241.5 466.5,240.833 465.5,240.5C 463.498,237.666 460.998,235.333 458,233.5C 457.667,234.167 457.333,234.833 457,235.5C 456.505,233.01 455.005,231.51 452.5,231C 437.22,226.723 421.886,226.723 406.5,231C 388.626,235.458 370.96,240.624 353.5,246.5C 351.865,245.954 350.199,245.62 348.5,245.5C 343.741,240.143 344.075,234.976 349.5,230C 359.004,225.667 368.671,221.834 378.5,218.5C 380.821,218.771 382.821,218.104 384.5,216.5C 385.086,216.709 385.586,217.043 386,217.5C 396.296,212.511 405.796,207.678 414.5,203C 415.712,201.893 415.379,201.393 413.5,201.5C 413.5,201.167 413.5,200.833 413.5,200.5C 423.602,195.481 432.935,190.148 441.5,184.5C 450.844,180.167 459.511,174.833 467.5,168.5C 471.683,166.913 475.35,164.579 478.5,161.5C 485.18,157.591 491.846,152.925 498.5,147.5C 500.404,147.262 501.738,146.262 502.5,144.5C 512.758,137.903 522.425,130.57 531.5,122.5C 539.114,117.219 546.114,111.219 552.5,104.5C 555.5,102.167 558.167,99.5 560.5,96.5C 563.5,94.1667 566.167,91.5 568.5,88.5C 579.555,82.1918 587.222,85.1918 591.5,97.5 Z"/></g>
<g><path style="opacity:0.012" fill="#494a49" d="M 560.5,96.5 C 559.833,95.1667 559.833,95.1667 560.5,96.5 Z"/></g>
<g><path style="opacity:0.008" fill="#4a4a48" d="M 543.5,103.5 C 544.833,104.167 544.833,104.167 543.5,103.5 Z"/></g>
<g><path style="opacity:0.024" fill="#494a48" d="M 552.5,104.5 C 551.833,103.167 551.833,103.167 552.5,104.5 Z"/></g>
<g><path style="opacity:0.647" fill="#434242" d="M 591.5,97.5 C 593.04,99.8383 593.706,102.505 593.5,105.5C 592.232,103.095 591.565,100.428 591.5,97.5 Z"/></g>
<g><path style="opacity:0.006" fill="#494847" d="M 535.5,115.5 C 535.897,114.475 536.563,114.308 537.5,115C 536.906,115.464 536.239,115.631 535.5,115.5 Z"/></g>
<g><path style="opacity:0.99" fill="#111111" d="M 591.5,97.5 C 591.565,100.428 592.232,103.095 593.5,105.5C 594.357,112.661 594.69,119.494 594.5,126C 593.737,154.916 593.07,183.75 592.5,212.5C 591.167,352.167 591.167,491.833 592.5,631.5C 592.562,669.056 593.062,706.389 594,743.5C 594.45,759.895 595.616,776.228 597.5,792.5C 596.71,793.609 596.21,794.942 596,796.5C 595.667,795.167 595.333,793.833 595,792.5C 593.537,773.804 592.037,755.137 590.5,736.5C 590.5,648.833 590.5,561.167 590.5,473.5C 590.398,349.828 590.565,226.161 591,102.5C 590.727,100.899 590.227,99.3988 589.5,98C 590.094,97.5357 590.761,97.369 591.5,97.5 Z"/></g>
<g><path style="opacity:0.004" fill="#474843" d="M 530.5,119.5 C 531.833,120.167 531.833,120.167 530.5,119.5 Z"/></g>
<g><path style="opacity:0.008" fill="#454645" d="M 531.5,122.5 C 530.833,121.167 530.833,121.167 531.5,122.5 Z"/></g>
<g><path style="opacity:0.008" fill="#484643" d="M 528.5,122.5 C 529.833,123.167 529.833,123.167 528.5,122.5 Z"/></g>
<g><path style="opacity:0.004" fill="#484a46" d="M 505.5,135.5 C 506.833,136.167 506.833,136.167 505.5,135.5 Z"/></g>
<g><path style="opacity:0.008" fill="#464743" d="M 502.5,144.5 C 501.833,143.167 501.833,143.167 502.5,144.5 Z"/></g>
<g><path style="opacity:0.008" fill="#44423f" d="M 498.5,146.5 C 498.369,145.761 498.536,145.094 499,144.5C 499.692,145.437 499.525,146.103 498.5,146.5 Z"/></g>
<g><path style="opacity:0.008" fill="#44453f" d="M 498.5,146.5 C 498.5,146.833 498.5,147.167 498.5,147.5C 497.83,147.019 497.83,146.685 498.5,146.5 Z"/></g>
<g><path style="opacity:0.004" fill="#454442" d="M 594.5,152.5 C 595.833,153.167 595.833,153.167 594.5,152.5 Z"/></g>
<g><path style="opacity:0.004" fill="#494746" d="M 483.5,153.5 C 484.833,154.167 484.833,154.167 483.5,153.5 Z"/></g>
<g><path style="opacity:0.004" fill="#4b4c47" d="M 479.5,154.5 C 480.525,154.897 480.692,155.563 480,156.5C 479.536,155.906 479.369,155.239 479.5,154.5 Z"/></g>
<g><path style="opacity:0.008" fill="#464744" d="M 478.5,161.5 C 477.761,161.631 477.094,161.464 476.5,161C 477.437,160.308 478.103,160.475 478.5,161.5 Z"/></g>
<g><path style="opacity:0.004" fill="#434642" d="M 594.5,164.5 C 595.833,165.167 595.833,165.167 594.5,164.5 Z"/></g>
<g><path style="opacity:0.01" fill="#454542" d="M 467.5,168.5 C 466.761,168.631 466.094,168.464 465.5,168C 466.437,167.308 467.103,167.475 467.5,168.5 Z"/></g>
<g><path style="opacity:0.004" fill="#474745" d="M 453.5,175.5 C 454.833,176.167 454.833,176.167 453.5,175.5 Z"/></g>
<g><path style="opacity:0.004" fill="#484846" d="M 443.5,181.5 C 444.833,182.167 444.833,182.167 443.5,181.5 Z"/></g>
<g><path style="opacity:0.02" fill="#474645" d="M 441.5,184.5 C 440.761,184.631 440.094,184.464 439.5,184C 440.437,183.308 441.103,183.475 441.5,184.5 Z"/></g>
<g><path style="opacity:0.008" fill="#4a4b47" d="M 434.5,184.5 C 435.833,185.167 435.833,185.167 434.5,184.5 Z"/></g>
<g><path style="opacity:0.004" fill="#494746" d="M 417.5,196.5 C 418.833,197.167 418.833,197.167 417.5,196.5 Z"/></g>
<g><path style="opacity:0.004" fill="#494a45" d="M 408.5,199.5 C 409.833,200.167 409.833,200.167 408.5,199.5 Z"/></g>
<g><path style="opacity:0.004" fill="#4b4746" d="M 413.5,200.5 C 412.833,199.167 412.833,199.167 413.5,200.5 Z"/></g>
<g><path style="opacity:0.004" fill="#4c4d4a" d="M 395.5,207.5 C 396.833,208.167 396.833,208.167 395.5,207.5 Z"/></g>
<g><path style="opacity:0.991" fill="#1d1d1c" d="M 413.5,201.5 C 415.379,201.393 415.712,201.893 414.5,203C 405.796,207.678 396.296,212.511 386,217.5C 385.586,217.043 385.086,216.709 384.5,216.5C 382.821,218.104 380.821,218.771 378.5,218.5C 389.975,212.597 401.641,206.93 413.5,201.5 Z"/></g>
<g><path style="opacity:0.004" fill="#525251" d="M 374.5,216.5 C 375.833,217.167 375.833,217.167 374.5,216.5 Z"/></g>
<g><path style="opacity:0.012" fill="#535550" d="M 356.5,224.5 C 357.833,225.167 357.833,225.167 356.5,224.5 Z"/></g>
<g><path style="opacity:0.004" fill="#595a57" d="M 351.5,226.5 C 352.833,227.167 352.833,227.167 351.5,226.5 Z"/></g>
<g><path style="opacity:0.008" fill="#474544" d="M 434.5,229.5 C 433.761,229.631 433.094,229.464 432.5,229C 433.437,228.308 434.103,228.475 434.5,229.5 Z"/></g>
<g><path style="opacity:0.004" fill="#4b4a49" d="M 426.5,230.5 C 426.897,229.475 427.563,229.308 428.5,230C 427.906,230.464 427.239,230.631 426.5,230.5 Z"/></g>
<g><path style="opacity:0.004" fill="#484846" d="M 434.5,229.5 C 435.833,230.167 435.833,230.167 434.5,229.5 Z"/></g>
<g><path style="opacity:0.008" fill="#494948" d="M 439.5,230.5 C 439.897,229.475 440.563,229.308 441.5,230C 440.906,230.464 440.239,230.631 439.5,230.5 Z"/></g>
<g><path style="opacity:0.012" fill="#464543" d="M 442.5,230.5 C 442.897,229.475 443.563,229.308 444.5,230C 443.906,230.464 443.239,230.631 442.5,230.5 Z"/></g>
<g><path style="opacity:0.008" fill="#444642" d="M 445.5,230.5 C 446.833,231.167 446.833,231.167 445.5,230.5 Z"/></g>
<g><path style="opacity:0.008" fill="#555755" d="M 343.5,240.5 C 344.833,241.167 344.833,241.167 343.5,240.5 Z"/></g>
<g><path style="opacity:0.004" fill="#444644" d="M 465.5,240.5 C 464.833,241.167 464.833,241.167 465.5,240.5 Z"/></g>
<g><path style="opacity:0.006" fill="#444341" d="M 467.5,242.5 C 467.738,246.099 466.738,246.433 464.5,243.5C 465.325,242.614 466.325,242.281 467.5,242.5 Z"/></g>
<g><path style="opacity:0.004" fill="#5c5c58" d="M 344.5,244.5 C 345.833,245.167 345.833,245.167 344.5,244.5 Z"/></g>
<g><path style="opacity:0.008" fill="#585957" d="M 348.5,245.5 C 347.833,246.167 347.833,246.167 348.5,245.5 Z"/></g>
<g><path style="opacity:0.016" fill="#454442" d="M 470.5,246.5 C 470.103,247.525 469.437,247.692 468.5,247C 469.094,246.536 469.761,246.369 470.5,246.5 Z"/></g>
<g><path style="opacity:0.016" fill="#454542" d="M 472.5,252.5 C 473.833,253.167 473.833,253.167 472.5,252.5 Z"/></g>
<g><path style="opacity:0.004" fill="#464845" d="M 471.5,254.5 C 472.833,255.167 472.833,255.167 471.5,254.5 Z"/></g>
<g><path style="opacity:0.004" fill="#494947" d="M 479.5,290.5 C 480.833,291.167 480.833,291.167 479.5,290.5 Z"/></g>
<g><path style="opacity:0.008" fill="#484947" d="M 479.5,293.5 C 480.525,293.897 480.692,294.563 480,295.5C 479.536,294.906 479.369,294.239 479.5,293.5 Z"/></g>
<g><path style="opacity:0.009" fill="#474545" d="M 479.5,296.5 C 480.573,297.251 480.74,298.251 480,299.5C 479.517,298.552 479.351,297.552 479.5,296.5 Z"/></g>
<g><path style="opacity:0.01" fill="#474745" d="M 479.5,300.5 C 480.651,305.65 480.817,310.984 480,316.5C 479.501,311.177 479.334,305.844 479.5,300.5 Z"/></g>
<g><path style="opacity:0.004" fill="#454844" d="M 479.5,318.5 C 480.833,319.167 480.833,319.167 479.5,318.5 Z"/></g>
<g><path style="opacity:0.004" fill="#464745" d="M 479.5,322.5 C 480.833,323.167 480.833,323.167 479.5,322.5 Z"/></g>
<g><path style="opacity:0.004" fill="#454544" d="M 479.5,325.5 C 480.833,326.167 480.833,326.167 479.5,325.5 Z"/></g>
<g><path style="opacity:0.006" fill="#494846" d="M 479.5,327.5 C 480.629,329.628 480.796,331.961 480,334.5C 479.503,332.19 479.337,329.857 479.5,327.5 Z"/></g>
<g><path style="opacity:0.092" fill="#5a5a58" d="M 481.5,286.5 C 482.498,311.995 482.831,337.661 482.5,363.5C 481.732,362.737 481.232,361.737 481,360.5C 480.444,362.595 479.944,362.762 479.5,361C 482.167,358.667 482.167,356.333 479.5,354C 479.944,352.238 480.444,352.405 481,354.5C 481.5,331.836 481.667,309.169 481.5,286.5 Z"/></g>
<g><path style="opacity:0.004" fill="#6b6d6b" d="M 275.5,333.5 C 276.833,334.167 276.833,334.167 275.5,333.5 Z"/></g>
<g><path style="opacity:0.008" fill="#474845" d="M 479.5,335.5 C 480.833,336.167 480.833,336.167 479.5,335.5 Z"/></g>
<g><path style="opacity:0.008" fill="#484745" d="M 479.5,337.5 C 480.573,338.251 480.74,339.251 480,340.5C 479.517,339.552 479.351,338.552 479.5,337.5 Z"/></g>
<g><path style="opacity:0.013" fill="#494846" d="M 479.5,341.5 C 480.629,343.628 480.796,345.961 480,348.5C 479.503,346.19 479.337,343.857 479.5,341.5 Z"/></g>
<g><path style="opacity:0.004" fill="#575857" d="M 883.5,349.5 C 884.833,350.167 884.833,350.167 883.5,349.5 Z"/></g>
<g><path style="opacity:0.004" fill="#555856" d="M 1003.5,349.5 C 1004.83,350.167 1004.83,350.167 1003.5,349.5 Z"/></g>
<g><path style="opacity:0.004" fill="#575958" d="M 803.5,373.5 C 804.833,374.167 804.833,374.167 803.5,373.5 Z"/></g>
<g><path style="opacity:0.004" fill="#595957" d="M 482.5,367.5 C 482.5,371.833 482.5,376.167 482.5,380.5C 480.235,380.559 479.902,379.726 481.5,378C 480.978,377.05 480.311,376.216 479.5,375.5C 480.441,375.511 481.108,375.011 481.5,374C 479.997,372.079 479.331,369.912 479.5,367.5C 480.5,367.5 481.5,367.5 482.5,367.5 Z"/></g>
<g><path style="opacity:0.992" fill="#141514" d="M 483.5,603.5 C 484.89,495.162 484.724,386.828 483,278.5C 482.667,276.167 482.333,273.833 482,271.5C 481.501,275.486 481.334,279.486 481.5,283.5C 480.773,276.243 479.607,268.909 478,261.5C 476.524,255.881 474.024,250.881 470.5,246.5C 470.5,246.167 470.5,245.833 470.5,245.5C 471.822,245.67 472.989,245.337 474,244.5C 474.5,245 475,245.5 475.5,246C 474.647,248.809 475.647,250.975 478.5,252.5C 478.291,253.086 477.957,253.586 477.5,254C 480.266,254.691 480.933,256.191 479.5,258.5C 481.565,262.631 483.065,266.964 484,271.5C 485.067,272.191 486.234,272.691 487.5,273C 486.692,273.308 486.025,273.808 485.5,274.5C 486.736,276.311 486.736,278.144 485.5,280C 485.905,280.945 486.572,281.612 487.5,282C 487.167,282.333 486.833,282.667 486.5,283C 487.26,284.441 487.926,285.941 488.5,287.5C 487.471,287.296 486.471,287.796 485.5,289C 488.167,290.333 488.167,291.667 485.5,293C 488.078,295.157 488.078,296.323 485.5,296.5C 486.311,297.216 486.978,298.05 487.5,299C 485.897,300.907 486.23,302.407 488.5,303.5C 487.502,306.028 486.669,306.028 486,303.5C 485.289,305.367 485.789,306.867 487.5,308C 486.185,309.395 486.519,310.395 488.5,311C 487.282,312.438 486.615,314.105 486.5,316C 487.707,319.666 487.707,322.999 486.5,326C 487.202,329.466 487.869,332.966 488.5,336.5C 488.167,337.167 487.833,337.833 487.5,338.5C 489.991,339.541 489.991,340.374 487.5,341C 488.833,341.667 488.833,342.333 487.5,343C 488.167,343.333 488.833,343.667 489.5,344C 487.955,345.688 486.955,347.688 486.5,350C 487.308,350.308 487.975,350.808 488.5,351.5C 486.652,353.972 486.652,356.139 488.5,358C 488.085,361.996 487.752,365.663 487.5,369C 488.623,370.044 489.956,370.71 491.5,371C 490.234,371.309 489.067,371.809 488,372.5C 487.801,374.402 486.967,375.902 485.5,377C 486.308,377.308 486.975,377.808 487.5,378.5C 485.724,379.315 485.057,380.482 485.5,382C 486.5,382.333 487.5,382.667 488.5,383C 487.74,384.441 487.074,385.941 486.5,387.5C 488.087,389.446 487.754,390.946 485.5,392C 487.072,394.038 488.072,396.371 488.5,399C 487.578,406.461 487.245,413.461 487.5,420C 487.755,421.326 488.422,422.326 489.5,423C 488.167,423.667 486.833,424.333 485.5,425C 486.5,426.667 487.5,428.333 488.5,430C 487.622,435.845 486.622,441.345 485.5,446.5C 486.773,448.524 487.773,451.357 488.5,455C 485.057,455.221 484.724,456.221 487.5,458C 486.283,460.011 486.616,462.011 488.5,464C 487.833,468.667 487.167,473.333 486.5,478C 487.549,483.144 488.216,488.144 488.5,493C 487.551,493.617 486.718,493.451 486,492.5C 485.833,493 485.667,493.5 485.5,494C 485.611,495.722 486.111,495.888 487,494.5C 486.907,500.292 487.741,505.792 489.5,511C 489,511.5 488.5,512 488,512.5C 488.575,519.241 488.075,525.741 486.5,532C 486.335,535.185 487.001,538.518 488.5,542C 486.575,544.465 486.575,547.132 488.5,550C 487.432,553.06 487.432,556.393 488.5,560C 487.833,560.333 487.167,560.667 486.5,561C 487.602,563.401 487.769,565.901 487,568.5C 486.667,568.167 486.333,567.833 486,567.5C 485.316,568.784 485.483,569.951 486.5,571C 485.692,571.308 485.025,571.808 484.5,572.5C 485.582,572.749 486.915,572.915 488.5,573C 487.833,573.333 487.167,573.667 486.5,574C 487.833,575 487.833,576 486.5,577C 487.167,579.333 487.833,581.667 488.5,584C 487.582,590.824 487.582,597.491 488.5,604C 487.944,606.237 486.944,608.237 485.5,610C 487.901,612.494 487.901,614.827 485.5,617C 486.516,617.519 487.182,618.353 487.5,619.5C 486.61,620.955 486.61,622.289 487.5,623.5C 486.833,623.833 486.167,624.167 485.5,624.5C 486.025,625.192 486.692,625.692 487.5,626C 486,628.167 484.833,628 484,625.5C 483.5,618.174 483.334,610.841 483.5,603.5 Z"/></g>
<g><path style="opacity:0.004" fill="#4a4c48" d="M 479.5,383.5 C 480.833,384.167 480.833,384.167 479.5,383.5 Z"/></g>
<g><path style="opacity:0.004" fill="#4c4e49" d="M 479.5,391.5 C 480.833,392.167 480.833,392.167 479.5,391.5 Z"/></g>
<g><path style="opacity:0.01" fill="#61615e" d="M 482.5,391.5 C 482.5,393.833 482.5,396.167 482.5,398.5C 481.751,397.469 481.085,396.302 480.5,395C 481.085,393.698 481.751,392.531 482.5,391.5 Z"/></g>
<g><path style="opacity:0.004" fill="#4a4b49" d="M 480.5,403.5 C 479.402,402.399 479.235,401.066 480,399.5C 480.49,400.793 480.657,402.127 480.5,403.5 Z"/></g>
<g><path style="opacity:0.004" fill="#605f5d" d="M 482.5,400.5 C 482.5,402.5 482.5,404.5 482.5,406.5C 481.599,405.71 480.932,404.71 480.5,403.5C 481.167,402.5 481.833,401.5 482.5,400.5 Z"/></g>
<g><path style="opacity:0.008" fill="#4b4a48" d="M 479.5,407.5 C 480.598,408.601 480.765,409.934 480,411.5C 479.51,410.207 479.343,408.873 479.5,407.5 Z"/></g>
<g><path style="opacity:0.004" fill="#4b4b49" d="M 479.5,415.5 C 480.833,416.167 480.833,416.167 479.5,415.5 Z"/></g>
<g><path style="opacity:0.004" fill="#4d4c4a" d="M 480.5,419.5 C 481.833,420.167 481.833,420.167 480.5,419.5 Z"/></g>
<g><path style="opacity:0.004" fill="#4b4b4a" d="M 479.5,423.5 C 480.525,423.897 480.692,424.563 480,425.5C 479.536,424.906 479.369,424.239 479.5,423.5 Z"/></g>
<g><path style="opacity:0.004" fill="#4d4d4a" d="M 479.5,426.5 C 480.833,427.167 480.833,427.167 479.5,426.5 Z"/></g>
<g><path style="opacity:0.016" fill="#5d5e5b" d="M 482.5,424.5 C 482.5,429.5 482.5,434.5 482.5,439.5C 480.32,437.294 479.487,434.627 480,431.5C 480.333,432.833 480.667,434.167 481,435.5C 481.177,431.644 481.677,427.977 482.5,424.5 Z"/></g>
<g><path style="opacity:0.004" fill="#484a48" d="M 479.5,438.5 C 480.833,439.167 480.833,439.167 479.5,438.5 Z"/></g>
<g><path style="opacity:0.985" fill="#070707" d="M 483.5,603.5 C 482.669,616.994 482.169,630.661 482,644.5C 481.501,640.179 481.334,635.846 481.5,631.5C 481.5,616.167 481.5,600.833 481.5,585.5C 480.929,584.027 480.929,582.36 481.5,580.5C 481.5,578.833 481.5,577.167 481.5,575.5C 482.492,567.684 482.826,559.684 482.5,551.5C 482.5,515.5 482.5,479.5 482.5,443.5C 481.167,442.167 481.167,440.833 482.5,439.5C 482.5,434.5 482.5,429.5 482.5,424.5C 482.332,418.668 482.332,412.668 482.5,406.5C 482.5,404.5 482.5,402.5 482.5,400.5C 482.5,399.833 482.5,399.167 482.5,398.5C 482.5,396.167 482.5,393.833 482.5,391.5C 481.174,387.83 481.174,384.163 482.5,380.5C 482.5,376.167 482.5,371.833 482.5,367.5C 481.167,366.167 481.167,364.833 482.5,363.5C 482.831,337.661 482.498,311.995 481.5,286.5C 481.5,285.5 481.5,284.5 481.5,283.5C 481.334,279.486 481.501,275.486 482,271.5C 482.333,273.833 482.667,276.167 483,278.5C 484.724,386.828 484.89,495.162 483.5,603.5 Z"/></g>
<g><path style="opacity:0.008" fill="#4c4c49" d="M 479.5,440.5 C 480.598,441.601 480.765,442.934 480,444.5C 479.51,443.207 479.343,441.873 479.5,440.5 Z"/></g>
<g><path style="opacity:0.008" fill="#4b4b49" d="M 479.5,448.5 C 480.525,448.897 480.692,449.563 480,450.5C 479.536,449.906 479.369,449.239 479.5,448.5 Z"/></g>
<g><path style="opacity:0.008" fill="#4b4b4a" d="M 479.5,452.5 C 480.525,452.897 480.692,453.563 480,454.5C 479.536,453.906 479.369,453.239 479.5,452.5 Z"/></g>
<g><path style="opacity:0.008" fill="#4c4c49" d="M 479.5,455.5 C 480.573,456.251 480.74,457.251 480,458.5C 479.517,457.552 479.351,456.552 479.5,455.5 Z"/></g>
<g><path style="opacity:0.056" fill="#595956" d="M 482.5,443.5 C 482.5,479.5 482.5,515.5 482.5,551.5C 482.167,551.5 481.833,551.5 481.5,551.5C 481.665,547.818 481.499,544.152 481,540.5C 480.667,540.833 480.333,541.167 480,541.5C 479.333,539.5 479.333,537.5 480,535.5C 480.333,536.5 480.667,537.5 481,538.5C 481.667,520.167 481.667,501.833 481,483.5C 480.667,483.833 480.333,484.167 480,484.5C 479.333,482.833 479.333,481.167 480,479.5C 480.333,480.5 480.667,481.5 481,482.5C 481.167,480.333 481.333,478.167 481.5,476C 481.037,472.06 480.37,468.56 479.5,465.5C 481.034,458.123 482.034,450.79 482.5,443.5 Z"/></g>
<g><path style="opacity:0.004" fill="#4a4a48" d="M 479.5,471.5 C 480.598,472.601 480.765,473.934 480,475.5C 479.51,474.207 479.343,472.873 479.5,471.5 Z"/></g>
<g><path style="opacity:0.004" fill="#4a4c4a" d="M 479.5,487.5 C 480.598,488.601 480.765,489.934 480,491.5C 479.51,490.207 479.343,488.873 479.5,487.5 Z"/></g>
<g><path style="opacity:0.009" fill="#494948" d="M 479.5,495.5 C 480.598,496.601 480.765,497.934 480,499.5C 479.51,498.207 479.343,496.873 479.5,495.5 Z"/></g>
<g><path style="opacity:0.004" fill="#484947" d="M 479.5,500.5 C 480.573,501.251 480.74,502.251 480,503.5C 479.517,502.552 479.351,501.552 479.5,500.5 Z"/></g>
<g><path style="opacity:0.004" fill="#494846" d="M 479.5,506.5 C 480.833,507.167 480.833,507.167 479.5,506.5 Z"/></g>
<g><path style="opacity:0.007" fill="#494847" d="M 479.5,511.5 C 480.643,514.976 480.81,518.642 480,522.5C 479.501,518.848 479.335,515.182 479.5,511.5 Z"/></g>
<g><path style="opacity:0.004" fill="#494b49" d="M 475.5,525.5 C 476.833,526.167 476.833,526.167 475.5,525.5 Z"/></g>
<g><path style="opacity:0.009" fill="#474846" d="M 479.5,524.5 C 480.641,527.64 480.808,530.973 480,534.5C 479.502,531.183 479.335,527.85 479.5,524.5 Z"/></g>
<g><path style="opacity:0.783" fill="#1b1c1c" d="M 592.5,212.5 C 592.503,351.862 592.503,491.528 592.5,631.5C 591.167,491.833 591.167,352.167 592.5,212.5 Z"/></g>
<g><path style="opacity:0.984" fill="#181817" d="M 590.5,473.5 C 590.5,561.167 590.5,648.833 590.5,736.5C 589.832,649.431 589.165,562.264 588.5,475C 589.044,474.283 589.711,473.783 590.5,473.5 Z"/></g>
<g><path style="opacity:0.004" fill="#474744" d="M 479.5,542.5 C 480.525,542.897 480.692,543.563 480,544.5C 479.536,543.906 479.369,543.239 479.5,542.5 Z"/></g>
<g><path style="opacity:0.006" fill="#474745" d="M 479.5,545.5 C 480.643,548.976 480.81,552.642 480,556.5C 479.501,552.848 479.335,549.182 479.5,545.5 Z"/></g>
<g><path style="opacity:0.006" fill="#464645" d="M 479.5,557.5 C 480.525,557.897 480.692,558.563 480,559.5C 479.536,558.906 479.369,558.239 479.5,557.5 Z"/></g>
<g><path style="opacity:0.724" fill="#2d2d2c" d="M 481.5,551.5 C 481.833,551.5 482.167,551.5 482.5,551.5C 482.826,559.684 482.492,567.684 481.5,575.5C 481.388,567.68 481.388,559.68 481.5,551.5 Z"/></g>
<g><path style="opacity:0.004" fill="#404240" d="M 479.5,560.5 C 480.833,561.167 480.833,561.167 479.5,560.5 Z"/></g>
<g><path style="opacity:0.005" fill="#434240" d="M 479.5,562.5 C 480.598,563.601 480.765,564.934 480,566.5C 479.51,565.207 479.343,563.873 479.5,562.5 Z"/></g>
<g><path style="opacity:0.004" fill="#454543" d="M 479.5,567.5 C 480.598,568.601 480.765,569.934 480,571.5C 479.51,570.207 479.343,568.873 479.5,567.5 Z"/></g>
<g><path style="opacity:0.009" fill="#626260" d="M 481.5,575.5 C 481.5,577.167 481.5,578.833 481.5,580.5C 480.751,579.469 480.085,578.302 479.5,577C 480.044,576.283 480.711,575.783 481.5,575.5 Z"/></g>
<g><path style="opacity:0.058" fill="#5a5958" d="M 481.5,585.5 C 481.5,600.833 481.5,616.167 481.5,631.5C 481.167,631.5 480.833,631.5 480.5,631.5C 480.753,619.037 480.42,606.871 479.5,595C 480.132,591.73 480.799,588.563 481.5,585.5 Z"/></g>
<g><path style="opacity:0.004" fill="#555655" d="M 1019.5,621.5 C 1020.83,622.167 1020.83,622.167 1019.5,621.5 Z"/></g>
<g><path style="opacity:0.151" fill="#5d5f5d" d="M 479.5,687.5 C 479.827,696.682 479.493,705.682 478.5,714.5C 478.811,707.91 478.478,701.41 477.5,695C 478.123,692.393 478.79,689.893 479.5,687.5 Z"/></g>
<g><path style="opacity:0.004" fill="#484846" d="M 476.5,704.5 C 477.833,705.167 477.833,705.167 476.5,704.5 Z"/></g>
<g><path style="opacity:0.004" fill="#454745" d="M 476.5,712.5 C 477.833,713.167 477.833,713.167 476.5,712.5 Z"/></g>
<g><path style="opacity:0.004" fill="#444443" d="M 594.5,720.5 C 595.833,721.167 595.833,721.167 594.5,720.5 Z"/></g>
<g><path style="opacity:0.008" fill="#444746" d="M 475.5,733.5 C 476.833,734.167 476.833,734.167 475.5,733.5 Z"/></g>
<g><path style="opacity:0.004" fill="#464645" d="M 475.5,737.5 C 476.833,738.167 476.833,738.167 475.5,737.5 Z"/></g>
<g><path style="opacity:0.004" fill="#484845" d="M 475.5,745.5 C 476.833,746.167 476.833,746.167 475.5,745.5 Z"/></g>
<g><path style="opacity:0.012" fill="#444544" d="M 595.5,749.5 C 596.833,750.167 596.833,750.167 595.5,749.5 Z"/></g>
<g><path style="opacity:0.004" fill="#464946" d="M 474.5,756.5 C 475.833,757.167 475.833,757.167 474.5,756.5 Z"/></g>
<g><path style="opacity:0.004" fill="#454644" d="M 474.5,760.5 C 475.833,761.167 475.833,761.167 474.5,760.5 Z"/></g>
<g><path style="opacity:0.004" fill="#474a45" d="M 473.5,767.5 C 474.833,768.167 474.833,768.167 473.5,767.5 Z"/></g>
<g><path style="opacity:0.004" fill="#464644" d="M 472.5,779.5 C 473.833,780.167 473.833,780.167 472.5,779.5 Z"/></g>
<g><path style="opacity:0.004" fill="#42423f" d="M 472.5,782.5 C 473.833,783.167 473.833,783.167 472.5,782.5 Z"/></g>
<g><path style="opacity:0.004" fill="#474745" d="M 472.5,792.5 C 471.833,791.167 471.833,791.167 472.5,792.5 Z"/></g>
<g><path style="opacity:0.004" fill="#444643" d="M 601.5,808.5 C 602.833,809.167 602.833,809.167 601.5,808.5 Z"/></g>
<g><path style="opacity:0.004" fill="#434341" d="M 604.5,819.5 C 605.525,819.897 605.692,820.563 605,821.5C 604.536,820.906 604.369,820.239 604.5,819.5 Z"/></g>
<g><path style="opacity:0.012" fill="#464441" d="M 463.5,823.5 C 464.833,824.167 464.833,824.167 463.5,823.5 Z"/></g>
<g><path style="opacity:0.004" fill="#41403e" d="M 608.5,832.5 C 609.833,833.167 609.833,833.167 608.5,832.5 Z"/></g>
<g><path style="opacity:0.004" fill="#434342" d="M 460.5,834.5 C 459.833,833.167 459.833,833.167 460.5,834.5 Z"/></g>
<g><path style="opacity:0.006" fill="#444341" d="M 618.5,848.5 C 619.525,848.897 619.692,849.563 619,850.5C 618.536,849.906 618.369,849.239 618.5,848.5 Z"/></g>
<g><path style="opacity:0.008" fill="#424340" d="M 449.5,851.5 C 448.833,850.167 448.833,850.167 449.5,851.5 Z"/></g>
<g><path style="opacity:0.008" fill="#41423e" d="M 620.5,852.5 C 621.833,853.167 621.833,853.167 620.5,852.5 Z"/></g>
<g><path style="opacity:0.004" fill="#444542" d="M 628.5,859.5 C 629.833,860.167 629.833,860.167 628.5,859.5 Z"/></g>
<g><path style="opacity:0.004" fill="#464846" d="M 423.5,864.5 C 424.833,865.167 424.833,865.167 423.5,864.5 Z"/></g>
<g><path style="opacity:0.004" fill="#444743" d="M 430.5,864.5 C 431.833,865.167 431.833,865.167 430.5,864.5 Z"/></g>
<g><path style="opacity:0.008" fill="#41403d" d="M 645.5,872.5 C 645.897,871.475 646.563,871.308 647.5,872C 646.906,872.464 646.239,872.631 645.5,872.5 Z"/></g>
<g><path style="opacity:0.012" fill="#464644" d="M 416.5,872.5 C 417.833,873.167 417.833,873.167 416.5,872.5 Z"/></g>
<g><path style="opacity:0.012" fill="#434642" d="M 654.5,874.5 C 655.833,875.167 655.833,875.167 654.5,874.5 Z"/></g>
<g><path style="opacity:0.004" fill="#494745" d="M 408.5,875.5 C 409.833,876.167 409.833,876.167 408.5,875.5 Z"/></g>
<g><path style="opacity:0.004" fill="#484742" d="M 397.5,879.5 C 398.833,880.167 398.833,880.167 397.5,879.5 Z"/></g>
<g><path style="opacity:0.008" fill="#494a49" d="M 391.5,880.5 C 392.833,881.167 392.833,881.167 391.5,880.5 Z"/></g>
<g><path style="opacity:0.004" fill="#464745" d="M 674.5,880.5 C 675.833,881.167 675.833,881.167 674.5,880.5 Z"/></g>
<g><path style="opacity:0.004" fill="#484845" d="M 677.5,881.5 C 678.833,882.167 678.833,882.167 677.5,881.5 Z"/></g>
<g><path style="opacity:0.008" fill="#4c4c49" d="M 383.5,883.5 C 384.251,882.427 385.251,882.26 386.5,883C 385.552,883.483 384.552,883.649 383.5,883.5 Z"/></g>
<g><path style="opacity:0.994" fill="#222222" d="M 653.5,876.5 C 657.68,877.726 661.846,879.06 666,880.5C 667.789,879.591 669.623,879.424 671.5,880C 670.5,880.333 669.5,880.667 668.5,881C 673.956,882.527 679.289,884.027 684.5,885.5C 680.062,886.396 675.728,886.396 671.5,885.5C 670.088,884.194 668.421,883.36 666.5,883C 666.833,882.667 667.167,882.333 667.5,882C 665.623,881.424 663.789,881.591 662,882.5C 660.968,880.855 659.801,880.522 658.5,881.5C 656.78,879.869 654.78,878.703 652.5,878C 653.056,877.617 653.389,877.117 653.5,876.5 Z"/></g>
<g><path style="opacity:0.012" fill="#4b4b48" d="M 681.5,882.5 C 682.833,883.167 682.833,883.167 681.5,882.5 Z"/></g>
<g><path style="opacity:0.98" fill="#393939" d="M 394.5,882.5 C 391.237,884.568 387.57,885.568 383.5,885.5C 386.937,884.055 390.603,883.055 394.5,882.5 Z"/></g>
<g><path style="opacity:0.004" fill="#4e4f50" d="M 699.5,894.5 C 700.833,895.167 700.833,895.167 699.5,894.5 Z"/></g>
<g><path style="opacity:0.004" fill="#5b5c5b" d="M 348.5,896.5 C 349.833,897.167 349.833,897.167 348.5,896.5 Z"/></g>
<g><path style="opacity:0.004" fill="#535251" d="M 700.5,896.5 C 701.833,897.167 701.833,897.167 700.5,896.5 Z"/></g>
<g><path style="opacity:0.996" fill="#111111" d="M 539.5,899.5 C 526.403,899.556 513.403,899.556 500.5,899.5C 490.652,899.173 480.986,899.506 471.5,900.5C 463.5,901.167 455.5,901.833 447.5,902.5C 446.833,901.167 446.167,901.167 445.5,902.5C 440.5,902.5 435.5,902.5 430.5,902.5C 425.5,902.5 420.5,902.5 415.5,902.5C 422.95,901.031 430.617,900.197 438.5,900C 489.483,897.169 540.483,896.836 591.5,899C 574.17,899.5 556.837,899.667 539.5,899.5 Z"/></g>
<g><path style="opacity:0.639" fill="#4e4e4d" d="M 471.5,900.5 C 480.986,899.506 490.652,899.173 500.5,899.5C 491.833,900.167 483.167,900.833 474.5,901.5C 473.391,901.443 472.391,901.11 471.5,900.5 Z"/></g>
<g><path style="opacity:0.008" fill="#413f3e" d="M 504.5,900.5 C 507.001,900.511 507.168,901.178 505,902.5C 504.536,901.906 504.369,901.239 504.5,900.5 Z"/></g>
<g><path style="opacity:0.008" fill="#403e3c" d="M 511.5,901.5 C 511.897,900.475 512.563,900.308 513.5,901C 512.906,901.464 512.239,901.631 511.5,901.5 Z"/></g>
<g><path style="opacity:0.004" fill="#413f3c" d="M 520.5,900.5 C 521.833,901.167 521.833,901.167 520.5,900.5 Z"/></g>
<g><path style="opacity:0.004" fill="#454341" d="M 474.5,901.5 C 475.873,901.343 477.207,901.51 478.5,902C 477.119,903.534 475.786,903.368 474.5,901.5 Z"/></g>
<g><path style="opacity:0.008" fill="#444241" d="M 479.5,902.5 C 479.897,901.475 480.563,901.308 481.5,902C 480.906,902.464 480.239,902.631 479.5,902.5 Z"/></g>
<g><path style="opacity:0.004" fill="#444341" d="M 482.5,902.5 C 483.601,901.402 484.934,901.235 486.5,902C 485.207,902.49 483.873,902.657 482.5,902.5 Z"/></g>
<g><path style="opacity:0.01" fill="#464544" d="M 487.5,902.5 C 489.628,901.371 491.961,901.204 494.5,902C 492.19,902.497 489.857,902.663 487.5,902.5 Z"/></g>
<g><path style="opacity:0.008" fill="#454442" d="M 507.5,901.5 C 508.833,902.167 508.833,902.167 507.5,901.5 Z"/></g>
<g><path style="opacity:0.004" fill="#414240" d="M 523.5,901.5 C 524.833,902.167 524.833,902.167 523.5,901.5 Z"/></g>
<g><path style="opacity:0.004" fill="#444542" d="M 531.5,901.5 C 532.833,902.167 532.833,902.167 531.5,901.5 Z"/></g>
<g><path style="opacity:0.004" fill="#444542" d="M 533.5,901.5 C 534.833,902.167 534.833,902.167 533.5,901.5 Z"/></g>
<g><path style="opacity:0.004" fill="#444442" d="M 541.5,901.5 C 542.833,902.167 542.833,902.167 541.5,901.5 Z"/></g>
<g><path style="opacity:0.008" fill="#434340" d="M 544.5,901.5 C 545.833,902.167 545.833,902.167 544.5,901.5 Z"/></g>
<g><path style="opacity:0.005" fill="#444342" d="M 546.5,902.5 C 547.251,901.427 548.251,901.26 549.5,902C 548.552,902.483 547.552,902.649 546.5,902.5 Z"/></g>
<g><path style="opacity:0.004" fill="#434443" d="M 554.5,901.5 C 555.833,902.167 555.833,902.167 554.5,901.5 Z"/></g>
<g><path style="opacity:0.008" fill="#42433e" d="M 559.5,901.5 C 560.833,902.167 560.833,902.167 559.5,901.5 Z"/></g>
<g><path style="opacity:0.012" fill="#43423f" d="M 562.5,902.5 C 562.897,901.475 563.563,901.308 564.5,902C 563.906,902.464 563.239,902.631 562.5,902.5 Z"/></g>
<g><path style="opacity:0.008" fill="#434240" d="M 565.5,901.5 C 566.833,902.167 566.833,902.167 565.5,901.5 Z"/></g>
<g><path style="opacity:0.004" fill="#434340" d="M 567.5,901.5 C 568.833,902.167 568.833,902.167 567.5,901.5 Z"/></g>
<g><path style="opacity:0.004" fill="#434141" d="M 570.5,901.5 C 571.833,902.167 571.833,902.167 570.5,901.5 Z"/></g>
<g><path style="opacity:0.004" fill="#424040" d="M 573.5,901.5 C 574.833,902.167 574.833,902.167 573.5,901.5 Z"/></g>
<g><path style="opacity:0.008" fill="#444240" d="M 578.5,902.5 C 578.897,901.475 579.563,901.308 580.5,902C 579.906,902.464 579.239,902.631 578.5,902.5 Z"/></g>
<g><path style="opacity:0.231" fill="#5c5b59" d="M 610.5,901.5 C 615.032,901.182 619.366,901.515 623.5,902.5C 618.781,903.52 614.448,903.186 610.5,901.5 Z"/></g>
<g><path style="opacity:0.388" fill="#575655" d="M 415.5,902.5 C 420.5,902.5 425.5,902.5 430.5,902.5C 422.356,903.678 414.022,904.345 405.5,904.5C 408.833,903.833 412.167,903.167 415.5,902.5 Z"/></g>
<g><path style="opacity:0.006" fill="#43413f" d="M 445.5,902.5 C 446.167,902.5 446.833,902.5 447.5,902.5C 446.833,903.833 446.167,903.833 445.5,902.5 Z"/></g>
<g><path style="opacity:0.004" fill="#484543" d="M 453.5,903.5 C 453.897,902.475 454.563,902.308 455.5,903C 454.906,903.464 454.239,903.631 453.5,903.5 Z"/></g>
<g><path style="opacity:0.004" fill="#474642" d="M 460.5,902.5 C 461.833,903.167 461.833,903.167 460.5,902.5 Z"/></g>
<g><path style="opacity:0.008" fill="#444342" d="M 468.5,902.5 C 469.833,903.167 469.833,903.167 468.5,902.5 Z"/></g>
<g><path style="opacity:0.004" fill="#40413f" d="M 588.5,902.5 C 589.833,903.167 589.833,903.167 588.5,902.5 Z"/></g>
<g><path style="opacity:0.012" fill="#454341" d="M 595.5,903.5 C 596.601,902.402 597.934,902.235 599.5,903C 598.207,903.49 596.873,903.657 595.5,903.5 Z"/></g>
<g><path style="opacity:0.008" fill="#413e3c" d="M 600.5,903.5 C 601.251,902.427 602.251,902.26 603.5,903C 602.552,903.483 601.552,903.649 600.5,903.5 Z"/></g>
<g><path style="opacity:0.008" fill="#3f3e3a" d="M 604.5,903.5 C 604.897,902.475 605.563,902.308 606.5,903C 605.906,903.464 605.239,903.631 604.5,903.5 Z"/></g>
<g><path style="opacity:0.006" fill="#42403e" d="M 607.5,903.5 C 607.897,902.475 608.563,902.308 609.5,903C 608.906,903.464 608.239,903.631 607.5,903.5 Z"/></g>
<g><path style="opacity:0.204" fill="#5c5b5a" d="M 403.5,904.5 C 398.04,905.737 392.373,906.404 386.5,906.5C 391.929,904.988 397.596,904.321 403.5,904.5 Z"/></g>
<g><path style="opacity:0.004" fill="#484947" d="M 406.5,905.5 C 407.833,906.167 407.833,906.167 406.5,905.5 Z"/></g>
<g><path style="opacity:0.008" fill="#585755" d="M 353.5,906.5 C 352.833,907.167 352.833,907.167 353.5,906.5 Z"/></g>
<g><path style="opacity:0.004" fill="#4a4947" d="M 397.5,907.5 C 397.897,906.475 398.563,906.308 399.5,907C 398.906,907.464 398.239,907.631 397.5,907.5 Z"/></g>
<g><path style="opacity:0.004" fill="#4a4c48" d="M 662.5,906.5 C 663.833,907.167 663.833,907.167 662.5,906.5 Z"/></g>
<g><path style="opacity:0.004" fill="#484a48" d="M 665.5,906.5 C 666.833,907.167 666.833,907.167 665.5,906.5 Z"/></g>
<g><path style="opacity:0.004" fill="#4c4e4b" d="M 388.5,907.5 C 389.833,908.167 389.833,908.167 388.5,907.5 Z"/></g>
<g><path style="opacity:0.004" fill="#4d4d49" d="M 675.5,907.5 C 676.833,908.167 676.833,908.167 675.5,907.5 Z"/></g>
<g><path style="opacity:0.004" fill="#565655" d="M 354.5,908.5 C 355.833,909.167 355.833,909.167 354.5,908.5 Z"/></g>
<g><path style="opacity:0.004" fill="#4d4d4a" d="M 377.5,908.5 C 378.833,909.167 378.833,909.167 377.5,908.5 Z"/></g>
<g><path style="opacity:0.008" fill="#545351" d="M 357.5,909.5 C 358.833,910.167 358.833,910.167 357.5,909.5 Z"/></g>
<g><path style="opacity:0.004" fill="#646664" d="M 307.5,933.5 C 308.833,934.167 308.833,934.167 307.5,933.5 Z"/></g>
</svg>
