<?xml version="1.0" encoding="UTF-8"?>
<!DOCTYPE svg PUBLIC "-//W3C//DTD SVG 1.1//EN" "http://www.w3.org/Graphics/SVG/1.1/DTD/svg11.dtd">
<svg xmlns="http://www.w3.org/2000/svg" version="1.1" width="1024px" height="1024px" style="shape-rendering:geometricPrecision; text-rendering:geometricPrecision; image-rendering:optimizeQuality; fill-rule:evenodd; clip-rule:evenodd" xmlns:xlink="http://www.w3.org/1999/xlink">
<g><path style="opacity:1" fill="#fefefe" d="M -0.5,-0.5 C 340.833,-0.5 682.167,-0.5 1023.5,-0.5C 1023.5,340.833 1023.5,682.167 1023.5,1023.5C 682.167,1023.5 340.833,1023.5 -0.5,1023.5C -0.5,682.167 -0.5,340.833 -0.5,-0.5 Z"/></g>
<g><path style="opacity:1" fill="#131313" d="M 684.5,829.5 C 684.565,829.062 684.399,828.728 684,828.5C 683.293,830.081 682.46,831.581 681.5,833C 569.511,831.528 457.511,831.195 345.5,832C 315.999,832.638 286.665,833.472 257.5,834.5C 255.754,833.751 254.754,832.417 254.5,830.5C 289.254,786.897 326.088,744.897 365,704.5C 393.589,670.573 422.922,637.24 453,604.5C 493.39,558.789 530.723,510.789 565,460.5C 584.498,430.683 598.165,398.35 606,363.5C 613.015,327.927 610.015,293.261 597,259.5C 578.926,224.786 550.76,202.619 512.5,193C 474.119,182.896 437.786,187.896 403.5,208C 355.954,237.576 324.787,279.409 310,333.5C 299.446,317.65 296.112,300.317 300,281.5C 307.851,242.291 326.684,209.457 356.5,183C 423.739,127.548 499.739,110.881 584.5,133C 651.021,153.187 692.521,197.02 709,264.5C 715.728,303.489 712.061,341.489 698,378.5C 686.566,405.378 672.566,430.712 656,454.5C 630.145,489.705 601.312,522.538 569.5,553C 534.104,587.732 498.104,621.732 461.5,655C 427.405,688.758 394.405,723.425 362.5,759C 438.167,759.667 513.833,759.667 589.5,759C 640.595,757.194 678.429,734.027 703,689.5C 713.482,669.871 721.149,649.204 726,627.5C 732.922,638.196 735.255,649.863 733,662.5C 725.974,696.247 717.307,729.58 707,762.5C 700.36,785.253 692.86,807.586 684.5,829.5 Z"/></g>
<g><path style="opacity:1" fill="#0a0a0a" d="M 684.5,829.5 C 684.703,831.39 684.037,832.89 682.5,834C 674.333,834.167 666.167,834.333 658,834.5C 528.324,831.703 398.658,832.036 269,835.5C 265.085,835.467 261.251,835.133 257.5,834.5C 286.665,833.472 315.999,832.638 345.5,832C 457.511,831.195 569.511,831.528 681.5,833C 682.46,831.581 683.293,830.081 684,828.5C 684.399,828.728 684.565,829.062 684.5,829.5 Z"/></g>
</svg>
