<?xml version="1.0" encoding="UTF-8"?>
<!DOCTYPE svg PUBLIC "-//W3C//DTD SVG 1.1//EN" "http://www.w3.org/Graphics/SVG/1.1/DTD/svg11.dtd">
<svg xmlns="http://www.w3.org/2000/svg" version="1.1" width="1024px" height="1024px" style="shape-rendering:geometricPrecision; text-rendering:geometricPrecision; image-rendering:optimizeQuality; fill-rule:evenodd; clip-rule:evenodd" xmlns:xlink="http://www.w3.org/1999/xlink">
<g><path style="opacity:1" fill="#fefefe" d="M -0.5,-0.5 C 340.833,-0.5 682.167,-0.5 1023.5,-0.5C 1023.5,340.833 1023.5,682.167 1023.5,1023.5C 682.167,1023.5 340.833,1023.5 -0.5,1023.5C -0.5,682.167 -0.5,340.833 -0.5,-0.5 Z"/></g>
<g><path style="opacity:1" fill="#111111" d="M 386.5,142.5 C 484.81,146.13 583.143,146.464 681.5,143.5C 686.833,143.667 692.167,143.833 697.5,144C 703.075,144.894 705.575,148.061 705,153.5C 704.275,155.949 703.275,158.283 702,160.5C 649.037,220.465 595.704,280.131 542,339.5C 531.455,351.71 521.288,364.21 511.5,377C 580.557,374.551 637.391,399.384 682,451.5C 717.22,499.035 731.22,552.368 724,611.5C 716.412,664.848 692.912,709.682 653.5,746C 607.444,786.927 553.444,809.594 491.5,814C 431.171,819.503 376.171,805.169 326.5,771C 310.075,758.243 296.908,742.743 287,724.5C 273.805,697.026 276.138,671.026 294,646.5C 306.582,630.581 322.082,618.414 340.5,610C 346.735,607.116 350.401,608.95 351.5,615.5C 348.395,637.935 348.895,660.268 353,682.5C 367.561,732.73 400.395,763.23 451.5,774C 502.288,779.35 544.455,762.85 578,724.5C 605.429,691.949 620.429,654.282 623,611.5C 628.621,566.608 620.288,524.608 598,485.5C 577.819,453.473 548.985,433.973 511.5,427C 489.957,424.202 468.623,425.202 447.5,430C 438.392,432.869 429.392,436.036 420.5,439.5C 414.189,437.879 411.689,433.879 413,427.5C 451.627,382.537 490.627,337.871 530,293.5C 550.688,268.979 571.188,244.313 591.5,219.5C 586.868,218.672 582.202,218.172 577.5,218C 533.833,217.333 490.167,217.333 446.5,218C 409.238,220.71 379.405,236.877 357,266.5C 351.161,275.508 345.828,284.841 341,294.5C 337.51,298.047 333.343,299.214 328.5,298C 326.131,295.062 325.964,291.896 328,288.5C 347.502,242.996 364.835,196.663 380,149.5C 381.694,146.642 383.861,144.309 386.5,142.5 Z"/></g>
</svg>
