<?xml version="1.0" encoding="UTF-8"?>
<!DOCTYPE svg PUBLIC "-//W3C//DTD SVG 1.1//EN" "http://www.w3.org/Graphics/SVG/1.1/DTD/svg11.dtd">
<svg xmlns="http://www.w3.org/2000/svg" version="1.1" width="1024px" height="1024px" style="shape-rendering:geometricPrecision; text-rendering:geometricPrecision; image-rendering:optimizeQuality; fill-rule:evenodd; clip-rule:evenodd" xmlns:xlink="http://www.w3.org/1999/xlink">
<g><path style="opacity:0.991" fill="#171717" d="M 706.5,139.5 C 705.395,138.4 704.062,137.733 702.5,137.5C 644.664,137.168 586.998,137.501 529.5,138.5C 528.833,138.5 528.167,138.5 527.5,138.5C 527.36,136.876 528.027,135.71 529.5,135C 585.144,134.534 640.644,134.367 696,134.5C 699.888,134.594 703.721,135.094 707.5,136C 706.663,137.011 706.33,138.178 706.5,139.5 Z"/></g>
<g><path style="opacity:0.008" fill="#383536" d="M 708.5,136.5 C 709.833,137.167 709.833,137.167 708.5,136.5 Z"/></g>
<g><path style="opacity:0.988" fill="#1f1f20" d="M 702.5,137.5 C 645.098,138.169 587.598,138.835 530,139.5C 529.601,139.272 529.435,138.938 529.5,138.5C 586.998,137.501 644.664,137.168 702.5,137.5 Z"/></g>
<g><path style="opacity:0.998" fill="#151616" d="M 702.5,137.5 C 704.062,137.733 705.395,138.4 706.5,139.5C 706.489,141.017 705.823,142.184 704.5,143C 700.42,145.029 696.754,147.529 693.5,150.5C 690.55,152.115 687.884,154.115 685.5,156.5C 684.5,156.833 683.833,157.5 683.5,158.5C 667.291,174.234 655.625,192.901 648.5,214.5C 648.649,213.448 648.483,212.448 648,211.5C 644.264,221.846 641.931,232.513 641,243.5C 640.333,347.5 640.333,451.5 641,555.5C 641.383,554.944 641.883,554.611 642.5,554.5C 642.5,554.833 642.5,555.167 642.5,555.5C 659.893,558.332 677.226,556.832 694.5,551C 693.552,550.517 692.552,550.351 691.5,550.5C 709.985,544.334 725.818,534 739,519.5C 739.464,518.906 739.631,518.239 739.5,517.5C 742.471,515.557 744.471,512.891 745.5,509.5C 752.313,500.878 757.313,491.211 760.5,480.5C 762.456,475.623 764.789,470.956 767.5,466.5C 769.451,465.359 771.451,465.359 773.5,466.5C 774.434,467.568 774.768,468.901 774.5,470.5C 774.5,471.167 774.167,471.5 773.5,471.5C 770.211,494.806 767.044,520.806 764,549.5C 763.192,553.027 763.359,556.36 764.5,559.5C 764.058,567.376 763.058,575.043 761.5,582.5C 761.662,580.473 761.495,578.473 761,576.5C 757.868,599.724 754.702,622.891 751.5,646C 752.044,646.717 752.711,647.217 753.5,647.5C 753.938,647.435 754.272,647.601 754.5,648C 754.301,651.322 752.635,653.489 749.5,654.5C 745.608,649.347 741.274,644.68 736.5,640.5C 735.189,637.189 732.855,634.855 729.5,633.5C 728.415,631.413 726.749,630.08 724.5,629.5C 723.564,628.026 722.23,627.026 720.5,626.5C 709.977,619.375 698.311,614.875 685.5,613C 671.211,611.609 656.878,611.109 642.5,611.5C 654.66,610.669 666.993,610.169 679.5,610C 667.543,608.468 655.543,608.135 643.5,609C 642.263,609.232 641.263,609.732 640.5,610.5C 639.335,662.998 639.168,715.665 640,768.5C 640.112,771.634 640.612,773.967 641.5,775.5C 642.789,782.835 644.622,790.168 647,797.5C 647.49,796.207 647.657,794.873 647.5,793.5C 649.302,798.237 651.302,802.904 653.5,807.5C 655.924,814.027 659.591,819.693 664.5,824.5C 666.58,828.086 669.246,831.253 672.5,834C 677.167,837.333 681.833,840.667 686.5,844C 696.842,849.005 707.509,853.171 718.5,856.5C 721.106,858.579 721.106,860.579 718.5,862.5C 718.672,861.508 718.338,860.842 717.5,860.5C 717.631,859.761 717.464,859.094 717,858.5C 674.878,859.831 632.545,860.497 590,860.5C 547.833,860.333 505.667,860.167 463.5,860C 462.167,859.333 462.167,858.667 463.5,858C 460.678,857.572 458.012,858.072 455.5,859.5C 455.511,857.983 456.177,856.816 457.5,856C 468.872,852.988 479.872,848.988 490.5,844C 496.294,840.691 501.627,836.858 506.5,832.5C 523.217,818.09 534.217,800.09 539.5,778.5C 539.343,779.873 539.51,781.207 540,782.5C 542.082,776.345 543.416,770.012 544,763.5C 544.5,711.834 544.667,660.168 544.5,608.5C 442.5,608.5 340.5,608.5 238.5,608.5C 237.414,608.38 236.747,607.713 236.5,606.5C 235.178,602.21 234.011,597.877 233,593.5C 232.505,595.473 232.338,597.473 232.5,599.5C 230.421,594.127 229.088,588.461 228.5,582.5C 228.768,580.901 228.434,579.568 227.5,578.5C 227.5,577.833 227.167,577.5 226.5,577.5C 226.058,572.564 225.058,567.731 223.5,563C 249.784,532.561 275.45,501.728 300.5,470.5C 304.845,466.153 308.845,461.486 312.5,456.5C 316.647,452.205 320.313,447.538 323.5,442.5C 326.219,440.781 328.219,438.447 329.5,435.5C 332.54,432.461 335.206,429.127 337.5,425.5C 340.295,423.249 342.628,420.582 344.5,417.5C 345.167,417.5 345.5,417.167 345.5,416.5C 346.167,416.5 346.5,416.167 346.5,415.5C 354.215,406.454 361.548,397.12 368.5,387.5C 383.881,369.08 398.548,350.08 412.5,330.5C 414.218,328.777 415.551,326.777 416.5,324.5C 425.99,313.674 434.324,302.007 441.5,289.5C 442.167,289.5 442.5,289.167 442.5,288.5C 444.326,286.853 445.66,284.853 446.5,282.5C 458.659,265.629 469.992,247.629 480.5,228.5C 480.833,228.5 481.167,228.5 481.5,228.5C 482.338,228.158 482.672,227.492 482.5,226.5C 483.441,224.95 484.107,223.284 484.5,221.5C 489.255,214.996 493.255,207.996 496.5,200.5C 502.929,189.978 508.595,178.978 513.5,167.5C 514.601,166.152 515.601,164.652 516.5,163C 515.833,162.667 515.167,162.333 514.5,162C 515.624,161.751 516.624,161.251 517.5,160.5C 518.513,157.812 519.513,155.146 520.5,152.5C 522.833,147.833 525.167,143.167 527.5,138.5C 528.167,138.5 528.833,138.5 529.5,138.5C 529.435,138.938 529.601,139.272 530,139.5C 587.598,138.835 645.098,138.169 702.5,137.5 Z M 541.5,242.5 C 543.078,244.375 542.745,245.708 540.5,246.5C 540.5,245.833 540.167,245.5 539.5,245.5C 539.427,243.973 540.094,242.973 541.5,242.5 Z M 539.5,245.5 C 540.167,245.5 540.5,245.833 540.5,246.5C 542.494,349.289 543.161,452.289 542.5,555.5C 462.833,555.5 383.167,555.5 303.5,555.5C 302.737,554.732 301.737,554.232 300.5,554C 303.698,549.974 307.032,546.141 310.5,542.5C 320.817,528.854 331.484,515.52 342.5,502.5C 348.937,493.945 355.604,485.612 362.5,477.5C 366.271,472.278 370.271,467.278 374.5,462.5C 380.437,453.565 387.104,445.232 394.5,437.5C 397.411,432.254 401.078,427.587 405.5,423.5C 407.738,418.929 410.738,414.929 414.5,411.5C 416.482,408.19 418.815,405.19 421.5,402.5C 423.817,398.854 426.484,395.52 429.5,392.5C 431.441,389.155 434.107,385.822 437.5,382.5C 440.016,378.134 443.016,374.134 446.5,370.5C 453.786,359.586 461.786,349.252 470.5,339.5C 474.457,333.543 478.79,327.877 483.5,322.5C 485.738,317.929 488.738,313.929 492.5,310.5C 494.738,305.929 497.738,301.929 501.5,298.5C 503.435,294.293 506.102,290.627 509.5,287.5C 519.119,273.216 529.119,259.216 539.5,245.5 Z"/></g>
<g><path style="opacity:0.004" fill="#393638" d="M 709.5,138.5 C 710.525,138.897 710.692,139.563 710,140.5C 709.536,139.906 709.369,139.239 709.5,138.5 Z"/></g>
<g><path style="opacity:0.004" fill="#383638" d="M 707.5,141.5 C 708.525,141.897 708.692,142.563 708,143.5C 707.536,142.906 707.369,142.239 707.5,141.5 Z"/></g>
<g><path style="opacity:0.008" fill="#3a3737" d="M 693.5,150.5 C 694.239,150.369 694.906,150.536 695.5,151C 694.563,151.692 693.897,151.525 693.5,150.5 Z"/></g>
<g><path style="opacity:0.012" fill="#363838" d="M 520.5,152.5 C 519.833,151.167 519.833,151.167 520.5,152.5 Z"/></g>
<g><path style="opacity:0.004" fill="#3b3b3a" d="M 685.5,156.5 C 685.869,158.993 685.203,159.66 683.5,158.5C 683.833,157.5 684.5,156.833 685.5,156.5 Z"/></g>
<g><path style="opacity:0.004" fill="#363736" d="M 513.5,167.5 C 513.167,167.5 512.833,167.5 512.5,167.5C 512.833,164.833 513.167,164.833 513.5,167.5 Z"/></g>
<g><path style="opacity:0.012" fill="#363533" d="M 512.5,167.5 C 511.833,168.167 511.833,168.167 512.5,167.5 Z"/></g>
<g><path style="opacity:0.02" fill="#333334" d="M 496.5,200.5 C 495.833,199.167 495.833,199.167 496.5,200.5 Z"/></g>
<g><path style="opacity:0.004" fill="#302f31" d="M 654.5,201.5 C 655.833,202.167 655.833,202.167 654.5,201.5 Z"/></g>
<g><path style="opacity:0.004" fill="#373737" d="M 491.5,205.5 C 492.833,206.167 492.833,206.167 491.5,205.5 Z"/></g>
<g><path style="opacity:0.004" fill="#313130" d="M 651.5,209.5 C 652.833,210.167 652.833,210.167 651.5,209.5 Z"/></g>
<g><path style="opacity:0.004" fill="#363636" d="M 488.5,211.5 C 489.833,212.167 489.833,212.167 488.5,211.5 Z"/></g>
<g><path style="opacity:0.988" fill="#0d0d0d" d="M 648.5,214.5 C 645.409,226.633 643.576,238.966 643,251.5C 642.5,352.166 642.333,452.833 642.5,553.5C 642.5,553.833 642.5,554.167 642.5,554.5C 641.883,554.611 641.383,554.944 641,555.5C 640.333,451.5 640.333,347.5 641,243.5C 641.931,232.513 644.264,221.846 648,211.5C 648.483,212.448 648.649,213.448 648.5,214.5 Z"/></g>
<g><path style="opacity:0.008" fill="#363634" d="M 484.5,221.5 C 483.833,220.167 483.833,220.167 484.5,221.5 Z"/></g>
<g><path style="opacity:0.007" fill="#383736" d="M 482.5,226.5 C 482.672,227.492 482.338,228.158 481.5,228.5C 481.167,227.167 480.833,227.167 480.5,228.5C 479.475,228.103 479.308,227.437 480,226.5C 480.77,225.402 481.603,225.402 482.5,226.5 Z"/></g>
<g><path style="opacity:0.008" fill="#383636" d="M 471.5,233.5 C 472.525,233.897 472.692,234.563 472,235.5C 471.536,234.906 471.369,234.239 471.5,233.5 Z"/></g>
<g><path style="opacity:0.004" fill="#363633" d="M 465.5,249.5 C 466.833,250.167 466.833,250.167 465.5,249.5 Z"/></g>
<g><path style="opacity:0.008" fill="#383836" d="M 447.5,273.5 C 448.833,274.167 448.833,274.167 447.5,273.5 Z"/></g>
<g><path style="opacity:0.004" fill="#353835" d="M 446.5,282.5 C 445.833,281.167 445.833,281.167 446.5,282.5 Z"/></g>
<g><path style="opacity:0.006" fill="#3a3839" d="M 442.5,288.5 C 441.833,288.5 441.5,288.833 441.5,289.5C 440.957,289.44 440.624,289.107 440.5,288.5C 441.257,287.227 441.923,287.227 442.5,288.5 Z"/></g>
<g><path style="opacity:0.004" fill="#373736" d="M 431.5,297.5 C 432.833,298.167 432.833,298.167 431.5,297.5 Z"/></g>
<g><path style="opacity:0.004" fill="#363736" d="M 429.5,303.5 C 430.833,304.167 430.833,304.167 429.5,303.5 Z"/></g>
<g><path style="opacity:0.004" fill="#353735" d="M 424.5,304.5 C 425.833,305.167 425.833,305.167 424.5,304.5 Z"/></g>
<g><path style="opacity:0.004" fill="#373537" d="M 427.5,305.5 C 428.833,306.167 428.833,306.167 427.5,305.5 Z"/></g>
<g><path style="opacity:0.004" fill="#393536" d="M 423.5,306.5 C 424.833,307.167 424.833,307.167 423.5,306.5 Z"/></g>
<g><path style="opacity:0.006" fill="#373637" d="M 415.5,322.5 C 415.897,321.475 416.563,321.308 417.5,322C 416.906,322.464 416.239,322.631 415.5,322.5 Z"/></g>
<g><path style="opacity:0.004" fill="#323132" d="M 483.5,322.5 C 484.363,321.537 485.03,321.537 485.5,322.5C 484.743,323.773 484.077,323.773 483.5,322.5 Z"/></g>
<g><path style="opacity:0.004" fill="#373534" d="M 416.5,324.5 C 415.833,323.167 415.833,323.167 416.5,324.5 Z"/></g>
<g><path style="opacity:0.004" fill="#343436" d="M 412.5,330.5 C 411.833,329.167 411.833,329.167 412.5,330.5 Z"/></g>
<g><path style="opacity:0.004" fill="#363733" d="M 409.5,330.5 C 410.833,331.167 410.833,331.167 409.5,330.5 Z"/></g>
<g><path style="opacity:0.006" fill="#393737" d="M 383.5,363.5 C 383.897,362.475 384.563,362.308 385.5,363C 384.906,363.464 384.239,363.631 383.5,363.5 Z"/></g>
<g><path style="opacity:0.004" fill="#353332" d="M 643.5,364.5 C 644.833,365.167 644.833,365.167 643.5,364.5 Z"/></g>
<g><path style="opacity:0.004" fill="#373835" d="M 381.5,367.5 C 382.833,368.167 382.833,368.167 381.5,367.5 Z"/></g>
<g><path style="opacity:0.004" fill="#3a3a3a" d="M 368.5,387.5 C 367.833,386.167 367.833,386.167 368.5,387.5 Z"/></g>
<g><path style="opacity:0.004" fill="#393a38" d="M 359.5,393.5 C 360.833,394.167 360.833,394.167 359.5,393.5 Z"/></g>
<g><path style="opacity:0.253" fill="#2f2f2f" d="M 543.5,238.5 C 543.5,344.167 543.5,449.833 543.5,555.5C 543.167,555.5 542.833,555.5 542.5,555.5C 543.161,452.289 542.494,349.289 540.5,246.5C 542.745,245.708 543.078,244.375 541.5,242.5C 542.833,241.833 542.833,241.167 541.5,240.5C 541.5,239.167 542.167,238.5 543.5,238.5 Z"/></g>
<g><path style="opacity:0.988" fill="#0a0b0b" d="M 543.5,238.5 C 544.117,238.611 544.617,238.944 545,239.5C 545.667,343.167 545.667,446.833 545,550.5C 544.802,552.382 544.302,554.048 543.5,555.5C 543.5,449.833 543.5,344.167 543.5,238.5 Z"/></g>
<g><path style="opacity:0.004" fill="#393737" d="M 356.5,399.5 C 357.833,400.167 357.833,400.167 356.5,399.5 Z"/></g>
<g><path style="opacity:0.004" fill="#373938" d="M 346.5,408.5 C 347.833,409.167 347.833,409.167 346.5,408.5 Z"/></g>
<g><path style="opacity:0.004" fill="#363636" d="M 344.5,409.5 C 345.833,410.167 345.833,410.167 344.5,409.5 Z"/></g>
<g><path style="opacity:0.008" fill="#3c3c3d" d="M 346.5,415.5 C 346.5,416.167 346.167,416.5 345.5,416.5C 344.833,416.5 344.5,416.833 344.5,417.5C 343.957,417.44 343.624,417.107 343.5,416.5C 344.325,415.614 345.325,415.281 346.5,415.5 Z"/></g>
<g><path style="opacity:0.008" fill="#373638" d="M 337.5,425.5 C 335.972,425.483 335.472,424.816 336,423.5C 336.717,424.044 337.217,424.711 337.5,425.5 Z"/></g>
<g><path style="opacity:0.004" fill="#353737" d="M 330.5,431.5 C 331.833,432.167 331.833,432.167 330.5,431.5 Z"/></g>
<g><path style="opacity:0.004" fill="#373838" d="M 328.5,434.5 C 327.833,433.167 327.833,433.167 328.5,434.5 Z"/></g>
<g><path style="opacity:0.004" fill="#383737" d="M 328.5,434.5 C 329.167,434.5 329.5,434.833 329.5,435.5C 329.167,435.167 328.833,434.833 328.5,434.5 Z"/></g>
<g><path style="opacity:0.008" fill="#353535" d="M 323.5,442.5 C 322.833,441.167 322.833,441.167 323.5,442.5 Z"/></g>
<g><path style="opacity:0.012" fill="#383737" d="M 316.5,448.5 C 317.833,449.167 317.833,449.167 316.5,448.5 Z"/></g>
<g><path style="opacity:0.016" fill="#38383a" d="M 312.5,456.5 C 311.833,455.167 311.833,455.167 312.5,456.5 Z"/></g>
<g><path style="opacity:0.373" fill="#474746" d="M 773.5,466.5 C 771.451,465.359 769.451,465.359 767.5,466.5C 767.791,465.351 768.624,464.684 770,464.5C 771.699,464.387 772.866,465.053 773.5,466.5 Z"/></g>
<g><path style="opacity:0.989" fill="#161515" d="M 773.5,471.5 C 773.5,474.5 773.5,477.5 773.5,480.5C 771.582,507.095 768.582,533.429 764.5,559.5C 763.359,556.36 763.192,553.027 764,549.5C 767.044,520.806 770.211,494.806 773.5,471.5 Z"/></g>
<g><path style="opacity:0.012" fill="#3a3c3a" d="M 300.5,470.5 C 299.833,469.167 299.833,469.167 300.5,470.5 Z"/></g>
<g><path style="opacity:0.116" fill="#3e3d3e" d="M 774.5,470.5 C 775.043,470.56 775.376,470.893 775.5,471.5C 774.911,474.64 774.244,477.64 773.5,480.5C 773.5,477.5 773.5,474.5 773.5,471.5C 774.167,471.5 774.5,471.167 774.5,470.5 Z"/></g>
<g><path style="opacity:0.02" fill="#38383b" d="M 760.5,480.5 C 759.833,479.167 759.833,479.167 760.5,480.5 Z"/></g>
<g><path style="opacity:0.004" fill="#363736" d="M 289.5,481.5 C 290.833,482.167 290.833,482.167 289.5,481.5 Z"/></g>
<g><path style="opacity:0.012" fill="#393736" d="M 284.5,487.5 C 285.833,488.167 285.833,488.167 284.5,487.5 Z"/></g>
<g><path style="opacity:0.008" fill="#383938" d="M 271.5,497.5 C 272.833,498.167 272.833,498.167 271.5,497.5 Z"/></g>
<g><path style="opacity:0.004" fill="#393a38" d="M 773.5,497.5 C 774.833,498.167 774.833,498.167 773.5,497.5 Z"/></g>
<g><path style="opacity:0.004" fill="#373636" d="M 745.5,509.5 C 744.833,508.167 744.833,508.167 745.5,509.5 Z"/></g>
<g><path style="opacity:0.004" fill="#353634" d="M 739.5,517.5 C 738.833,516.167 738.833,516.167 739.5,517.5 Z"/></g>
<g><path style="opacity:0.004" fill="#333333" d="M 725.5,529.5 C 726.833,530.167 726.833,530.167 725.5,529.5 Z"/></g>
<g><path style="opacity:0.008" fill="#383a39" d="M 241.5,538.5 C 242.833,539.167 242.833,539.167 241.5,538.5 Z"/></g>
<g><path style="opacity:0.004" fill="#353735" d="M 702.5,543.5 C 703.833,544.167 703.833,544.167 702.5,543.5 Z"/></g>
<g><path style="opacity:0.004" fill="#333433" d="M 700.5,544.5 C 701.833,545.167 701.833,545.167 700.5,544.5 Z"/></g>
<g><path style="opacity:0.004" fill="#343533" d="M 697.5,545.5 C 698.833,546.167 698.833,546.167 697.5,545.5 Z"/></g>
<g><path style="opacity:0.004" fill="#353334" d="M 695.5,546.5 C 696.833,547.167 696.833,547.167 695.5,546.5 Z"/></g>
<g><path style="opacity:0.008" fill="#363536" d="M 671.5,552.5 C 671.897,551.475 672.563,551.308 673.5,552C 672.906,552.464 672.239,552.631 671.5,552.5 Z"/></g>
<g><path style="opacity:0.992" fill="#141414" d="M 691.5,550.5 C 692.552,550.351 693.552,550.517 694.5,551C 677.226,556.832 659.893,558.332 642.5,555.5C 644.167,555.5 645.833,555.5 647.5,555.5C 662.314,555.222 676.981,553.556 691.5,550.5 Z"/></g>
<g><path style="opacity:0.012" fill="#333333" d="M 644.5,552.5 C 645.833,553.167 645.833,553.167 644.5,552.5 Z"/></g>
<g><path style="opacity:0.004" fill="#343633" d="M 658.5,552.5 C 659.833,553.167 659.833,553.167 658.5,552.5 Z"/></g>
<g><path style="opacity:0.004" fill="#363837" d="M 227.5,554.5 C 228.833,555.167 228.833,555.167 227.5,554.5 Z"/></g>
<g><path style="opacity:0.031" fill="#4a4a48" d="M 642.5,553.5 C 644.306,554.024 645.972,554.691 647.5,555.5C 645.833,555.5 644.167,555.5 642.5,555.5C 642.5,555.167 642.5,554.833 642.5,554.5C 642.5,554.167 642.5,553.833 642.5,553.5 Z"/></g>
<g><path style="opacity:0.987" fill="#010101" d="M 303.5,555.5 C 383.167,555.5 462.833,555.5 542.5,555.5C 542.833,556.167 543.167,556.833 543.5,557.5C 463.833,557.5 384.167,557.5 304.5,557.5C 294.712,557.606 294.379,556.939 303.5,555.5 Z"/></g>
<g><path style="opacity:0.977" fill="#1d1d1d" d="M 304.5,557.5 C 384.167,557.5 463.833,557.5 543.5,557.5C 534.315,558.217 524.982,558.884 515.5,559.5C 513.459,558.009 511.959,558.342 511,560.5C 510.667,559.833 510.333,559.167 510,558.5C 492.695,558.331 475.362,558.664 458,559.5C 406.736,558.836 355.569,558.169 304.5,557.5 Z"/></g>
<g><path style="opacity:0.006" fill="#373637" d="M 224.5,574.5 C 225.525,574.897 225.692,575.563 225,576.5C 224.536,575.906 224.369,575.239 224.5,574.5 Z"/></g>
<g><path style="opacity:0.007" fill="#343333" d="M 226.5,577.5 C 226.649,578.552 226.483,579.552 226,580.5C 225.26,579.251 225.427,578.251 226.5,577.5 Z"/></g>
<g><path style="opacity:0.004" fill="#3d3d3c" d="M 227.5,578.5 C 228.434,579.568 228.768,580.901 228.5,582.5C 227.761,582.631 227.094,582.464 226.5,582C 227.337,580.989 227.67,579.822 227.5,578.5 Z"/></g>
<g><path style="opacity:0.989" fill="#161516" d="M 761.5,582.5 C 759.576,604.299 756.909,625.965 753.5,647.5C 752.711,647.217 752.044,646.717 751.5,646C 754.702,622.891 757.868,599.724 761,576.5C 761.495,578.473 761.662,580.473 761.5,582.5 Z"/></g>
<g><path style="opacity:0.004" fill="#383737" d="M 227.5,589.5 C 228.525,589.897 228.692,590.563 228,591.5C 227.536,590.906 227.369,590.239 227.5,589.5 Z"/></g>
<g><path style="opacity:0.984" fill="#020202" d="M 238.5,608.5 C 340.167,609.167 441.833,609.833 543.5,610.5C 440.43,610.831 337.43,610.498 234.5,609.5C 233.518,606.237 232.851,602.903 232.5,599.5C 232.338,597.473 232.505,595.473 233,593.5C 234.011,597.877 235.178,602.21 236.5,606.5C 236.747,607.713 237.414,608.38 238.5,608.5 Z"/></g>
<g><path style="opacity:0.008" fill="#363735" d="M 231.5,609.5 C 231.897,608.475 232.563,608.308 233.5,609C 232.906,609.464 232.239,609.631 231.5,609.5 Z"/></g>
<g><path style="opacity:0.953" fill="#0a0a0b" d="M 238.5,608.5 C 340.5,608.5 442.5,608.5 544.5,608.5C 544.667,660.168 544.5,711.834 544,763.5C 543.416,770.012 542.082,776.345 540,782.5C 539.51,781.207 539.343,779.873 539.5,778.5C 540.719,769.527 541.719,760.527 542.5,751.5C 543.499,704.67 543.832,657.67 543.5,610.5C 441.833,609.833 340.167,609.167 238.5,608.5 Z"/></g>
<g><path style="opacity:0.231" fill="#3a3938" d="M 234.5,609.5 C 337.43,610.498 440.43,610.831 543.5,610.5C 543.832,657.67 543.499,704.67 542.5,751.5C 542.5,704.833 542.5,658.167 542.5,611.5C 439.495,612.164 336.828,611.498 234.5,609.5 Z"/></g>
<g><path style="opacity:0.983" fill="#090909" d="M 642.5,611.5 C 642.333,660.168 642.5,708.834 643,757.5C 643.442,769.649 644.942,781.649 647.5,793.5C 647.657,794.873 647.49,796.207 647,797.5C 644.622,790.168 642.789,782.835 641.5,775.5C 640.557,720.509 640.224,665.509 640.5,610.5C 641.263,609.732 642.263,609.232 643.5,609C 655.543,608.135 667.543,608.468 679.5,610C 666.993,610.169 654.66,610.669 642.5,611.5 Z"/></g>
<g><path style="opacity:0.004" fill="#373938" d="M 236.5,612.5 C 237.833,613.167 237.833,613.167 236.5,612.5 Z"/></g>
<g><path style="opacity:0.004" fill="#373736" d="M 256.5,613.5 C 256.897,612.475 257.563,612.308 258.5,613C 257.906,613.464 257.239,613.631 256.5,613.5 Z"/></g>
<g><path style="opacity:0.004" fill="#373736" d="M 264.5,612.5 C 265.833,613.167 265.833,613.167 264.5,612.5 Z"/></g>
<g><path style="opacity:0.004" fill="#373533" d="M 286.5,612.5 C 287.833,613.167 287.833,613.167 286.5,612.5 Z"/></g>
<g><path style="opacity:0.005" fill="#353233" d="M 296.5,613.5 C 297.251,612.427 298.251,612.26 299.5,613C 298.552,613.483 297.552,613.649 296.5,613.5 Z"/></g>
<g><path style="opacity:0.004" fill="#353431" d="M 320.5,612.5 C 321.833,613.167 321.833,613.167 320.5,612.5 Z"/></g>
<g><path style="opacity:0.004" fill="#353531" d="M 327.5,613.5 C 327.897,612.475 328.563,612.308 329.5,613C 328.906,613.464 328.239,613.631 327.5,613.5 Z"/></g>
<g><path style="opacity:0.004" fill="#363432" d="M 336.5,612.5 C 337.833,613.167 337.833,613.167 336.5,612.5 Z"/></g>
<g><path style="opacity:0.004" fill="#343533" d="M 340.5,612.5 C 341.833,613.167 341.833,613.167 340.5,612.5 Z"/></g>
<g><path style="opacity:0.004" fill="#363535" d="M 342.5,612.5 C 343.833,613.167 343.833,613.167 342.5,612.5 Z"/></g>
<g><path style="opacity:0.004" fill="#343432" d="M 344.5,612.5 C 345.833,613.167 345.833,613.167 344.5,612.5 Z"/></g>
<g><path style="opacity:0.004" fill="#353433" d="M 346.5,612.5 C 347.833,613.167 347.833,613.167 346.5,612.5 Z"/></g>
<g><path style="opacity:0.006" fill="#373534" d="M 375.5,613.5 C 375.897,612.475 376.563,612.308 377.5,613C 376.906,613.464 376.239,613.631 375.5,613.5 Z"/></g>
<g><path style="opacity:0.004" fill="#373534" d="M 383.5,613.5 C 383.897,612.475 384.563,612.308 385.5,613C 384.906,613.464 384.239,613.631 383.5,613.5 Z"/></g>
<g><path style="opacity:0.004" fill="#393736" d="M 431.5,613.5 C 432.251,612.427 433.251,612.26 434.5,613C 433.552,613.483 432.552,613.649 431.5,613.5 Z"/></g>
<g><path style="opacity:0.004" fill="#393736" d="M 440.5,612.5 C 441.833,613.167 441.833,613.167 440.5,612.5 Z"/></g>
<g><path style="opacity:0.004" fill="#3a3838" d="M 446.5,612.5 C 447.833,613.167 447.833,613.167 446.5,612.5 Z"/></g>
<g><path style="opacity:0.004" fill="#383837" d="M 448.5,612.5 C 449.833,613.167 449.833,613.167 448.5,612.5 Z"/></g>
<g><path style="opacity:0.004" fill="#373835" d="M 456.5,612.5 C 457.833,613.167 457.833,613.167 456.5,612.5 Z"/></g>
<g><path style="opacity:0.008" fill="#393836" d="M 464.5,612.5 C 465.833,613.167 465.833,613.167 464.5,612.5 Z"/></g>
<g><path style="opacity:0.004" fill="#3a3837" d="M 479.5,613.5 C 480.251,612.427 481.251,612.26 482.5,613C 481.552,613.483 480.552,613.649 479.5,613.5 Z"/></g>
<g><path style="opacity:0.004" fill="#373636" d="M 497.5,612.5 C 498.833,613.167 498.833,613.167 497.5,612.5 Z"/></g>
<g><path style="opacity:0.01" fill="#353432" d="M 535.5,613.5 C 535.897,612.475 536.563,612.308 537.5,613C 536.906,613.464 536.239,613.631 535.5,613.5 Z"/></g>
<g><path style="opacity:0.008" fill="#343532" d="M 538.5,612.5 C 539.833,613.167 539.833,613.167 538.5,612.5 Z"/></g>
<g><path style="opacity:0.012" fill="#333433" d="M 540.5,612.5 C 541.833,613.167 541.833,613.167 540.5,612.5 Z"/></g>
<g><path style="opacity:0.008" fill="#333330" d="M 644.5,612.5 C 645.833,613.167 645.833,613.167 644.5,612.5 Z"/></g>
<g><path style="opacity:0.008" fill="#353433" d="M 671.5,613.5 C 671.897,612.475 672.563,612.308 673.5,613C 672.906,613.464 672.239,613.631 671.5,613.5 Z"/></g>
<g><path style="opacity:0.004" fill="#363635" d="M 307.5,613.5 C 308.833,614.167 308.833,614.167 307.5,613.5 Z"/></g>
<g><path style="opacity:0.004" fill="#373635" d="M 679.5,614.5 C 679.897,613.475 680.563,613.308 681.5,614C 680.906,614.464 680.239,614.631 679.5,614.5 Z"/></g>
<g><path style="opacity:0.012" fill="#353433" d="M 682.5,613.5 C 683.833,614.167 683.833,614.167 682.5,613.5 Z"/></g>
<g><path style="opacity:0.016" fill="#343332" d="M 704.5,619.5 C 705.833,620.167 705.833,620.167 704.5,619.5 Z"/></g>
<g><path style="opacity:0.008" fill="#353432" d="M 706.5,620.5 C 707.833,621.167 707.833,621.167 706.5,620.5 Z"/></g>
<g><path style="opacity:0.004" fill="#323432" d="M 708.5,621.5 C 709.833,622.167 709.833,622.167 708.5,621.5 Z"/></g>
<g><path style="opacity:0.012" fill="#363432" d="M 720.5,626.5 C 719.833,627.167 719.833,627.167 720.5,626.5 Z"/></g>
<g><path style="opacity:0.008" fill="#363536" d="M 757.5,627.5 C 758.833,628.167 758.833,628.167 757.5,627.5 Z"/></g>
<g><path style="opacity:0.012" fill="#333432" d="M 724.5,629.5 C 724.5,629.833 724.5,630.167 724.5,630.5C 723.83,630.019 723.83,629.685 724.5,629.5 Z"/></g>
<g><path style="opacity:0.012" fill="#343233" d="M 724.5,630.5 C 725.833,631.167 725.833,631.167 724.5,630.5 Z"/></g>
<g><path style="opacity:0.004" fill="#333333" d="M 729.5,633.5 C 728.833,634.167 728.833,634.167 729.5,633.5 Z"/></g>
<g><path style="opacity:0.004" fill="#323534" d="M 730.5,635.5 C 731.833,636.167 731.833,636.167 730.5,635.5 Z"/></g>
<g><path style="opacity:0.004" fill="#333532" d="M 733.5,638.5 C 732.833,637.167 732.833,637.167 733.5,638.5 Z"/></g>
<g><path style="opacity:0.012" fill="#353633" d="M 733.5,638.5 C 734.833,639.167 734.833,639.167 733.5,638.5 Z"/></g>
<g><path style="opacity:0.004" fill="#343535" d="M 736.5,640.5 C 735.833,641.167 735.833,641.167 736.5,640.5 Z"/></g>
<g><path style="opacity:0.974" fill="#212121" d="M 640.5,610.5 C 640.224,665.509 640.557,720.509 641.5,775.5C 640.612,773.967 640.112,771.634 640,768.5C 639.168,715.665 639.335,662.998 640.5,610.5 Z"/></g>
<g><path style="opacity:0.004" fill="#333530" d="M 654.5,807.5 C 653.833,806.167 653.833,806.167 654.5,807.5 Z"/></g>
<g><path style="opacity:0.008" fill="#363434" d="M 520.5,807.5 C 521.525,807.897 521.692,808.563 521,809.5C 520.536,808.906 520.369,808.239 520.5,807.5 Z"/></g>
<g><path style="opacity:0.016" fill="#343533" d="M 654.5,807.5 C 655.833,808.167 655.833,808.167 654.5,807.5 Z"/></g>
<g><path style="opacity:0.004" fill="#353333" d="M 523.5,810.5 C 524.833,811.167 524.833,811.167 523.5,810.5 Z"/></g>
<g><path style="opacity:0.004" fill="#373531" d="M 520.5,814.5 C 521.833,815.167 521.833,815.167 520.5,814.5 Z"/></g>
<g><path style="opacity:0.008" fill="#313134" d="M 664.5,823.5 C 665.833,824.167 665.833,824.167 664.5,823.5 Z"/></g>
<g><path style="opacity:0.004" fill="#363434" d="M 506.5,832.5 C 505.833,831.167 505.833,831.167 506.5,832.5 Z"/></g>
<g><path style="opacity:0.008" fill="#323434" d="M 682.5,839.5 C 683.833,840.167 683.833,840.167 682.5,839.5 Z"/></g>
<g><path style="opacity:0.004" fill="#323434" d="M 684.5,840.5 C 685.833,841.167 685.833,841.167 684.5,840.5 Z"/></g>
<g><path style="opacity:0.004" fill="#363635" d="M 475.5,847.5 C 476.833,848.167 476.833,848.167 475.5,847.5 Z"/></g>
<g><path style="opacity:0.008" fill="#363635" d="M 477.5,847.5 C 478.833,848.167 478.833,848.167 477.5,847.5 Z"/></g>
<g><path style="opacity:0.008" fill="#333232" d="M 698.5,848.5 C 698.897,847.475 699.563,847.308 700.5,848C 699.906,848.464 699.239,848.631 698.5,848.5 Z"/></g>
<g><path style="opacity:0.004" fill="#363735" d="M 475.5,848.5 C 474.833,849.167 474.833,849.167 475.5,848.5 Z"/></g>
<g><path style="opacity:0.004" fill="#373836" d="M 705.5,849.5 C 706.833,850.167 706.833,850.167 705.5,849.5 Z"/></g>
<g><path style="opacity:0.979" fill="#000001" d="M 717.5,860.5 C 718.338,860.842 718.672,861.508 718.5,862.5C 675.001,863.167 631.335,863.5 587.5,863.5C 543.495,863.5 499.828,862.833 456.5,861.5C 543.423,861.827 630.423,861.494 717.5,860.5 Z"/></g>
<g><path style="opacity:0.982" fill="#1e1f20" d="M 717.5,860.5 C 630.423,861.494 543.423,861.827 456.5,861.5C 455.662,861.158 455.328,860.492 455.5,859.5C 458.012,858.072 460.678,857.572 463.5,858C 462.167,858.667 462.167,859.333 463.5,860C 505.667,860.167 547.833,860.333 590,860.5C 632.545,860.497 674.878,859.831 717,858.5C 717.464,859.094 717.631,859.761 717.5,860.5 Z"/></g>
<g><path style="opacity:0.004" fill="#2b2a2a" d="M 612.5,864.5 C 613.833,865.167 613.833,865.167 612.5,864.5 Z"/></g>
<g><path style="opacity:0.004" fill="#292a29" d="M 307.5,933.5 C 308.833,934.167 308.833,934.167 307.5,933.5 Z"/></g>
</svg>
