<?xml version="1.0" encoding="UTF-8"?>
<!DOCTYPE svg PUBLIC "-//W3C//DTD SVG 1.1//EN" "http://www.w3.org/Graphics/SVG/1.1/DTD/svg11.dtd">
<svg xmlns="http://www.w3.org/2000/svg" version="1.1" width="1024px" height="1024px" style="shape-rendering:geometricPrecision; text-rendering:geometricPrecision; image-rendering:optimizeQuality; fill-rule:evenodd; clip-rule:evenodd" xmlns:xlink="http://www.w3.org/1999/xlink">
<g><path style="opacity:1" fill="#fefefe" d="M -0.5,-0.5 C 340.833,-0.5 682.167,-0.5 1023.5,-0.5C 1023.5,340.833 1023.5,682.167 1023.5,1023.5C 682.167,1023.5 340.833,1023.5 -0.5,1023.5C -0.5,682.167 -0.5,340.833 -0.5,-0.5 Z"/></g>
<g><path style="opacity:1" fill="#141414" d="M 320.5,87.5 C 325.844,87.334 331.177,87.5006 336.5,88C 391.433,94.9083 446.433,101.242 501.5,107C 554.109,113.292 606.776,113.959 659.5,109C 682.535,105.825 704.868,99.9914 726.5,91.5C 729.187,91.8408 731.187,93.1742 732.5,95.5C 716.189,124.991 695.856,151.491 671.5,175C 642.167,198.67 608.501,210.67 570.5,211C 557.486,211.484 544.486,211.151 531.5,210C 505.41,207.78 479.41,204.78 453.5,201C 417.41,194.982 381.244,189.482 345,184.5C 343.674,184.755 342.674,185.422 342,186.5C 331.852,255.682 322.852,325.015 315,394.5C 313.492,407.417 311.159,420.084 308,432.5C 352.122,389.032 405.289,364.865 467.5,360C 527.264,354.68 583.598,366.014 636.5,394C 725.079,449.633 768.246,530.133 766,635.5C 761.094,715.129 729.928,782.296 672.5,837C 610.082,890.023 537.749,913.023 455.5,906C 400.673,901.516 352.006,882.183 309.5,848C 267.371,810.299 247.871,763.133 251,706.5C 258.045,659.455 284.879,631.288 331.5,622C 344.138,620.572 356.804,620.239 369.5,621C 370.451,621.718 370.617,622.551 370,623.5C 353.875,640.074 343.209,659.741 338,682.5C 330.408,719.065 332.408,755.065 344,790.5C 371.269,854.386 419.769,884.886 489.5,882C 536.809,876.77 574.309,854.937 602,816.5C 627.72,777.689 643.386,735.022 649,688.5C 655.447,640.052 653.114,592.052 642,544.5C 633.047,511.61 618.047,481.944 597,455.5C 535.889,390.765 463.389,373.599 379.5,404C 337.779,423.558 305.112,453.058 281.5,492.5C 279.143,491.905 276.977,490.905 275,489.5C 291.807,355.737 306.974,221.737 320.5,87.5 Z"/></g>
</svg>
