<?xml version="1.0" encoding="UTF-8"?>
<!DOCTYPE svg PUBLIC "-//W3C//DTD SVG 1.1//EN" "http://www.w3.org/Graphics/SVG/1.1/DTD/svg11.dtd">
<svg xmlns="http://www.w3.org/2000/svg" version="1.1" width="1024px" height="1024px" style="shape-rendering:geometricPrecision; text-rendering:geometricPrecision; image-rendering:optimizeQuality; fill-rule:evenodd; clip-rule:evenodd" xmlns:xlink="http://www.w3.org/1999/xlink">
<g><path style="opacity:1" fill="#fefdfc" d="M -0.5,-0.5 C 340.833,-0.5 682.167,-0.5 1023.5,-0.5C 1023.5,340.833 1023.5,682.167 1023.5,1023.5C 682.167,1023.5 340.833,1023.5 -0.5,1023.5C -0.5,682.167 -0.5,340.833 -0.5,-0.5 Z"/></g>
<g><path style="opacity:1" fill="#000000" d="M 557.5,86.5 C 621.799,82.4597 682.799,94.6264 740.5,123C 744.6,125.467 748.434,128.301 752,131.5C 729.329,174.551 710.662,219.551 696,266.5C 689.881,240.147 680.215,215.147 667,191.5C 637.331,145.755 595.165,125.922 540.5,132C 510.316,136.927 483.983,149.594 461.5,170C 440.32,189.879 423.154,212.713 410,238.5C 371.289,318.388 353.955,402.721 358,491.5C 383.139,442.026 419.639,403.193 467.5,375C 532.204,339.981 597.538,338.648 663.5,371C 699.236,391.402 727.736,419.236 749,454.5C 770.944,492.25 784.277,532.916 789,576.5C 798.221,651.427 781.887,720.094 740,782.5C 702.764,843.063 650.597,885.23 583.5,909C 526.512,926.039 471.179,921.706 417.5,896C 364.229,869.731 322.062,831.231 291,780.5C 254.16,718.972 233.16,652.305 228,580.5C 218.016,453.092 248.35,336.425 319,230.5C 350.241,185.587 389.407,149.42 436.5,122C 474.538,101.912 514.871,90.0788 557.5,86.5 Z"/></g>
<g><path style="opacity:1" fill="#fefdfc" d="M 505.5,415.5 C 562.762,414.373 605.262,438.706 633,488.5C 657.455,538.27 668.955,590.936 667.5,646.5C 667.077,680.245 663.244,713.578 656,746.5C 648.922,775.651 636.256,801.985 618,825.5C 580.189,865.937 535.023,876.77 482.5,858C 471.173,852.674 460.506,846.341 450.5,839C 420.974,812.159 399.807,779.659 387,741.5C 366.766,683.727 359.766,624.393 366,563.5C 374.294,510.047 400.461,467.88 444.5,437C 463.463,425.736 483.796,418.569 505.5,415.5 Z"/></g>
</svg>
