<?xml version="1.0" encoding="UTF-8"?>
<!DOCTYPE svg PUBLIC "-//W3C//DTD SVG 1.1//EN" "http://www.w3.org/Graphics/SVG/1.1/DTD/svg11.dtd">
<svg xmlns="http://www.w3.org/2000/svg" version="1.1" width="1024px" height="1024px" style="shape-rendering:geometricPrecision; text-rendering:geometricPrecision; image-rendering:optimizeQuality; fill-rule:evenodd; clip-rule:evenodd" xmlns:xlink="http://www.w3.org/1999/xlink">
<g><path style="opacity:1" fill="#fefefe" d="M -0.5,-0.5 C 340.833,-0.5 682.167,-0.5 1023.5,-0.5C 1023.5,340.833 1023.5,682.167 1023.5,1023.5C 682.167,1023.5 340.833,1023.5 -0.5,1023.5C -0.5,682.167 -0.5,340.833 -0.5,-0.5 Z"/></g>
<g><path style="opacity:1" fill="#0b0b0b" d="M 304.5,94.5 C 364.575,98.9965 424.741,101.33 485,101.5C 549.828,100.323 614.662,99.4898 679.5,99C 709.005,97.9485 738.505,96.7819 768,95.5C 771.833,95.8333 775.667,96.1667 779.5,96.5C 781.5,99.5 783.5,102.5 785.5,105.5C 756.831,151.5 728.664,197.834 701,244.5C 668.031,306.103 638.031,369.103 611,433.5C 564.135,550.159 538.635,671.325 534.5,797C 534.232,810.912 535.066,824.746 537,838.5C 544.32,866.487 561.82,884.653 589.5,893C 599.096,895.014 608.762,896.514 618.5,897.5C 618.5,903.833 618.5,910.167 618.5,916.5C 595.493,914.833 572.493,912.999 549.5,911C 503.851,908.16 458.185,907.827 412.5,910C 382.517,912.165 352.517,913.999 322.5,915.5C 322.19,909.242 322.524,903.076 323.5,897C 361.131,893.948 387.297,875.114 402,840.5C 405.619,830.69 408.619,820.69 411,810.5C 429.052,694.684 463.385,584.017 514,478.5C 559.859,385.759 609.525,295.425 663,207.5C 666.015,202.475 668.182,197.142 669.5,191.5C 581.502,192.452 493.502,193.285 405.5,194C 365.622,196.695 331.788,212.195 304,240.5C 291.392,257.384 282.225,276.05 276.5,296.5C 270.426,295.481 264.426,294.148 258.5,292.5C 274.973,239.609 288.473,185.943 299,131.5C 301.29,119.222 303.123,106.888 304.5,94.5 Z"/></g>
</svg>
