<?xml version="1.0" encoding="UTF-8"?>
<!DOCTYPE svg PUBLIC "-//W3C//DTD SVG 1.1//EN" "http://www.w3.org/Graphics/SVG/1.1/DTD/svg11.dtd">
<svg xmlns="http://www.w3.org/2000/svg" version="1.1" width="1024px" height="1024px" style="shape-rendering:geometricPrecision; text-rendering:geometricPrecision; image-rendering:optimizeQuality; fill-rule:evenodd; clip-rule:evenodd" xmlns:xlink="http://www.w3.org/1999/xlink">
<g><path style="opacity:1" fill="#fefefe" d="M -0.5,-0.5 C 340.833,-0.5 682.167,-0.5 1023.5,-0.5C 1023.5,340.833 1023.5,682.167 1023.5,1023.5C 682.167,1023.5 340.833,1023.5 -0.5,1023.5C -0.5,682.167 -0.5,340.833 -0.5,-0.5 Z"/></g>
<g><path style="opacity:1" fill="#010202" d="M 486.5,64.5 C 529.42,62.9421 571.753,67.1087 613.5,77C 659.365,89.6696 697.865,113.836 729,149.5C 766.389,200.624 772.389,255.291 747,313.5C 734.907,336.266 719.074,356.099 699.5,373C 676.991,391.764 652.325,407.264 625.5,419.5C 655.978,434.564 684.644,452.398 711.5,473C 748.486,501.975 777.319,537.475 798,579.5C 824.99,644.322 825.323,709.322 799,774.5C 775.887,824.207 740.721,863.041 693.5,891C 642.246,920.747 586.913,936.747 527.5,939C 457.861,942.606 391.861,928.939 329.5,898C 240.652,848.492 200.485,772.659 209,670.5C 214.754,614.821 238.587,568.654 280.5,532C 312.411,504.966 347.411,482.466 385.5,464.5C 370.029,453.925 354.695,443.092 339.5,432C 307.96,407.047 283.46,376.547 266,340.5C 238.197,271.328 247.863,207.995 295,150.5C 335.122,108.285 383.955,81.6181 441.5,70.5C 456.552,67.7663 471.552,65.7663 486.5,64.5 Z"/></g>
<g><path style="opacity:1" fill="#fefefe" d="M 481.5,106.5 C 520.104,102.786 556.104,110.619 589.5,130C 617.307,148.845 635.473,174.679 644,207.5C 653.596,244.541 652.263,281.208 640,317.5C 627.203,351.294 604.87,376.627 573,393.5C 540.592,376.753 508.426,359.586 476.5,342C 450.898,327.436 427.732,309.602 407,288.5C 379.395,253.541 372.729,214.875 387,172.5C 400.007,142.496 422.174,122.663 453.5,113C 462.889,110.484 472.222,108.317 481.5,106.5 Z"/></g>
<g><path style="opacity:1" fill="#fefefe" d="M 428.5,494.5 C 431.187,494.336 433.854,494.503 436.5,495C 476.993,516.746 517.327,538.746 557.5,561C 583.918,575.873 608.585,593.206 631.5,613C 684.093,665.541 699.26,727.374 677,798.5C 657.129,846.535 621.963,877.035 571.5,890C 522.872,902.296 476.538,896.63 432.5,873C 390.43,846.568 362.264,809.402 348,761.5C 335.056,715.649 333.056,669.316 342,622.5C 351.198,580.929 370.698,545.095 400.5,515C 409.454,507.531 418.788,500.697 428.5,494.5 Z"/></g>
</svg>
