<?xml version="1.0" encoding="UTF-8"?>
<!DOCTYPE svg PUBLIC "-//W3C//DTD SVG 1.1//EN" "http://www.w3.org/Graphics/SVG/1.1/DTD/svg11.dtd">
<svg xmlns="http://www.w3.org/2000/svg" version="1.1" width="1024px" height="1024px" style="shape-rendering:geometricPrecision; text-rendering:geometricPrecision; image-rendering:optimizeQuality; fill-rule:evenodd; clip-rule:evenodd" xmlns:xlink="http://www.w3.org/1999/xlink">
<g><path style="opacity:1" fill="#fefefe" d="M -0.5,-0.5 C 340.833,-0.5 682.167,-0.5 1023.5,-0.5C 1023.5,340.833 1023.5,682.167 1023.5,1023.5C 682.167,1023.5 340.833,1023.5 -0.5,1023.5C -0.5,682.167 -0.5,340.833 -0.5,-0.5 Z"/></g>
<g><path style="opacity:1" fill="#0b0c0c" d="M 490.5,81.5 C 568.743,75.7215 632.909,102.721 683,162.5C 723.085,212.335 748.752,269.002 760,332.5C 780.972,479.992 750.305,615.659 668,739.5C 616.32,813.075 549.82,868.909 468.5,907C 428.73,924.855 387.064,935.021 343.5,937.5C 342.167,937.167 340.833,936.833 339.5,936.5C 336.333,930.167 333.167,923.833 330,917.5C 329.28,915.888 329.446,914.388 330.5,913C 440.283,888.807 524.783,829.307 584,734.5C 617.156,681.713 638.489,624.38 648,562.5C 661.562,473.834 656.896,386.167 634,299.5C 621.992,258.145 602.659,220.811 576,187.5C 560.235,169.39 541.402,155.556 519.5,146C 471.877,127.447 431.711,137.613 399,176.5C 380.919,200.053 370.252,226.719 367,256.5C 360.898,299.809 364.898,342.142 379,383.5C 394.127,422.62 419.293,453.453 454.5,476C 494.265,496.363 535.265,499.03 577.5,484C 600.993,475.435 621.66,462.602 639.5,445.5C 640.442,445.608 641.275,445.941 642,446.5C 642.667,459.167 642.667,471.833 642,484.5C 599.67,517.08 552.503,540.247 500.5,554C 434.99,568.038 376.657,553.705 325.5,511C 276.699,463.3 254.199,405.133 258,336.5C 263.589,259.636 294.089,194.803 349.5,142C 390.302,107.604 437.302,87.4375 490.5,81.5 Z"/></g>
</svg>
