<?xml version="1.0" encoding="UTF-8"?>
<!DOCTYPE svg PUBLIC "-//W3C//DTD SVG 1.1//EN" "http://www.w3.org/Graphics/SVG/1.1/DTD/svg11.dtd">
<svg xmlns="http://www.w3.org/2000/svg" version="1.1" width="1024px" height="1024px" style="shape-rendering:geometricPrecision; text-rendering:geometricPrecision; image-rendering:optimizeQuality; fill-rule:evenodd; clip-rule:evenodd" xmlns:xlink="http://www.w3.org/1999/xlink">
<g><path style="opacity:1" fill="#fcfcfa" d="M -0.5,-0.5 C 340.833,-0.5 682.167,-0.5 1023.5,-0.5C 1023.5,340.833 1023.5,682.167 1023.5,1023.5C 682.167,1023.5 340.833,1023.5 -0.5,1023.5C -0.5,682.167 -0.5,340.833 -0.5,-0.5 Z"/></g>
<g><path style="opacity:1" fill="#0d0e0c" d="M 498.5,171.5 C 545.684,169.472 590.017,179.639 631.5,202C 678.486,233.115 703.986,276.948 708,333.5C 708.101,418.5 708.101,503.5 708,588.5C 707.473,613.952 710.473,638.952 717,663.5C 729.89,703.35 757.056,719.517 798.5,712C 805.881,710.095 813.048,707.595 820,704.5C 821.732,704.734 822.566,705.734 822.5,707.5C 821.863,710.107 820.696,712.44 819,714.5C 793.054,742.106 762.887,763.939 728.5,780C 673.578,795.788 633.745,777.955 609,726.5C 602.35,710.406 598.183,693.739 596.5,676.5C 560.135,721.362 515.135,754.529 461.5,776C 414.574,792.211 367.574,792.544 320.5,777C 267.61,754.59 239.61,714.59 236.5,657C 238.347,601.973 260.68,557.307 303.5,523C 329.636,502.245 358.302,485.579 389.5,473C 455.767,447.769 523.1,425.936 591.5,407.5C 592.704,385.827 592.537,364.16 591,342.5C 585.921,299.475 565.088,266.641 528.5,244C 473.187,219.567 420.854,224.9 371.5,260C 348.336,276.846 332.503,299.012 324,326.5C 321.293,328.886 318.46,329.052 315.5,327C 300.121,313.898 284.288,301.398 268,289.5C 267.294,287.029 267.627,284.695 269,282.5C 329.946,213.78 406.446,176.78 498.5,171.5 Z"/></g>
<g><path style="opacity:1" fill="#fcfbfa" d="M 589.5,447.5 C 591.5,447.5 593.5,447.5 595.5,447.5C 594.872,488.816 594.039,530.149 593,571.5C 591.862,615.947 573.695,651.447 538.5,678C 504.326,704.056 465.993,713.723 423.5,707C 380.593,694.57 358.593,665.903 357.5,621C 358.198,586.619 370.864,557.619 395.5,534C 407.727,523.109 421.06,513.776 435.5,506C 452.81,497.178 470.477,489.178 488.5,482C 522.117,470.022 555.784,458.522 589.5,447.5 Z"/></g>
</svg>
