<?xml version="1.0" encoding="UTF-8"?>
<!DOCTYPE svg PUBLIC "-//W3C//DTD SVG 1.1//EN" "http://www.w3.org/Graphics/SVG/1.1/DTD/svg11.dtd">
<svg xmlns="http://www.w3.org/2000/svg" version="1.1" width="719px" height="753px" style="shape-rendering:geometricPrecision; text-rendering:geometricPrecision; image-rendering:optimizeQuality; fill-rule:evenodd; clip-rule:evenodd" xmlns:xlink="http://www.w3.org/1999/xlink">
<g><path style="opacity:0.988" fill="#0f110f" d="M 351.5,-0.5 C 359.167,-0.5 366.833,-0.5 374.5,-0.5C 392.133,3.41086 406.3,12.7442 417,27.5C 452.905,80.6339 482.572,137.301 506,197.5C 538.803,281.91 566.803,367.91 590,455.5C 605.945,517.947 620.945,580.614 635,643.5C 641.021,669.54 652.355,692.873 669,713.5C 683.109,728.134 699.609,739.134 718.5,746.5C 718.5,747.167 718.5,747.833 718.5,748.5C 706.775,750.346 695.109,751.68 683.5,752.5C 636.5,752.5 589.5,752.5 542.5,752.5C 528.673,751.669 514.673,751.169 500.5,751C 497.21,750.747 494.21,749.747 491.5,748C 514.464,738.703 531.297,722.87 542,700.5C 545.101,692.431 547.101,684.098 548,675.5C 551.484,611.252 538.484,550.585 509,493.5C 467.95,430.397 409.783,402.897 334.5,411C 272.54,421.21 227.707,454.377 200,510.5C 175.962,565.429 166.629,622.762 172,682.5C 175.706,705.093 186.873,722.927 205.5,736C 213.176,739.838 220.842,743.671 228.5,747.5C 226.78,748.934 224.78,749.767 222.5,750C 211.664,750.654 200.997,751.487 190.5,752.5C 135.167,752.5 79.8333,752.5 24.5,752.5C 16.3011,751.556 7.96781,750.556 -0.5,749.5C -0.5,748.5 -0.5,747.5 -0.5,746.5C 43.3397,729.159 70.5064,697.492 81,651.5C 101.223,557.276 124.889,463.942 152,371.5C 176.492,293.531 205.159,217.198 238,142.5C 257.557,102.363 279.89,64.0295 305,27.5C 317.222,12.6422 332.722,3.30887 351.5,-0.5 Z M 356.5,83.5 C 365.082,82.1861 371.582,85.1861 376,92.5C 391.717,112.922 405.05,134.922 416,158.5C 448.77,236.358 476.103,316.024 498,397.5C 454.418,374.415 407.918,363.748 358.5,365.5C 320.268,364.317 283.268,370.483 247.5,384C 237.812,387.927 228.645,392.76 220,398.5C 241.807,308.413 273.141,221.747 314,138.5C 322.501,124.16 331.501,110.16 341,96.5C 345.48,91.173 350.647,86.8397 356.5,83.5 Z"/></g>
</svg>
