<?xml version="1.0" encoding="UTF-8"?>
<!DOCTYPE svg PUBLIC "-//W3C//DTD SVG 1.1//EN" "http://www.w3.org/Graphics/SVG/1.1/DTD/svg11.dtd">
<svg xmlns="http://www.w3.org/2000/svg" version="1.1" width="719px" height="913px" style="shape-rendering:geometricPrecision; text-rendering:geometricPrecision; image-rendering:optimizeQuality; fill-rule:evenodd; clip-rule:evenodd" xmlns:xlink="http://www.w3.org/1999/xlink">
<g><path style="opacity:0.988" fill="#131413" d="M 263.5,-0.5 C 269.5,-0.5 275.5,-0.5 281.5,-0.5C 310.759,7.65509 324.593,26.9884 323,57.5C 319.571,75.2596 309.738,88.0929 293.5,96C 265.798,104.769 244.298,96.9359 229,72.5C 218.85,46.2582 224.684,24.4248 246.5,7C 252.06,3.99048 257.727,1.49048 263.5,-0.5 Z"/></g>
<g><path style="opacity:0.997" fill="#121413" d="M 436.5,-0.5 C 442.167,-0.5 447.833,-0.5 453.5,-0.5C 482.454,7.38474 496.288,26.3847 495,56.5C 491.484,76.3477 480.317,89.8477 461.5,97C 431.61,103.972 410.444,93.4717 398,65.5C 391.362,32.0021 404.196,10.0021 436.5,-0.5 Z"/></g>
<g><path style="opacity:0.988" fill="#0f110f" d="M 718.5,906.5 C 718.5,907.167 718.5,907.833 718.5,908.5C 706.775,910.346 695.109,911.68 683.5,912.5C 636.5,912.5 589.5,912.5 542.5,912.5C 528.673,911.669 514.673,911.169 500.5,911C 497.21,910.747 494.21,909.747 491.5,908C 514.464,898.703 531.297,882.87 542,860.5C 545.101,852.431 547.101,844.098 548,835.5C 551.484,771.252 538.484,710.585 509,653.5C 467.95,590.397 409.783,562.897 334.5,571C 272.54,581.21 227.707,614.377 200,670.5C 175.962,725.429 166.629,782.762 172,842.5C 175.706,865.093 186.873,882.927 205.5,896C 213.176,899.838 220.842,903.671 228.5,907.5C 226.78,908.934 224.78,909.767 222.5,910C 211.664,910.654 200.997,911.487 190.5,912.5C 135.167,912.5 79.8333,912.5 24.5,912.5C 16.3011,911.556 7.96781,910.556 -0.5,909.5C -0.5,908.5 -0.5,907.5 -0.5,906.5C 43.3397,889.159 70.5064,857.492 81,811.5C 101.223,717.276 124.889,623.942 152,531.5C 176.492,453.531 205.159,377.198 238,302.5C 258.139,260.191 281.806,220.191 309,182.5C 331.656,160.212 358.156,154.046 388.5,164C 398.707,168.2 407.207,174.7 414,183.5C 449.527,234.537 478.861,289.204 502,347.5C 536.53,435.091 565.864,524.424 590,615.5C 605.945,677.947 620.945,740.614 635,803.5C 641.021,829.54 652.355,852.873 669,873.5C 683.109,888.134 699.609,899.134 718.5,906.5 Z M 356.5,243.5 C 365.082,242.186 371.582,245.186 376,252.5C 391.717,272.922 405.05,294.922 416,318.5C 448.77,396.358 476.103,476.024 498,557.5C 454.418,534.415 407.918,523.748 358.5,525.5C 320.268,524.317 283.268,530.483 247.5,544C 237.812,547.927 228.645,552.76 220,558.5C 241.807,468.413 273.141,381.747 314,298.5C 322.501,284.16 331.501,270.16 341,256.5C 345.48,251.173 350.647,246.84 356.5,243.5 Z"/></g>
</svg>
