<?xml version="1.0" encoding="UTF-8"?>
<!DOCTYPE svg PUBLIC "-//W3C//DTD SVG 1.1//EN" "http://www.w3.org/Graphics/SVG/1.1/DTD/svg11.dtd">
<svg xmlns="http://www.w3.org/2000/svg" version="1.1" width="1024px" height="1024px" style="shape-rendering:geometricPrecision; text-rendering:geometricPrecision; image-rendering:optimizeQuality; fill-rule:evenodd; clip-rule:evenodd" xmlns:xlink="http://www.w3.org/1999/xlink">
<g><path style="opacity:1" fill="#fefefe" d="M -0.5,-0.5 C 340.833,-0.5 682.167,-0.5 1023.5,-0.5C 1023.5,340.833 1023.5,682.167 1023.5,1023.5C 682.167,1023.5 340.833,1023.5 -0.5,1023.5C -0.5,682.167 -0.5,340.833 -0.5,-0.5 Z"/></g>
<g><path style="opacity:1" fill="#000000" d="M 428.5,130.5 C 457.494,129.682 476.327,143.015 485,170.5C 488.847,196.3 479.68,215.8 457.5,229C 426.143,239.992 403.31,230.492 389,200.5C 380.848,174.624 387.681,153.791 409.5,138C 415.718,134.879 422.051,132.379 428.5,130.5 Z"/></g>
<g><path style="opacity:1" fill="#000000" d="M 582.5,131.5 C 613.478,129 632.978,142.666 641,172.5C 643.711,198.248 633.877,217.415 611.5,230C 577.738,239.87 554.905,228.37 543,195.5C 537.635,162.541 550.801,141.208 582.5,131.5 Z"/></g>
<g><path style="opacity:1" fill="#000000" d="M 520.5,305.5 C 554.226,303.012 586.226,309.179 616.5,324C 641.504,344.16 656.004,370.327 660,402.5C 661.473,415.961 662.307,429.461 662.5,443C 659.94,515.671 657.273,588.337 654.5,661C 654.324,678.728 656.158,696.228 660,713.5C 665.578,736.708 680.078,745.875 703.5,741C 717.992,737.834 731.492,732.334 744,724.5C 751.539,728.001 755.872,733.667 757,741.5C 722.673,764.087 686.84,784.254 649.5,802C 641.313,805.395 632.813,807.562 624,808.5C 613.507,806.666 604.34,802.166 596.5,795C 579.639,778.787 568.306,759.287 562.5,736.5C 539.17,751.834 515.503,766.667 491.5,781C 473.069,791.698 453.403,799.032 432.5,803C 394.75,808.977 360.417,800.977 329.5,779C 301.802,753.255 290.302,721.421 295,683.5C 299.935,643.274 319.435,612.441 353.5,591C 378.034,576.9 403.701,565.234 430.5,556C 466.489,544.002 502.489,532.002 538.5,520C 546.946,516.943 555.279,513.61 563.5,510C 565.378,508.457 566.878,506.624 568,504.5C 569.044,483.439 568.377,462.439 566,441.5C 562.012,408.193 544.512,385.36 513.5,373C 474.174,354.783 443.341,363.95 421,400.5C 412.185,419.282 404.352,438.448 397.5,458C 372.553,451.909 347.886,444.576 323.5,436C 318.857,433.928 317.357,430.428 319,425.5C 322.312,417.54 326.645,410.206 332,403.5C 358.184,373.655 389.351,350.488 425.5,334C 455.745,319.303 487.412,309.803 520.5,305.5 Z"/></g>
<g><path style="opacity:1" fill="#fefefe" d="M 564.5,549.5 C 565.833,549.5 567.167,549.5 568.5,549.5C 568.252,590.278 566.086,630.945 562,671.5C 561.094,678.701 559.427,685.701 557,692.5C 533.656,723.34 502.656,740.006 464,742.5C 430.211,742.364 407.878,726.364 397,694.5C 391.283,660.089 401.783,631.589 428.5,609C 451.276,591.775 476.276,578.441 503.5,569C 523.705,561.707 544.038,555.207 564.5,549.5 Z"/></g>
</svg>
