<?xml version="1.0" encoding="UTF-8"?>
<!DOCTYPE svg PUBLIC "-//W3C//DTD SVG 1.1//EN" "http://www.w3.org/Graphics/SVG/1.1/DTD/svg11.dtd">
<svg xmlns="http://www.w3.org/2000/svg" version="1.1" width="1024px" height="1024px" style="shape-rendering:geometricPrecision; text-rendering:geometricPrecision; image-rendering:optimizeQuality; fill-rule:evenodd; clip-rule:evenodd" xmlns:xlink="http://www.w3.org/1999/xlink">
<g><path style="opacity:1" fill="#fcfcfa" d="M -0.5,-0.5 C 340.833,-0.5 682.167,-0.5 1023.5,-0.5C 1023.5,340.833 1023.5,682.167 1023.5,1023.5C 682.167,1023.5 340.833,1023.5 -0.5,1023.5C -0.5,682.167 -0.5,340.833 -0.5,-0.5 Z"/></g>
<g><path style="opacity:1" fill="#0e0f0e" d="M 458.5,88.5 C 514.485,86.1797 569.485,92.3464 623.5,107C 654.528,115.676 682.194,130.343 706.5,151C 755.704,200.088 764.87,255.921 734,318.5C 715.64,347.528 691.474,370.361 661.5,387C 641.109,398.194 619.776,407.194 597.5,414C 644.278,418.86 688.945,431.193 731.5,451C 814.962,497.751 851.462,568.917 841,664.5C 834.841,704.473 819.174,740.139 794,771.5C 760.469,811.196 719.636,841.029 671.5,861C 613.092,884.235 552.425,895.735 489.5,895.5C 447.476,894.189 405.476,892.356 363.5,890C 305.974,889.019 248.474,889.853 191,892.5C 182.124,892.568 173.29,892.068 164.5,891C 164.043,890.586 163.709,890.086 163.5,889.5C 174.794,883.519 185.794,877.019 196.5,870C 222.307,851.919 238.807,827.419 246,796.5C 252.417,764.839 255.75,732.839 256,700.5C 257.975,558.833 257.975,417.166 256,275.5C 255.479,244.248 252.479,213.248 247,182.5C 240.577,150.469 223.077,126.636 194.5,111C 184.833,106.167 175.167,101.333 165.5,96.5C 164.571,95.3112 164.238,93.9778 164.5,92.5C 210.67,91.5101 256.837,91.8434 303,93.5C 355.037,93.187 406.87,91.5203 458.5,88.5 Z"/></g>
<g><path style="opacity:1" fill="#fcfbfa" d="M 422.5,126.5 C 462.482,123.83 501.148,129.664 538.5,144C 601.051,169.931 631.884,216.764 631,284.5C 625.508,334.665 599.675,369.831 553.5,390C 504.722,408.701 454.722,412.701 403.5,402C 395.023,399.964 386.69,397.464 378.5,394.5C 377.485,307.479 378.485,220.479 381.5,133.5C 395.199,130.585 408.866,128.252 422.5,126.5 Z"/></g>
<g><path style="opacity:1" fill="#fcfbfa" d="M 401.5,438.5 C 434.541,437.957 467.541,438.79 500.5,441C 539.286,444.528 575.953,455.195 610.5,473C 681.72,516.267 714.22,579.767 708,663.5C 702.743,717.177 680.577,762.344 641.5,799C 605.386,828.04 564.053,844.373 517.5,848C 487.429,851.86 458.095,848.86 429.5,839C 412.308,830.989 397.142,820.155 384,806.5C 381.145,758.871 379.145,711.204 378,663.5C 377.1,589.501 376.767,515.501 377,441.5C 385.247,440.333 393.414,439.333 401.5,438.5 Z"/></g>
</svg>
