<?xml version="1.0" encoding="UTF-8"?>
<!DOCTYPE svg PUBLIC "-//W3C//DTD SVG 1.1//EN" "http://www.w3.org/Graphics/SVG/1.1/DTD/svg11.dtd">
<svg xmlns="http://www.w3.org/2000/svg" version="1.1" width="1024px" height="1024px" style="shape-rendering:geometricPrecision; text-rendering:geometricPrecision; image-rendering:optimizeQuality; fill-rule:evenodd; clip-rule:evenodd" xmlns:xlink="http://www.w3.org/1999/xlink">
<g><path style="opacity:1" fill="#fefefe" d="M -0.5,-0.5 C 340.833,-0.5 682.167,-0.5 1023.5,-0.5C 1023.5,340.833 1023.5,682.167 1023.5,1023.5C 682.167,1023.5 340.833,1023.5 -0.5,1023.5C -0.5,682.167 -0.5,340.833 -0.5,-0.5 Z"/></g>
<g><path style="opacity:1" fill="#090909" d="M 414.5,114.5 C 411.496,208.495 410.83,302.495 412.5,396.5C 411.883,396.611 411.383,396.944 411,397.5C 409.142,323.837 409.142,250.171 411,176.5C 411.38,152.446 412.547,131.779 414.5,114.5 Z"/></g>
<g><path style="opacity:1" fill="#191919" d="M 305.5,763.5 C 307.483,577.507 308.317,391.507 308,205.5C 307.95,195.679 306.783,186.012 304.5,176.5C 304.369,175.761 304.536,175.094 305,174.5C 307.232,181.326 308.565,188.326 309,195.5C 309.934,224.659 310.434,253.826 310.5,283C 309.934,429.835 309.1,576.669 308,723.5C 307.725,739.518 307.058,755.518 306,771.5C 305.503,768.854 305.336,766.187 305.5,763.5 Z"/></g>
<g><path style="opacity:1" fill="#121312" d="M 414.5,114.5 C 412.547,131.779 411.38,152.446 411,176.5C 409.142,250.171 409.142,323.837 411,397.5C 411.383,396.944 411.883,396.611 412.5,396.5C 412.765,400.853 413.265,405.187 414,409.5C 436.137,383.349 461.304,360.849 489.5,342C 534.518,316.132 582.518,308.466 633.5,319C 670.395,327.524 701.562,345.691 727,373.5C 763.484,417.213 785.484,467.546 793,524.5C 804.718,635.371 770.551,729.205 690.5,806C 614.346,872.637 527.346,891.97 429.5,864C 415.759,859.531 402.092,854.864 388.5,850C 374.833,845.333 361.167,845.333 347.5,850C 318.112,860.74 288.446,870.574 258.5,879.5C 258.351,878.448 258.517,877.448 259,876.5C 274.149,863.701 285.815,848.368 294,830.5C 297.27,822.085 299.604,813.419 301,804.5C 302.939,790.732 304.439,777.066 305.5,763.5C 305.336,766.187 305.503,768.854 306,771.5C 307.058,755.518 307.725,739.518 308,723.5C 309.1,576.669 309.934,429.835 310.5,283C 310.434,253.826 309.934,224.659 309,195.5C 308.565,188.326 307.232,181.326 305,174.5C 304.536,175.094 304.369,175.761 304.5,176.5C 295.574,151.662 277.908,137.162 251.5,133C 250.483,131.951 250.316,130.784 251,129.5C 273.325,121.614 295.825,114.114 318.5,107C 352.519,95.6657 383.186,78.6657 410.5,56C 413.527,53.65 416.86,52.15 420.5,51.5C 418.367,72.6314 416.367,93.6314 414.5,114.5 Z"/></g>
<g><path style="opacity:1" fill="#fefefe" d="M 524.5,384.5 C 571.334,381.707 609.834,398.041 640,433.5C 672.611,478.325 689.944,528.659 692,584.5C 695.653,638.291 686.987,689.957 666,739.5C 651.564,769.6 630.397,793.767 602.5,812C 565.388,831.911 526.721,835.578 486.5,823C 443.849,807.678 419.682,777.512 414,732.5C 413.054,722.519 412.387,712.519 412,702.5C 411.333,642.833 411.333,583.167 412,523.5C 412.336,498.441 413.669,473.441 416,448.5C 443.657,412.663 479.824,391.33 524.5,384.5 Z"/></g>
</svg>
