<?xml version="1.0" encoding="UTF-8"?>
<!DOCTYPE svg PUBLIC "-//W3C//DTD SVG 1.1//EN" "http://www.w3.org/Graphics/SVG/1.1/DTD/svg11.dtd">
<svg xmlns="http://www.w3.org/2000/svg" version="1.1" width="1024px" height="1024px" style="shape-rendering:geometricPrecision; text-rendering:geometricPrecision; image-rendering:optimizeQuality; fill-rule:evenodd; clip-rule:evenodd" xmlns:xlink="http://www.w3.org/1999/xlink">
<g><path style="opacity:1" fill="#fefefe" d="M -0.5,-0.5 C 340.833,-0.5 682.167,-0.5 1023.5,-0.5C 1023.5,340.833 1023.5,682.167 1023.5,1023.5C 682.167,1023.5 340.833,1023.5 -0.5,1023.5C -0.5,682.167 -0.5,340.833 -0.5,-0.5 Z"/></g>
<g><path style="opacity:1" fill="#121212" d="M 572.5,195.5 C 625.149,194.998 676.816,201.831 727.5,216C 743.519,220.676 758.852,227.009 773.5,235C 777.017,236.484 778.851,238.984 779,242.5C 753.834,278.819 730.168,316.153 708,354.5C 705.733,355.935 703.733,355.602 702,353.5C 690.761,326.839 674.927,303.339 654.5,283C 629.096,261.859 599.763,250.526 566.5,249C 506.49,245.591 458.323,267.757 422,315.5C 397.206,352.453 381.872,393.119 376,437.5C 369.427,484.658 370.427,531.658 379,578.5C 391.046,635.791 418.88,683.625 462.5,722C 522.016,767.966 587.682,779.299 659.5,756C 685.336,745.255 708.336,730.255 728.5,711C 738.5,701 748.5,691 758.5,681C 762.472,680.153 765.138,681.653 766.5,685.5C 717.88,787.435 636.714,838.435 523,838.5C 468.212,837.432 417.379,822.932 370.5,795C 315.262,756.716 279.096,704.883 262,639.5C 235.25,525.949 255.583,421.949 323,327.5C 386.607,247.107 469.774,203.107 572.5,195.5 Z"/></g>
</svg>
