<?xml version="1.0" encoding="UTF-8"?>
<!DOCTYPE svg PUBLIC "-//W3C//DTD SVG 1.1//EN" "http://www.w3.org/Graphics/SVG/1.1/DTD/svg11.dtd">
<svg xmlns="http://www.w3.org/2000/svg" version="1.1" width="1024px" height="1024px" style="shape-rendering:geometricPrecision; text-rendering:geometricPrecision; image-rendering:optimizeQuality; fill-rule:evenodd; clip-rule:evenodd" xmlns:xlink="http://www.w3.org/1999/xlink">
<g><path style="opacity:1" fill="#fefefe" d="M -0.5,-0.5 C 340.833,-0.5 682.167,-0.5 1023.5,-0.5C 1023.5,340.833 1023.5,682.167 1023.5,1023.5C 682.167,1023.5 340.833,1023.5 -0.5,1023.5C -0.5,682.167 -0.5,340.833 -0.5,-0.5 Z"/></g>
<g><path style="opacity:1" fill="#101211" d="M 536.5,116.5 C 594.221,115.215 650.221,124.381 704.5,144C 736.128,155.932 767.795,167.765 799.5,179.5C 789.659,221.525 778.825,263.525 767,305.5C 748.085,242.582 708.585,197.749 648.5,171C 582.02,146.099 517.687,150.766 455.5,185C 408.705,213.464 372.538,251.964 347,300.5C 322.051,350.959 307.384,404.293 303,460.5C 296.019,535.943 307.019,608.61 336,678.5C 360.794,734.624 398.627,779.791 449.5,814C 512.753,852.843 579.42,859.843 649.5,835C 713.945,805.89 762.111,759.723 794,696.5C 793.812,712.241 792.478,727.908 790,743.5C 783.304,781.144 776.804,818.811 770.5,856.5C 756.024,857.163 741.691,858.996 727.5,862C 702.987,868.727 678.654,876.06 654.5,884C 525.356,917.44 408.356,893.44 303.5,812C 227.562,746.983 183.396,664.483 171,564.5C 155.429,427.187 196.929,310.687 295.5,215C 364.18,154.15 444.513,121.317 536.5,116.5 Z"/></g>
</svg>
