<?xml version="1.0" encoding="UTF-8"?>
<!DOCTYPE svg PUBLIC "-//W3C//DTD SVG 1.1//EN" "http://www.w3.org/Graphics/SVG/1.1/DTD/svg11.dtd">
<svg xmlns="http://www.w3.org/2000/svg" version="1.1" width="1024px" height="1024px" style="shape-rendering:geometricPrecision; text-rendering:geometricPrecision; image-rendering:optimizeQuality; fill-rule:evenodd; clip-rule:evenodd" xmlns:xlink="http://www.w3.org/1999/xlink">
<g><path style="opacity:0.004" fill="#3d3e3c" d="M 516.5,112.5 C 517.833,113.167 517.833,113.167 516.5,112.5 Z"/></g>
<g><path style="opacity:0.004" fill="#3d3e3c" d="M 513.5,113.5 C 514.833,114.167 514.833,114.167 513.5,113.5 Z"/></g>
<g><path style="opacity:0.004" fill="#403f3c" d="M 479.5,114.5 C 480.833,115.167 480.833,115.167 479.5,114.5 Z"/></g>
<g><path style="opacity:0.016" fill="#3d3e3c" d="M 472.5,115.5 C 473.833,116.167 473.833,116.167 472.5,115.5 Z"/></g>
<g><path style="opacity:0.008" fill="#383936" d="M 534.5,119.5 C 535.833,120.167 535.833,120.167 534.5,119.5 Z"/></g>
<g><path style="opacity:0.008" fill="#3c3b39" d="M 541.5,119.5 C 542.833,120.167 542.833,120.167 541.5,119.5 Z"/></g>
<g><path style="opacity:0.004" fill="#3d3f3b" d="M 452.5,120.5 C 453.833,121.167 453.833,121.167 452.5,120.5 Z"/></g>
<g><path style="opacity:0.004" fill="#383b37" d="M 541.5,121.5 C 542.833,122.167 542.833,122.167 541.5,121.5 Z"/></g>
<g><path style="opacity:0.008" fill="#373635" d="M 552.5,127.5 C 553.833,128.167 553.833,128.167 552.5,127.5 Z"/></g>
<g><path style="opacity:0.004" fill="#3a3b38" d="M 557.5,127.5 C 558.833,128.167 558.833,128.167 557.5,127.5 Z"/></g>
<g><path style="opacity:0.004" fill="#3e403e" d="M 430.5,136.5 C 429.833,135.167 429.833,135.167 430.5,136.5 Z"/></g>
<g><path style="opacity:0.004" fill="#323431" d="M 565.5,135.5 C 566.833,136.167 566.833,136.167 565.5,135.5 Z"/></g>
<g><path style="opacity:0.004" fill="#3a3838" d="M 568.5,137.5 C 569.833,138.167 569.833,138.167 568.5,137.5 Z"/></g>
<g><path style="opacity:0.008" fill="#3a3a37" d="M 571.5,137.5 C 572.833,138.167 572.833,138.167 571.5,137.5 Z"/></g>
<g><path style="opacity:0.004" fill="#3e3e3c" d="M 425.5,138.5 C 426.833,139.167 426.833,139.167 425.5,138.5 Z"/></g>
<g><path style="opacity:0.004" fill="#6a6b6b" d="M 259.5,141.5 C 260.833,142.167 260.833,142.167 259.5,141.5 Z"/></g>
<g><path style="opacity:0.004" fill="#3c3c3a" d="M 420.5,144.5 C 419.833,143.167 419.833,143.167 420.5,144.5 Z"/></g>
<g><path style="opacity:0.004" fill="#383835" d="M 578.5,145.5 C 579.833,146.167 579.833,146.167 578.5,145.5 Z"/></g>
<g><path style="opacity:0.008" fill="#3d3d3c" d="M 412.5,152.5 C 411.833,151.167 411.833,151.167 412.5,152.5 Z"/></g>
<g><path style="opacity:0.004" fill="#3e403c" d="M 407.5,152.5 C 408.833,153.167 408.833,153.167 407.5,152.5 Z"/></g>
<g><path style="opacity:0.004" fill="#3e3e3c" d="M 409.5,153.5 C 410.833,154.167 410.833,154.167 409.5,153.5 Z"/></g>
<g><path style="opacity:0.004" fill="#3a3937" d="M 589.5,153.5 C 590.833,154.167 590.833,154.167 589.5,153.5 Z"/></g>
<g><path style="opacity:0.012" fill="#3d3d3a" d="M 404.5,162.5 C 403.833,161.167 403.833,161.167 404.5,162.5 Z"/></g>
<g><path style="opacity:0.004" fill="#403f3c" d="M 401.5,163.5 C 402.833,164.167 402.833,164.167 401.5,163.5 Z"/></g>
<g><path style="opacity:0.031" fill="#3f4141" d="M 401.5,167.5 C 401.672,168.492 401.338,169.158 400.5,169.5C 398.989,167.162 399.323,166.496 401.5,167.5 Z"/></g>
<g><path style="opacity:0.018" fill="#383735" d="M 598.5,170.5 C 598.167,169.167 597.833,169.167 597.5,170.5C 596.662,170.158 596.328,169.492 596.5,168.5C 597.867,167.147 598.867,167.481 599.5,169.5C 599.376,170.107 599.043,170.44 598.5,170.5 Z"/></g>
<g><path style="opacity:0.008" fill="#3b3b39" d="M 395.5,176.5 C 394.833,175.167 394.833,175.167 395.5,176.5 Z"/></g>
<g><path style="opacity:0.004" fill="#373838" d="M 602.5,175.5 C 603.833,176.167 603.833,176.167 602.5,175.5 Z"/></g>
<g><path style="opacity:0.004" fill="#393736" d="M 604.5,177.5 C 605.833,178.167 605.833,178.167 604.5,177.5 Z"/></g>
<g><path style="opacity:0.008" fill="#363635" d="M 606.5,182.5 C 607.833,183.167 607.833,183.167 606.5,182.5 Z"/></g>
<g><path style="opacity:0.004" fill="#373835" d="M 611.5,192.5 C 612.833,193.167 612.833,193.167 611.5,192.5 Z"/></g>
<g><path style="opacity:0.004" fill="#383532" d="M 613.5,197.5 C 614.833,198.167 614.833,198.167 613.5,197.5 Z"/></g>
<g><path style="opacity:0.004" fill="#444441" d="M 383.5,199.5 C 384.833,200.167 384.833,200.167 383.5,199.5 Z"/></g>
<g><path style="opacity:0.004" fill="#414140" d="M 380.5,208.5 C 381.833,209.167 381.833,209.167 380.5,208.5 Z"/></g>
<g><path style="opacity:0.996" fill="#121312" d="M 534.5,120.5 C 540.436,123.131 546.436,125.798 552.5,128.5C 556.811,131.132 561.144,133.799 565.5,136.5C 566.29,137.401 567.29,138.068 568.5,138.5C 571.539,141.54 574.873,144.206 578.5,146.5C 584.978,153.466 590.978,160.799 596.5,168.5C 596.328,169.492 596.662,170.158 597.5,170.5C 597.833,170.5 598.167,170.5 598.5,170.5C 599.34,172.853 600.674,174.853 602.5,176.5C 614.364,198.76 622.031,222.426 625.5,247.5C 625.263,248.791 625.596,249.791 626.5,250.5C 628.71,263.426 630.376,276.426 631.5,289.5C 630.686,287.369 630.186,285.036 630,282.5C 629.833,285.167 629.667,287.833 629.5,290.5C 632.376,326.687 632.043,362.687 628.5,398.5C 628.565,398.062 628.399,397.728 628,397.5C 627.535,398.931 626.701,400.097 625.5,401C 626.973,401.71 627.64,402.876 627.5,404.5C 625.856,404.714 624.356,404.38 623,403.5C 620.874,405.377 618.374,406.377 615.5,406.5C 615.579,405.07 615.246,403.736 614.5,402.5C 611.94,401.253 609.273,400.253 606.5,399.5C 607.629,397.471 607.129,397.137 605,398.5C 603.483,395.449 601.316,394.783 598.5,396.5C 597.868,399.365 596.368,401.698 594,403.5C 591.894,401.031 589.56,399.698 587,399.5C 584.56,400.274 583.227,401.94 583,404.5C 582.275,402.842 581.108,402.342 579.5,403C 578.167,403.667 578.167,404.333 579.5,405C 578.069,405.465 576.903,406.299 576,407.5C 575.508,406.451 575.674,405.451 576.5,404.5C 575.675,403.614 574.675,403.281 573.5,403.5C 573.66,401.801 573.494,400.134 573,398.5C 572.333,399.833 571.667,399.833 571,398.5C 570.885,400.107 571.385,401.607 572.5,403C 570.877,404.876 571.21,406.21 573.5,407C 570.471,410.084 569.471,409.917 570.5,406.5C 568.525,405.422 566.692,405.755 565,407.5C 565.617,409.095 565.284,410.428 564,411.5C 563.667,410.833 563.333,410.167 563,409.5C 562.682,411.061 561.849,412.228 560.5,413C 561,413.5 561.5,414 562,414.5C 563.626,413.903 565.459,413.903 567.5,414.5C 565.793,419.563 564.126,424.23 562.5,428.5C 563.167,429.167 563.833,429.833 564.5,430.5C 563.585,431.328 562.919,432.328 562.5,433.5C 563.228,435.155 563.395,436.821 563,438.5C 562.333,435.833 561.667,435.833 561,438.5C 560.215,436.714 559.049,435.214 557.5,434C 557.689,431.705 559.023,429.705 561.5,428C 560.255,424.841 559.088,425.007 558,428.5C 556.846,426.043 555.512,426.043 554,428.5C 553.667,427.833 553.333,427.167 553,426.5C 552.807,429.353 552.14,432.353 551,435.5C 550.632,436.91 549.799,437.91 548.5,438.5C 547.231,436.305 547.231,434.139 548.5,432C 547.906,431.536 547.239,431.369 546.5,431.5C 549.791,404.914 550.291,378.247 548,351.5C 547.77,344.565 544.937,343.065 539.5,347C 540.094,347.464 540.761,347.631 541.5,347.5C 523.539,357.392 504.206,361.225 483.5,359C 475.022,358.204 466.689,356.704 458.5,354.5C 454.47,352.403 450.303,350.403 446,348.5C 445.667,348.833 445.333,349.167 445,349.5C 441.068,346.451 436.901,343.785 432.5,341.5C 430.167,339.5 427.833,337.5 425.5,335.5C 426.398,334.842 427.398,334.176 428.5,333.5C 425.986,329.828 423.319,326.328 420.5,323C 421.167,322.667 421.833,322.333 422.5,322C 420.536,319.833 420.202,317.499 421.5,315C 420.5,314.5 419.5,314 418.5,313.5C 413.277,314.584 413.277,314.084 418.5,312C 417.044,311.577 416.544,310.744 417,309.5C 418.583,309.493 420.249,309.826 422,310.5C 422.692,309.975 423.192,309.308 423.5,308.5C 422.284,307.904 420.951,307.737 419.5,308C 420.09,306.491 420.756,304.991 421.5,303.5C 423.649,307.289 425.482,306.955 427,302.5C 427.862,304.087 428.529,305.754 429,307.5C 430.171,306.107 431.671,305.273 433.5,305C 432.062,304.781 430.729,304.281 429.5,303.5C 430.498,300.972 431.331,300.972 432,303.5C 433.264,299.989 435.097,299.822 437.5,303C 434.258,303.283 433.924,304.117 436.5,305.5C 435.833,306.167 435.167,306.833 434.5,307.5C 434.833,307.833 435.167,308.167 435.5,308.5C 439.023,306.562 440.856,303.896 441,300.5C 443.925,302.145 444.092,304.145 441.5,306.5C 440.624,307.251 439.624,307.751 438.5,308C 439.38,309.356 439.714,310.856 439.5,312.5C 441.696,312.565 443.696,313.232 445.5,314.5C 443.981,317.064 442.481,317.064 441,314.5C 440.626,315.416 440.126,316.25 439.5,317C 441.402,317.199 442.902,318.033 444,319.5C 445.419,318.54 446.919,317.707 448.5,317C 447.167,316 447.167,315 448.5,314C 447.051,312.883 445.384,312.216 443.5,312C 444.667,310.833 445.833,309.667 447,308.5C 448.435,310.211 450.269,311.378 452.5,312C 451.833,312.333 451.167,312.667 450.5,313C 453.464,313.84 453.797,314.84 451.5,316C 452.872,319.119 453.872,318.786 454.5,315C 454.265,314.127 453.931,313.293 453.5,312.5C 454.441,312.511 455.108,312.011 455.5,311C 453.646,309.71 453.313,308.21 454.5,306.5C 453.369,305.396 452.535,305.729 452,307.5C 451.493,305.165 452.16,303.165 454,301.5C 454.333,302.167 454.667,302.833 455,303.5C 458.991,301.179 462.824,298.679 466.5,296C 465.269,294.817 465.269,293.651 466.5,292.5C 467.842,293.902 468.676,293.569 469,291.5C 470.193,292.978 470.693,294.312 470.5,295.5C 471.478,295.023 472.311,294.357 473,293.5C 473.333,293.833 473.667,294.167 474,294.5C 476.524,291.967 478.691,289.133 480.5,286C 477.517,284.92 476.183,283.087 476.5,280.5C 474.528,281.305 473.028,282.639 472,284.5C 471.751,283.376 471.251,282.376 470.5,281.5C 469.253,283.006 469.253,284.506 470.5,286C 469.033,287.098 468.199,288.598 468,290.5C 464.806,287.354 464.973,284.521 468.5,282C 468.815,280.098 468.815,278.098 468.5,276C 469.332,275.312 469.998,275.479 470.5,276.5C 470.833,277.833 471.167,279.167 471.5,280.5C 473.134,280.032 474.3,279.032 475,277.5C 475.451,279.929 476.285,280.096 477.5,278C 476.521,275.597 475.021,274.764 473,275.5C 472.667,274.167 472.333,272.833 472,271.5C 471.577,272.956 470.744,273.456 469.5,273C 470.337,271.989 470.67,270.822 470.5,269.5C 472.467,269.739 474.301,269.406 476,268.5C 475.737,269.951 475.904,271.284 476.5,272.5C 477.955,270.056 479.621,269.556 481.5,271C 478.668,272.908 479.001,273.741 482.5,273.5C 482.338,271.473 482.505,269.473 483,267.5C 484.32,267.201 485.82,267.034 487.5,267C 486.228,265.693 485.228,264.193 484.5,262.5C 483.808,263.025 483.308,263.692 483,264.5C 482.667,263.167 482.333,261.833 482,260.5C 481.667,260.833 481.333,261.167 481,261.5C 480.577,260.044 479.744,259.544 478.5,260C 478.962,261.722 479.128,263.555 479,265.5C 480.131,264.396 480.965,264.729 481.5,266.5C 481.192,267.308 480.692,267.975 480,268.5C 479.082,266.368 477.749,265.701 476,266.5C 476,265.167 476,263.833 476,262.5C 475.667,262.833 475.333,263.167 475,263.5C 473.933,262.809 472.766,262.309 471.5,262C 473.059,261.02 474.726,260.187 476.5,259.5C 476.154,258.304 475.654,258.304 475,259.5C 474.085,258.672 473.419,257.672 473,256.5C 472.333,257.833 471.667,257.833 471,256.5C 470.308,257.025 469.808,257.692 469.5,258.5C 470.326,259.451 470.492,260.451 470,261.5C 468.26,260.284 467.26,258.618 467,256.5C 466.801,258.402 465.967,259.902 464.5,261C 466.301,261.317 466.634,261.984 465.5,263C 467.127,262.57 468.627,262.404 470,262.5C 470.667,263.5 470.667,264.5 470,265.5C 468.989,264.663 467.822,264.33 466.5,264.5C 466.297,266.638 465.297,268.305 463.5,269.5C 464.651,270.731 465.817,270.731 467,269.5C 467.456,270.744 466.956,271.577 465.5,272C 466.167,272.333 466.833,272.667 467.5,273C 466,274.5 464.5,276 463,277.5C 461.333,276.167 459.667,274.833 458,273.5C 456.442,274.345 455.442,273.679 455,271.5C 454.376,273.464 454.876,275.131 456.5,276.5C 456.167,277.5 455.5,278.167 454.5,278.5C 453.543,276.082 452.209,273.916 450.5,272C 451.91,271.632 452.91,270.799 453.5,269.5C 452.234,268.276 451.067,266.943 450,265.5C 450.123,267.45 449.123,269.117 447,270.5C 443.89,269.327 443.723,269.827 446.5,272C 445,274.167 443.833,274 443,271.5C 442.74,273.618 441.74,275.284 440,276.5C 440.289,273.723 440.789,271.223 441.5,269C 439.721,269.979 438.055,269.646 436.5,268C 438,267.167 439.167,266 440,264.5C 441.43,264.694 442.93,264.694 444.5,264.5C 445.167,265.5 445.833,266.5 446.5,267.5C 446.755,265.657 446.922,263.657 447,261.5C 447.249,262.624 447.749,263.624 448.5,264.5C 450.304,263.284 451.971,262.284 453.5,261.5C 452.167,261.167 450.833,260.833 449.5,260.5C 450.09,259.201 451.09,258.368 452.5,258C 448.5,257.333 448.5,256.667 452.5,256C 451.833,255.667 451.167,255.333 450.5,255C 453.432,253.299 456.099,253.466 458.5,255.5C 460.391,253.984 462.391,252.65 464.5,251.5C 465.711,250.28 465.711,249.113 464.5,248C 465.167,247.667 465.833,247.333 466.5,247C 466.273,245.865 465.94,244.698 465.5,243.5C 463.902,242.515 462.235,242.349 460.5,243C 461.167,243.333 461.833,243.667 462.5,244C 461.5,244.833 460.5,245.667 459.5,246.5C 461.748,248.225 461.248,249.558 458,250.5C 457.691,249.234 457.191,248.067 456.5,247C 456.833,246.667 457.167,246.333 457.5,246C 454.833,245 454.833,244 457.5,243C 457.018,241.992 456.852,240.825 457,239.5C 456.085,240.328 455.419,241.328 455,242.5C 454.667,242.167 454.333,241.833 454,241.5C 453.449,244.557 451.783,244.89 449,242.5C 448.667,243.167 448.333,243.833 448,244.5C 446.379,242.538 444.546,240.871 442.5,239.5C 443.355,238.707 444.189,239.04 445,240.5C 447.597,239.586 447.93,237.919 446,235.5C 444.381,236.083 442.548,236.083 440.5,235.5C 439.749,236.376 439.249,237.376 439,238.5C 437.324,237.9 435.657,236.567 434,234.5C 432.333,236.167 430.667,237.833 429,239.5C 429.185,236.775 429.018,233.775 428.5,230.5C 429.861,227.202 431.195,227.036 432.5,230C 430,230.833 429.833,232 432,233.5C 433.316,232.026 434.316,230.359 435,228.5C 438.252,230.144 441.418,231.977 444.5,234C 446.5,234 448.5,234 450.5,234C 448.314,234.604 448.148,235.77 450,237.5C 450.368,236.09 451.201,235.09 452.5,234.5C 452.689,238.522 454.023,238.522 456.5,234.5C 457.425,235.641 458.259,235.641 459,234.5C 460.044,235.623 460.71,236.956 461,238.5C 462.187,236.956 462.52,235.289 462,233.5C 458.871,232.87 455.704,232.204 452.5,231.5C 455.46,227.878 454.793,225.711 450.5,225C 452.936,227.319 453.103,229.819 451,232.5C 446.743,229.627 442.909,226.96 439.5,224.5C 440.999,223.096 440.666,222.43 438.5,222.5C 436.964,223.249 435.631,224.249 434.5,225.5C 432.522,224.197 432.522,222.531 434.5,220.5C 435.451,221.326 436.451,221.492 437.5,221C 436.549,220.282 436.383,219.449 437,218.5C 438.512,219.257 439.846,220.257 441,221.5C 442.617,220.464 442.784,219.297 441.5,218C 442.793,217.51 444.127,217.343 445.5,217.5C 445.491,215.692 445.991,214.025 447,212.5C 448.073,213.28 449.24,213.113 450.5,212C 449.692,211.692 449.025,211.192 448.5,210.5C 449.274,209.289 450.107,209.289 451,210.5C 451.309,209.234 451.809,208.067 452.5,207C 451.5,206.667 450.5,206.333 449.5,206C 449.833,205 450.167,204 450.5,203C 449.692,202.692 449.025,202.192 448.5,201.5C 450.698,200.262 452.865,198.928 455,197.5C 455.316,198.634 456.149,199.634 457.5,200.5C 459.872,199.332 462.205,199.498 464.5,201C 462.693,202.236 460.693,202.57 458.5,202C 458.715,204.026 459.715,206.026 461.5,208C 461.333,208.5 461.167,209 461,209.5C 458.871,208.137 458.371,208.471 459.5,210.5C 458.295,212.138 456.962,212.471 455.5,211.5C 454.355,212.776 454.355,214.109 455.5,215.5C 452.919,217.171 453.252,217.671 456.5,217C 457.913,214.798 459.413,212.632 461,210.5C 464.433,213.301 468.266,215.134 472.5,216C 471.833,215.333 471.167,214.667 470.5,214C 472.167,213.333 473.833,213.333 475.5,214C 475.031,215.962 475.697,217.795 477.5,219.5C 477.736,218.753 478.07,217.92 478.5,217C 476.164,215.73 476.164,214.23 478.5,212.5C 479.853,214.877 480.353,217.21 480,219.5C 481.085,221.657 482.251,221.824 483.5,220C 482.572,219.612 481.905,218.945 481.5,218C 481.144,215.052 481.644,212.219 483,209.5C 480.891,212.28 479.058,212.113 477.5,209C 479.167,208.667 480.833,208.333 482.5,208C 480.5,207.333 478.5,207.333 476.5,208C 474.833,209.5 473.167,211 471.5,212.5C 470.522,212.023 469.689,211.357 469,210.5C 467.122,212.698 464.955,212.864 462.5,211C 465.167,210.333 465.167,209.667 462.5,209C 464.23,207.148 465.396,207.314 466,209.5C 466.216,207.616 466.883,205.949 468,204.5C 468.974,206.878 469.641,206.544 470,203.5C 470.333,203.833 470.667,204.167 471,204.5C 471.638,203.391 472.138,202.225 472.5,201C 471.693,197.913 471.36,194.913 471.5,192C 472.85,190.282 474.017,188.448 475,186.5C 475.333,187.833 475.667,189.167 476,190.5C 476.249,189.376 476.749,188.376 477.5,187.5C 477.833,187.667 478.167,187.833 478.5,188C 478.384,189.268 478.051,190.602 477.5,192C 479.047,192.333 480.38,191.833 481.5,190.5C 484.028,191.517 484.028,192.684 481.5,194C 484.155,192.74 485.988,193.574 487,196.5C 488.667,195.833 490.333,195.167 492,194.5C 491.553,190.094 493.72,188.594 498.5,190C 497.529,191.204 496.529,191.704 495.5,191.5C 496.811,192.258 497.311,193.258 497,194.5C 496.667,194.167 496.333,193.833 496,193.5C 494.365,194.726 492.865,196.059 491.5,197.5C 491.667,197.833 491.833,198.167 492,198.5C 498.523,194.348 499.023,195.014 493.5,200.5C 491.5,199.5 489.5,198.5 487.5,197.5C 487.817,200.087 486.483,201.92 483.5,203C 486.259,203.977 488.259,203.144 489.5,200.5C 489.833,200.833 490.167,201.167 490.5,201.5C 487.687,204.213 485.687,207.046 484.5,210C 486.146,211.555 486.479,213.221 485.5,215C 486.738,214.923 487.738,215.089 488.5,215.5C 487.167,216.62 486.667,217.953 487,219.5C 487.333,219.167 487.667,218.833 488,218.5C 490.539,220.103 493.206,221.436 496,222.5C 496.317,220.699 496.984,220.366 498,221.5C 498.483,220.552 498.649,219.552 498.5,218.5C 495.402,218.587 495.068,218.087 497.5,217C 496.167,215 494.833,215 493.5,217C 493.64,218.264 493.64,219.431 493.5,220.5C 492.41,219.273 491.076,218.44 489.5,218C 491.378,216.457 492.878,214.624 494,212.5C 494.423,213.956 495.256,214.456 496.5,214C 498.768,212.442 499.934,210.276 500,207.5C 502,208.167 503.333,209.5 504,211.5C 504.45,209.481 505.283,207.648 506.5,206C 505.476,204.633 505.976,203.8 508,203.5C 511.312,205.121 511.312,205.455 508,204.5C 507.833,205 507.667,205.5 507.5,206C 508.98,205.942 509.813,207.109 510,209.5C 511.863,207.624 513.363,205.457 514.5,203C 512.699,202.683 512.366,202.016 513.5,201C 514.5,200.333 515.5,200.333 516.5,201C 518.505,203.062 520.839,204.062 523.5,204C 521.699,203.683 521.366,203.016 522.5,202C 521.464,200.383 520.297,200.216 519,201.5C 517.77,200.725 517.437,199.725 518,198.5C 521.039,199.966 523.872,199.633 526.5,197.5C 525.039,196.042 523.205,195.042 521,194.5C 519.739,194.759 518.739,195.426 518,196.5C 517.244,194.191 517.744,192.191 519.5,190.5C 519.669,191.397 520.002,192.397 520.5,193.5C 521.5,193 522.5,192.5 523.5,192C 522.919,188.98 522.585,185.98 522.5,183C 521.451,182.508 520.451,182.674 519.5,183.5C 518.785,181.222 517.618,179.889 516,179.5C 515.577,180.956 514.744,181.456 513.5,181C 514.517,179.951 514.684,178.784 514,177.5C 512.817,178.731 511.651,178.731 510.5,177.5C 511.325,173.849 510.659,173.682 508.5,177C 507.234,177.309 506.067,177.809 505,178.5C 504.833,178.167 504.667,177.833 504.5,177.5C 505.981,176.52 507.315,175.353 508.5,174C 508.167,173.667 507.833,173.333 507.5,173C 508.357,172.311 509.023,171.478 509.5,170.5C 506.131,167.024 505.798,163.358 508.5,159.5C 507.91,158.201 506.91,157.368 505.5,157C 506.86,155.062 506.527,153.396 504.5,152C 505.167,151.667 505.833,151.333 506.5,151C 503.115,148.688 500.449,149.355 498.5,153C 499.386,154.217 500.386,155.551 501.5,157C 499.109,157.691 499.109,158.691 501.5,160C 501.167,160.333 500.833,160.667 500.5,161C 502.001,162.252 503.668,163.252 505.5,164C 504.062,164.219 502.729,164.719 501.5,165.5C 504.239,165.329 506.239,166.829 507.5,170C 505.382,170.26 503.716,171.26 502.5,173C 504.878,173.974 504.544,174.641 501.5,175C 501.374,177.234 501.707,179.568 502.5,182C 500.286,182.46 499.619,181.793 500.5,180C 496.086,179.436 495.419,177.603 498.5,174.5C 499.376,173.749 500.376,173.249 501.5,173C 499.487,171.209 499.487,169.875 501.5,169C 500.809,167.933 500.309,166.766 500,165.5C 498.599,167.192 496.766,167.859 494.5,167.5C 494.5,166.5 494.5,165.5 494.5,164.5C 493.5,164.5 492.5,164.5 491.5,164.5C 491.618,167.25 492.951,169.25 495.5,170.5C 495.833,169.833 496.167,169.167 496.5,168.5C 499.188,170.023 499.022,171.357 496,172.5C 495.107,171.289 494.274,171.289 493.5,172.5C 496.131,174.005 495.797,174.671 492.5,174.5C 492.33,175.822 492.663,176.989 493.5,178C 492.333,178.5 491.5,179.333 491,180.5C 490.535,179.069 489.701,177.903 488.5,177C 490.158,176.275 490.658,175.108 490,173.5C 488.302,175.266 486.969,177.266 486,179.5C 485.316,178.216 485.483,177.049 486.5,176C 485.833,175.667 485.167,175.333 484.5,175C 485.925,173.638 486.758,172.138 487,170.5C 487.743,172.645 488.576,172.811 489.5,171C 488.294,168.983 488.627,167.149 490.5,165.5C 488.468,162.605 486.801,159.438 485.5,156C 486.313,154.115 487.647,153.449 489.5,154C 488.833,154.333 488.167,154.667 487.5,155C 488.833,155.667 488.833,156.333 487.5,157C 489.735,158.321 491.735,157.655 493.5,155C 491.996,153.663 490.996,151.996 490.5,150C 488.953,149.667 487.62,150.167 486.5,151.5C 486.167,151.167 485.833,150.833 485.5,150.5C 486.415,149.672 487.081,148.672 487.5,147.5C 487,145.5 486.5,143.5 486,141.5C 485.463,144.763 483.796,145.43 481,143.5C 476.219,143.865 475.719,145.032 479.5,147C 478.874,147.75 478.374,148.584 478,149.5C 476.817,148.269 475.651,148.269 474.5,149.5C 476.335,150.428 476.668,151.594 475.5,153C 475.833,153.167 476.167,153.333 476.5,153.5C 477.251,152.624 477.751,151.624 478,150.5C 478.114,153.833 477.781,157.166 477,160.5C 474.835,158.408 473.835,156.074 474,153.5C 472.731,154.905 472.231,156.571 472.5,158.5C 476.449,158.693 476.449,159.193 472.5,160C 473.167,160.333 473.833,160.667 474.5,161C 471.833,162.333 471.833,163.667 474.5,165C 473.626,166.727 473.793,168.56 475,170.5C 475.163,168.324 475.996,166.491 477.5,165C 475.993,164.163 475.493,162.996 476,161.5C 476.333,161.833 476.667,162.167 477,162.5C 478.185,160.441 479.352,160.274 480.5,162C 480.095,162.945 479.428,163.612 478.5,164C 479.667,164.5 480.5,165.333 481,166.5C 484.871,163.915 485.205,164.248 482,167.5C 481.508,168.549 481.674,169.549 482.5,170.5C 482.154,171.696 481.654,171.696 481,170.5C 480.667,171.5 480.333,172.5 480,173.5C 479.71,171.956 479.044,170.623 478,169.5C 477.5,170 477,170.5 476.5,171C 478.936,172.596 479.436,174.429 478,176.5C 477.974,173.895 476.807,172.729 474.5,173C 475.357,173.689 476.023,174.522 476.5,175.5C 475.167,176.5 475.167,177.5 476.5,178.5C 475.284,179.096 473.951,179.263 472.5,179C 471.586,181.597 469.919,181.93 467.5,180C 467.461,178.755 467.795,177.422 468.5,176C 467.02,176.058 466.187,174.891 466,172.5C 465.431,176.361 464.598,176.361 463.5,172.5C 462.808,173.025 462.308,173.692 462,174.5C 461.1,173.23 459.934,172.23 458.5,171.5C 458.709,170.914 459.043,170.414 459.5,170C 455.848,168.211 456.348,167.044 461,166.5C 461.833,166.833 462.667,167.167 463.5,167.5C 462.02,169.544 462.52,170.878 465,171.5C 465.945,171.095 466.612,170.428 467,169.5C 470.207,173.324 471.873,172.657 472,167.5C 469.794,171.531 469.294,171.364 470.5,167C 469.159,165.705 467.826,165.205 466.5,165.5C 467.628,164.738 468.795,164.071 470,163.5C 471.368,161.973 471.868,160.473 471.5,159C 469.66,158.988 467.827,158.154 466,156.5C 464.411,157.657 463.078,159.657 462,162.5C 460.644,161.62 459.144,161.286 457.5,161.5C 457.259,157.917 455.592,156.251 452.5,156.5C 453.025,155.808 453.692,155.308 454.5,155C 452.37,153.739 450.203,153.239 448,153.5C 447.833,153.833 447.667,154.167 447.5,154.5C 449.149,155.148 450.482,156.148 451.5,157.5C 450.833,157.833 450.167,158.167 449.5,158.5C 450.847,163.178 449.68,163.511 446,159.5C 445.74,161.618 444.74,163.284 443,164.5C 442.667,164.167 442.333,163.833 442,163.5C 439.187,166.196 436.687,165.863 434.5,162.5C 433.41,163.391 433.41,164.391 434.5,165.5C 433.311,166.429 431.978,166.762 430.5,166.5C 430.793,168.689 431.293,170.689 432,172.5C 430.355,170.612 428.522,168.945 426.5,167.5C 426.306,169.04 425.473,170.706 424,172.5C 421.757,171.029 419.257,170.029 416.5,169.5C 415.54,168.188 415.706,166.854 417,165.5C 417.68,167.513 419.013,168.846 421,169.5C 423.247,169.223 425.08,167.89 426.5,165.5C 428.48,166.383 430.48,166.217 432.5,165C 431.5,164.667 430.5,164.333 429.5,164C 430.676,161.875 432.509,159.709 435,157.5C 436.465,161.889 438.299,162.222 440.5,158.5C 438.39,158.706 436.39,157.873 434.5,156C 435.763,154.295 436.097,152.628 435.5,151C 436.701,150.097 437.535,148.931 438,147.5C 439.751,149.831 439.585,152.164 437.5,154.5C 438.498,157.028 439.331,157.028 440,154.5C 440.333,154.833 440.667,155.167 441,155.5C 443.201,151.965 446.035,149.132 449.5,147C 447.65,144.967 446.984,144.967 447.5,147C 439.365,153.072 438.532,151.905 445,143.5C 447.621,145.019 449.788,144.519 451.5,142C 450.167,141 450.167,140 451.5,139C 450.448,137.881 449.281,137.381 448,137.5C 448.783,139.345 449.116,141.345 449,143.5C 446.853,142.887 444.686,142.221 442.5,141.5C 443.609,140.035 443.109,139.035 441,138.5C 441,139.833 441,141.167 441,142.5C 439.667,141.167 438.333,141.167 437,142.5C 436.342,140.892 436.842,139.725 438.5,139C 437.788,137.575 437.621,136.075 438,134.5C 435.815,135.928 433.815,137.595 432,139.5C 431.53,138.423 431.697,137.423 432.5,136.5C 456.353,119.369 483.019,112.536 512.5,116C 519.919,117.184 527.252,118.684 534.5,120.5 Z"/></g>
<g><path style="opacity:0.004" fill="#3f403e" d="M 379.5,221.5 C 380.833,222.167 380.833,222.167 379.5,221.5 Z"/></g>
<g><path style="opacity:0.999" fill="#121312" d="M 425.5,335.5 C 422.319,333.408 419.319,331.075 416.5,328.5C 416.167,327.5 415.5,326.833 414.5,326.5C 413.833,325.167 412.833,324.167 411.5,323.5C 409.889,319.949 407.556,316.949 404.5,314.5C 401.497,309.825 398.497,305.159 395.5,300.5C 395.672,299.508 395.338,298.842 394.5,298.5C 375.523,257.573 375.857,216.906 395.5,176.5C 397.412,174.343 399.079,172.009 400.5,169.5C 401.338,169.158 401.672,168.492 401.5,167.5C 402.752,165.999 403.752,164.332 404.5,162.5C 407.516,159.48 410.183,156.146 412.5,152.5C 415.5,150.167 418.167,147.5 420.5,144.5C 424.238,142.303 427.571,139.636 430.5,136.5C 431.167,136.5 431.833,136.5 432.5,136.5C 431.697,137.423 431.53,138.423 432,139.5C 433.815,137.595 435.815,135.928 438,134.5C 437.621,136.075 437.788,137.575 438.5,139C 436.842,139.725 436.342,140.892 437,142.5C 438.333,141.167 439.667,141.167 441,142.5C 441,141.167 441,139.833 441,138.5C 443.109,139.035 443.609,140.035 442.5,141.5C 444.686,142.221 446.853,142.887 449,143.5C 449.116,141.345 448.783,139.345 448,137.5C 449.281,137.381 450.448,137.881 451.5,139C 450.167,140 450.167,141 451.5,142C 449.788,144.519 447.621,145.019 445,143.5C 438.532,151.905 439.365,153.072 447.5,147C 446.984,144.967 447.65,144.967 449.5,147C 446.035,149.132 443.201,151.965 441,155.5C 440.667,155.167 440.333,154.833 440,154.5C 439.331,157.028 438.498,157.028 437.5,154.5C 439.585,152.164 439.751,149.831 438,147.5C 437.535,148.931 436.701,150.097 435.5,151C 436.097,152.628 435.763,154.295 434.5,156C 436.39,157.873 438.39,158.706 440.5,158.5C 438.299,162.222 436.465,161.889 435,157.5C 432.509,159.709 430.676,161.875 429.5,164C 430.5,164.333 431.5,164.667 432.5,165C 430.48,166.217 428.48,166.383 426.5,165.5C 425.08,167.89 423.247,169.223 421,169.5C 419.013,168.846 417.68,167.513 417,165.5C 415.706,166.854 415.54,168.188 416.5,169.5C 419.257,170.029 421.757,171.029 424,172.5C 425.473,170.706 426.306,169.04 426.5,167.5C 428.522,168.945 430.355,170.612 432,172.5C 431.293,170.689 430.793,168.689 430.5,166.5C 431.978,166.762 433.311,166.429 434.5,165.5C 433.41,164.391 433.41,163.391 434.5,162.5C 436.687,165.863 439.187,166.196 442,163.5C 442.333,163.833 442.667,164.167 443,164.5C 444.74,163.284 445.74,161.618 446,159.5C 449.68,163.511 450.847,163.178 449.5,158.5C 450.167,158.167 450.833,157.833 451.5,157.5C 450.482,156.148 449.149,155.148 447.5,154.5C 447.667,154.167 447.833,153.833 448,153.5C 450.203,153.239 452.37,153.739 454.5,155C 453.692,155.308 453.025,155.808 452.5,156.5C 455.592,156.251 457.259,157.917 457.5,161.5C 459.144,161.286 460.644,161.62 462,162.5C 463.078,159.657 464.411,157.657 466,156.5C 467.827,158.154 469.66,158.988 471.5,159C 471.868,160.473 471.368,161.973 470,163.5C 468.795,164.071 467.628,164.738 466.5,165.5C 467.826,165.205 469.159,165.705 470.5,167C 469.294,171.364 469.794,171.531 472,167.5C 471.873,172.657 470.207,173.324 467,169.5C 466.612,170.428 465.945,171.095 465,171.5C 462.52,170.878 462.02,169.544 463.5,167.5C 462.667,167.167 461.833,166.833 461,166.5C 456.348,167.044 455.848,168.211 459.5,170C 459.043,170.414 458.709,170.914 458.5,171.5C 459.934,172.23 461.1,173.23 462,174.5C 462.308,173.692 462.808,173.025 463.5,172.5C 464.598,176.361 465.431,176.361 466,172.5C 466.187,174.891 467.02,176.058 468.5,176C 467.795,177.422 467.461,178.755 467.5,180C 469.919,181.93 471.586,181.597 472.5,179C 473.951,179.263 475.284,179.096 476.5,178.5C 475.167,177.5 475.167,176.5 476.5,175.5C 476.023,174.522 475.357,173.689 474.5,173C 476.807,172.729 477.974,173.895 478,176.5C 479.436,174.429 478.936,172.596 476.5,171C 477,170.5 477.5,170 478,169.5C 479.044,170.623 479.71,171.956 480,173.5C 480.333,172.5 480.667,171.5 481,170.5C 481.654,171.696 482.154,171.696 482.5,170.5C 481.674,169.549 481.508,168.549 482,167.5C 485.205,164.248 484.871,163.915 481,166.5C 480.5,165.333 479.667,164.5 478.5,164C 479.428,163.612 480.095,162.945 480.5,162C 479.352,160.274 478.185,160.441 477,162.5C 476.667,162.167 476.333,161.833 476,161.5C 475.493,162.996 475.993,164.163 477.5,165C 475.996,166.491 475.163,168.324 475,170.5C 473.793,168.56 473.626,166.727 474.5,165C 471.833,163.667 471.833,162.333 474.5,161C 473.833,160.667 473.167,160.333 472.5,160C 476.449,159.193 476.449,158.693 472.5,158.5C 472.231,156.571 472.731,154.905 474,153.5C 473.835,156.074 474.835,158.408 477,160.5C 477.781,157.166 478.114,153.833 478,150.5C 477.751,151.624 477.251,152.624 476.5,153.5C 476.167,153.333 475.833,153.167 475.5,153C 476.668,151.594 476.335,150.428 474.5,149.5C 475.651,148.269 476.817,148.269 478,149.5C 478.374,148.584 478.874,147.75 479.5,147C 475.719,145.032 476.219,143.865 481,143.5C 483.796,145.43 485.463,144.763 486,141.5C 486.5,143.5 487,145.5 487.5,147.5C 487.081,148.672 486.415,149.672 485.5,150.5C 485.833,150.833 486.167,151.167 486.5,151.5C 487.62,150.167 488.953,149.667 490.5,150C 490.996,151.996 491.996,153.663 493.5,155C 491.735,157.655 489.735,158.321 487.5,157C 488.833,156.333 488.833,155.667 487.5,155C 488.167,154.667 488.833,154.333 489.5,154C 487.647,153.449 486.313,154.115 485.5,156C 486.801,159.438 488.468,162.605 490.5,165.5C 488.627,167.149 488.294,168.983 489.5,171C 488.576,172.811 487.743,172.645 487,170.5C 486.758,172.138 485.925,173.638 484.5,175C 485.167,175.333 485.833,175.667 486.5,176C 485.483,177.049 485.316,178.216 486,179.5C 486.969,177.266 488.302,175.266 490,173.5C 490.658,175.108 490.158,176.275 488.5,177C 489.701,177.903 490.535,179.069 491,180.5C 491.5,179.333 492.333,178.5 493.5,178C 492.663,176.989 492.33,175.822 492.5,174.5C 495.797,174.671 496.131,174.005 493.5,172.5C 494.274,171.289 495.107,171.289 496,172.5C 499.022,171.357 499.188,170.023 496.5,168.5C 496.167,169.167 495.833,169.833 495.5,170.5C 492.951,169.25 491.618,167.25 491.5,164.5C 492.5,164.5 493.5,164.5 494.5,164.5C 494.5,165.5 494.5,166.5 494.5,167.5C 496.766,167.859 498.599,167.192 500,165.5C 500.309,166.766 500.809,167.933 501.5,169C 499.487,169.875 499.487,171.209 501.5,173C 500.376,173.249 499.376,173.749 498.5,174.5C 495.419,177.603 496.086,179.436 500.5,180C 499.619,181.793 500.286,182.46 502.5,182C 501.707,179.568 501.374,177.234 501.5,175C 504.544,174.641 504.878,173.974 502.5,173C 503.716,171.26 505.382,170.26 507.5,170C 506.239,166.829 504.239,165.329 501.5,165.5C 502.729,164.719 504.062,164.219 505.5,164C 503.668,163.252 502.001,162.252 500.5,161C 500.833,160.667 501.167,160.333 501.5,160C 499.109,158.691 499.109,157.691 501.5,157C 500.386,155.551 499.386,154.217 498.5,153C 500.449,149.355 503.115,148.688 506.5,151C 505.833,151.333 505.167,151.667 504.5,152C 506.527,153.396 506.86,155.062 505.5,157C 506.91,157.368 507.91,158.201 508.5,159.5C 505.798,163.358 506.131,167.024 509.5,170.5C 509.023,171.478 508.357,172.311 507.5,173C 507.833,173.333 508.167,173.667 508.5,174C 507.315,175.353 505.981,176.52 504.5,177.5C 504.667,177.833 504.833,178.167 505,178.5C 506.067,177.809 507.234,177.309 508.5,177C 510.659,173.682 511.325,173.849 510.5,177.5C 511.651,178.731 512.817,178.731 514,177.5C 514.684,178.784 514.517,179.951 513.5,181C 514.744,181.456 515.577,180.956 516,179.5C 517.618,179.889 518.785,181.222 519.5,183.5C 520.451,182.674 521.451,182.508 522.5,183C 522.585,185.98 522.919,188.98 523.5,192C 522.5,192.5 521.5,193 520.5,193.5C 520.002,192.397 519.669,191.397 519.5,190.5C 517.744,192.191 517.244,194.191 518,196.5C 518.739,195.426 519.739,194.759 521,194.5C 523.205,195.042 525.039,196.042 526.5,197.5C 523.872,199.633 521.039,199.966 518,198.5C 517.437,199.725 517.77,200.725 519,201.5C 520.297,200.216 521.464,200.383 522.5,202C 521.366,203.016 521.699,203.683 523.5,204C 520.839,204.062 518.505,203.062 516.5,201C 515.5,200.333 514.5,200.333 513.5,201C 512.366,202.016 512.699,202.683 514.5,203C 513.363,205.457 511.863,207.624 510,209.5C 509.813,207.109 508.98,205.942 507.5,206C 507.667,205.5 507.833,205 508,204.5C 511.312,205.455 511.312,205.121 508,203.5C 505.976,203.8 505.476,204.633 506.5,206C 505.283,207.648 504.45,209.481 504,211.5C 503.333,209.5 502,208.167 500,207.5C 499.934,210.276 498.768,212.442 496.5,214C 495.256,214.456 494.423,213.956 494,212.5C 492.878,214.624 491.378,216.457 489.5,218C 491.076,218.44 492.41,219.273 493.5,220.5C 493.64,219.431 493.64,218.264 493.5,217C 494.833,215 496.167,215 497.5,217C 495.068,218.087 495.402,218.587 498.5,218.5C 498.649,219.552 498.483,220.552 498,221.5C 496.984,220.366 496.317,220.699 496,222.5C 493.206,221.436 490.539,220.103 488,218.5C 487.667,218.833 487.333,219.167 487,219.5C 486.667,217.953 487.167,216.62 488.5,215.5C 487.738,215.089 486.738,214.923 485.5,215C 486.479,213.221 486.146,211.555 484.5,210C 485.687,207.046 487.687,204.213 490.5,201.5C 490.167,201.167 489.833,200.833 489.5,200.5C 488.259,203.144 486.259,203.977 483.5,203C 486.483,201.92 487.817,200.087 487.5,197.5C 489.5,198.5 491.5,199.5 493.5,200.5C 499.023,195.014 498.523,194.348 492,198.5C 491.833,198.167 491.667,197.833 491.5,197.5C 492.865,196.059 494.365,194.726 496,193.5C 496.333,193.833 496.667,194.167 497,194.5C 497.311,193.258 496.811,192.258 495.5,191.5C 496.529,191.704 497.529,191.204 498.5,190C 493.72,188.594 491.553,190.094 492,194.5C 490.333,195.167 488.667,195.833 487,196.5C 485.988,193.574 484.155,192.74 481.5,194C 484.028,192.684 484.028,191.517 481.5,190.5C 480.38,191.833 479.047,192.333 477.5,192C 478.051,190.602 478.384,189.268 478.5,188C 478.167,187.833 477.833,187.667 477.5,187.5C 476.749,188.376 476.249,189.376 476,190.5C 475.667,189.167 475.333,187.833 475,186.5C 474.017,188.448 472.85,190.282 471.5,192C 471.36,194.913 471.693,197.913 472.5,201C 472.138,202.225 471.638,203.391 471,204.5C 470.667,204.167 470.333,203.833 470,203.5C 469.641,206.544 468.974,206.878 468,204.5C 466.883,205.949 466.216,207.616 466,209.5C 465.396,207.314 464.23,207.148 462.5,209C 465.167,209.667 465.167,210.333 462.5,211C 464.955,212.864 467.122,212.698 469,210.5C 469.689,211.357 470.522,212.023 471.5,212.5C 473.167,211 474.833,209.5 476.5,208C 478.5,207.333 480.5,207.333 482.5,208C 480.833,208.333 479.167,208.667 477.5,209C 479.058,212.113 480.891,212.28 483,209.5C 481.644,212.219 481.144,215.052 481.5,218C 481.905,218.945 482.572,219.612 483.5,220C 482.251,221.824 481.085,221.657 480,219.5C 480.353,217.21 479.853,214.877 478.5,212.5C 476.164,214.23 476.164,215.73 478.5,217C 478.07,217.92 477.736,218.753 477.5,219.5C 475.697,217.795 475.031,215.962 475.5,214C 473.833,213.333 472.167,213.333 470.5,214C 471.167,214.667 471.833,215.333 472.5,216C 468.266,215.134 464.433,213.301 461,210.5C 459.413,212.632 457.913,214.798 456.5,217C 453.252,217.671 452.919,217.171 455.5,215.5C 454.355,214.109 454.355,212.776 455.5,211.5C 456.962,212.471 458.295,212.138 459.5,210.5C 458.371,208.471 458.871,208.137 461,209.5C 461.167,209 461.333,208.5 461.5,208C 459.715,206.026 458.715,204.026 458.5,202C 460.693,202.57 462.693,202.236 464.5,201C 462.205,199.498 459.872,199.332 457.5,200.5C 456.149,199.634 455.316,198.634 455,197.5C 452.865,198.928 450.698,200.262 448.5,201.5C 449.025,202.192 449.692,202.692 450.5,203C 450.167,204 449.833,205 449.5,206C 450.5,206.333 451.5,206.667 452.5,207C 451.809,208.067 451.309,209.234 451,210.5C 450.107,209.289 449.274,209.289 448.5,210.5C 449.025,211.192 449.692,211.692 450.5,212C 449.24,213.113 448.073,213.28 447,212.5C 445.991,214.025 445.491,215.692 445.5,217.5C 444.127,217.343 442.793,217.51 441.5,218C 442.784,219.297 442.617,220.464 441,221.5C 439.846,220.257 438.512,219.257 437,218.5C 436.383,219.449 436.549,220.282 437.5,221C 436.451,221.492 435.451,221.326 434.5,220.5C 432.522,222.531 432.522,224.197 434.5,225.5C 435.631,224.249 436.964,223.249 438.5,222.5C 440.666,222.43 440.999,223.096 439.5,224.5C 442.909,226.96 446.743,229.627 451,232.5C 453.103,229.819 452.936,227.319 450.5,225C 454.793,225.711 455.46,227.878 452.5,231.5C 455.704,232.204 458.871,232.87 462,233.5C 462.52,235.289 462.187,236.956 461,238.5C 460.71,236.956 460.044,235.623 459,234.5C 458.259,235.641 457.425,235.641 456.5,234.5C 454.023,238.522 452.689,238.522 452.5,234.5C 451.201,235.09 450.368,236.09 450,237.5C 448.148,235.77 448.314,234.604 450.5,234C 448.5,234 446.5,234 444.5,234C 441.418,231.977 438.252,230.144 435,228.5C 434.316,230.359 433.316,232.026 432,233.5C 429.833,232 430,230.833 432.5,230C 431.195,227.036 429.861,227.202 428.5,230.5C 429.018,233.775 429.185,236.775 429,239.5C 430.667,237.833 432.333,236.167 434,234.5C 435.657,236.567 437.324,237.9 439,238.5C 439.249,237.376 439.749,236.376 440.5,235.5C 442.548,236.083 444.381,236.083 446,235.5C 447.93,237.919 447.597,239.586 445,240.5C 444.189,239.04 443.355,238.707 442.5,239.5C 444.546,240.871 446.379,242.538 448,244.5C 448.333,243.833 448.667,243.167 449,242.5C 451.783,244.89 453.449,244.557 454,241.5C 454.333,241.833 454.667,242.167 455,242.5C 455.419,241.328 456.085,240.328 457,239.5C 456.852,240.825 457.018,241.992 457.5,243C 454.833,244 454.833,245 457.5,246C 457.167,246.333 456.833,246.667 456.5,247C 457.191,248.067 457.691,249.234 458,250.5C 461.248,249.558 461.748,248.225 459.5,246.5C 460.5,245.667 461.5,244.833 462.5,244C 461.833,243.667 461.167,243.333 460.5,243C 462.235,242.349 463.902,242.515 465.5,243.5C 465.94,244.698 466.273,245.865 466.5,247C 465.833,247.333 465.167,247.667 464.5,248C 465.711,249.113 465.711,250.28 464.5,251.5C 462.391,252.65 460.391,253.984 458.5,255.5C 456.099,253.466 453.432,253.299 450.5,255C 451.167,255.333 451.833,255.667 452.5,256C 448.5,256.667 448.5,257.333 452.5,258C 451.09,258.368 450.09,259.201 449.5,260.5C 450.833,260.833 452.167,261.167 453.5,261.5C 451.971,262.284 450.304,263.284 448.5,264.5C 447.749,263.624 447.249,262.624 447,261.5C 446.922,263.657 446.755,265.657 446.5,267.5C 445.833,266.5 445.167,265.5 444.5,264.5C 442.93,264.694 441.43,264.694 440,264.5C 439.167,266 438,267.167 436.5,268C 438.055,269.646 439.721,269.979 441.5,269C 440.789,271.223 440.289,273.723 440,276.5C 441.74,275.284 442.74,273.618 443,271.5C 443.833,274 445,274.167 446.5,272C 443.723,269.827 443.89,269.327 447,270.5C 449.123,269.117 450.123,267.45 450,265.5C 451.067,266.943 452.234,268.276 453.5,269.5C 452.91,270.799 451.91,271.632 450.5,272C 452.209,273.916 453.543,276.082 454.5,278.5C 455.5,278.167 456.167,277.5 456.5,276.5C 454.876,275.131 454.376,273.464 455,271.5C 455.442,273.679 456.442,274.345 458,273.5C 459.667,274.833 461.333,276.167 463,277.5C 464.5,276 466,274.5 467.5,273C 466.833,272.667 466.167,272.333 465.5,272C 466.956,271.577 467.456,270.744 467,269.5C 465.817,270.731 464.651,270.731 463.5,269.5C 465.297,268.305 466.297,266.638 466.5,264.5C 467.822,264.33 468.989,264.663 470,265.5C 470.667,264.5 470.667,263.5 470,262.5C 468.627,262.404 467.127,262.57 465.5,263C 466.634,261.984 466.301,261.317 464.5,261C 465.967,259.902 466.801,258.402 467,256.5C 467.26,258.618 468.26,260.284 470,261.5C 470.492,260.451 470.326,259.451 469.5,258.5C 469.808,257.692 470.308,257.025 471,256.5C 471.667,257.833 472.333,257.833 473,256.5C 473.419,257.672 474.085,258.672 475,259.5C 475.654,258.304 476.154,258.304 476.5,259.5C 474.726,260.187 473.059,261.02 471.5,262C 472.766,262.309 473.933,262.809 475,263.5C 475.333,263.167 475.667,262.833 476,262.5C 476,263.833 476,265.167 476,266.5C 477.749,265.701 479.082,266.368 480,268.5C 480.692,267.975 481.192,267.308 481.5,266.5C 480.965,264.729 480.131,264.396 479,265.5C 479.128,263.555 478.962,261.722 478.5,260C 479.744,259.544 480.577,260.044 481,261.5C 481.333,261.167 481.667,260.833 482,260.5C 482.333,261.833 482.667,263.167 483,264.5C 483.308,263.692 483.808,263.025 484.5,262.5C 485.228,264.193 486.228,265.693 487.5,267C 485.82,267.034 484.32,267.201 483,267.5C 482.505,269.473 482.338,271.473 482.5,273.5C 479.001,273.741 478.668,272.908 481.5,271C 479.621,269.556 477.955,270.056 476.5,272.5C 475.904,271.284 475.737,269.951 476,268.5C 474.301,269.406 472.467,269.739 470.5,269.5C 470.67,270.822 470.337,271.989 469.5,273C 470.744,273.456 471.577,272.956 472,271.5C 472.333,272.833 472.667,274.167 473,275.5C 475.021,274.764 476.521,275.597 477.5,278C 476.285,280.096 475.451,279.929 475,277.5C 474.3,279.032 473.134,280.032 471.5,280.5C 471.167,279.167 470.833,277.833 470.5,276.5C 469.998,275.479 469.332,275.312 468.5,276C 468.815,278.098 468.815,280.098 468.5,282C 464.973,284.521 464.806,287.354 468,290.5C 468.199,288.598 469.033,287.098 470.5,286C 469.253,284.506 469.253,283.006 470.5,281.5C 471.251,282.376 471.751,283.376 472,284.5C 473.028,282.639 474.528,281.305 476.5,280.5C 476.183,283.087 477.517,284.92 480.5,286C 478.691,289.133 476.524,291.967 474,294.5C 473.667,294.167 473.333,293.833 473,293.5C 472.311,294.357 471.478,295.023 470.5,295.5C 470.693,294.312 470.193,292.978 469,291.5C 468.676,293.569 467.842,293.902 466.5,292.5C 465.269,293.651 465.269,294.817 466.5,296C 462.824,298.679 458.991,301.179 455,303.5C 454.667,302.833 454.333,302.167 454,301.5C 452.16,303.165 451.493,305.165 452,307.5C 452.535,305.729 453.369,305.396 454.5,306.5C 453.313,308.21 453.646,309.71 455.5,311C 455.108,312.011 454.441,312.511 453.5,312.5C 453.931,313.293 454.265,314.127 454.5,315C 453.872,318.786 452.872,319.119 451.5,316C 453.797,314.84 453.464,313.84 450.5,313C 451.167,312.667 451.833,312.333 452.5,312C 450.269,311.378 448.435,310.211 447,308.5C 445.833,309.667 444.667,310.833 443.5,312C 445.384,312.216 447.051,312.883 448.5,314C 447.167,315 447.167,316 448.5,317C 446.919,317.707 445.419,318.54 444,319.5C 442.902,318.033 441.402,317.199 439.5,317C 440.126,316.25 440.626,315.416 441,314.5C 442.481,317.064 443.981,317.064 445.5,314.5C 443.696,313.232 441.696,312.565 439.5,312.5C 439.714,310.856 439.38,309.356 438.5,308C 439.624,307.751 440.624,307.251 441.5,306.5C 444.092,304.145 443.925,302.145 441,300.5C 440.856,303.896 439.023,306.562 435.5,308.5C 435.167,308.167 434.833,307.833 434.5,307.5C 435.167,306.833 435.833,306.167 436.5,305.5C 433.924,304.117 434.258,303.283 437.5,303C 435.097,299.822 433.264,299.989 432,303.5C 431.331,300.972 430.498,300.972 429.5,303.5C 430.729,304.281 432.062,304.781 433.5,305C 431.671,305.273 430.171,306.107 429,307.5C 428.529,305.754 427.862,304.087 427,302.5C 425.482,306.955 423.649,307.289 421.5,303.5C 420.756,304.991 420.09,306.491 419.5,308C 420.951,307.737 422.284,307.904 423.5,308.5C 423.192,309.308 422.692,309.975 422,310.5C 420.249,309.826 418.583,309.493 417,309.5C 416.544,310.744 417.044,311.577 418.5,312C 413.277,314.084 413.277,314.584 418.5,313.5C 419.5,314 420.5,314.5 421.5,315C 420.202,317.499 420.536,319.833 422.5,322C 421.833,322.333 421.167,322.667 420.5,323C 423.319,326.328 425.986,329.828 428.5,333.5C 427.398,334.176 426.398,334.842 425.5,335.5 Z"/></g>
<g><path style="opacity:0.004" fill="#40403d" d="M 378.5,240.5 C 379.833,241.167 379.833,241.167 378.5,240.5 Z"/></g>
<g><path style="opacity:0.004" fill="#3d3d3c" d="M 625.5,247.5 C 627.796,247.804 628.129,248.804 626.5,250.5C 625.596,249.791 625.263,248.791 625.5,247.5 Z"/></g>
<g><path style="opacity:0.004" fill="#3c3c39" d="M 379.5,249.5 C 380.833,250.167 380.833,250.167 379.5,249.5 Z"/></g>
<g><path style="opacity:0.004" fill="#3e3e39" d="M 379.5,251.5 C 380.833,252.167 380.833,252.167 379.5,251.5 Z"/></g>
<g><path style="opacity:0.004" fill="#3b3c3b" d="M 383.5,274.5 C 384.833,275.167 384.833,275.167 383.5,274.5 Z"/></g>
<g><path style="opacity:0.008" fill="#3c3c39" d="M 386.5,283.5 C 387.833,284.167 387.833,284.167 386.5,283.5 Z"/></g>
<g><path style="opacity:0.008" fill="#3d3c3b" d="M 387.5,285.5 C 388.525,285.897 388.692,286.563 388,287.5C 387.536,286.906 387.369,286.239 387.5,285.5 Z"/></g>
<g><path style="opacity:0.984" fill="#171716" d="M 631.5,289.5 C 635.073,327.435 634.906,365.435 631,403.5C 629.792,415.405 627.959,427.072 625.5,438.5C 625.557,436.116 625.223,433.782 624.5,431.5C 626.408,420.566 627.742,409.566 628.5,398.5C 632.043,362.687 632.376,326.687 629.5,290.5C 629.667,287.833 629.833,285.167 630,282.5C 630.186,285.036 630.686,287.369 631.5,289.5 Z"/></g>
<g><path style="opacity:0.004" fill="#363735" d="M 633.5,296.5 C 634.833,297.167 634.833,297.167 633.5,296.5 Z"/></g>
<g><path style="opacity:0.004" fill="#3a3b37" d="M 394.5,298.5 C 393.833,299.167 393.833,299.167 394.5,298.5 Z"/></g>
<g><path style="opacity:0.008" fill="#3b3c3a" d="M 395.5,300.5 C 394.833,301.167 394.833,301.167 395.5,300.5 Z"/></g>
<g><path style="opacity:0.004" fill="#40403e" d="M 395.5,309.5 C 396.833,310.167 396.833,310.167 395.5,309.5 Z"/></g>
<g><path style="opacity:0.004" fill="#3a3b3c" d="M 399.5,312.5 C 400.833,313.167 400.833,313.167 399.5,312.5 Z"/></g>
<g><path style="opacity:0.004" fill="#3e3e3d" d="M 399.5,314.5 C 400.833,315.167 400.833,315.167 399.5,314.5 Z"/></g>
<g><path style="opacity:0.004" fill="#383837" d="M 404.5,314.5 C 403.833,315.167 403.833,315.167 404.5,314.5 Z"/></g>
<g><path style="opacity:0.004" fill="#3b3e3a" d="M 403.5,317.5 C 404.833,318.167 404.833,318.167 403.5,317.5 Z"/></g>
<g><path style="opacity:0.004" fill="#383735" d="M 634.5,319.5 C 635.833,320.167 635.833,320.167 634.5,319.5 Z"/></g>
<g><path style="opacity:0.004" fill="#3b3a39" d="M 411.5,323.5 C 410.833,324.167 410.833,324.167 411.5,323.5 Z"/></g>
<g><path style="opacity:0.008" fill="#3a3c38" d="M 414.5,326.5 C 413.833,327.167 413.833,327.167 414.5,326.5 Z"/></g>
<g><path style="opacity:0.004" fill="#373836" d="M 416.5,328.5 C 415.833,329.167 415.833,329.167 416.5,328.5 Z"/></g>
<g><path style="opacity:0.004" fill="#686968" d="M 275.5,333.5 C 276.833,334.167 276.833,334.167 275.5,333.5 Z"/></g>
<g><path style="opacity:0.004" fill="#3a3c38" d="M 421.5,334.5 C 422.833,335.167 422.833,335.167 421.5,334.5 Z"/></g>
<g><path style="opacity:0.008" fill="#343634" d="M 432.5,341.5 C 431.833,342.167 431.833,342.167 432.5,341.5 Z"/></g>
<g><path style="opacity:0.996" fill="#191919" d="M 546.5,431.5 C 546.276,438.237 545.442,444.904 544,451.5C 543.768,450.263 543.268,449.263 542.5,448.5C 546.434,415.599 547.434,382.599 545.5,349.5C 545.5,348.5 545.5,347.5 545.5,346.5C 544.209,346.263 543.209,346.596 542.5,347.5C 542.167,347.5 541.833,347.5 541.5,347.5C 540.761,347.631 540.094,347.464 539.5,347C 544.937,343.065 547.77,344.565 548,351.5C 550.291,378.247 549.791,404.914 546.5,431.5 Z"/></g>
<g><path style="opacity:0.016" fill="#484a4a" d="M 542.5,347.5 C 543.209,346.596 544.209,346.263 545.5,346.5C 545.5,347.5 545.5,348.5 545.5,349.5C 545.167,349.5 544.833,349.5 544.5,349.5C 544.5,348.167 543.833,347.5 542.5,347.5 Z"/></g>
<g><path style="opacity:0.004" fill="#545655" d="M 883.5,349.5 C 884.833,350.167 884.833,350.167 883.5,349.5 Z"/></g>
<g><path style="opacity:0.004" fill="#515351" d="M 1003.5,349.5 C 1004.83,350.167 1004.83,350.167 1003.5,349.5 Z"/></g>
<g><path style="opacity:0.008" fill="#323232" d="M 544.5,349.5 C 544.657,350.873 544.49,352.207 544,353.5C 543.235,351.934 543.402,350.601 544.5,349.5 Z"/></g>
<g><path style="opacity:0.004" fill="#343432" d="M 458.5,354.5 C 457.833,355.167 457.833,355.167 458.5,354.5 Z"/></g>
<g><path style="opacity:0.004" fill="#3b3736" d="M 466.5,357.5 C 467.833,358.167 467.833,358.167 466.5,357.5 Z"/></g>
<g><path style="opacity:0.008" fill="#383635" d="M 519.5,357.5 C 520.833,358.167 520.833,358.167 519.5,357.5 Z"/></g>
<g><path style="opacity:0.004" fill="#333432" d="M 543.5,357.5 C 544.833,358.167 544.833,358.167 543.5,357.5 Z"/></g>
<g><path style="opacity:0.008" fill="#393937" d="M 472.5,358.5 C 473.833,359.167 473.833,359.167 472.5,358.5 Z"/></g>
<g><path style="opacity:0.004" fill="#373435" d="M 515.5,359.5 C 515.897,358.475 516.563,358.308 517.5,359C 516.906,359.464 516.239,359.631 515.5,359.5 Z"/></g>
<g><path style="opacity:0.004" fill="#343631" d="M 543.5,359.5 C 544.833,360.167 544.833,360.167 543.5,359.5 Z"/></g>
<g><path style="opacity:0.004" fill="#363836" d="M 492.5,360.5 C 493.833,361.167 493.833,361.167 492.5,360.5 Z"/></g>
<g><path style="opacity:0.008" fill="#353533" d="M 544.5,364.5 C 545.833,365.167 545.833,365.167 544.5,364.5 Z"/></g>
<g><path style="opacity:0.004" fill="#373635" d="M 544.5,366.5 C 545.525,366.897 545.692,367.563 545,368.5C 544.536,367.906 544.369,367.239 544.5,366.5 Z"/></g>
<g><path style="opacity:0.006" fill="#383736" d="M 544.5,371.5 C 545.598,372.601 545.765,373.934 545,375.5C 544.51,374.207 544.343,372.873 544.5,371.5 Z"/></g>
<g><path style="opacity:0.004" fill="#363736" d="M 544.5,379.5 C 545.833,380.167 545.833,380.167 544.5,379.5 Z"/></g>
<g><path style="opacity:0.01" fill="#363736" d="M 544.5,386.5 C 545.525,386.897 545.692,387.563 545,388.5C 544.536,387.906 544.369,387.239 544.5,386.5 Z"/></g>
<g><path style="opacity:0.004" fill="#373737" d="M 544.5,391.5 C 545.833,392.167 545.833,392.167 544.5,391.5 Z"/></g>
<g><path style="opacity:0.998" fill="#151616" d="M 628.5,398.5 C 627.742,409.566 626.408,420.566 624.5,431.5C 625.223,433.782 625.557,436.116 625.5,438.5C 618.047,485.314 604.547,530.314 585,573.5C 573.827,597.187 561.66,620.187 548.5,642.5C 540.922,653.32 533.588,664.32 526.5,675.5C 525.094,675.973 524.427,676.973 524.5,678.5C 516.147,688.86 508.147,699.527 500.5,710.5C 489.484,723.52 478.817,736.854 468.5,750.5C 465.815,753.19 463.482,756.19 461.5,759.5C 450.1,772.57 439.434,786.236 429.5,800.5C 426.779,803.894 424.446,807.561 422.5,811.5C 407.977,831.541 396.31,853.207 387.5,876.5C 387.607,874.621 387.107,874.288 386,875.5C 383.022,884.079 380.356,892.745 378,901.5C 374.551,883.635 374.718,865.802 378.5,848C 378.333,846.833 378.167,845.667 378,844.5C 377.79,846.058 377.29,847.391 376.5,848.5C 378.094,837.789 380.76,827.456 384.5,817.5C 385.338,817.158 385.672,816.492 385.5,815.5C 388.167,807.5 390.833,799.5 393.5,791.5C 399.531,779.07 405.531,766.07 411.5,752.5C 423.825,731.172 436.159,709.838 448.5,688.5C 455.322,678.199 461.656,667.533 467.5,656.5C 468.833,654.5 470.167,652.5 471.5,650.5C 472.401,649.71 473.068,648.71 473.5,647.5C 475.576,642.349 477.91,637.349 480.5,632.5C 490.355,615.143 498.688,597.476 505.5,579.5C 511.661,566.695 516.661,553.362 520.5,539.5C 527.218,521.333 532.551,502.666 536.5,483.5C 537.404,482.791 537.737,481.791 537.5,480.5C 539.167,469.832 540.834,459.165 542.5,448.5C 543.268,449.263 543.768,450.263 544,451.5C 545.442,444.904 546.276,438.237 546.5,431.5C 547.239,431.369 547.906,431.536 548.5,432C 547.231,434.139 547.231,436.305 548.5,438.5C 549.799,437.91 550.632,436.91 551,435.5C 552.14,432.353 552.807,429.353 553,426.5C 553.333,427.167 553.667,427.833 554,428.5C 555.512,426.043 556.846,426.043 558,428.5C 559.088,425.007 560.255,424.841 561.5,428C 559.023,429.705 557.689,431.705 557.5,434C 559.049,435.214 560.215,436.714 561,438.5C 561.667,435.833 562.333,435.833 563,438.5C 563.395,436.821 563.228,435.155 562.5,433.5C 562.919,432.328 563.585,431.328 564.5,430.5C 563.833,429.833 563.167,429.167 562.5,428.5C 564.126,424.23 565.793,419.563 567.5,414.5C 565.459,413.903 563.626,413.903 562,414.5C 561.5,414 561,413.5 560.5,413C 561.849,412.228 562.682,411.061 563,409.5C 563.333,410.167 563.667,410.833 564,411.5C 565.284,410.428 565.617,409.095 565,407.5C 566.692,405.755 568.525,405.422 570.5,406.5C 569.471,409.917 570.471,410.084 573.5,407C 571.21,406.21 570.877,404.876 572.5,403C 571.385,401.607 570.885,400.107 571,398.5C 571.667,399.833 572.333,399.833 573,398.5C 573.494,400.134 573.66,401.801 573.5,403.5C 574.675,403.281 575.675,403.614 576.5,404.5C 575.674,405.451 575.508,406.451 576,407.5C 576.903,406.299 578.069,405.465 579.5,405C 578.167,404.333 578.167,403.667 579.5,403C 581.108,402.342 582.275,402.842 583,404.5C 583.227,401.94 584.56,400.274 587,399.5C 589.56,399.698 591.894,401.031 594,403.5C 596.368,401.698 597.868,399.365 598.5,396.5C 601.316,394.783 603.483,395.449 605,398.5C 607.129,397.137 607.629,397.471 606.5,399.5C 609.273,400.253 611.94,401.253 614.5,402.5C 615.246,403.736 615.579,405.07 615.5,406.5C 618.374,406.377 620.874,405.377 623,403.5C 624.356,404.38 625.856,404.714 627.5,404.5C 627.64,402.876 626.973,401.71 625.5,401C 626.701,400.097 627.535,398.931 628,397.5C 628.399,397.728 628.565,398.062 628.5,398.5 Z"/></g>
<g><path style="opacity:0.007" fill="#363635" d="M 544.5,393.5 C 545.622,395.288 545.789,397.288 545,399.5C 544.505,397.527 544.338,395.527 544.5,393.5 Z"/></g>
<g><path style="opacity:0.008" fill="#393937" d="M 544.5,403.5 C 545.833,404.167 545.833,404.167 544.5,403.5 Z"/></g>
<g><path style="opacity:0.004" fill="#363736" d="M 630.5,415.5 C 631.833,416.167 631.833,416.167 630.5,415.5 Z"/></g>
<g><path style="opacity:0.004" fill="#393838" d="M 543.5,414.5 C 544.613,415.946 544.78,417.613 544,419.5C 543.506,417.866 543.34,416.199 543.5,414.5 Z"/></g>
<g><path style="opacity:0.004" fill="#363938" d="M 630.5,418.5 C 631.833,419.167 631.833,419.167 630.5,418.5 Z"/></g>
<g><path style="opacity:0.004" fill="#383837" d="M 629.5,423.5 C 630.833,424.167 630.833,424.167 629.5,423.5 Z"/></g>
<g><path style="opacity:0.004" fill="#393a38" d="M 628.5,430.5 C 629.833,431.167 629.833,431.167 628.5,430.5 Z"/></g>
<g><path style="opacity:0.004" fill="#393a37" d="M 627.5,435.5 C 628.833,436.167 628.833,436.167 627.5,435.5 Z"/></g>
<g><path style="opacity:0.004" fill="#3b3b3a" d="M 627.5,437.5 C 628.833,438.167 628.833,438.167 627.5,437.5 Z"/></g>
<g><path style="opacity:0.004" fill="#3f3d3b" d="M 537.5,466.5 C 538.833,467.167 538.833,467.167 537.5,466.5 Z"/></g>
<g><path style="opacity:0.004" fill="#4d4e4d" d="M 859.5,469.5 C 860.833,470.167 860.833,470.167 859.5,469.5 Z"/></g>
<g><path style="opacity:0.004" fill="#3d3d3b" d="M 536.5,471.5 C 537.833,472.167 537.833,472.167 536.5,471.5 Z"/></g>
<g><path style="opacity:0.02" fill="#4b4c4d" d="M 537.5,480.5 C 537.737,481.791 537.404,482.791 536.5,483.5C 536.586,482.504 536.252,481.671 535.5,481C 536.094,480.536 536.761,480.369 537.5,480.5 Z"/></g>
<g><path style="opacity:0.004" fill="#3f403b" d="M 524.5,520.5 C 525.833,521.167 525.833,521.167 524.5,520.5 Z"/></g>
<g><path style="opacity:0.004" fill="#3a3a3a" d="M 605.5,523.5 C 606.833,524.167 606.833,524.167 605.5,523.5 Z"/></g>
<g><path style="opacity:0.004" fill="#5d5f5d" d="M 475.5,525.5 C 476.833,526.167 476.833,526.167 475.5,525.5 Z"/></g>
<g><path style="opacity:0.004" fill="#3b3c3a" d="M 604.5,526.5 C 605.833,527.167 605.833,527.167 604.5,526.5 Z"/></g>
<g><path style="opacity:0.004" fill="#3d3e3c" d="M 521.5,530.5 C 522.833,531.167 522.833,531.167 521.5,530.5 Z"/></g>
<g><path style="opacity:0.004" fill="#3c3c3a" d="M 520.5,539.5 C 519.833,538.167 519.833,538.167 520.5,539.5 Z"/></g>
<g><path style="opacity:0.004" fill="#3e3f3e" d="M 505.5,579.5 C 504.833,578.167 504.833,578.167 505.5,579.5 Z"/></g>
<g><path style="opacity:0.008" fill="#3c3c3a" d="M 581.5,582.5 C 582.833,583.167 582.833,583.167 581.5,582.5 Z"/></g>
<g><path style="opacity:0.008" fill="#3a3b3b" d="M 566.5,611.5 C 567.833,612.167 567.833,612.167 566.5,611.5 Z"/></g>
<g><path style="opacity:0.004" fill="#555655" d="M 1019.5,621.5 C 1020.83,622.167 1020.83,622.167 1019.5,621.5 Z"/></g>
<g><path style="opacity:0.024" fill="#3e3d3f" d="M 480.5,632.5 C 479.833,631.167 479.833,631.167 480.5,632.5 Z"/></g>
<g><path style="opacity:0.008" fill="#3c3c3a" d="M 548.5,642.5 C 549.833,643.167 549.833,643.167 548.5,642.5 Z"/></g>
<g><path style="opacity:0.349" fill="#484749" d="M 473.5,647.5 C 473.068,648.71 472.401,649.71 471.5,650.5C 471.285,648.821 471.952,647.821 473.5,647.5 Z"/></g>
<g><path style="opacity:0.004" fill="#424342" d="M 467.5,656.5 C 466.833,655.167 466.833,655.167 467.5,656.5 Z"/></g>
<g><path style="opacity:0.004" fill="#414243" d="M 456.5,671.5 C 457.833,672.167 457.833,672.167 456.5,671.5 Z"/></g>
<g><path style="opacity:0.004" fill="#3a3c3d" d="M 526.5,675.5 C 527.833,676.167 527.833,676.167 526.5,675.5 Z"/></g>
<g><path style="opacity:0.004" fill="#3e3c3d" d="M 524.5,678.5 C 525.239,678.369 525.906,678.536 526.5,679C 525.563,679.692 524.897,679.525 524.5,678.5 Z"/></g>
<g><path style="opacity:0.004" fill="#464646" d="M 448.5,679.5 C 449.833,680.167 449.833,680.167 448.5,679.5 Z"/></g>
<g><path style="opacity:0.016" fill="#414243" d="M 448.5,688.5 C 447.833,687.167 447.833,687.167 448.5,688.5 Z"/></g>
<g><path style="opacity:0.004" fill="#454743" d="M 443.5,693.5 C 444.833,694.167 444.833,694.167 443.5,693.5 Z"/></g>
<g><path style="opacity:0.008" fill="#434442" d="M 440.5,698.5 C 441.833,699.167 441.833,699.167 440.5,698.5 Z"/></g>
<g><path style="opacity:0.008" fill="#454443" d="M 440.5,699.5 C 439.833,700.167 439.833,700.167 440.5,699.5 Z"/></g>
<g><path style="opacity:0.004" fill="#484947" d="M 434.5,704.5 C 435.833,705.167 435.833,705.167 434.5,704.5 Z"/></g>
<g><path style="opacity:0.004" fill="#474544" d="M 436.5,704.5 C 437.833,705.167 437.833,705.167 436.5,704.5 Z"/></g>
<g><path style="opacity:0.004" fill="#403f3e" d="M 500.5,710.5 C 501.833,711.167 501.833,711.167 500.5,710.5 Z"/></g>
<g><path style="opacity:0.012" fill="#464647" d="M 432.5,711.5 C 433.833,712.167 433.833,712.167 432.5,711.5 Z"/></g>
<g><path style="opacity:0.004" fill="#434744" d="M 416.5,739.5 C 417.833,740.167 417.833,740.167 416.5,739.5 Z"/></g>
<g><path style="opacity:0.004" fill="#3f4040" d="M 468.5,750.5 C 469.833,751.167 469.833,751.167 468.5,750.5 Z"/></g>
<g><path style="opacity:0.008" fill="#464847" d="M 411.5,752.5 C 410.833,751.167 410.833,751.167 411.5,752.5 Z"/></g>
<g><path style="opacity:0.004" fill="#40413f" d="M 461.5,759.5 C 462.833,760.167 462.833,760.167 461.5,759.5 Z"/></g>
<g><path style="opacity:0.004" fill="#474948" d="M 399.5,768.5 C 400.833,769.167 400.833,769.167 399.5,768.5 Z"/></g>
<g><path style="opacity:0.004" fill="#464745" d="M 401.5,769.5 C 402.833,770.167 402.833,770.167 401.5,769.5 Z"/></g>
<g><path style="opacity:0.004" fill="#474a45" d="M 394.5,784.5 C 395.833,785.167 395.833,785.167 394.5,784.5 Z"/></g>
<g><path style="opacity:0.004" fill="#444746" d="M 393.5,791.5 C 392.833,790.167 392.833,790.167 393.5,791.5 Z"/></g>
<g><path style="opacity:0.004" fill="#3f4041" d="M 429.5,800.5 C 430.833,801.167 430.833,801.167 429.5,800.5 Z"/></g>
<g><path style="opacity:0.004" fill="#494949" d="M 385.5,807.5 C 386.833,808.167 386.833,808.167 385.5,807.5 Z"/></g>
<g><path style="opacity:0.004" fill="#474946" d="M 384.5,810.5 C 385.833,811.167 385.833,811.167 384.5,810.5 Z"/></g>
<g><path style="opacity:0.004" fill="#40413f" d="M 422.5,811.5 C 423.833,812.167 423.833,812.167 422.5,811.5 Z"/></g>
<g><path style="opacity:0.165" fill="#464849" d="M 385.5,815.5 C 385.672,816.492 385.338,817.158 384.5,817.5C 382.969,816.075 383.302,815.409 385.5,815.5 Z"/></g>
<g><path style="opacity:0.004" fill="#4a4848" d="M 377.5,833.5 C 378.833,834.167 378.833,834.167 377.5,833.5 Z"/></g>
<g><path style="opacity:0.008" fill="#494b4a" d="M 372.5,856.5 C 373.833,857.167 373.833,857.167 372.5,856.5 Z"/></g>
<g><path style="opacity:0.004" fill="#4c4f4d" d="M 367.5,864.5 C 368.833,865.167 368.833,865.167 367.5,864.5 Z"/></g>
<g><path style="opacity:0.004" fill="#494949" d="M 371.5,873.5 C 372.833,874.167 372.833,874.167 371.5,873.5 Z"/></g>
<g><path style="opacity:0.984" fill="#1c1c1c" d="M 387.5,876.5 C 384.855,885.079 382.522,893.745 380.5,902.5C 379.167,903.833 377.833,903.833 376.5,902.5C 375.075,899.097 374.242,895.43 374,891.5C 373.333,881.833 373.333,872.167 374,862.5C 374.354,857.611 375.187,852.944 376.5,848.5C 377.29,847.391 377.79,846.058 378,844.5C 378.167,845.667 378.333,846.833 378.5,848C 374.718,865.802 374.551,883.635 378,901.5C 380.356,892.745 383.022,884.079 386,875.5C 387.107,874.288 387.607,874.621 387.5,876.5 Z"/></g>
<g><path style="opacity:0.004" fill="#535353" d="M 372.5,893.5 C 373.525,893.897 373.692,894.563 373,895.5C 372.536,894.906 372.369,894.239 372.5,893.5 Z"/></g>
<g><path style="opacity:0.004" fill="#515253" d="M 382.5,897.5 C 383.525,897.897 383.692,898.563 383,899.5C 382.536,898.906 382.369,898.239 382.5,897.5 Z"/></g>
<g><path style="opacity:0.937" fill="#2e2f2f" d="M 376.5,902.5 C 377.833,903.833 379.167,903.833 380.5,902.5C 380.446,904.632 379.446,905.965 377.5,906.5C 376.766,905.292 376.433,903.959 376.5,902.5 Z"/></g>
<g><path style="opacity:0.008" fill="#5e615f" d="M 377.5,906.5 C 376.833,907.167 376.833,907.167 377.5,906.5 Z"/></g>
<g><path style="opacity:0.004" fill="#61615e" d="M 375.5,908.5 C 376.833,909.167 376.833,909.167 375.5,908.5 Z"/></g>
<g><path style="opacity:0.004" fill="#6c6e6c" d="M 307.5,933.5 C 308.833,934.167 308.833,934.167 307.5,933.5 Z"/></g>
</svg>
