<?xml version="1.0" encoding="UTF-8"?>
<!DOCTYPE svg PUBLIC "-//W3C//DTD SVG 1.1//EN" "http://www.w3.org/Graphics/SVG/1.1/DTD/svg11.dtd">
<svg xmlns="http://www.w3.org/2000/svg" version="1.1" width="1024px" height="1024px" style="shape-rendering:geometricPrecision; text-rendering:geometricPrecision; image-rendering:optimizeQuality; fill-rule:evenodd; clip-rule:evenodd" xmlns:xlink="http://www.w3.org/1999/xlink">
<g><path style="opacity:1" fill="#fefefe" d="M -0.5,-0.5 C 340.833,-0.5 682.167,-0.5 1023.5,-0.5C 1023.5,340.833 1023.5,682.167 1023.5,1023.5C 682.167,1023.5 340.833,1023.5 -0.5,1023.5C -0.5,682.167 -0.5,340.833 -0.5,-0.5 Z"/></g>
<g><path style="opacity:1" fill="#0f0f0f" d="M 216.5,774.5 C 219.913,715.891 221.247,657.225 220.5,598.5C 219.981,494.5 219.481,390.5 219,286.5C 218.556,264.788 217.389,243.122 215.5,221.5C 217.038,224.68 217.872,229.347 218,235.5C 218.857,247.489 219.523,259.489 220,271.5C 221.556,421.829 221.89,572.163 221,722.5C 220.292,741.878 218.958,761.211 217,780.5C 216.505,778.527 216.338,776.527 216.5,774.5 Z"/></g>
<g><path style="opacity:1" fill="#111312" d="M 216.5,774.5 C 216.338,776.527 216.505,778.527 217,780.5C 218.958,761.211 220.292,741.878 221,722.5C 221.89,572.163 221.556,421.829 220,271.5C 219.523,259.489 218.857,247.489 218,235.5C 217.872,229.347 217.038,224.68 215.5,221.5C 213.431,189.522 199.098,164.689 172.5,147C 163.168,141.891 153.501,137.557 143.5,134C 143.833,133.667 144.167,133.333 144.5,133C 177.167,132.667 209.833,132.333 242.5,132C 296.189,128.332 349.856,124.332 403.5,120C 502.231,109.525 594.898,128.191 681.5,176C 715.501,196.315 746.334,220.815 774,249.5C 831.185,315.698 858.685,392.865 856.5,481C 855.66,601.313 810.66,701.313 721.5,781C 647.328,841.857 561.995,875.524 465.5,882C 440.502,883.95 415.502,883.95 390.5,882C 356.978,877.165 323.312,873.831 289.5,872C 246.462,870.922 203.462,871.756 160.5,874.5C 156.167,874.167 151.833,873.833 147.5,873.5C 167.489,866.664 183.989,854.998 197,838.5C 202.054,831.058 206.054,823.058 209,814.5C 212.623,801.227 215.123,787.894 216.5,774.5 Z"/></g>
<g><path style="opacity:1" fill="#040404" d="M 320.5,189.5 C 320.389,190.117 320.056,190.617 319.5,191C 321.246,386.96 322.246,583.126 322.5,779.5C 321.487,775.212 320.987,766.212 321,752.5C 320.667,566.167 320.333,379.833 320,193.5C 317.863,191.694 318.03,190.36 320.5,189.5 Z"/></g>
<g><path style="opacity:1" fill="#fefefe" d="M 322.5,779.5 C 322.246,583.126 321.246,386.96 319.5,191C 320.056,190.617 320.389,190.117 320.5,189.5C 340.62,177.958 362.286,170.458 385.5,167C 495.382,153.397 587.216,187.564 661,269.5C 695.741,312.327 718.741,360.994 730,415.5C 743.523,486.136 740.856,556.136 722,625.5C 689.561,729.606 621.394,798.106 517.5,831C 454.225,848.762 393.225,843.095 334.5,814C 331,811.833 328.167,809 326,805.5C 324.193,796.785 323.027,788.118 322.5,779.5 Z"/></g>
</svg>
