<?xml version="1.0" encoding="UTF-8"?>
<!DOCTYPE svg PUBLIC "-//W3C//DTD SVG 1.1//EN" "http://www.w3.org/Graphics/SVG/1.1/DTD/svg11.dtd">
<svg xmlns="http://www.w3.org/2000/svg" version="1.1" width="1024px" height="1024px" style="shape-rendering:geometricPrecision; text-rendering:geometricPrecision; image-rendering:optimizeQuality; fill-rule:evenodd; clip-rule:evenodd" xmlns:xlink="http://www.w3.org/1999/xlink">
<g><path style="opacity:1" fill="#fefefe" d="M -0.5,-0.5 C 340.833,-0.5 682.167,-0.5 1023.5,-0.5C 1023.5,340.833 1023.5,682.167 1023.5,1023.5C 682.167,1023.5 340.833,1023.5 -0.5,1023.5C -0.5,682.167 -0.5,340.833 -0.5,-0.5 Z"/></g>
<g><path style="opacity:1" fill="#151514" d="M 707.5,137.5 C 707.649,136.448 707.483,135.448 707,134.5C 704.123,157.741 702.456,181.074 702,204.5C 701.333,372.167 701.333,539.833 702,707.5C 702.375,712.21 703.042,716.877 704,721.5C 704.483,720.552 704.649,719.552 704.5,718.5C 706.43,732.106 711.597,744.439 720,755.5C 724.214,759.382 728.714,762.882 733.5,766C 741.331,768.957 749.331,771.291 757.5,773C 760.309,774.588 760.975,776.755 759.5,779.5C 757.664,780.919 755.664,782.086 753.5,783C 715.728,795.888 678.395,809.888 641.5,825C 637.835,825.387 635.002,823.887 633,820.5C 625.372,804.993 620.372,788.66 618,771.5C 615.951,757.557 614.451,743.557 613.5,729.5C 592.868,749.64 571.201,768.473 548.5,786C 487.405,828.51 422.405,835.51 353.5,807C 315.162,788.328 287.328,759.495 270,720.5C 245.544,660.139 241.877,598.472 259,535.5C 281.764,453.772 329.597,391.606 402.5,349C 463.956,315.149 527.956,309.149 594.5,331C 601.191,333.429 607.691,336.263 614,339.5C 614.884,303.484 614.551,267.484 613,231.5C 610.725,214.783 603.559,200.617 591.5,189C 580.929,182.882 569.929,177.548 558.5,173C 555.913,171.475 555.08,169.308 556,166.5C 580.665,159.056 604.831,150.223 628.5,140C 655.078,126.796 681.245,112.963 707,98.5C 710.891,99.4366 712.724,101.937 712.5,106C 710.769,116.635 709.102,127.135 707.5,137.5 Z"/></g>
<g><path style="opacity:1" fill="#030303" d="M 707.5,137.5 C 705.322,162.452 703.822,187.452 703,212.5C 702.333,376.167 702.333,539.833 703,703.5C 703.611,708.496 704.111,713.496 704.5,718.5C 704.649,719.552 704.483,720.552 704,721.5C 703.042,716.877 702.375,712.21 702,707.5C 701.333,539.833 701.333,372.167 702,204.5C 702.456,181.074 704.123,157.741 707,134.5C 707.483,135.448 707.649,136.448 707.5,137.5 Z"/></g>
<g><path style="opacity:1" fill="#fefefe" d="M 486.5,358.5 C 523.631,355.489 556.297,365.989 584.5,390C 595,399.167 604.833,409 614,419.5C 614.667,507.5 614.667,595.5 614,683.5C 583.319,731.259 539.486,753.759 482.5,751C 450.751,747.044 424.251,733.21 403,709.5C 374.016,671.902 358.016,629.236 355,581.5C 351.415,539.177 357.082,498.177 372,458.5C 384.271,427.779 403.438,402.279 429.5,382C 446.734,369.759 465.734,361.925 486.5,358.5 Z"/></g>
</svg>
