<?xml version="1.0" encoding="UTF-8"?>
<!DOCTYPE svg PUBLIC "-//W3C//DTD SVG 1.1//EN" "http://www.w3.org/Graphics/SVG/1.1/DTD/svg11.dtd">
<svg xmlns="http://www.w3.org/2000/svg" version="1.1" width="1024px" height="1024px" style="shape-rendering:geometricPrecision; text-rendering:geometricPrecision; image-rendering:optimizeQuality; fill-rule:evenodd; clip-rule:evenodd" xmlns:xlink="http://www.w3.org/1999/xlink">
<g><path style="opacity:1" fill="#fefefe" d="M -0.5,-0.5 C 340.833,-0.5 682.167,-0.5 1023.5,-0.5C 1023.5,340.833 1023.5,682.167 1023.5,1023.5C 682.167,1023.5 340.833,1023.5 -0.5,1023.5C -0.5,682.167 -0.5,340.833 -0.5,-0.5 Z"/></g>
<g><path style="opacity:1" fill="#111111" d="M 746.5,142.5 C 746.169,148.804 745.669,148.47 745,141.5C 744.501,137.179 744.334,132.846 744.5,128.5C 571.164,128.781 397.83,128.447 224.5,127.5C 223.833,127.5 223.5,127.833 223.5,128.5C 222.244,128.539 221.244,128.039 220.5,127C 395.167,126.333 569.833,126.333 744.5,127C 745.695,132.059 746.362,137.225 746.5,142.5 Z"/></g>
<g><path style="opacity:1" fill="#1a1c19" d="M 224.5,127.5 C 397.83,128.447 571.164,128.781 744.5,128.5C 744.334,132.846 744.501,137.179 745,141.5C 745.669,148.47 746.169,148.804 746.5,142.5C 747.23,146.061 747.897,149.727 748.5,153.5C 747.603,154.598 746.77,154.598 746,153.5C 745.28,151.888 745.446,150.388 746.5,149C 745.376,148.161 744.709,146.994 744.5,145.5C 743.551,140.194 742.885,134.861 742.5,129.5C 571.761,129.492 401.094,129.492 230.5,129.5C 228.343,128.95 226.343,128.283 224.5,127.5 Z"/></g>
<g><path style="opacity:1" fill="#10110f" d="M 224.5,127.5 C 226.343,128.283 228.343,128.95 230.5,129.5C 401.094,129.492 571.761,129.492 742.5,129.5C 742.885,134.861 743.551,140.194 744.5,145.5C 744.709,146.994 745.376,148.161 746.5,149C 745.446,150.388 745.28,151.888 746,153.5C 746.77,154.598 747.603,154.598 748.5,153.5C 754.166,184.998 760.666,216.332 768,247.5C 769.521,254.648 767.354,256.148 761.5,252C 736.529,226.334 706.862,208.001 672.5,197C 641.146,187.997 609.146,182.997 576.5,182C 521.333,179.814 466.333,181.814 411.5,188C 410.029,200.734 409.196,213.568 409,226.5C 408.5,297.166 408.333,367.833 408.5,438.5C 439.835,438.667 471.168,438.5 502.5,438C 525.907,437.329 549.241,435.662 572.5,433C 604.255,430.101 630.922,417.101 652.5,394C 654.167,393.333 655.833,393.333 657.5,394C 657.761,421.761 657.928,449.594 658,477.5C 658.603,494.858 659.437,512.191 660.5,529.5C 660.183,532.655 658.517,533.822 655.5,533C 641.387,518.438 624.387,508.772 604.5,504C 574.615,496.777 544.282,492.777 513.5,492C 477.835,491.5 442.168,491.333 406.5,491.5C 405.647,581.54 407.147,671.54 411,761.5C 411.566,776.962 413.233,792.295 416,807.5C 417.5,813 421,816.5 426.5,818C 434.683,820.419 443.016,822.086 451.5,823C 499.821,827.375 548.154,827.375 596.5,823C 641.776,819.016 684.443,806.349 724.5,785C 753.072,767.766 777.239,745.6 797,718.5C 798.667,717.167 800.333,717.167 802,718.5C 802.667,720.5 802.667,722.5 802,724.5C 788.637,776.196 774.471,827.53 759.5,878.5C 758.922,877.453 758.256,877.62 757.5,879C 745.333,879.167 733.167,879.333 721,879.5C 556.835,878.387 392.668,878.22 228.5,879C 225.635,879.183 222.969,879.683 220.5,880.5C 219.711,880.217 219.044,879.717 218.5,879C 231.217,869.956 243.051,859.789 254,848.5C 266.796,830.467 275.13,810.467 279,788.5C 282.38,765.607 284.713,742.607 286,719.5C 290.947,565.815 290.614,412.149 285,258.5C 284.406,223.45 275.406,190.783 258,160.5C 248.512,147.507 237.012,136.84 223.5,128.5C 223.5,127.833 223.833,127.5 224.5,127.5 Z"/></g>
<g><path style="opacity:1" fill="#1d1d1d" d="M 759.5,878.5 C 580.17,880.499 400.503,881.165 220.5,880.5C 222.969,879.683 225.635,879.183 228.5,879C 392.668,878.22 556.835,878.387 721,879.5C 733.167,879.333 745.333,879.167 757.5,879C 758.256,877.62 758.922,877.453 759.5,878.5 Z"/></g>
</svg>
