<?xml version="1.0" encoding="UTF-8"?>
<!DOCTYPE svg PUBLIC "-//W3C//DTD SVG 1.1//EN" "http://www.w3.org/Graphics/SVG/1.1/DTD/svg11.dtd">
<svg xmlns="http://www.w3.org/2000/svg" version="1.1" width="1024px" height="1024px" style="shape-rendering:geometricPrecision; text-rendering:geometricPrecision; image-rendering:optimizeQuality; fill-rule:evenodd; clip-rule:evenodd" xmlns:xlink="http://www.w3.org/1999/xlink">
<g><path style="opacity:1" fill="#fefefe" d="M -0.5,-0.5 C 340.833,-0.5 682.167,-0.5 1023.5,-0.5C 1023.5,340.833 1023.5,682.167 1023.5,1023.5C 682.167,1023.5 340.833,1023.5 -0.5,1023.5C -0.5,682.167 -0.5,340.833 -0.5,-0.5 Z"/></g>
<g><path style="opacity:1" fill="#101210" d="M 540.5,195.5 C 589.98,191.615 636.646,201.115 680.5,224C 710.481,242.314 733.981,266.814 751,297.5C 766.375,326.554 778.041,356.887 786,388.5C 781.936,392.786 777.103,395.952 771.5,398C 697.663,429.834 621.329,453.834 542.5,470C 496.272,478.979 450.272,488.979 404.5,500C 390.347,503.382 377.014,508.715 364.5,516C 362.951,517.214 361.785,518.714 361,520.5C 358.91,584.228 377.577,640.895 417,690.5C 464.346,742.292 523.18,765.459 593.5,760C 661.707,755.986 716.54,727.153 758,673.5C 763.957,665.087 769.79,656.587 775.5,648C 776.5,647.333 777.5,647.333 778.5,648C 783.604,651.605 786.937,656.438 788.5,662.5C 781.459,690.585 768.625,715.585 750,737.5C 706.536,787.329 652.036,818.162 586.5,830C 521.361,842.926 457.694,837.926 395.5,815C 318.978,781.184 270.145,723.684 249,642.5C 223.209,524.616 245.543,416.949 316,319.5C 373.118,246.516 447.951,205.182 540.5,195.5 Z"/></g>
<g><path style="opacity:1" fill="#fefefe" d="M 508.5,248.5 C 553.32,244.173 590.487,258.84 620,292.5C 643.722,322.329 656.389,356.329 658,394.5C 656.457,396.378 654.624,397.878 652.5,399C 612.504,412.499 571.837,423.499 530.5,432C 488.763,440.598 446.763,447.931 404.5,454C 391.509,455.484 378.509,456.484 365.5,457C 369.475,401.95 387.308,351.784 419,306.5C 430.796,291.037 444.296,277.204 459.5,265C 475.073,256.867 491.406,251.367 508.5,248.5 Z"/></g>
</svg>
