<?xml version="1.0" encoding="UTF-8"?>
<!DOCTYPE svg PUBLIC "-//W3C//DTD SVG 1.1//EN" "http://www.w3.org/Graphics/SVG/1.1/DTD/svg11.dtd">
<svg xmlns="http://www.w3.org/2000/svg" version="1.1" width="1024px" height="1024px" style="shape-rendering:geometricPrecision; text-rendering:geometricPrecision; image-rendering:optimizeQuality; fill-rule:evenodd; clip-rule:evenodd" xmlns:xlink="http://www.w3.org/1999/xlink">
<g><path style="opacity:0.941" fill="#40403f" d="M 513.5,85.5 C 511.283,86.3686 508.95,86.702 506.5,86.5C 508.137,85.6204 509.97,84.9537 512,84.5C 512.765,84.5699 513.265,84.9033 513.5,85.5 Z"/></g>
<g><path style="opacity:0.999" fill="#030303" d="M 513.5,85.5 C 517.407,85.7261 521.074,86.7261 524.5,88.5C 524.842,89.3382 525.508,89.6716 526.5,89.5C 531.45,91.3084 536.117,93.6417 540.5,96.5C 540.842,97.3382 541.508,97.6716 542.5,97.5C 545.126,99.8235 547.793,102.157 550.5,104.5C 552.942,107.729 555.608,110.729 558.5,113.5C 566.336,124.171 572.336,135.837 576.5,148.5C 576.259,150.898 576.926,152.898 578.5,154.5C 579.717,159.289 581.051,163.955 582.5,168.5C 586.476,197.842 586.31,227.175 582,256.5C 568,344.499 554,432.499 540,520.5C 532.828,576.599 527.661,632.599 524.5,688.5C 522.694,689.024 521.028,689.691 519.5,690.5C 514.122,691.73 508.789,691.73 503.5,690.5C 502.391,690.443 501.391,690.11 500.5,689.5C 499.023,674.683 498.023,659.683 497.5,644.5C 497.815,640.629 497.482,636.962 496.5,633.5C 495.2,620.529 494.2,607.529 493.5,594.5C 493.802,591.941 493.468,589.607 492.5,587.5C 491.64,583.566 491.307,579.566 491.5,575.5C 491.806,572.615 491.473,569.948 490.5,567.5C 486.661,534.624 481.994,501.958 476.5,469.5C 473.795,449.268 470.461,429.268 466.5,409.5C 466.058,405.846 465.724,402.179 465.5,398.5C 465.784,396.585 465.451,394.919 464.5,393.5C 462.325,383.62 460.659,373.62 459.5,363.5C 459.768,361.901 459.434,360.568 458.5,359.5C 455.736,344.914 453.402,330.247 451.5,315.5C 451.768,313.901 451.434,312.568 450.5,311.5C 449.631,309.283 449.298,306.95 449.5,304.5C 449.795,302.265 449.461,300.265 448.5,298.5C 447.366,291.676 446.033,285.01 444.5,278.5C 444.322,271.251 443.322,264.251 441.5,257.5C 440.367,241.513 439.367,225.513 438.5,209.5C 438.971,200.08 439.638,190.414 440.5,180.5C 441.451,179.081 441.784,177.415 441.5,175.5C 441.298,173.05 441.631,170.717 442.5,168.5C 443.913,165.781 444.58,162.781 444.5,159.5C 447.982,142.207 454.982,126.541 465.5,112.5C 474.413,102.056 485.08,94.0558 497.5,88.5C 500.402,87.4222 503.402,86.7556 506.5,86.5C 508.95,86.702 511.283,86.3686 513.5,85.5 Z"/></g>
<g><path style="opacity:0.016" fill="#4e4e4e" d="M 497.5,88.5 C 496.448,88.6495 495.448,88.4828 494.5,88C 495.749,87.2599 496.749,87.4265 497.5,88.5 Z"/></g>
<g><path style="opacity:0.043" fill="#525152" d="M 526.5,89.5 C 525.508,89.6716 524.842,89.3382 524.5,88.5C 526.838,86.9893 527.504,87.3227 526.5,89.5 Z"/></g>
<g><path style="opacity:0.008" fill="#4d504f" d="M 488.5,90.5 C 489.833,91.1667 489.833,91.1667 488.5,90.5 Z"/></g>
<g><path style="opacity:0.004" fill="#4a4a49" d="M 540.5,95.5 C 541.833,96.1667 541.833,96.1667 540.5,95.5 Z"/></g>
<g><path style="opacity:0.004" fill="#51514f" d="M 476.5,96.5 C 477.833,97.1667 477.833,97.1667 476.5,96.5 Z"/></g>
<g><path style="opacity:0.004" fill="#4a4a49" d="M 542.5,96.5 C 543.833,97.1667 543.833,97.1667 542.5,96.5 Z"/></g>
<g><path style="opacity:0.004" fill="#4c504b" d="M 545.5,98.5 C 546.833,99.1667 546.833,99.1667 545.5,98.5 Z"/></g>
<g><path style="opacity:0.004" fill="#868986" d="M 963.5,101.5 C 964.833,102.167 964.833,102.167 963.5,101.5 Z"/></g>
<g><path style="opacity:0.012" fill="#464645" d="M 471.5,103.5 C 472.833,104.167 472.833,104.167 471.5,103.5 Z"/></g>
<g><path style="opacity:0.008" fill="#4e4e4c" d="M 550.5,103.5 C 551.833,104.167 551.833,104.167 550.5,103.5 Z"/></g>
<g><path style="opacity:0.016" fill="#494749" d="M 465.5,112.5 C 464.761,112.631 464.094,112.464 463.5,112C 464.437,111.308 465.103,111.475 465.5,112.5 Z"/></g>
<g><path style="opacity:0.004" fill="#484849" d="M 558.5,113.5 C 558.369,112.761 558.536,112.094 559,111.5C 559.692,112.437 559.525,113.103 558.5,113.5 Z"/></g>
<g><path style="opacity:0.004" fill="#444643" d="M 565.5,121.5 C 566.833,122.167 566.833,122.167 565.5,121.5 Z"/></g>
<g><path style="opacity:0.004" fill="#484a49" d="M 455.5,123.5 C 456.833,124.167 456.833,124.167 455.5,123.5 Z"/></g>
<g><path style="opacity:0.004" fill="#9a9b9b" d="M 259.5,141.5 C 260.833,142.167 260.833,142.167 259.5,141.5 Z"/></g>
<g><path style="opacity:0.004" fill="#50514e" d="M 439.5,151.5 C 440.833,152.167 440.833,152.167 439.5,151.5 Z"/></g>
<g><path style="opacity:0.965" fill="#373736" d="M 576.5,148.5 C 577.738,150.214 578.405,152.214 578.5,154.5C 576.926,152.898 576.259,150.898 576.5,148.5 Z"/></g>
<g><path style="opacity:0.008" fill="#4a4947" d="M 581.5,159.5 C 582.833,160.167 582.833,160.167 581.5,159.5 Z"/></g>
<g><path style="opacity:0.008" fill="#4a4849" d="M 441.5,160.5 C 442.525,160.897 442.692,161.563 442,162.5C 441.536,161.906 441.369,161.239 441.5,160.5 Z"/></g>
<g><path style="opacity:0.004" fill="#494746" d="M 581.5,161.5 C 582.525,161.897 582.692,162.563 582,163.5C 581.536,162.906 581.369,162.239 581.5,161.5 Z"/></g>
<g><path style="opacity:0.004" fill="#494e4b" d="M 440.5,163.5 C 439.833,162.167 439.833,162.167 440.5,163.5 Z"/></g>
<g><path style="opacity:0.004" fill="#4c4a4a" d="M 440.5,163.5 C 441.833,164.167 441.833,164.167 440.5,163.5 Z"/></g>
<g><path style="opacity:0.006" fill="#464546" d="M 582.5,168.5 C 582.351,167.448 582.517,166.448 583,165.5C 583.74,166.749 583.573,167.749 582.5,168.5 Z"/></g>
<g><path style="opacity:0.875" fill="#333332" d="M 444.5,159.5 C 444.58,162.781 443.913,165.781 442.5,168.5C 442.42,165.219 443.087,162.219 444.5,159.5 Z"/></g>
<g><path style="opacity:0.008" fill="#4c4c48" d="M 439.5,167.5 C 440.525,167.897 440.692,168.563 440,169.5C 439.536,168.906 439.369,168.239 439.5,167.5 Z"/></g>
<g><path style="opacity:0.043" fill="#535253" d="M 441.5,175.5 C 441.784,177.415 441.451,179.081 440.5,180.5C 440.714,178.856 440.38,177.356 439.5,176C 440.094,175.536 440.761,175.369 441.5,175.5 Z"/></g>
<g><path style="opacity:0.004" fill="#474645" d="M 585.5,192.5 C 586.833,193.167 586.833,193.167 585.5,192.5 Z"/></g>
<g><path style="opacity:0.004" fill="#474a46" d="M 586.5,204.5 C 587.833,205.167 587.833,205.167 586.5,204.5 Z"/></g>
<g><path style="opacity:0.004" fill="#474746" d="M 586.5,208.5 C 587.833,209.167 587.833,209.167 586.5,208.5 Z"/></g>
<g><path style="opacity:0.006" fill="#4a4746" d="M 439.5,251.5 C 440.525,251.897 440.692,252.563 440,253.5C 439.536,252.906 439.369,252.239 439.5,251.5 Z"/></g>
<g><path style="opacity:0.004" fill="#484847" d="M 439.5,254.5 C 440.833,255.167 440.833,255.167 439.5,254.5 Z"/></g>
<g><path style="opacity:0.004" fill="#464645" d="M 441.5,257.5 C 441.657,258.873 441.49,260.207 441,261.5C 440.235,259.934 440.402,258.601 441.5,257.5 Z"/></g>
<g><path style="opacity:0.004" fill="#464743" d="M 441.5,267.5 C 442.833,268.167 442.833,268.167 441.5,267.5 Z"/></g>
<g><path style="opacity:0.004" fill="#424242" d="M 581.5,270.5 C 582.833,271.167 582.833,271.167 581.5,270.5 Z"/></g>
<g><path style="opacity:0.004" fill="#444544" d="M 444.5,278.5 C 443.833,279.167 443.833,279.167 444.5,278.5 Z"/></g>
<g><path style="opacity:0.004" fill="#444444" d="M 443.5,281.5 C 444.833,282.167 444.833,282.167 443.5,281.5 Z"/></g>
<g><path style="opacity:0.075" fill="#4e4e4d" d="M 448.5,298.5 C 449.461,300.265 449.795,302.265 449.5,304.5C 448.761,304.631 448.094,304.464 447.5,304C 448.406,302.301 448.739,300.467 448.5,298.5 Z"/></g>
<g><path style="opacity:0.004" fill="#464343" d="M 447.5,307.5 C 448.833,308.167 448.833,308.167 447.5,307.5 Z"/></g>
<g><path style="opacity:0.035" fill="#4a4a49" d="M 450.5,311.5 C 451.434,312.568 451.768,313.901 451.5,315.5C 450.5,315.5 449.5,315.5 448.5,315.5C 448.457,311.107 448.957,310.774 450,314.5C 450.483,313.552 450.649,312.552 450.5,311.5 Z"/></g>
<g><path style="opacity:0.004" fill="#454541" d="M 449.5,318.5 C 450.833,319.167 450.833,319.167 449.5,318.5 Z"/></g>
<g><path style="opacity:0.008" fill="#3f4240" d="M 573.5,318.5 C 574.833,319.167 574.833,319.167 573.5,318.5 Z"/></g>
<g><path style="opacity:0.004" fill="#434444" d="M 450.5,323.5 C 449.833,322.167 449.833,322.167 450.5,323.5 Z"/></g>
<g><path style="opacity:0.004" fill="#454342" d="M 450.5,323.5 C 451.833,324.167 451.833,324.167 450.5,323.5 Z"/></g>
<g><path style="opacity:0.004" fill="#989998" d="M 275.5,333.5 C 276.833,334.167 276.833,334.167 275.5,333.5 Z"/></g>
<g><path style="opacity:0.004" fill="#454546" d="M 571.5,333.5 C 572.525,333.897 572.692,334.563 572,335.5C 571.536,334.906 571.369,334.239 571.5,333.5 Z"/></g>
<g><path style="opacity:0.004" fill="#919393" d="M 883.5,349.5 C 884.833,350.167 884.833,350.167 883.5,349.5 Z"/></g>
<g><path style="opacity:0.004" fill="#8a8d8c" d="M 1003.5,349.5 C 1004.83,350.167 1004.83,350.167 1003.5,349.5 Z"/></g>
<g><path style="opacity:0.008" fill="#424342" d="M 456.5,359.5 C 457.833,360.167 457.833,360.167 456.5,359.5 Z"/></g>
<g><path style="opacity:0.004" fill="#424243" d="M 457.5,362.5 C 456.833,361.167 456.833,361.167 457.5,362.5 Z"/></g>
<g><path style="opacity:0.004" fill="#4f504e" d="M 458.5,359.5 C 459.434,360.568 459.768,361.901 459.5,363.5C 458.508,363.672 457.842,363.338 457.5,362.5C 458.404,361.791 458.737,360.791 458.5,359.5 Z"/></g>
<g><path style="opacity:0.004" fill="#434345" d="M 566.5,362.5 C 567.525,362.897 567.692,363.563 567,364.5C 566.536,363.906 566.369,363.239 566.5,362.5 Z"/></g>
<g><path style="opacity:0.008" fill="#444542" d="M 457.5,365.5 C 458.833,366.167 458.833,366.167 457.5,365.5 Z"/></g>
<g><path style="opacity:0.012" fill="#3f4142" d="M 565.5,366.5 C 566.833,367.167 566.833,367.167 565.5,366.5 Z"/></g>
<g><path style="opacity:0.004" fill="#939594" d="M 803.5,373.5 C 804.833,374.167 804.833,374.167 803.5,373.5 Z"/></g>
<g><path style="opacity:0.004" fill="#484846" d="M 459.5,379.5 C 460.833,380.167 460.833,380.167 459.5,379.5 Z"/></g>
<g><path style="opacity:0.004" fill="#464546" d="M 563.5,380.5 C 564.525,380.897 564.692,381.563 564,382.5C 563.536,381.906 563.369,381.239 563.5,380.5 Z"/></g>
<g><path style="opacity:0.047" fill="#4e4d4d" d="M 464.5,393.5 C 465.451,394.919 465.784,396.585 465.5,398.5C 464.761,398.631 464.094,398.464 463.5,398C 464.38,396.644 464.714,395.144 464.5,393.5 Z"/></g>
<g><path style="opacity:0.008" fill="#444444" d="M 463.5,399.5 C 464.598,400.601 464.765,401.934 464,403.5C 463.51,402.207 463.343,400.873 463.5,399.5 Z"/></g>
<g><path style="opacity:0.008" fill="#444343" d="M 464.5,406.5 C 465.525,406.897 465.692,407.563 465,408.5C 464.536,407.906 464.369,407.239 464.5,406.5 Z"/></g>
<g><path style="opacity:0.006" fill="#454545" d="M 558.5,407.5 C 559.573,408.251 559.74,409.251 559,410.5C 558.517,409.552 558.351,408.552 558.5,407.5 Z"/></g>
<g><path style="opacity:0.004" fill="#434343" d="M 466.5,409.5 C 466.657,410.873 466.49,412.207 466,413.5C 464.881,412.448 464.381,411.281 464.5,410C 465.094,409.536 465.761,409.369 466.5,409.5 Z"/></g>
<g><path style="opacity:0.004" fill="#464442" d="M 465.5,414.5 C 466.833,415.167 466.833,415.167 465.5,414.5 Z"/></g>
<g><path style="opacity:0.008" fill="#444645" d="M 557.5,415.5 C 558.833,416.167 558.833,416.167 557.5,415.5 Z"/></g>
<g><path style="opacity:0.004" fill="#474947" d="M 467.5,422.5 C 468.833,423.167 468.833,423.167 467.5,422.5 Z"/></g>
<g><path style="opacity:0.004" fill="#494a4a" d="M 555.5,429.5 C 556.833,430.167 556.833,430.167 555.5,429.5 Z"/></g>
<g><path style="opacity:0.004" fill="#898b8a" d="M 939.5,445.5 C 940.833,446.167 940.833,446.167 939.5,445.5 Z"/></g>
<g><path style="opacity:0.007" fill="#454645" d="M 472.5,453.5 C 473.573,454.251 473.74,455.251 473,456.5C 472.517,455.552 472.351,454.552 472.5,453.5 Z"/></g>
<g><path style="opacity:0.004" fill="#474546" d="M 471.5,457.5 C 472.833,458.167 472.833,458.167 471.5,457.5 Z"/></g>
<g><path style="opacity:0.004" fill="#474948" d="M 550.5,457.5 C 551.833,458.167 551.833,458.167 550.5,457.5 Z"/></g>
<g><path style="opacity:0.004" fill="#444543" d="M 473.5,458.5 C 474.833,459.167 474.833,459.167 473.5,458.5 Z"/></g>
<g><path style="opacity:0.004" fill="#474745" d="M 473.5,461.5 C 472.833,460.167 472.833,460.167 473.5,461.5 Z"/></g>
<g><path style="opacity:0.004" fill="#484845" d="M 473.5,461.5 C 474.833,462.167 474.833,462.167 473.5,461.5 Z"/></g>
<g><path style="opacity:0.006" fill="#484847" d="M 476.5,469.5 C 476.631,470.239 476.464,470.906 476,471.5C 475.308,470.563 475.475,469.897 476.5,469.5 Z"/></g>
<g><path style="opacity:0.004" fill="#8d8e8d" d="M 859.5,469.5 C 860.833,470.167 860.833,470.167 859.5,469.5 Z"/></g>
<g><path style="opacity:0.012" fill="#4c4c4c" d="M 547.5,478.5 C 548.833,479.167 548.833,479.167 547.5,478.5 Z"/></g>
<g><path style="opacity:0.004" fill="#484948" d="M 477.5,486.5 C 478.833,487.167 478.833,487.167 477.5,486.5 Z"/></g>
<g><path style="opacity:0.004" fill="#494646" d="M 480.5,506.5 C 481.573,507.251 481.74,508.251 481,509.5C 480.517,508.552 480.351,507.552 480.5,506.5 Z"/></g>
<g><path style="opacity:0.004" fill="#454343" d="M 481.5,513.5 C 482.833,514.167 482.833,514.167 481.5,513.5 Z"/></g>
<g><path style="opacity:0.008" fill="#454844" d="M 482.5,520.5 C 483.833,521.167 483.833,521.167 482.5,520.5 Z"/></g>
<g><path style="opacity:0.004" fill="#484b46" d="M 481.5,522.5 C 482.833,523.167 482.833,523.167 481.5,522.5 Z"/></g>
<g><path style="opacity:0.004" fill="#505251" d="M 475.5,525.5 C 476.833,526.167 476.833,526.167 475.5,525.5 Z"/></g>
<g><path style="opacity:0.004" fill="#474748" d="M 483.5,525.5 C 484.525,525.897 484.692,526.563 484,527.5C 483.536,526.906 483.369,526.239 483.5,525.5 Z"/></g>
<g><path style="opacity:0.004" fill="#4a4a49" d="M 539.5,533.5 C 540.833,534.167 540.833,534.167 539.5,533.5 Z"/></g>
<g><path style="opacity:0.004" fill="#464a47" d="M 537.5,546.5 C 538.833,547.167 538.833,547.167 537.5,546.5 Z"/></g>
<g><path style="opacity:0.084" fill="#4a4a49" d="M 490.5,567.5 C 491.473,569.948 491.806,572.615 491.5,575.5C 489.553,574.339 488.72,572.672 489,570.5C 489.333,571.167 489.667,571.833 490,572.5C 490.494,570.866 490.66,569.199 490.5,567.5 Z"/></g>
<g><path style="opacity:0.004" fill="#404040" d="M 489.5,576.5 C 490.573,577.251 490.74,578.251 490,579.5C 489.517,578.552 489.351,577.552 489.5,576.5 Z"/></g>
<g><path style="opacity:0.012" fill="#464745" d="M 534.5,576.5 C 535.833,577.167 535.833,577.167 534.5,576.5 Z"/></g>
<g><path style="opacity:0.004" fill="#444443" d="M 489.5,580.5 C 490.525,580.897 490.692,581.563 490,582.5C 489.536,581.906 489.369,581.239 489.5,580.5 Z"/></g>
<g><path style="opacity:0.008" fill="#434342" d="M 489.5,583.5 C 490.833,584.167 490.833,584.167 489.5,583.5 Z"/></g>
<g><path style="opacity:0.081" fill="#4c4c4c" d="M 492.5,587.5 C 493.468,589.607 493.802,591.941 493.5,594.5C 492.761,594.631 492.094,594.464 491.5,594C 492.423,591.959 492.756,589.792 492.5,587.5 Z"/></g>
<g><path style="opacity:0.008" fill="#454543" d="M 491.5,597.5 C 492.833,598.167 492.833,598.167 491.5,597.5 Z"/></g>
<g><path style="opacity:0.004" fill="#474746" d="M 487.5,600.5 C 488.833,601.167 488.833,601.167 487.5,600.5 Z"/></g>
<g><path style="opacity:0.004" fill="#8d8f8e" d="M 1019.5,621.5 C 1020.83,622.167 1020.83,622.167 1019.5,621.5 Z"/></g>
<g><path style="opacity:0.004" fill="#8f908e" d="M 891.5,629.5 C 892.833,630.167 892.833,630.167 891.5,629.5 Z"/></g>
<g><path style="opacity:0.034" fill="#4f4f4f" d="M 496.5,633.5 C 497.482,636.962 497.815,640.629 497.5,644.5C 496.661,643.359 495.994,642.026 495.5,640.5C 496.374,638.253 496.708,635.92 496.5,633.5 Z"/></g>
<g><path style="opacity:0.01" fill="#454444" d="M 495.5,647.5 C 496.622,649.288 496.789,651.288 496,653.5C 495.505,651.527 495.338,649.527 495.5,647.5 Z"/></g>
<g><path style="opacity:0.004" fill="#444744" d="M 495.5,654.5 C 496.833,655.167 496.833,655.167 495.5,654.5 Z"/></g>
<g><path style="opacity:0.004" fill="#434344" d="M 495.5,659.5 C 496.833,660.167 496.833,660.167 495.5,659.5 Z"/></g>
<g><path style="opacity:0.006" fill="#464745" d="M 495.5,664.5 C 495.897,663.475 496.563,663.308 497.5,664C 496.906,664.464 496.239,664.631 495.5,664.5 Z"/></g>
<g><path style="opacity:0.008" fill="#464544" d="M 496.5,665.5 C 497.598,666.601 497.765,667.934 497,669.5C 496.51,668.207 496.343,666.873 496.5,665.5 Z"/></g>
<g><path style="opacity:0.004" fill="#444746" d="M 526.5,673.5 C 527.833,674.167 527.833,674.167 526.5,673.5 Z"/></g>
<g><path style="opacity:0.004" fill="#444442" d="M 497.5,674.5 C 498.525,674.897 498.692,675.563 498,676.5C 497.536,675.906 497.369,675.239 497.5,674.5 Z"/></g>
<g><path style="opacity:0.004" fill="#45484a" d="M 526.5,675.5 C 527.833,676.167 527.833,676.167 526.5,675.5 Z"/></g>
<g><path style="opacity:0.008" fill="#434442" d="M 497.5,678.5 C 498.833,679.167 498.833,679.167 497.5,678.5 Z"/></g>
<g><path style="opacity:0.004" fill="#4a4b49" d="M 496.5,684.5 C 497.833,685.167 497.833,685.167 496.5,684.5 Z"/></g>
<g><path style="opacity:0.498" fill="#474848" d="M 524.5,688.5 C 523.552,689.978 522.219,690.978 520.5,691.5C 519.833,691.5 519.5,691.167 519.5,690.5C 521.028,689.691 522.694,689.024 524.5,688.5 Z"/></g>
<g><path style="opacity:0.035" fill="#505251" d="M 500.5,689.5 C 501.391,690.11 502.391,690.443 503.5,690.5C 502.053,691.885 501.053,691.552 500.5,689.5 Z"/></g>
<g><path style="opacity:0.004" fill="#494b4a" d="M 520.5,691.5 C 521.833,692.167 521.833,692.167 520.5,691.5 Z"/></g>
<g><path style="opacity:0.004" fill="#494849" d="M 502.5,692.5 C 503.833,693.167 503.833,693.167 502.5,692.5 Z"/></g>
<g><path style="opacity:0.004" fill="#4c4e4d" d="M 499.5,693.5 C 500.833,694.167 500.833,694.167 499.5,693.5 Z"/></g>
<g><path style="opacity:0.004" fill="#4a4b4b" d="M 519.5,693.5 C 520.833,694.167 520.833,694.167 519.5,693.5 Z"/></g>
<g><path style="opacity:0.999" fill="#030303" d="M 536.5,744.5 C 546.711,748.273 556.044,753.606 564.5,760.5C 564.5,761.167 564.833,761.5 565.5,761.5C 565.5,762.167 565.833,762.5 566.5,762.5C 568.833,764.167 570.833,766.167 572.5,768.5C 572.738,770.404 573.738,771.738 575.5,772.5C 578.605,775.275 580.938,778.608 582.5,782.5C 582.427,784.027 583.094,785.027 584.5,785.5C 584.833,785.5 585.167,785.5 585.5,785.5C 600.828,817.883 599.494,849.55 581.5,880.5C 552.4,917.193 516.067,926.526 472.5,908.5C 467.505,905.174 462.505,901.841 457.5,898.5C 456.5,896.833 455.167,895.5 453.5,894.5C 451.138,891.808 448.804,889.141 446.5,886.5C 446.167,885.5 445.5,884.833 444.5,884.5C 444.573,882.973 443.906,881.973 442.5,881.5C 440.833,878.167 439.167,874.833 437.5,871.5C 437.672,870.508 437.338,869.842 436.5,869.5C 435.833,868.5 435.167,867.5 434.5,866.5C 434.672,865.508 434.338,864.842 433.5,864.5C 433.737,863.209 433.404,862.209 432.5,861.5C 424.23,835.251 426.23,809.585 438.5,784.5C 440.664,782.178 442.331,779.511 443.5,776.5C 445.194,775.473 446.527,774.139 447.5,772.5C 448.5,772.167 449.167,771.5 449.5,770.5C 456.239,762.097 464.239,755.097 473.5,749.5C 493.861,739.675 514.861,738.008 536.5,744.5 Z"/></g>
<g><path style="opacity:0.004" fill="#454845" d="M 482.5,743.5 C 483.833,744.167 483.833,744.167 482.5,743.5 Z"/></g>
<g><path style="opacity:0.004" fill="#474544" d="M 536.5,743.5 C 537.833,744.167 537.833,744.167 536.5,743.5 Z"/></g>
<g><path style="opacity:0.004" fill="#474645" d="M 479.5,745.5 C 479.897,744.475 480.563,744.308 481.5,745C 480.906,745.464 480.239,745.631 479.5,745.5 Z"/></g>
<g><path style="opacity:0.008" fill="#494a4c" d="M 473.5,745.5 C 474.833,746.167 474.833,746.167 473.5,745.5 Z"/></g>
<g><path style="opacity:0.008" fill="#474846" d="M 477.5,745.5 C 478.833,746.167 478.833,746.167 477.5,745.5 Z"/></g>
<g><path style="opacity:0.004" fill="#474846" d="M 543.5,745.5 C 544.833,746.167 544.833,746.167 543.5,745.5 Z"/></g>
<g><path style="opacity:0.008" fill="#474a47" d="M 473.5,749.5 C 472.833,748.167 472.833,748.167 473.5,749.5 Z"/></g>
<g><path style="opacity:0.004" fill="#484a48" d="M 464.5,751.5 C 465.833,752.167 465.833,752.167 464.5,751.5 Z"/></g>
<g><path style="opacity:0.008" fill="#444745" d="M 554.5,751.5 C 555.833,752.167 555.833,752.167 554.5,751.5 Z"/></g>
<g><path style="opacity:0.004" fill="#454845" d="M 557.5,751.5 C 558.833,752.167 558.833,752.167 557.5,751.5 Z"/></g>
<g><path style="opacity:0.004" fill="#454845" d="M 557.5,752.5 C 556.833,753.167 556.833,753.167 557.5,752.5 Z"/></g>
<g><path style="opacity:0.02" fill="#4a494b" d="M 456.5,759.5 C 457.833,760.167 457.833,760.167 456.5,759.5 Z"/></g>
<g><path style="opacity:0.006" fill="#4c4b4b" d="M 564.5,760.5 C 564.56,759.957 564.893,759.624 565.5,759.5C 566.386,760.325 566.719,761.325 566.5,762.5C 565.833,762.5 565.5,762.167 565.5,761.5C 564.833,761.5 564.5,761.167 564.5,760.5 Z"/></g>
<g><path style="opacity:0.004" fill="#4d504e" d="M 572.5,760.5 C 573.833,761.167 573.833,761.167 572.5,760.5 Z"/></g>
<g><path style="opacity:0.012" fill="#49494b" d="M 448.5,767.5 C 449.833,768.167 449.833,768.167 448.5,767.5 Z"/></g>
<g><path style="opacity:0.016" fill="#494947" d="M 573.5,767.5 C 574.833,768.167 574.833,768.167 573.5,767.5 Z"/></g>
<g><path style="opacity:0.004" fill="#484748" d="M 448.5,768.5 C 447.833,769.167 447.833,769.167 448.5,768.5 Z"/></g>
<g><path style="opacity:0.957" fill="#3d3d3d" d="M 572.5,768.5 C 572.833,768.5 573.167,768.5 573.5,768.5C 574.6,769.605 575.267,770.938 575.5,772.5C 573.738,771.738 572.738,770.404 572.5,768.5 Z"/></g>
<g><path style="opacity:0.282" fill="#545456" d="M 449.5,770.5 C 449.167,771.5 448.5,772.167 447.5,772.5C 447.5,771.167 448.167,770.5 449.5,770.5 Z"/></g>
<g><path style="opacity:0.008" fill="#4b4a4a" d="M 443.5,776.5 C 442.833,775.167 442.833,775.167 443.5,776.5 Z"/></g>
<g><path style="opacity:0.004" fill="#4c4e4c" d="M 439.5,777.5 C 440.833,778.167 440.833,778.167 439.5,777.5 Z"/></g>
<g><path style="opacity:0.008" fill="#464745" d="M 581.5,777.5 C 582.833,778.167 582.833,778.167 581.5,777.5 Z"/></g>
<g><path style="opacity:0.008" fill="#4d4d4b" d="M 438.5,784.5 C 437.833,783.167 437.833,783.167 438.5,784.5 Z"/></g>
<g><path style="opacity:0.008" fill="#4d4d4b" d="M 437.5,784.5 C 436.833,785.167 436.833,785.167 437.5,784.5 Z"/></g>
<g><path style="opacity:0.749" fill="#393b3a" d="M 582.5,782.5 C 583.906,782.973 584.573,783.973 584.5,785.5C 583.094,785.027 582.427,784.027 582.5,782.5 Z"/></g>
<g><path style="opacity:0.012" fill="#484847" d="M 585.5,784.5 C 586.833,785.167 586.833,785.167 585.5,784.5 Z"/></g>
<g><path style="opacity:0.004" fill="#4b4b4b" d="M 432.5,792.5 C 433.833,793.167 433.833,793.167 432.5,792.5 Z"/></g>
<g><path style="opacity:0.006" fill="#4d4d4b" d="M 426.5,815.5 C 427.525,815.897 427.692,816.563 427,817.5C 426.536,816.906 426.369,816.239 426.5,815.5 Z"/></g>
<g><path style="opacity:0.004" fill="#4a4949" d="M 595.5,846.5 C 596.525,846.897 596.692,847.563 596,848.5C 595.536,847.906 595.369,847.239 595.5,846.5 Z"/></g>
<g><path style="opacity:0.012" fill="#454445" d="M 432.5,861.5 C 432.631,862.239 432.464,862.906 432,863.5C 431.308,862.563 431.475,861.897 432.5,861.5 Z"/></g>
<g><path style="opacity:0.008" fill="#434544" d="M 433.5,864.5 C 432.833,865.167 432.833,865.167 433.5,864.5 Z"/></g>
<g><path style="opacity:0.004" fill="#494747" d="M 434.5,866.5 C 434.869,868.993 434.203,869.66 432.5,868.5C 432.833,867.5 433.5,866.833 434.5,866.5 Z"/></g>
<g><path style="opacity:0.004" fill="#4a4c4a" d="M 432.5,868.5 C 431.833,869.167 431.833,869.167 432.5,868.5 Z"/></g>
<g><path style="opacity:0.039" fill="#535150" d="M 436.5,869.5 C 437.338,869.842 437.672,870.508 437.5,871.5C 435.302,871.591 434.969,870.925 436.5,869.5 Z"/></g>
<g><path style="opacity:0.004" fill="#444645" d="M 581.5,880.5 C 582.833,881.167 582.833,881.167 581.5,880.5 Z"/></g>
<g><path style="opacity:0.004" fill="#474946" d="M 442.5,881.5 C 441.833,882.167 441.833,882.167 442.5,881.5 Z"/></g>
<g><path style="opacity:0.004" fill="#4c4e4c" d="M 439.5,882.5 C 440.833,883.167 440.833,883.167 439.5,882.5 Z"/></g>
<g><path style="opacity:0.016" fill="#494945" d="M 444.5,884.5 C 443.833,885.167 443.833,885.167 444.5,884.5 Z"/></g>
<g><path style="opacity:0.004" fill="#484a46" d="M 446.5,886.5 C 445.833,887.167 445.833,887.167 446.5,886.5 Z"/></g>
<g><path style="opacity:0.004" fill="#494746" d="M 448.5,891.5 C 449.833,892.167 449.833,892.167 448.5,891.5 Z"/></g>
<g><path style="opacity:0.008" fill="#454542" d="M 453.5,894.5 C 452.833,895.167 452.833,895.167 453.5,894.5 Z"/></g>
<g><path style="opacity:0.004" fill="#474847" d="M 457.5,898.5 C 456.833,899.167 456.833,899.167 457.5,898.5 Z"/></g>
<g><path style="opacity:0.004" fill="#8a8c8a" d="M 107.5,901.5 C 108.833,902.167 108.833,902.167 107.5,901.5 Z"/></g>
<g><path style="opacity:0.008" fill="#454945" d="M 461.5,902.5 C 462.833,903.167 462.833,903.167 461.5,902.5 Z"/></g>
<g><path style="opacity:0.004" fill="#484948" d="M 472.5,908.5 C 471.833,909.167 471.833,909.167 472.5,908.5 Z"/></g>
<g><path style="opacity:0.008" fill="#444545" d="M 488.5,915.5 C 489.833,916.167 489.833,916.167 488.5,915.5 Z"/></g>
<g><path style="opacity:0.004" fill="#484948" d="M 542.5,916.5 C 543.833,917.167 543.833,917.167 542.5,916.5 Z"/></g>
<g><path style="opacity:0.008" fill="#3e3d3d" d="M 507.5,919.5 C 508.251,918.427 509.251,918.26 510.5,919C 509.552,919.483 508.552,919.649 507.5,919.5 Z"/></g>
<g><path style="opacity:0.008" fill="#3e3e3d" d="M 516.5,919.5 C 516.897,918.475 517.563,918.308 518.5,919C 517.906,919.464 517.239,919.631 516.5,919.5 Z"/></g>
<g><path style="opacity:0.004" fill="#898887" d="M 851.5,925.5 C 852.833,926.167 852.833,926.167 851.5,925.5 Z"/></g>
<g><path style="opacity:0.004" fill="#8e908e" d="M 307.5,933.5 C 308.833,934.167 308.833,934.167 307.5,933.5 Z"/></g>
</svg>
