<?xml version="1.0" encoding="UTF-8"?>
<!DOCTYPE svg PUBLIC "-//W3C//DTD SVG 1.1//EN" "http://www.w3.org/Graphics/SVG/1.1/DTD/svg11.dtd">
<svg xmlns="http://www.w3.org/2000/svg" version="1.1" width="1024px" height="1024px" style="shape-rendering:geometricPrecision; text-rendering:geometricPrecision; image-rendering:optimizeQuality; fill-rule:evenodd; clip-rule:evenodd" xmlns:xlink="http://www.w3.org/1999/xlink">
<g><path style="opacity:0.004" fill="#484846" d="M 419.5,5.5 C 420.833,6.16667 420.833,6.16667 419.5,5.5 Z"/></g>
<g><path style="opacity:0.004" fill="#2e2e2d" d="M 464.5,55.5 C 465.833,56.1667 465.833,56.1667 464.5,55.5 Z"/></g>
<g><path style="opacity:0.004" fill="#2c2d2e" d="M 466.5,55.5 C 467.833,56.1667 467.833,56.1667 466.5,55.5 Z"/></g>
<g><path style="opacity:0.004" fill="#2e302f" d="M 470.5,55.5 C 471.833,56.1667 471.833,56.1667 470.5,55.5 Z"/></g>
<g><path style="opacity:0.007" fill="#2e2d2d" d="M 476.5,56.5 C 475.127,56.6567 473.793,56.49 472.5,56C 474.066,55.235 475.399,55.4017 476.5,56.5 Z"/></g>
<g><path style="opacity:0.004" fill="#2c2b2b" d="M 531.5,56.5 C 532.251,55.4265 533.251,55.2599 534.5,56C 533.552,56.4828 532.552,56.6495 531.5,56.5 Z"/></g>
<g><path style="opacity:0.004" fill="#2e2f2e" d="M 536.5,55.5 C 537.833,56.1667 537.833,56.1667 536.5,55.5 Z"/></g>
<g><path style="opacity:0.004" fill="#31322f" d="M 444.5,56.5 C 445.833,57.1667 445.833,57.1667 444.5,56.5 Z"/></g>
<g><path style="opacity:0.004" fill="#2f2f2e" d="M 464.5,56.5 C 463.833,57.1667 463.833,57.1667 464.5,56.5 Z"/></g>
<g><path style="opacity:0.776" fill="#343534" d="M 489.5,56.5 C 485.366,57.4849 481.032,57.8182 476.5,57.5C 476.5,57.1667 476.5,56.8333 476.5,56.5C 480.999,56.1669 485.332,56.1669 489.5,56.5 Z"/></g>
<g><path style="opacity:0.078" fill="#404040" d="M 529.5,57.5 C 525.958,57.8128 522.625,57.4794 519.5,56.5C 522.901,56.8355 526.068,56.5022 529,55.5C 529.464,56.0944 529.631,56.7611 529.5,57.5 Z"/></g>
<g><path style="opacity:0.998" fill="#0f1010" d="M 519.5,56.5 C 522.625,57.4794 525.958,57.8128 529.5,57.5C 530.167,57.1667 530.833,56.8333 531.5,56.5C 546.589,58.0996 561.589,60.7662 576.5,64.5C 577.209,65.404 578.209,65.7373 579.5,65.5C 588.012,67.2266 596.345,69.5599 604.5,72.5C 626.075,81.1188 645.408,91.7855 662.5,104.5C 668.604,110.391 674.937,116.058 681.5,121.5C 685.489,126.821 689.822,131.821 694.5,136.5C 696.435,140.707 699.102,144.373 702.5,147.5C 709.596,159.79 715.929,172.456 721.5,185.5C 739.021,242.176 734.188,296.843 707,349.5C 700.005,361.316 692.838,372.983 685.5,384.5C 684.662,384.842 684.328,385.508 684.5,386.5C 676.269,396.614 668.269,406.947 660.5,417.5C 641.196,439.808 621.862,462.141 602.5,484.5C 595.093,491.57 588.427,499.236 582.5,507.5C 576.445,513.222 571.111,519.556 566.5,526.5C 565.094,526.973 564.427,527.973 564.5,529.5C 539.473,559.211 521.473,592.877 510.5,630.5C 508.833,635.833 507.167,641.167 505.5,646.5C 505.657,645.127 505.49,643.793 505,642.5C 501.257,659.295 498.923,676.295 498,693.5C 497.637,709.561 497.47,725.561 497.5,741.5C 497.855,742.522 498.522,743.189 499.5,743.5C 499.5,744.167 499.5,744.833 499.5,745.5C 492.803,752.923 485.137,754.09 476.5,749C 474.348,746.531 472.848,743.698 472,740.5C 469.643,731.408 467.476,722.408 465.5,713.5C 463.833,697.838 462.5,682.172 461.5,666.5C 461.68,651.286 462.68,635.953 464.5,620.5C 465.451,619.081 465.784,617.415 465.5,615.5C 468.138,593.946 473.138,572.946 480.5,552.5C 487.248,536.33 494.582,520.33 502.5,504.5C 506.32,499.539 509.653,494.206 512.5,488.5C 526.767,466.41 541.434,444.076 556.5,421.5C 585.299,381.121 603.299,335.788 610.5,285.5C 611.29,286.609 611.79,287.942 612,289.5C 615.704,264.289 614.704,239.289 609,214.5C 608.51,215.793 608.343,217.127 608.5,218.5C 607.158,214.675 605.991,210.675 605,206.5C 603.893,207.712 603.393,207.379 603.5,205.5C 602.885,197.329 600.218,189.662 595.5,182.5C 595.771,180.62 595.104,179.287 593.5,178.5C 593.672,177.508 593.338,176.842 592.5,176.5C 591.502,172.495 589.502,169.161 586.5,166.5C 586.672,165.508 586.338,164.842 585.5,164.5C 581.894,158.562 577.561,153.229 572.5,148.5C 571.5,146.833 570.167,145.5 568.5,144.5C 567.5,142.833 566.167,141.5 564.5,140.5C 564.027,139.094 563.027,138.427 561.5,138.5C 554.866,131.213 546.866,125.88 537.5,122.5C 531.169,118.174 524.169,115.174 516.5,113.5C 481.381,102.302 446.381,103.135 411.5,116C 400.412,120.195 390.746,126.361 382.5,134.5C 378.955,136.23 376.288,138.896 374.5,142.5C 365.709,152.426 360.376,164.093 358.5,177.5C 357.532,179.607 357.198,181.941 357.5,184.5C 357.053,203.438 362.72,220.105 374.5,234.5C 381.431,243.991 389.764,252.157 399.5,259C 421.464,278.32 423.298,299.487 405,322.5C 386.923,341.406 364.757,347.406 338.5,340.5C 337.791,339.596 336.791,339.263 335.5,339.5C 325.059,334.07 315.726,327.07 307.5,318.5C 304.883,313.886 301.883,309.553 298.5,305.5C 298.672,304.508 298.338,303.842 297.5,303.5C 295.403,298.311 293.07,293.311 290.5,288.5C 290.672,287.508 290.338,286.842 289.5,286.5C 289.768,284.901 289.434,283.568 288.5,282.5C 288.167,280.5 287.833,278.5 287.5,276.5C 288.147,275.726 288.48,274.726 288.5,273.5C 287.333,266.5 286.167,259.5 285,252.5C 284.715,237.986 284.548,223.652 284.5,209.5C 287.696,187.079 295.529,166.413 308,147.5C 312.384,141.956 316.551,136.289 320.5,130.5C 335.729,114.264 352.729,100.264 371.5,88.5C 376.22,84.6873 381.22,82.0207 386.5,80.5C 398.089,75.0395 410.089,70.7061 422.5,67.5C 425.152,67.5905 427.485,66.9238 429.5,65.5C 444.817,61.0025 460.484,58.3359 476.5,57.5C 481.032,57.8182 485.366,57.4849 489.5,56.5C 499.425,55.9831 509.425,55.9831 519.5,56.5 Z"/></g>
<g><path style="opacity:0.008" fill="#2f312d" d="M 426.5,63.5 C 427.833,64.1667 427.833,64.1667 426.5,63.5 Z"/></g>
<g><path style="opacity:0.004" fill="#2d2e2b" d="M 428.5,63.5 C 429.833,64.1667 429.833,64.1667 428.5,63.5 Z"/></g>
<g><path style="opacity:0.004" fill="#292a29" d="M 581.5,64.5 C 581.897,63.475 582.563,63.3083 583.5,64C 582.906,64.4643 582.239,64.631 581.5,64.5 Z"/></g>
<g><path style="opacity:0.004" fill="#2e2e2e" d="M 423.5,64.5 C 424.833,65.1667 424.833,65.1667 423.5,64.5 Z"/></g>
<g><path style="opacity:0.088" fill="#3f3e3d" d="M 579.5,65.5 C 578.209,65.7373 577.209,65.404 576.5,64.5C 577.496,64.5858 578.329,64.2524 579,63.5C 579.464,64.0944 579.631,64.7611 579.5,65.5 Z"/></g>
<g><path style="opacity:0.004" fill="#2f2f2d" d="M 419.5,65.5 C 420.833,66.1667 420.833,66.1667 419.5,65.5 Z"/></g>
<g><path style="opacity:0.012" fill="#2f2e2c" d="M 588.5,65.5 C 589.833,66.1667 589.833,66.1667 588.5,65.5 Z"/></g>
<g><path style="opacity:0.004" fill="#32322f" d="M 415.5,66.5 C 416.833,67.1667 416.833,67.1667 415.5,66.5 Z"/></g>
<g><path style="opacity:0.008" fill="#2f302d" d="M 417.5,66.5 C 418.833,67.1667 418.833,67.1667 417.5,66.5 Z"/></g>
<g><path style="opacity:0.973" fill="#282827" d="M 429.5,65.5 C 427.485,66.9238 425.152,67.5905 422.5,67.5C 424.515,66.0762 426.848,65.4095 429.5,65.5 Z"/></g>
<g><path style="opacity:0.016" fill="#303430" d="M 399.5,72.5 C 398.833,71.1667 398.833,71.1667 399.5,72.5 Z"/></g>
<g><path style="opacity:0.008" fill="#292a29" d="M 604.5,72.5 C 605.251,71.4265 606.251,71.2599 607.5,72C 606.552,72.4828 605.552,72.6495 604.5,72.5 Z"/></g>
<g><path style="opacity:0.004" fill="#2e312f" d="M 399.5,72.5 C 400.833,73.1667 400.833,73.1667 399.5,72.5 Z"/></g>
<g><path style="opacity:0.004" fill="#32332f" d="M 391.5,73.5 C 392.833,74.1667 392.833,74.1667 391.5,73.5 Z"/></g>
<g><path style="opacity:0.004" fill="#333431" d="M 393.5,74.5 C 394.833,75.1667 394.833,75.1667 393.5,74.5 Z"/></g>
<g><path style="opacity:0.004" fill="#2f322f" d="M 378.5,79.5 C 379.833,80.1667 379.833,80.1667 378.5,79.5 Z"/></g>
<g><path style="opacity:0.005" fill="#2e2d2e" d="M 386.5,80.5 C 385.448,80.6495 384.448,80.4828 383.5,80C 384.749,79.2599 385.749,79.4265 386.5,80.5 Z"/></g>
<g><path style="opacity:0.004" fill="#2b2b2a" d="M 371.5,88.5 C 370.833,87.1667 370.833,87.1667 371.5,88.5 Z"/></g>
<g><path style="opacity:0.008" fill="#2e2c2a" d="M 639.5,87.5 C 640.833,88.1667 640.833,88.1667 639.5,87.5 Z"/></g>
<g><path style="opacity:0.004" fill="#262927" d="M 653.5,95.5 C 654.833,96.1667 654.833,96.1667 653.5,95.5 Z"/></g>
<g><path style="opacity:0.004" fill="#31302f" d="M 352.5,97.5 C 353.833,98.1667 353.833,98.1667 352.5,97.5 Z"/></g>
<g><path style="opacity:0.004" fill="#2e2f2d" d="M 346.5,103.5 C 347.833,104.167 347.833,104.167 346.5,103.5 Z"/></g>
<g><path style="opacity:0.012" fill="#2b2d2b" d="M 662.5,103.5 C 663.833,104.167 663.833,104.167 662.5,103.5 Z"/></g>
<g><path style="opacity:0.004" fill="#2f2f2e" d="M 342.5,104.5 C 343.833,105.167 343.833,105.167 342.5,104.5 Z"/></g>
<g><path style="opacity:0.008" fill="#2c2c29" d="M 473.5,106.5 C 474.833,107.167 474.833,107.167 473.5,106.5 Z"/></g>
<g><path style="opacity:0.004" fill="#2d2d2b" d="M 481.5,107.5 C 482.833,108.167 482.833,108.167 481.5,107.5 Z"/></g>
<g><path style="opacity:0.004" fill="#2e2f2d" d="M 443.5,109.5 C 442.833,108.167 442.833,108.167 443.5,109.5 Z"/></g>
<g><path style="opacity:0.008" fill="#2e2f2c" d="M 443.5,109.5 C 444.833,110.167 444.833,110.167 443.5,109.5 Z"/></g>
<g><path style="opacity:0.004" fill="#2c2f2c" d="M 483.5,109.5 C 484.833,110.167 484.833,110.167 483.5,109.5 Z"/></g>
<g><path style="opacity:0.004" fill="#2d2d2b" d="M 498.5,109.5 C 499.833,110.167 499.833,110.167 498.5,109.5 Z"/></g>
<g><path style="opacity:0.004" fill="#302f2e" d="M 433.5,110.5 C 434.833,111.167 434.833,111.167 433.5,110.5 Z"/></g>
<g><path style="opacity:0.004" fill="#2c2d2b" d="M 672.5,111.5 C 673.833,112.167 673.833,112.167 672.5,111.5 Z"/></g>
<g><path style="opacity:0.004" fill="#2c2d2b" d="M 513.5,113.5 C 514.833,114.167 514.833,114.167 513.5,113.5 Z"/></g>
<g><path style="opacity:0.004" fill="#272a27" d="M 516.5,113.5 C 516.5,113.833 516.5,114.167 516.5,114.5C 515.83,114.019 515.83,113.685 516.5,113.5 Z"/></g>
<g><path style="opacity:0.004" fill="#2c2d2b" d="M 516.5,114.5 C 517.833,115.167 517.833,115.167 516.5,114.5 Z"/></g>
<g><path style="opacity:0.004" fill="#2d2a2b" d="M 520.5,115.5 C 521.833,116.167 521.833,116.167 520.5,115.5 Z"/></g>
<g><path style="opacity:0.004" fill="#302e2c" d="M 410.5,118.5 C 410.897,117.475 411.563,117.308 412.5,118C 411.906,118.464 411.239,118.631 410.5,118.5 Z"/></g>
<g><path style="opacity:0.008" fill="#2d2e2c" d="M 681.5,120.5 C 682.833,121.167 682.833,121.167 681.5,120.5 Z"/></g>
<g><path style="opacity:0.004" fill="#2a2c28" d="M 537.5,122.5 C 536.833,123.167 536.833,123.167 537.5,122.5 Z"/></g>
<g><path style="opacity:0.004" fill="#2c2c29" d="M 536.5,124.5 C 537.833,125.167 537.833,125.167 536.5,124.5 Z"/></g>
<g><path style="opacity:0.004" fill="#2e2d2d" d="M 319.5,127.5 C 320.833,128.167 320.833,128.167 319.5,127.5 Z"/></g>
<g><path style="opacity:0.004" fill="#2c2b29" d="M 688.5,127.5 C 689.833,128.167 689.833,128.167 688.5,127.5 Z"/></g>
<g><path style="opacity:0.004" fill="#302f2e" d="M 320.5,130.5 C 319.833,129.167 319.833,129.167 320.5,130.5 Z"/></g>
<g><path style="opacity:0.004" fill="#2c2e2d" d="M 389.5,129.5 C 390.833,130.167 390.833,130.167 389.5,129.5 Z"/></g>
<g><path style="opacity:0.008" fill="#2d2c2a" d="M 382.5,134.5 C 383.833,135.167 383.833,135.167 382.5,134.5 Z"/></g>
<g><path style="opacity:0.004" fill="#2e2d2d" d="M 694.5,135.5 C 695.833,136.167 695.833,136.167 694.5,135.5 Z"/></g>
<g><path style="opacity:0.008" fill="#2c2c2a" d="M 380.5,136.5 C 381.833,137.167 381.833,137.167 380.5,136.5 Z"/></g>
<g><path style="opacity:0.004" fill="#32312d" d="M 311.5,137.5 C 312.833,138.167 312.833,138.167 311.5,137.5 Z"/></g>
<g><path style="opacity:0.008" fill="#2c2d2b" d="M 561.5,138.5 C 560.833,139.167 560.833,139.167 561.5,138.5 Z"/></g>
<g><path style="opacity:0.004" fill="#444545" d="M 259.5,141.5 C 260.833,142.167 260.833,142.167 259.5,141.5 Z"/></g>
<g><path style="opacity:0.008" fill="#2c2b2a" d="M 564.5,140.5 C 564.631,141.239 564.464,141.906 564,142.5C 563.308,141.563 563.475,140.897 564.5,140.5 Z"/></g>
<g><path style="opacity:0.012" fill="#2d2b2b" d="M 374.5,142.5 C 375.833,143.167 375.833,143.167 374.5,142.5 Z"/></g>
<g><path style="opacity:0.004" fill="#2f332f" d="M 303.5,144.5 C 304.833,145.167 304.833,145.167 303.5,144.5 Z"/></g>
<g><path style="opacity:0.008" fill="#2a2b29" d="M 568.5,144.5 C 567.833,145.167 567.833,145.167 568.5,144.5 Z"/></g>
<g><path style="opacity:0.004" fill="#2b2c29" d="M 372.5,145.5 C 373.833,146.167 373.833,146.167 372.5,145.5 Z"/></g>
<g><path style="opacity:0.004" fill="#252725" d="M 702.5,146.5 C 703.833,147.167 703.833,147.167 702.5,146.5 Z"/></g>
<g><path style="opacity:0.004" fill="#2b2b29" d="M 370.5,148.5 C 371.833,149.167 371.833,149.167 370.5,148.5 Z"/></g>
<g><path style="opacity:0.004" fill="#2a2b28" d="M 572.5,148.5 C 571.833,149.167 571.833,149.167 572.5,148.5 Z"/></g>
<g><path style="opacity:0.004" fill="#2d2e2d" d="M 706.5,151.5 C 707.833,152.167 707.833,152.167 706.5,151.5 Z"/></g>
<g><path style="opacity:0.004" fill="#2b2c2b" d="M 707.5,153.5 C 708.833,154.167 708.833,154.167 707.5,153.5 Z"/></g>
<g><path style="opacity:0.006" fill="#2c2a28" d="M 578.5,159.5 C 578.897,158.475 579.563,158.308 580.5,159C 579.906,159.464 579.239,159.631 578.5,159.5 Z"/></g>
<g><path style="opacity:0.004" fill="#313331" d="M 295.5,159.5 C 296.833,160.167 296.833,160.167 295.5,159.5 Z"/></g>
<g><path style="opacity:0.004" fill="#31322f" d="M 298.5,159.5 C 299.833,160.167 299.833,160.167 298.5,159.5 Z"/></g>
<g><path style="opacity:0.008" fill="#2e302e" d="M 710.5,159.5 C 711.833,160.167 711.833,160.167 710.5,159.5 Z"/></g>
<g><path style="opacity:0.004" fill="#30322f" d="M 297.5,161.5 C 298.833,162.167 298.833,162.167 297.5,161.5 Z"/></g>
<g><path style="opacity:0.004" fill="#2c2c28" d="M 585.5,164.5 C 584.833,165.167 584.833,165.167 585.5,164.5 Z"/></g>
<g><path style="opacity:0.008" fill="#2f2f2c" d="M 586.5,166.5 C 585.833,167.167 585.833,167.167 586.5,166.5 Z"/></g>
<g><path style="opacity:0.004" fill="#2d2f2d" d="M 583.5,168.5 C 584.833,169.167 584.833,169.167 583.5,168.5 Z"/></g>
<g><path style="opacity:0.004" fill="#2c2c2a" d="M 588.5,171.5 C 589.833,172.167 589.833,172.167 588.5,171.5 Z"/></g>
<g><path style="opacity:0.004" fill="#272925" d="M 718.5,176.5 C 719.833,177.167 719.833,177.167 718.5,176.5 Z"/></g>
<g><path style="opacity:0.004" fill="#2d2b2a" d="M 592.5,176.5 C 592.5,177.167 592.5,177.833 592.5,178.5C 591.167,177.833 591.167,177.167 592.5,176.5 Z"/></g>
<g><path style="opacity:0.004" fill="#31352e" d="M 289.5,178.5 C 290.833,179.167 290.833,179.167 289.5,178.5 Z"/></g>
<g><path style="opacity:0.012" fill="#2c2d2b" d="M 592.5,178.5 C 592.833,178.5 593.167,178.5 593.5,178.5C 593.315,179.17 592.981,179.17 592.5,178.5 Z"/></g>
<g><path style="opacity:0.053" fill="#40403f" d="M 358.5,177.5 C 358.261,179.467 358.594,181.301 359.5,183C 358.956,183.717 358.289,184.217 357.5,184.5C 357.198,181.941 357.532,179.607 358.5,177.5 Z"/></g>
<g><path style="opacity:0.004" fill="#2c2f2b" d="M 592.5,182.5 C 593.833,183.167 593.833,183.167 592.5,182.5 Z"/></g>
<g><path style="opacity:0.008" fill="#2c2b2a" d="M 595.5,182.5 C 594.833,183.167 594.833,183.167 595.5,182.5 Z"/></g>
<g><path style="opacity:0.008" fill="#353534" d="M 287.5,184.5 C 288.833,185.167 288.833,185.167 287.5,184.5 Z"/></g>
<g><path style="opacity:0.004" fill="#2c2c2c" d="M 721.5,184.5 C 722.833,185.167 722.833,185.167 721.5,184.5 Z"/></g>
<g><path style="opacity:0.004" fill="#2e2d2c" d="M 599.5,194.5 C 600.525,194.897 600.692,195.563 600,196.5C 599.536,195.906 599.369,195.239 599.5,194.5 Z"/></g>
<g><path style="opacity:0.008" fill="#2f2d2c" d="M 601.5,200.5 C 601.167,200.5 600.833,200.5 600.5,200.5C 600.833,197.833 601.167,197.833 601.5,200.5 Z"/></g>
<g><path style="opacity:0.004" fill="#2b2c2b" d="M 600.5,200.5 C 599.833,201.167 599.833,201.167 600.5,200.5 Z"/></g>
<g><path style="opacity:0.006" fill="#2d2d2c" d="M 601.5,200.5 C 602.404,201.209 602.737,202.209 602.5,203.5C 601.596,202.791 601.263,201.791 601.5,200.5 Z"/></g>
<g><path style="opacity:0.006" fill="#2d2d2c" d="M 602.5,203.5 C 603.338,203.842 603.672,204.508 603.5,205.5C 602.662,205.158 602.328,204.492 602.5,203.5 Z"/></g>
<g><path style="opacity:0.994" fill="#191919" d="M 284.5,209.5 C 284.548,223.652 284.715,237.986 285,252.5C 286.167,259.5 287.333,266.5 288.5,273.5C 288.48,274.726 288.147,275.726 287.5,276.5C 281.068,254.388 280.068,232.055 284.5,209.5 Z"/></g>
<g><path style="opacity:0.004" fill="#2c2f2d" d="M 604.5,212.5 C 605.833,213.167 605.833,213.167 604.5,212.5 Z"/></g>
<g><path style="opacity:0.994" fill="#191918" d="M 610.5,285.5 C 612.19,263.096 611.524,240.763 608.5,218.5C 608.343,217.127 608.51,215.793 609,214.5C 614.704,239.289 615.704,264.289 612,289.5C 611.79,287.942 611.29,286.609 610.5,285.5 Z"/></g>
<g><path style="opacity:0.004" fill="#2c2a2a" d="M 371.5,226.5 C 372.833,227.167 372.833,227.167 371.5,226.5 Z"/></g>
<g><path style="opacity:0.004" fill="#2a2c28" d="M 374.5,233.5 C 375.833,234.167 375.833,234.167 374.5,233.5 Z"/></g>
<g><path style="opacity:0.006" fill="#2d2e2c" d="M 608.5,233.5 C 609.573,234.251 609.74,235.251 609,236.5C 608.517,235.552 608.351,234.552 608.5,233.5 Z"/></g>
<g><path style="opacity:0.008" fill="#2e2e2c" d="M 608.5,238.5 C 609.833,239.167 609.833,239.167 608.5,238.5 Z"/></g>
<g><path style="opacity:0.004" fill="#333433" d="M 279.5,239.5 C 280.833,240.167 280.833,240.167 279.5,239.5 Z"/></g>
<g><path style="opacity:0.004" fill="#2b2d2a" d="M 607.5,240.5 C 608.833,241.167 608.833,241.167 607.5,240.5 Z"/></g>
<g><path style="opacity:0.006" fill="#2d2d2b" d="M 609.5,245.5 C 610.525,245.897 610.692,246.563 610,247.5C 609.536,246.906 609.369,246.239 609.5,245.5 Z"/></g>
<g><path style="opacity:0.008" fill="#313130" d="M 280.5,250.5 C 281.573,251.251 281.74,252.251 281,253.5C 280.517,252.552 280.351,251.552 280.5,250.5 Z"/></g>
<g><path style="opacity:0.008" fill="#2d2f2b" d="M 609.5,251.5 C 610.833,252.167 610.833,252.167 609.5,251.5 Z"/></g>
<g><path style="opacity:0.004" fill="#2d2e2b" d="M 609.5,255.5 C 610.833,256.167 610.833,256.167 609.5,255.5 Z"/></g>
<g><path style="opacity:0.008" fill="#31312f" d="M 281.5,258.5 C 282.525,258.897 282.692,259.563 282,260.5C 281.536,259.906 281.369,259.239 281.5,258.5 Z"/></g>
<g><path style="opacity:0.004" fill="#323230" d="M 279.5,263.5 C 280.833,264.167 280.833,264.167 279.5,263.5 Z"/></g>
<g><path style="opacity:0.004" fill="#30302f" d="M 282.5,264.5 C 283.833,265.167 283.833,265.167 282.5,264.5 Z"/></g>
<g><path style="opacity:0.004" fill="#2c2d2a" d="M 609.5,269.5 C 610.833,270.167 610.833,270.167 609.5,269.5 Z"/></g>
<g><path style="opacity:0.012" fill="#30322f" d="M 283.5,270.5 C 284.833,271.167 284.833,271.167 283.5,270.5 Z"/></g>
<g><path style="opacity:0.004" fill="#2f2d2a" d="M 607.5,280.5 C 608.525,280.897 608.692,281.563 608,282.5C 607.536,281.906 607.369,281.239 607.5,280.5 Z"/></g>
<g><path style="opacity:0.004" fill="#302f2e" d="M 288.5,282.5 C 287.833,283.167 287.833,283.167 288.5,282.5 Z"/></g>
<g><path style="opacity:0.004" fill="#2f2e2c" d="M 608.5,284.5 C 609.833,285.167 609.833,285.167 608.5,284.5 Z"/></g>
<g><path style="opacity:0.004" fill="#2f2f2e" d="M 289.5,286.5 C 288.833,287.167 288.833,287.167 289.5,286.5 Z"/></g>
<g><path style="opacity:0.004" fill="#2d2e2d" d="M 290.5,288.5 C 289.833,289.167 289.833,289.167 290.5,288.5 Z"/></g>
<g><path style="opacity:0.008" fill="#2d2d2c" d="M 607.5,290.5 C 608.833,291.167 608.833,291.167 607.5,290.5 Z"/></g>
<g><path style="opacity:0.008" fill="#30302c" d="M 290.5,291.5 C 291.833,292.167 291.833,292.167 290.5,291.5 Z"/></g>
<g><path style="opacity:0.004" fill="#2f302e" d="M 287.5,294.5 C 288.833,295.167 288.833,295.167 287.5,294.5 Z"/></g>
<g><path style="opacity:0.008" fill="#323430" d="M 291.5,294.5 C 292.833,295.167 292.833,295.167 291.5,294.5 Z"/></g>
<g><path style="opacity:0.004" fill="#2e2f2c" d="M 418.5,295.5 C 419.833,296.167 419.833,296.167 418.5,295.5 Z"/></g>
<g><path style="opacity:0.007" fill="#2e2f2e" d="M 297.5,303.5 C 297.5,304.167 297.5,304.833 297.5,305.5C 294.813,306.061 294.813,305.394 297.5,303.5 Z"/></g>
<g><path style="opacity:0.006" fill="#2e2e2c" d="M 297.5,305.5 C 297.833,305.5 298.167,305.5 298.5,305.5C 298.167,308.167 297.833,308.167 297.5,305.5 Z"/></g>
<g><path style="opacity:0.004" fill="#2e312e" d="M 300.5,310.5 C 299.833,309.167 299.833,309.167 300.5,310.5 Z"/></g>
<g><path style="opacity:0.008" fill="#2f302e" d="M 300.5,310.5 C 301.833,311.167 301.833,311.167 300.5,310.5 Z"/></g>
<g><path style="opacity:0.004" fill="#2f2f2e" d="M 599.5,312.5 C 600.833,313.167 600.833,313.167 599.5,312.5 Z"/></g>
<g><path style="opacity:0.004" fill="#2d2c2b" d="M 722.5,315.5 C 723.833,316.167 723.833,316.167 722.5,315.5 Z"/></g>
<g><path style="opacity:0.004" fill="#2e2e2b" d="M 307.5,318.5 C 306.833,319.167 306.833,319.167 307.5,318.5 Z"/></g>
<g><path style="opacity:0.004" fill="#30302d" d="M 394.5,332.5 C 395.833,333.167 395.833,333.167 394.5,332.5 Z"/></g>
<g><path style="opacity:0.004" fill="#414241" d="M 275.5,333.5 C 276.833,334.167 276.833,334.167 275.5,333.5 Z"/></g>
<g><path style="opacity:0.004" fill="#2d2d2b" d="M 335.5,339.5 C 334.833,340.167 334.833,340.167 335.5,339.5 Z"/></g>
<g><path style="opacity:0.008" fill="#2e2d2b" d="M 338.5,340.5 C 338.5,340.833 338.5,341.167 338.5,341.5C 335.833,341.167 335.833,340.833 338.5,340.5 Z"/></g>
<g><path style="opacity:0.004" fill="#2c2d29" d="M 712.5,340.5 C 713.833,341.167 713.833,341.167 712.5,340.5 Z"/></g>
<g><path style="opacity:0.004" fill="#302e2d" d="M 338.5,341.5 C 339.833,342.167 339.833,342.167 338.5,341.5 Z"/></g>
<g><path style="opacity:0.004" fill="#2f2e2b" d="M 376.5,341.5 C 377.833,342.167 377.833,342.167 376.5,341.5 Z"/></g>
<g><path style="opacity:0.004" fill="#464743" d="M 531.5,341.5 C 532.833,342.167 532.833,342.167 531.5,341.5 Z"/></g>
<g><path style="opacity:0.004" fill="#2f302d" d="M 595.5,341.5 C 596.833,342.167 596.833,342.167 595.5,341.5 Z"/></g>
<g><path style="opacity:0.004" fill="#2f2e2c" d="M 374.5,342.5 C 375.833,343.167 375.833,343.167 374.5,342.5 Z"/></g>
<g><path style="opacity:0.004" fill="#414242" d="M 883.5,349.5 C 884.833,350.167 884.833,350.167 883.5,349.5 Z"/></g>
<g><path style="opacity:0.004" fill="#2d2d2d" d="M 591.5,351.5 C 592.525,351.897 592.692,352.563 592,353.5C 591.536,352.906 591.369,352.239 591.5,351.5 Z"/></g>
<g><path style="opacity:0.004" fill="#2c2c2c" d="M 702.5,358.5 C 703.833,359.167 703.833,359.167 702.5,358.5 Z"/></g>
<g><path style="opacity:0.004" fill="#313130" d="M 588.5,359.5 C 589.833,360.167 589.833,360.167 588.5,359.5 Z"/></g>
<g><path style="opacity:0.004" fill="#30322e" d="M 586.5,364.5 C 587.833,365.167 587.833,365.167 586.5,364.5 Z"/></g>
<g><path style="opacity:0.008" fill="#2c2d2b" d="M 698.5,365.5 C 699.833,366.167 699.833,366.167 698.5,365.5 Z"/></g>
<g><path style="opacity:0.012" fill="#2e3130" d="M 583.5,370.5 C 584.833,371.167 584.833,371.167 583.5,370.5 Z"/></g>
<g><path style="opacity:0.008" fill="#2c2c2b" d="M 694.5,371.5 C 695.833,372.167 695.833,372.167 694.5,371.5 Z"/></g>
<g><path style="opacity:0.004" fill="#313131" d="M 575.5,377.5 C 575.897,376.475 576.563,376.308 577.5,377C 576.906,377.464 576.239,377.631 575.5,377.5 Z"/></g>
<g><path style="opacity:0.004" fill="#30312e" d="M 580.5,376.5 C 581.833,377.167 581.833,377.167 580.5,376.5 Z"/></g>
<g><path style="opacity:0.004" fill="#2a2b2a" d="M 685.5,384.5 C 686.833,385.167 686.833,385.167 685.5,384.5 Z"/></g>
<g><path style="opacity:0.008" fill="#2c2c27" d="M 684.5,386.5 C 685.833,387.167 685.833,387.167 684.5,386.5 Z"/></g>
<g><path style="opacity:0.004" fill="#2b2d2b" d="M 686.5,388.5 C 687.833,389.167 687.833,389.167 686.5,388.5 Z"/></g>
<g><path style="opacity:0.004" fill="#2c2d2a" d="M 682.5,389.5 C 683.833,390.167 683.833,390.167 682.5,389.5 Z"/></g>
<g><path style="opacity:0.004" fill="#2d302d" d="M 572.5,392.5 C 573.833,393.167 573.833,393.167 572.5,392.5 Z"/></g>
<g><path style="opacity:0.008" fill="#2d2e2c" d="M 568.5,399.5 C 569.833,400.167 569.833,400.167 568.5,399.5 Z"/></g>
<g><path style="opacity:0.004" fill="#2d2f2f" d="M 568.5,400.5 C 567.833,401.167 567.833,401.167 568.5,400.5 Z"/></g>
<g><path style="opacity:0.004" fill="#2f2f2d" d="M 560.5,412.5 C 561.833,413.167 561.833,413.167 560.5,412.5 Z"/></g>
<g><path style="opacity:0.008" fill="#2a2a29" d="M 660.5,417.5 C 661.833,418.167 661.833,418.167 660.5,417.5 Z"/></g>
<g><path style="opacity:0.008" fill="#2e2f2c" d="M 661.5,419.5 C 662.833,420.167 662.833,420.167 661.5,419.5 Z"/></g>
<g><path style="opacity:0.004" fill="#31302c" d="M 556.5,421.5 C 555.833,420.167 555.833,420.167 556.5,421.5 Z"/></g>
<g><path style="opacity:0.006" fill="#2d2c2a" d="M 659.5,422.5 C 658.475,422.103 658.308,421.437 659,420.5C 659.464,421.094 659.631,421.761 659.5,422.5 Z"/></g>
<g><path style="opacity:0.004" fill="#2c2d2b" d="M 659.5,422.5 C 660.833,423.167 660.833,423.167 659.5,422.5 Z"/></g>
<g><path style="opacity:0.004" fill="#2f3332" d="M 552.5,424.5 C 553.833,425.167 553.833,425.167 552.5,424.5 Z"/></g>
<g><path style="opacity:0.004" fill="#2c2d2b" d="M 654.5,427.5 C 655.833,428.167 655.833,428.167 654.5,427.5 Z"/></g>
<g><path style="opacity:0.004" fill="#2c2d2c" d="M 645.5,438.5 C 646.833,439.167 646.833,439.167 645.5,438.5 Z"/></g>
<g><path style="opacity:0.004" fill="#323333" d="M 536.5,447.5 C 537.833,448.167 537.833,448.167 536.5,447.5 Z"/></g>
<g><path style="opacity:0.004" fill="#2b2c2a" d="M 620.5,464.5 C 621.833,465.167 621.833,465.167 620.5,464.5 Z"/></g>
<g><path style="opacity:0.004" fill="#2e312d" d="M 513.5,482.5 C 514.833,483.167 514.833,483.167 513.5,482.5 Z"/></g>
<g><path style="opacity:0.004" fill="#2a2b29" d="M 602.5,484.5 C 603.833,485.167 603.833,485.167 602.5,484.5 Z"/></g>
<g><path style="opacity:0.024" fill="#2d2c30" d="M 512.5,488.5 C 511.833,487.167 511.833,487.167 512.5,488.5 Z"/></g>
<g><path style="opacity:0.004" fill="#313330" d="M 502.5,504.5 C 501.833,503.167 501.833,503.167 502.5,504.5 Z"/></g>
<g><path style="opacity:0.008" fill="#323230" d="M 501.5,504.5 C 500.833,505.167 500.833,505.167 501.5,504.5 Z"/></g>
<g><path style="opacity:0.004" fill="#2d2c2b" d="M 582.5,507.5 C 583.833,508.167 583.833,508.167 582.5,507.5 Z"/></g>
<g><path style="opacity:0.004" fill="#2d2d2c" d="M 581.5,509.5 C 582.833,510.167 582.833,510.167 581.5,509.5 Z"/></g>
<g><path style="opacity:0.016" fill="#2f2e30" d="M 492.5,520.5 C 493.833,521.167 493.833,521.167 492.5,520.5 Z"/></g>
<g><path style="opacity:0.004" fill="#373937" d="M 475.5,525.5 C 476.833,526.167 476.833,526.167 475.5,525.5 Z"/></g>
<g><path style="opacity:0.016" fill="#2d2c2a" d="M 566.5,526.5 C 567.833,527.167 567.833,527.167 566.5,526.5 Z"/></g>
<g><path style="opacity:0.008" fill="#2a2a29" d="M 564.5,529.5 C 565.833,530.167 565.833,530.167 564.5,529.5 Z"/></g>
<g><path style="opacity:0.008" fill="#2f2d2c" d="M 487.5,530.5 C 488.833,531.167 488.833,531.167 487.5,530.5 Z"/></g>
<g><path style="opacity:0.004" fill="#2c2d2c" d="M 564.5,534.5 C 565.833,535.167 565.833,535.167 564.5,534.5 Z"/></g>
<g><path style="opacity:0.008" fill="#32322f" d="M 485.5,535.5 C 486.833,536.167 486.833,536.167 485.5,535.5 Z"/></g>
<g><path style="opacity:0.004" fill="#2f312e" d="M 480.5,546.5 C 481.833,547.167 481.833,547.167 480.5,546.5 Z"/></g>
<g><path style="opacity:0.008" fill="#333434" d="M 480.5,552.5 C 479.833,551.167 479.833,551.167 480.5,552.5 Z"/></g>
<g><path style="opacity:0.008" fill="#2c2d2b" d="M 534.5,574.5 C 535.833,575.167 535.833,575.167 534.5,574.5 Z"/></g>
<g><path style="opacity:0.004" fill="#2f2f2e" d="M 463.5,591.5 C 464.525,591.897 464.692,592.563 464,593.5C 463.536,592.906 463.369,592.239 463.5,591.5 Z"/></g>
<g><path style="opacity:0.006" fill="#2f302f" d="M 464.5,602.5 C 465.525,602.897 465.692,603.563 465,604.5C 464.536,603.906 464.369,603.239 464.5,602.5 Z"/></g>
<g><path style="opacity:0.004" fill="#2e2c2d" d="M 463.5,609.5 C 464.833,610.167 464.833,610.167 463.5,609.5 Z"/></g>
<g><path style="opacity:0.239" fill="#404242" d="M 465.5,615.5 C 465.784,617.415 465.451,619.081 464.5,620.5C 464.714,618.856 464.38,617.356 463.5,616C 464.094,615.536 464.761,615.369 465.5,615.5 Z"/></g>
<g><path style="opacity:0.004" fill="#272627" d="M 510.5,630.5 C 511.833,631.167 511.833,631.167 510.5,630.5 Z"/></g>
<g><path style="opacity:0.004" fill="#2c2d2b" d="M 460.5,637.5 C 461.833,638.167 461.833,638.167 460.5,637.5 Z"/></g>
<g><path style="opacity:0.004" fill="#2d2d2b" d="M 460.5,640.5 C 461.833,641.167 461.833,641.167 460.5,640.5 Z"/></g>
<g><path style="opacity:0.004" fill="#282b29" d="M 460.5,644.5 C 461.833,645.167 461.833,645.167 460.5,644.5 Z"/></g>
<g><path style="opacity:0.004" fill="#2d2e2c" d="M 507.5,646.5 C 508.833,647.167 508.833,647.167 507.5,646.5 Z"/></g>
<g><path style="opacity:0.004" fill="#2b2c2c" d="M 502.5,673.5 C 503.833,674.167 503.833,674.167 502.5,673.5 Z"/></g>
<g><path style="opacity:0.984" fill="#171716" d="M 505.5,646.5 C 500.579,679.178 498.579,711.511 499.5,743.5C 498.522,743.189 497.855,742.522 497.5,741.5C 497.47,725.561 497.637,709.561 498,693.5C 498.923,676.295 501.257,659.295 505,642.5C 505.49,643.793 505.657,645.127 505.5,646.5 Z"/></g>
<g><path style="opacity:0.004" fill="#302f2e" d="M 463.5,708.5 C 464.833,709.167 464.833,709.167 463.5,708.5 Z"/></g>
<g><path style="opacity:0.008" fill="#333131" d="M 465.5,713.5 C 465.631,714.239 465.464,714.906 465,715.5C 464.308,714.563 464.475,713.897 465.5,713.5 Z"/></g>
<g><path style="opacity:0.004" fill="#313331" d="M 464.5,716.5 C 465.525,716.897 465.692,717.563 465,718.5C 464.536,717.906 464.369,717.239 464.5,716.5 Z"/></g>
<g><path style="opacity:0.008" fill="#323130" d="M 465.5,720.5 C 466.573,721.251 466.74,722.251 466,723.5C 465.517,722.552 465.351,721.552 465.5,720.5 Z"/></g>
<g><path style="opacity:0.004" fill="#323232" d="M 466.5,725.5 C 467.525,725.897 467.692,726.563 467,727.5C 466.536,726.906 466.369,726.239 466.5,725.5 Z"/></g>
<g><path style="opacity:0.004" fill="#2f302f" d="M 467.5,729.5 C 468.833,730.167 468.833,730.167 467.5,729.5 Z"/></g>
<g><path style="opacity:0.004" fill="#313331" d="M 499.5,745.5 C 500.833,746.167 500.833,746.167 499.5,745.5 Z"/></g>
<g><path style="opacity:0.004" fill="#363733" d="M 472.5,748.5 C 473.833,749.167 473.833,749.167 472.5,748.5 Z"/></g>
<g><path style="opacity:0.008" fill="#303330" d="M 479.5,800.5 C 480.833,801.167 480.833,801.167 479.5,800.5 Z"/></g>
<g><path style="opacity:0.004" fill="#31312e" d="M 505.5,802.5 C 506.833,803.167 506.833,803.167 505.5,802.5 Z"/></g>
<g><path style="opacity:0.998" fill="#0f0f0f" d="M 523.5,809.5 C 530.99,813.751 537.99,818.751 544.5,824.5C 564.308,846.372 569.475,871.372 560,899.5C 544.264,932.021 518.764,946.187 483.5,942C 476.238,940.191 469.238,937.691 462.5,934.5C 462.027,933.094 461.027,932.427 459.5,932.5C 454.193,927.528 448.86,922.528 443.5,917.5C 443.262,915.596 442.262,914.262 440.5,913.5C 440.25,911.326 439.25,909.659 437.5,908.5C 437.008,906.181 436.008,904.181 434.5,902.5C 427.771,885.121 427.104,867.121 432.5,848.5C 440.619,830.391 453.286,817.058 470.5,808.5C 488.704,802.004 506.371,802.337 523.5,809.5 Z"/></g>
<g><path style="opacity:0.008" fill="#2f2e2c" d="M 470.5,808.5 C 469.833,807.167 469.833,807.167 470.5,808.5 Z"/></g>
<g><path style="opacity:0.004" fill="#2e2f2c" d="M 523.5,808.5 C 524.833,809.167 524.833,809.167 523.5,808.5 Z"/></g>
<g><path style="opacity:0.004" fill="#31332e" d="M 449.5,820.5 C 450.833,821.167 450.833,821.167 449.5,820.5 Z"/></g>
<g><path style="opacity:0.008" fill="#2f2e2d" d="M 544.5,823.5 C 545.833,824.167 545.833,824.167 544.5,823.5 Z"/></g>
<g><path style="opacity:0.004" fill="#31302f" d="M 433.5,841.5 C 434.833,842.167 434.833,842.167 433.5,841.5 Z"/></g>
<g><path style="opacity:0.004" fill="#2d2b2c" d="M 432.5,848.5 C 431.833,847.167 431.833,847.167 432.5,848.5 Z"/></g>
<g><path style="opacity:0.004" fill="#2f2f2e" d="M 564.5,857.5 C 565.833,858.167 565.833,858.167 564.5,857.5 Z"/></g>
<g><path style="opacity:0.004" fill="#2f2f30" d="M 431.5,898.5 C 432.833,899.167 432.833,899.167 431.5,898.5 Z"/></g>
<g><path style="opacity:0.004" fill="#2f302c" d="M 432.5,900.5 C 433.833,901.167 433.833,901.167 432.5,900.5 Z"/></g>
<g><path style="opacity:0.008" fill="#30312e" d="M 434.5,902.5 C 433.833,903.167 433.833,903.167 434.5,902.5 Z"/></g>
<g><path style="opacity:0.004" fill="#2d2e2d" d="M 437.5,908.5 C 436.833,909.167 436.833,909.167 437.5,908.5 Z"/></g>
<g><path style="opacity:0.008" fill="#30322f" d="M 437.5,910.5 C 438.833,911.167 438.833,911.167 437.5,910.5 Z"/></g>
<g><path style="opacity:0.008" fill="#2f2d2b" d="M 440.5,913.5 C 439.833,914.167 439.833,914.167 440.5,913.5 Z"/></g>
<g><path style="opacity:0.004" fill="#2f2f2c" d="M 443.5,917.5 C 442.833,918.167 442.833,918.167 443.5,917.5 Z"/></g>
<g><path style="opacity:0.004" fill="#2e2f2d" d="M 536.5,930.5 C 537.833,931.167 537.833,931.167 536.5,930.5 Z"/></g>
<g><path style="opacity:0.008" fill="#2f302f" d="M 456.5,931.5 C 457.833,932.167 457.833,932.167 456.5,931.5 Z"/></g>
<g><path style="opacity:0.004" fill="#2e2e2d" d="M 459.5,932.5 C 458.833,933.167 458.833,933.167 459.5,932.5 Z"/></g>
<g><path style="opacity:0.004" fill="#3e3f3d" d="M 307.5,933.5 C 308.833,934.167 308.833,934.167 307.5,933.5 Z"/></g>
<g><path style="opacity:0.008" fill="#2d2e2a" d="M 462.5,934.5 C 461.833,935.167 461.833,935.167 462.5,934.5 Z"/></g>
<g><path style="opacity:0.008" fill="#2f2e2e" d="M 474.5,941.5 C 473.833,940.167 473.833,940.167 474.5,941.5 Z"/></g>
<g><path style="opacity:0.004" fill="#30312f" d="M 474.5,941.5 C 475.833,942.167 475.833,942.167 474.5,941.5 Z"/></g>
<g><path style="opacity:0.004" fill="#30302e" d="M 492.5,944.5 C 493.833,945.167 493.833,945.167 492.5,944.5 Z"/></g>
</svg>
