<?xml version="1.0" encoding="UTF-8"?>
<!DOCTYPE svg PUBLIC "-//W3C//DTD SVG 1.1//EN" "http://www.w3.org/Graphics/SVG/1.1/DTD/svg11.dtd">
<svg xmlns="http://www.w3.org/2000/svg" version="1.1" width="1024px" height="1536px" style="shape-rendering:geometricPrecision; text-rendering:geometricPrecision; image-rendering:optimizeQuality; fill-rule:evenodd; clip-rule:evenodd" xmlns:xlink="http://www.w3.org/1999/xlink">
<g><path style="opacity:1" fill="#fdfdfc" d="M -0.5,-0.5 C 340.833,-0.5 682.167,-0.5 1023.5,-0.5C 1023.5,511.5 1023.5,1023.5 1023.5,1535.5C 682.167,1535.5 340.833,1535.5 -0.5,1535.5C -0.5,1023.5 -0.5,511.5 -0.5,-0.5 Z"/></g>
<g><path style="opacity:1" fill="#040302" d="M 832.5,270.5 C 833.675,270.281 834.675,270.614 835.5,271.5C 823.233,306.134 812.067,341.134 802,376.5C 792.683,415.767 783.683,455.1 775,494.5C 771.906,498.18 768.906,497.847 766,493.5C 765.777,473.711 762.777,454.377 757,435.5C 748.945,415.779 734.779,402.613 714.5,396C 663.857,377.257 611.524,366.924 557.5,365C 520.047,363.372 482.714,364.705 445.5,369C 438.906,369.593 434.739,373.093 433,379.5C 432.042,384.123 431.375,388.79 431,393.5C 428.236,436.123 427.069,478.789 427.5,521.5C 427.861,572.168 428.361,622.835 429,673.5C 429.125,682.284 433.625,686.117 442.5,685C 492.877,686.134 543.21,685.134 593.5,682C 640.561,679.363 682.394,663.53 719,634.5C 719.945,634.905 720.612,635.572 721,636.5C 721.577,640.888 721.244,645.221 720,649.5C 703.903,695.791 690.236,742.791 679,790.5C 678.152,793.698 676.652,796.531 674.5,799C 671.653,799.944 669.153,799.444 667,797.5C 656.42,771.437 637.253,755.604 609.5,750C 557.316,739.53 504.649,735.863 451.5,739C 444.397,739.282 437.397,740.282 430.5,742C 429.874,742.75 429.374,743.584 429,744.5C 427.803,752.438 427.136,760.438 427,768.5C 425.976,855.848 426.643,943.181 429,1030.5C 429.638,1061.55 433.305,1092.22 440,1122.5C 446.775,1146.9 459.275,1167.73 477.5,1185C 497.633,1198.39 519.633,1207.39 543.5,1212C 551.43,1215.17 551.097,1217.51 542.5,1219C 537.667,1219.17 532.833,1219.33 528,1219.5C 423.473,1216.42 318.973,1217.09 214.5,1221.5C 214.346,1217.97 215.679,1215.14 218.5,1213C 243.395,1203.47 264.561,1188.64 282,1168.5C 292.788,1152.48 299.455,1134.81 302,1115.5C 306.749,1084.68 309.415,1053.68 310,1022.5C 314.119,873.852 315.119,725.186 313,576.5C 312.029,543.166 311.029,509.832 310,476.5C 308.707,449.239 305.374,422.239 300,395.5C 294.043,366.885 278.21,345.718 252.5,332C 240.547,325.858 228.213,320.525 215.5,316C 209.36,310.281 210.36,306.947 218.5,306C 363.501,305.56 508.501,304.893 653.5,304C 684.942,304.117 716.275,302.45 747.5,299C 777.756,294.748 806.09,285.248 832.5,270.5 Z"/></g>
</svg>
