<?xml version="1.0" encoding="UTF-8"?>
<!DOCTYPE svg PUBLIC "-//W3C//DTD SVG 1.1//EN" "http://www.w3.org/Graphics/SVG/1.1/DTD/svg11.dtd">
<svg xmlns="http://www.w3.org/2000/svg" version="1.1" width="1024px" height="1024px" style="shape-rendering:geometricPrecision; text-rendering:geometricPrecision; image-rendering:optimizeQuality; fill-rule:evenodd; clip-rule:evenodd" xmlns:xlink="http://www.w3.org/1999/xlink">
<g><path style="opacity:1" fill="#fefefe" d="M -0.5,-0.5 C 340.833,-0.5 682.167,-0.5 1023.5,-0.5C 1023.5,340.833 1023.5,682.167 1023.5,1023.5C 682.167,1023.5 340.833,1023.5 -0.5,1023.5C -0.5,682.167 -0.5,340.833 -0.5,-0.5 Z"/></g>
<g><path style="opacity:1" fill="#10110f" d="M 585.5,95.5 C 632.224,94.7656 676.558,104.599 718.5,125C 720.731,126.61 722.731,128.443 724.5,130.5C 698.832,150.516 678.332,174.85 663,203.5C 661.122,206.23 658.622,207.897 655.5,208.5C 654.5,208.167 653.5,207.833 652.5,207.5C 638.94,174.437 615.274,152.271 581.5,141C 554.078,134.294 534.578,143.794 523,169.5C 519.574,178.206 517.24,187.206 516,196.5C 514.519,208.794 513.519,221.128 513,233.5C 512.5,268.832 512.333,304.165 512.5,339.5C 543.516,339.829 574.516,339.329 605.5,338C 627.424,337.536 648.591,333.369 669,325.5C 670.714,326.076 671.881,327.243 672.5,329C 657.412,350.113 643.912,372.279 632,395.5C 630.705,397.122 629.205,398.455 627.5,399.5C 609.125,392.764 590.458,386.931 571.5,382C 552.033,377.93 532.366,375.43 512.5,374.5C 512.291,478.509 511.458,582.509 510,686.5C 509.607,729.8 501.273,771.466 485,811.5C 453.032,877.787 400.698,917.12 328,929.5C 326.5,929.333 325,929.167 323.5,929C 315.295,920.464 307.462,911.631 300,902.5C 299.056,899.653 299.556,897.153 301.5,895C 354.89,895.908 392.39,872.074 414,823.5C 425.467,791.834 432.467,759.168 435,725.5C 436.352,707.52 437.352,689.52 438,671.5C 438.5,571.834 438.667,472.167 438.5,372.5C 406.5,372.5 374.5,372.5 342.5,372.5C 342.34,370.801 342.506,369.134 343,367.5C 351.565,358.265 360.732,349.765 370.5,342C 392.783,339.983 415.117,338.817 437.5,338.5C 434.59,294.58 440.423,251.913 455,210.5C 463.54,189.068 474.874,169.402 489,151.5C 505.684,132.09 525.517,116.924 548.5,106C 560.564,101.072 572.897,97.5716 585.5,95.5 Z"/></g>
</svg>
