<?xml version="1.0" encoding="UTF-8"?>
<!DOCTYPE svg PUBLIC "-//W3C//DTD SVG 1.1//EN" "http://www.w3.org/Graphics/SVG/1.1/DTD/svg11.dtd">
<svg xmlns="http://www.w3.org/2000/svg" version="1.1" width="1024px" height="1024px" style="shape-rendering:geometricPrecision; text-rendering:geometricPrecision; image-rendering:optimizeQuality; fill-rule:evenodd; clip-rule:evenodd" xmlns:xlink="http://www.w3.org/1999/xlink">
<g><path style="opacity:0.004" fill="#505150" d="M 545.5,88.5 C 544.833,87.1667 544.833,87.1667 545.5,88.5 Z"/></g>
<g><path style="opacity:0.004" fill="#51504d" d="M 567.5,88.5 C 567.897,87.475 568.563,87.3083 569.5,88C 568.906,88.4643 568.239,88.631 567.5,88.5 Z"/></g>
<g><path style="opacity:0.004" fill="#504f4c" d="M 574.5,87.5 C 575.833,88.1667 575.833,88.1667 574.5,87.5 Z"/></g>
<g><path style="opacity:0.008" fill="#504d4c" d="M 576.5,87.5 C 577.833,88.1667 577.833,88.1667 576.5,87.5 Z"/></g>
<g><path style="opacity:0.008" fill="#4f504b" d="M 544.5,88.5 C 543.833,89.1667 543.833,89.1667 544.5,88.5 Z"/></g>
<g><path style="opacity:0.008" fill="#4f4d4d" d="M 545.5,88.5 C 546.239,88.369 546.906,88.5357 547.5,89C 546.563,89.6917 545.897,89.525 545.5,88.5 Z"/></g>
<g><path style="opacity:0.008" fill="#4e4c49" d="M 548.5,88.5 C 549.833,89.1667 549.833,89.1667 548.5,88.5 Z"/></g>
<g><path style="opacity:0.004" fill="#4b4a48" d="M 561.5,88.5 C 562.833,89.1667 562.833,89.1667 561.5,88.5 Z"/></g>
<g><path style="opacity:0.004" fill="#4b4c49" d="M 572.5,88.5 C 573.833,89.1667 573.833,89.1667 572.5,88.5 Z"/></g>
<g><path style="opacity:0.004" fill="#514d4a" d="M 578.5,88.5 C 579.833,89.1667 579.833,89.1667 578.5,88.5 Z"/></g>
<g><path style="opacity:0.004" fill="#52514f" d="M 612.5,88.5 C 613.833,89.1667 613.833,89.1667 612.5,88.5 Z"/></g>
<g><path style="opacity:0.004" fill="#52534f" d="M 512.5,90.5 C 513.833,91.1667 513.833,91.1667 512.5,90.5 Z"/></g>
<g><path style="opacity:0.937" fill="#575552" d="M 551.5,90.5 C 545.355,91.4902 539.022,91.8235 532.5,91.5C 538.567,90.8153 544.734,90.1486 551,89.5C 551.399,89.7284 551.565,90.0618 551.5,90.5 Z"/></g>
<g><path style="opacity:0.961" fill="#474645" d="M 530.5,91.5 C 524.041,92.8127 517.374,93.4793 510.5,93.5C 516.947,92.064 523.614,91.3974 530.5,91.5 Z"/></g>
<g><path style="opacity:0.999" fill="#0a0b0b" d="M 551.5,90.5 C 600.283,89.2652 648.283,94.5986 695.5,106.5C 694.737,107.268 693.737,107.768 692.5,108C 722.564,115.338 750.231,125.671 775.5,139C 777.134,139.494 778.801,139.66 780.5,139.5C 782.644,142.122 783.977,145.122 784.5,148.5C 783.974,150.23 782.974,151.564 781.5,152.5C 780.504,152.414 779.671,152.748 779,153.5C 774.659,160.179 770.825,167.179 767.5,174.5C 767.863,175.183 768.196,175.85 768.5,176.5C 768.34,178.153 767.674,179.486 766.5,180.5C 765.357,180.908 764.357,181.575 763.5,182.5C 760.763,188.543 757.93,194.543 755,200.5C 753.228,204.313 752.395,208.313 752.5,212.5C 752.5,212.833 752.5,213.167 752.5,213.5C 751.883,213.389 751.383,213.056 751,212.5C 745.933,226.277 741.1,240.11 736.5,254C 737.406,255.699 737.739,257.533 737.5,259.5C 736.167,264.499 734.834,269.499 733.5,274.5C 732.5,274.5 731.5,274.5 730.5,274.5C 730.167,274.5 729.833,274.5 729.5,274.5C 729.007,272.194 728.674,269.861 728.5,267.5C 728.627,263.051 727.627,258.884 725.5,255C 718.438,237.329 708.771,220.829 696.5,205.5C 694.929,203.585 692.929,202.585 690.5,202.5C 690.167,202.5 689.833,202.5 689.5,202.5C 688.5,200.833 687.167,199.5 685.5,198.5C 685.5,198.167 685.5,197.833 685.5,197.5C 685.313,195.436 684.813,193.436 684,191.5C 683.667,191.833 683.333,192.167 683,192.5C 678.819,188.321 674.319,184.488 669.5,181C 668.207,180.51 666.873,180.343 665.5,180.5C 663.973,180.573 662.973,179.906 662.5,178.5C 662.027,177.094 661.027,176.427 659.5,176.5C 658.391,172.398 655.725,170.731 651.5,171.5C 650.972,170.279 650.305,169.113 649.5,168C 644.198,165.349 638.864,162.682 633.5,160C 631.26,159.023 628.927,158.523 626.5,158.5C 625.167,158.167 623.833,157.833 622.5,157.5C 616.647,156.437 610.98,154.771 605.5,152.5C 603.485,151.076 601.152,150.41 598.5,150.5C 564.609,144.377 530.942,145.377 497.5,153.5C 495.545,152.677 493.545,152.51 491.5,153C 475.804,158.333 460.804,165 446.5,173C 445.695,174.113 445.028,175.279 444.5,176.5C 444.158,177.338 443.492,177.672 442.5,177.5C 442.44,176.957 442.107,176.624 441.5,176.5C 438.5,178.333 435.5,180.167 432.5,182C 431.663,183.011 431.33,184.178 431.5,185.5C 430.5,185.833 429.833,186.5 429.5,187.5C 428.833,187.5 428.5,187.833 428.5,188.5C 424.293,190.435 420.627,193.102 417.5,196.5C 415.833,197.5 414.5,198.833 413.5,200.5C 406.869,205.796 400.535,211.463 394.5,217.5C 392.628,216.205 390.962,216.372 389.5,218C 389.833,218.333 390.167,218.667 390.5,219C 388.353,221.237 386.02,223.237 383.5,225C 383.833,225.333 384.167,225.667 384.5,226C 381.603,227.715 380.269,230.215 380.5,233.5C 380.5,233.833 380.5,234.167 380.5,234.5C 373.113,243.887 366.113,253.554 359.5,263.5C 357.968,264.677 356.468,266.011 355,267.5C 349.573,277.365 344.573,287.032 340,296.5C 339.505,298.473 339.338,300.473 339.5,302.5C 338.357,302.908 337.357,303.575 336.5,304.5C 330.806,318.083 325.806,331.916 321.5,346C 322.406,347.699 322.739,349.533 322.5,351.5C 303.335,428.235 301.668,505.235 317.5,582.5C 317.171,585.228 317.837,587.562 319.5,589.5C 319.5,589.833 319.5,590.167 319.5,590.5C 319.171,593.228 319.837,595.562 321.5,597.5C 322.903,601.381 323.903,605.381 324.5,609.5C 323.542,613.507 324.209,617.34 326.5,621C 334.854,648.889 346.687,675.389 362,700.5C 362.77,699.402 363.603,699.402 364.5,700.5C 365.423,708.028 369.089,713.695 375.5,717.5C 382.594,726.684 389.927,735.684 397.5,744.5C 397.833,745.167 398.167,745.833 398.5,746.5C 399.419,749.089 401.086,751.089 403.5,752.5C 405.5,753.833 407.167,755.5 408.5,757.5C 410.459,761.981 413.459,765.815 417.5,769C 418.448,769.483 419.448,769.649 420.5,769.5C 420.5,770.5 420.5,771.5 420.5,772.5C 421.833,772.5 423.167,772.5 424.5,772.5C 428.817,775.486 432.817,778.82 436.5,782.5C 436.973,783.906 437.973,784.573 439.5,784.5C 439.385,788.027 441.385,789.694 445.5,789.5C 447.853,790.34 449.853,791.674 451.5,793.5C 454.393,798.449 458.726,801.116 464.5,801.5C 465.492,801.328 466.158,801.662 466.5,802.5C 468.309,805.139 470.642,807.306 473.5,809C 483.554,814.304 493.72,818.471 504,821.5C 506.432,821.763 508.432,822.763 510,824.5C 510.333,824.167 510.667,823.833 511,823.5C 513.57,824.009 515.903,825.009 518,826.5C 519.147,825.542 520.147,825.875 521,827.5C 523.462,827.088 525.795,827.088 528,827.5C 528.945,827.905 529.612,828.572 530,829.5C 536.198,828.668 542.698,828.334 549.5,828.5C 559.172,828.666 568.839,828.5 578.5,828C 583.706,827.563 588.706,826.73 593.5,825.5C 595.167,825.5 596.833,825.5 598.5,825.5C 602.57,825.568 606.237,824.568 609.5,822.5C 609.5,822.167 609.5,821.833 609.5,821.5C 616.439,819.965 623.106,817.631 629.5,814.5C 631.199,814.66 632.866,814.494 634.5,814C 640.839,809.866 646.673,805.032 652,799.5C 652.608,797.846 653.108,796.179 653.5,794.5C 654.906,794.027 655.573,793.027 655.5,791.5C 656.906,791.027 657.573,790.027 657.5,788.5C 660.162,781.68 662.328,774.68 664,767.5C 665.078,752.348 665.911,737.182 666.5,722C 666.076,677.857 665.576,633.024 665,587.5C 664.764,574.863 663.264,562.53 660.5,550.5C 659.451,543.353 657.785,536.353 655.5,529.5C 655.244,522.315 652.744,515.981 648,510.5C 647.536,511.094 647.369,511.761 647.5,512.5C 645.167,509.833 642.833,507.167 640.5,504.5C 639.585,502.246 638.252,500.246 636.5,498.5C 636.33,497.178 636.663,496.011 637.5,495C 634.109,491.426 630.109,488.926 625.5,487.5C 621.424,484.085 617.091,481.085 612.5,478.5C 612.027,477.094 611.027,476.427 609.5,476.5C 589.661,463.936 567.995,455.77 544.5,452C 543.748,451.329 543.414,450.496 543.5,449.5C 543.833,446.833 544.167,444.167 544.5,441.5C 635.5,441.5 726.5,441.5 817.5,441.5C 819.048,441.821 819.715,442.821 819.5,444.5C 814.858,448.136 810.191,451.803 805.5,455.5C 798.985,458.015 794.985,462.681 793.5,469.5C 791.983,469.511 790.816,470.177 790,471.5C 786.79,475.251 785.29,479.584 785.5,484.5C 775.959,513.027 771.292,542.36 771.5,572.5C 770.503,594.66 770.169,616.994 770.5,639.5C 770.17,658.341 770.503,677.007 771.5,695.5C 772.727,705.606 772.727,715.606 771.5,725.5C 771.171,740.676 771.504,755.676 772.5,770.5C 773.81,795.505 776.143,820.838 779.5,846.5C 779.294,849.495 779.96,852.162 781.5,854.5C 781.5,854.833 781.5,855.167 781.5,855.5C 781.171,858.228 781.837,860.562 783.5,862.5C 783.5,862.833 783.5,863.167 783.5,863.5C 783.171,866.228 783.837,868.562 785.5,870.5C 787.029,874.421 788.363,878.421 789.5,882.5C 788.9,886.508 789.9,890.008 792.5,893C 794.248,899.912 796.581,906.579 799.5,913C 799.333,913.833 799.167,914.667 799,915.5C 797.615,914.449 796.615,913.116 796,911.5C 794.989,912.337 793.822,912.67 792.5,912.5C 785.993,908.414 779.66,904.08 773.5,899.5C 771.469,897.478 769.135,895.811 766.5,894.5C 762.698,890.763 758.365,887.763 753.5,885.5C 749.196,881.351 744.53,877.684 739.5,874.5C 738.71,873.599 737.71,872.932 736.5,872.5C 729.403,868.07 722.069,864.07 714.5,860.5C 706.892,855.854 698.559,853.187 689.5,852.5C 681.349,850.161 673.015,849.994 664.5,852C 658.049,853.54 651.716,855.374 645.5,857.5C 640.623,856.775 636.956,858.442 634.5,862.5C 633.791,863.404 632.791,863.737 631.5,863.5C 630.735,863.077 629.902,862.743 629,862.5C 619.314,865.627 609.814,868.46 600.5,871C 601.416,871.278 602.082,871.778 602.5,872.5C 567.49,879.975 532.157,881.475 496.5,877C 487.918,876.127 479.584,874.627 471.5,872.5C 472.263,871.732 473.263,871.232 474.5,871C 464.56,869.709 455.393,867.209 447,863.5C 446.228,863.645 445.561,863.978 445,864.5C 441.31,862.993 437.476,861.993 433.5,861.5C 433.671,858.203 433.005,857.869 431.5,860.5C 421.977,857.654 413.311,854.487 405.5,851C 403.19,850.503 400.857,850.337 398.5,850.5C 396.597,850.204 394.93,849.537 393.5,848.5C 393.092,847.357 392.425,846.357 391.5,845.5C 385.676,841.753 379.342,839.42 372.5,838.5C 367.089,832.789 360.422,829.123 352.5,827.5C 352.027,826.094 351.027,825.427 349.5,825.5C 347.02,824.758 344.687,823.758 342.5,822.5C 340.853,820.674 338.853,819.34 336.5,818.5C 336.167,817.833 335.833,817.167 335.5,816.5C 334.956,814.42 334.122,812.42 333,810.5C 332.667,811.167 332.333,811.833 332,812.5C 321.559,804.693 311.393,796.527 301.5,788C 300.207,787.51 298.873,787.343 297.5,787.5C 294.833,785.5 292.167,783.5 289.5,781.5C 286.833,778.167 283.833,775.167 280.5,772.5C 280.5,772.167 280.5,771.833 280.5,771.5C 280.108,769.821 279.608,768.154 279,766.5C 275.667,763.167 272.333,759.833 269,756.5C 268.536,757.094 268.369,757.761 268.5,758.5C 267.833,758.167 267.167,757.833 266.5,757.5C 264.883,754.216 262.55,751.549 259.5,749.5C 259.573,747.973 258.906,746.973 257.5,746.5C 256.4,745.395 255.733,744.062 255.5,742.5C 255.649,741.448 255.483,740.448 255,739.5C 225.936,701.371 204.936,659.371 192,613.5C 191.722,614.416 191.222,615.082 190.5,615.5C 185.438,598.235 181.772,580.569 179.5,562.5C 179.473,556.949 178.806,551.616 177.5,546.5C 177.5,546.167 177.5,545.833 177.5,545.5C 177.817,541.298 177.483,537.298 176.5,533.5C 172.423,487.372 175.423,441.705 185.5,396.5C 187.163,394.562 187.829,392.228 187.5,389.5C 187.5,388.833 187.5,388.167 187.5,387.5C 189.328,384.865 190.495,381.865 191,378.5C 191.333,378.833 191.667,379.167 192,379.5C 196.036,364.727 200.869,350.227 206.5,336C 206.317,334.316 205.65,334.15 204.5,335.5C 204.557,334.391 204.89,333.391 205.5,332.5C 206.397,331.402 207.23,331.402 208,332.5C 214.715,315.476 222.715,299.143 232,283.5C 232.505,281.482 233.005,279.482 233.5,277.5C 238.909,274.417 241.909,269.75 242.5,263.5C 244.673,259.148 247.34,255.148 250.5,251.5C 251.906,251.027 252.573,250.027 252.5,248.5C 253.604,246.611 254.937,244.945 256.5,243.5C 260.481,240.713 264.148,237.546 267.5,234C 267.167,233.667 266.833,233.333 266.5,233C 271.279,228.603 274.946,223.436 277.5,217.5C 284.131,209.534 291.131,201.867 298.5,194.5C 308.821,186.178 318.821,177.511 328.5,168.5C 332.701,166.316 336.201,163.316 339,159.5C 339.333,159.833 339.667,160.167 340,160.5C 343.658,157.934 347.158,155.268 350.5,152.5C 354.909,149.433 359.576,146.767 364.5,144.5C 366.027,144.573 367.027,143.906 367.5,142.5C 369.199,142.66 370.866,142.494 372.5,142C 388.907,132.791 405.573,124.791 422.5,118C 424.056,117.28 425.056,116.113 425.5,114.5C 428.716,114.655 431.383,113.655 433.5,111.5C 436.916,111.472 439.916,110.472 442.5,108.5C 448.97,108.808 455.303,107.641 461.5,105C 460.584,104.722 459.918,104.222 459.5,103.5C 462.495,103.706 465.162,103.04 467.5,101.5C 472.12,101.26 476.453,100.26 480.5,98.5C 482.265,97.5386 484.265,97.2053 486.5,97.5C 489.781,97.5797 492.781,96.913 495.5,95.5C 500.414,94.2926 505.414,93.6259 510.5,93.5C 517.374,93.4793 524.041,92.8127 530.5,91.5C 531.167,91.5 531.833,91.5 532.5,91.5C 539.022,91.8235 545.355,91.4902 551.5,90.5 Z"/></g>
<g><path style="opacity:0.008" fill="#4c4b49" d="M 650.5,95.5 C 651.833,96.1667 651.833,96.1667 650.5,95.5 Z"/></g>
<g><path style="opacity:0.008" fill="#4d4e4c" d="M 653.5,96.5 C 654.251,95.4265 655.251,95.2599 656.5,96C 655.552,96.4828 654.552,96.6495 653.5,96.5 Z"/></g>
<g><path style="opacity:0.004" fill="#4e504d" d="M 659.5,96.5 C 658.833,95.1667 658.833,95.1667 659.5,96.5 Z"/></g>
<g><path style="opacity:0.008" fill="#52514d" d="M 476.5,96.5 C 477.833,97.1667 477.833,97.1667 476.5,96.5 Z"/></g>
<g><path style="opacity:1" fill="#3d3d3b" d="M 495.5,95.5 C 492.781,96.913 489.781,97.5797 486.5,97.5C 489.219,96.087 492.219,95.4203 495.5,95.5 Z"/></g>
<g><path style="opacity:0.008" fill="#4d4d4a" d="M 659.5,96.5 C 660.833,97.1667 660.833,97.1667 659.5,96.5 Z"/></g>
<g><path style="opacity:0.008" fill="#4f4f4b" d="M 662.5,96.5 C 663.833,97.1667 663.833,97.1667 662.5,96.5 Z"/></g>
<g><path style="opacity:0.008" fill="#4f4e4c" d="M 472.5,98.5 C 472.897,97.475 473.563,97.3083 474.5,98C 473.906,98.4643 473.239,98.631 472.5,98.5 Z"/></g>
<g><path style="opacity:0.004" fill="#504e4c" d="M 664.5,98.5 C 664.897,97.475 665.563,97.3083 666.5,98C 665.906,98.4643 665.239,98.631 664.5,98.5 Z"/></g>
<g><path style="opacity:0.004" fill="#4d4e4b" d="M 669.5,98.5 C 670.833,99.1667 670.833,99.1667 669.5,98.5 Z"/></g>
<g><path style="opacity:1" fill="#42413f" d="M 480.5,98.5 C 476.453,100.26 472.12,101.26 467.5,101.5C 471.547,99.7402 475.88,98.7402 480.5,98.5 Z"/></g>
<g><path style="opacity:0.004" fill="#504f4c" d="M 675.5,99.5 C 676.833,100.167 676.833,100.167 675.5,99.5 Z"/></g>
<g><path style="opacity:0.98" fill="#3a3b39" d="M 467.5,101.5 C 465.162,103.04 462.495,103.706 459.5,103.5C 461.905,102.232 464.572,101.565 467.5,101.5 Z"/></g>
<g><path style="opacity:0.991" fill="#262625" d="M 459.5,103.5 C 459.918,104.222 460.584,104.722 461.5,105C 455.303,107.641 448.97,108.808 442.5,108.5C 442.5,108.167 442.5,107.833 442.5,107.5C 448.167,106.167 453.833,104.833 459.5,103.5 Z"/></g>
<g><path style="opacity:0.008" fill="#4c4c4a" d="M 695.5,104.5 C 696.833,105.167 696.833,105.167 695.5,104.5 Z"/></g>
<g><path style="opacity:0.008" fill="#4b4947" d="M 699.5,105.5 C 700.833,106.167 700.833,106.167 699.5,105.5 Z"/></g>
<g><path style="opacity:0.006" fill="#51514d" d="M 442.5,107.5 C 441.448,107.649 440.448,107.483 439.5,107C 440.749,106.26 441.749,106.427 442.5,107.5 Z"/></g>
<g><path style="opacity:0.969" fill="#404140" d="M 442.5,108.5 C 439.916,110.472 436.916,111.472 433.5,111.5C 436.215,109.928 439.215,108.928 442.5,108.5 Z"/></g>
<g><path style="opacity:0.008" fill="#50514e" d="M 421.5,111.5 C 422.833,112.167 422.833,112.167 421.5,111.5 Z"/></g>
<g><path style="opacity:0.004" fill="#4c4c4a" d="M 426.5,111.5 C 427.833,112.167 427.833,112.167 426.5,111.5 Z"/></g>
<g><path style="opacity:0.012" fill="#414240" d="M 718.5,111.5 C 719.833,112.167 719.833,112.167 718.5,111.5 Z"/></g>
<g><path style="opacity:0.989" fill="#272625" d="M 695.5,106.5 C 703.167,108.5 710.833,110.5 718.5,112.5C 719.568,113.434 720.901,113.768 722.5,113.5C 728.67,116.004 735.004,118.338 741.5,120.5C 755.175,125.504 768.175,131.838 780.5,139.5C 778.801,139.66 777.134,139.494 775.5,139C 750.231,125.671 722.564,115.338 692.5,108C 693.737,107.768 694.737,107.268 695.5,106.5 Z"/></g>
<g><path style="opacity:0.004" fill="#4b4c49" d="M 722.5,113.5 C 722.897,112.475 723.563,112.308 724.5,113C 723.906,113.464 723.239,113.631 722.5,113.5 Z"/></g>
<g><path style="opacity:0.004" fill="#50504d" d="M 417.5,114.5 C 416.833,113.167 416.833,113.167 417.5,114.5 Z"/></g>
<g><path style="opacity:0.004" fill="#4e504c" d="M 421.5,113.5 C 422.833,114.167 422.833,114.167 421.5,113.5 Z"/></g>
<g><path style="opacity:0.996" fill="#383736" d="M 433.5,111.5 C 431.383,113.655 428.716,114.655 425.5,114.5C 427.936,113.129 430.603,112.129 433.5,111.5 Z"/></g>
<g><path style="opacity:0.004" fill="#51524c" d="M 417.5,114.5 C 418.833,115.167 418.833,115.167 417.5,114.5 Z"/></g>
<g><path style="opacity:0.004" fill="#4f504b" d="M 420.5,115.5 C 419.833,114.167 419.833,114.167 420.5,115.5 Z"/></g>
<g><path style="opacity:0.004" fill="#51504c" d="M 415.5,115.5 C 416.833,116.167 416.833,116.167 415.5,115.5 Z"/></g>
<g><path style="opacity:0.006" fill="#4f4f4c" d="M 408.5,120.5 C 407.761,120.631 407.094,120.464 406.5,120C 407.437,119.308 408.103,119.475 408.5,120.5 Z"/></g>
<g><path style="opacity:0.004" fill="#3f3e3d" d="M 741.5,119.5 C 742.833,120.167 742.833,120.167 741.5,119.5 Z"/></g>
<g><path style="opacity:0.004" fill="#4b4e4a" d="M 750.5,119.5 C 751.833,120.167 751.833,120.167 750.5,119.5 Z"/></g>
<g><path style="opacity:0.993" fill="#222221" d="M 425.5,114.5 C 425.056,116.113 424.056,117.28 422.5,118C 405.573,124.791 388.907,132.791 372.5,142C 370.866,142.494 369.199,142.66 367.5,142.5C 370.672,140.748 373.672,138.748 376.5,136.5C 381.667,134.084 386.667,131.418 391.5,128.5C 397.381,126.211 403.047,123.544 408.5,120.5C 412.787,119.352 416.787,117.685 420.5,115.5C 422.216,115.371 423.883,115.038 425.5,114.5 Z"/></g>
<g><path style="opacity:0.012" fill="#4a4c4b" d="M 745.5,120.5 C 746.833,121.167 746.833,121.167 745.5,120.5 Z"/></g>
<g><path style="opacity:0.004" fill="#4e504c" d="M 401.5,121.5 C 402.833,122.167 402.833,122.167 401.5,121.5 Z"/></g>
<g><path style="opacity:0.008" fill="#4e4e4b" d="M 384.5,127.5 C 385.833,128.167 385.833,128.167 384.5,127.5 Z"/></g>
<g><path style="opacity:0.008" fill="#4a4c48" d="M 391.5,128.5 C 390.761,128.631 390.094,128.464 389.5,128C 390.437,127.308 391.103,127.475 391.5,128.5 Z"/></g>
<g><path style="opacity:0.004" fill="#4c4b4a" d="M 762.5,127.5 C 763.833,128.167 763.833,128.167 762.5,127.5 Z"/></g>
<g><path style="opacity:0.02" fill="#4b4f4c" d="M 385.5,129.5 C 386.833,130.167 386.833,130.167 385.5,129.5 Z"/></g>
<g><path style="opacity:0.012" fill="#4f4d49" d="M 383.5,130.5 C 384.833,131.167 384.833,131.167 383.5,130.5 Z"/></g>
<g><path style="opacity:0.016" fill="#51504d" d="M 376.5,136.5 C 375.761,136.631 375.094,136.464 374.5,136C 375.437,135.308 376.103,135.475 376.5,136.5 Z"/></g>
<g><path style="opacity:0.008" fill="#4e4f4d" d="M 367.5,136.5 C 368.833,137.167 368.833,137.167 367.5,136.5 Z"/></g>
<g><path style="opacity:0.008" fill="#4e4e4c" d="M 371.5,137.5 C 370.761,137.631 370.094,137.464 369.5,137C 370.437,136.308 371.103,136.475 371.5,137.5 Z"/></g>
<g><path style="opacity:0.016" fill="#4c4f4a" d="M 371.5,137.5 C 372.833,138.167 372.833,138.167 371.5,137.5 Z"/></g>
<g><path style="opacity:0.012" fill="#4c4e48" d="M 369.5,138.5 C 370.833,139.167 370.833,139.167 369.5,138.5 Z"/></g>
<g><path style="opacity:0.979" fill="#2b2b2a" d="M 780.5,139.5 C 783.888,140.348 786.221,142.348 787.5,145.5C 786.272,146.306 785.272,147.306 784.5,148.5C 783.977,145.122 782.644,142.122 780.5,139.5 Z"/></g>
<g><path style="opacity:0.004" fill="#484948" d="M 360.5,143.5 C 361.833,144.167 361.833,144.167 360.5,143.5 Z"/></g>
<g><path style="opacity:0.957" fill="#464645" d="M 367.5,142.5 C 367.027,143.906 366.027,144.573 364.5,144.5C 364.973,143.094 365.973,142.427 367.5,142.5 Z"/></g>
<g><path style="opacity:0.008" fill="#4f504d" d="M 354.5,144.5 C 355.833,145.167 355.833,145.167 354.5,144.5 Z"/></g>
<g><path style="opacity:0.004" fill="#484947" d="M 360.5,144.5 C 359.833,145.167 359.833,145.167 360.5,144.5 Z"/></g>
<g><path style="opacity:0.008" fill="#575854" d="M 787.5,145.5 C 788.833,146.167 788.833,146.167 787.5,145.5 Z"/></g>
<g><path style="opacity:0.006" fill="#4c4b48" d="M 540.5,148.5 C 540.897,147.475 541.563,147.308 542.5,148C 541.906,148.464 541.239,148.631 540.5,148.5 Z"/></g>
<g><path style="opacity:0.004" fill="#4d504b" d="M 353.5,148.5 C 354.833,149.167 354.833,149.167 353.5,148.5 Z"/></g>
<g><path style="opacity:0.008" fill="#4a4846" d="M 577.5,148.5 C 578.833,149.167 578.833,149.167 577.5,148.5 Z"/></g>
<g><path style="opacity:0.004" fill="#4b4b46" d="M 579.5,149.5 C 580.833,150.167 580.833,150.167 579.5,149.5 Z"/></g>
<g><path style="opacity:0.004" fill="#4e4c4a" d="M 523.5,149.5 C 524.525,149.897 524.692,150.563 524,151.5C 523.536,150.906 523.369,150.239 523.5,149.5 Z"/></g>
<g><path style="opacity:0.012" fill="#4e4f4c" d="M 343.5,151.5 C 344.833,152.167 344.833,152.167 343.5,151.5 Z"/></g>
<g><path style="opacity:0.016" fill="#4c4c46" d="M 350.5,152.5 C 349.833,151.167 349.833,151.167 350.5,152.5 Z"/></g>
<g><path style="opacity:0.063" fill="#525250" d="M 598.5,150.5 C 601.152,150.41 603.485,151.076 605.5,152.5C 602.848,152.59 600.515,151.924 598.5,150.5 Z"/></g>
<g><path style="opacity:0.006" fill="#4c4c4a" d="M 346.5,151.5 C 347.289,151.783 347.956,152.283 348.5,153C 347.184,153.528 346.517,153.028 346.5,151.5 Z"/></g>
<g><path style="opacity:0.992" fill="#242423" d="M 781.5,152.5 C 777.163,160.508 772.83,168.508 768.5,176.5C 768.196,175.85 767.863,175.183 767.5,174.5C 770.825,167.179 774.659,160.179 779,153.5C 779.671,152.748 780.504,152.414 781.5,152.5 Z"/></g>
<g><path style="opacity:0.004" fill="#4f4d49" d="M 491.5,156.5 C 492.833,157.167 492.833,157.167 491.5,156.5 Z"/></g>
<g><path style="opacity:0.004" fill="#4b4b47" d="M 488.5,157.5 C 489.833,158.167 489.833,158.167 488.5,157.5 Z"/></g>
<g><path style="opacity:0.016" fill="#4b4c48" d="M 615.5,157.5 C 616.833,158.167 616.833,158.167 615.5,157.5 Z"/></g>
<g><path style="opacity:0.989" fill="#242423" d="M 497.5,153.5 C 479.351,158.744 462.351,166.41 446.5,176.5C 445.833,176.5 445.167,176.5 444.5,176.5C 445.028,175.279 445.695,174.113 446.5,173C 460.804,165 475.804,158.333 491.5,153C 493.545,152.51 495.545,152.677 497.5,153.5 Z"/></g>
<g><path style="opacity:0.004" fill="#4e4e49" d="M 486.5,158.5 C 487.833,159.167 487.833,159.167 486.5,158.5 Z"/></g>
<g><path style="opacity:0.012" fill="#4b4947" d="M 619.5,158.5 C 620.833,159.167 620.833,159.167 619.5,158.5 Z"/></g>
<g><path style="opacity:0.184" fill="#5b5b59" d="M 622.5,157.5 C 623.833,157.833 625.167,158.167 626.5,158.5C 626.5,158.833 626.5,159.167 626.5,159.5C 624.62,159.771 623.287,159.104 622.5,157.5 Z"/></g>
<g><path style="opacity:0.004" fill="#4a4949" d="M 336.5,159.5 C 337.833,160.167 337.833,160.167 336.5,159.5 Z"/></g>
<g><path style="opacity:0.991" fill="#1e1e1d" d="M 626.5,158.5 C 628.927,158.523 631.26,159.023 633.5,160C 638.864,162.682 644.198,165.349 649.5,168C 650.305,169.113 650.972,170.279 651.5,171.5C 643.25,167.207 634.917,163.207 626.5,159.5C 626.5,159.167 626.5,158.833 626.5,158.5 Z"/></g>
<g><path style="opacity:0.008" fill="#474946" d="M 632.5,163.5 C 633.833,164.167 633.833,164.167 632.5,163.5 Z"/></g>
<g><path style="opacity:0.004" fill="#4a4a47" d="M 470.5,164.5 C 471.833,165.167 471.833,165.167 470.5,164.5 Z"/></g>
<g><path style="opacity:0.004" fill="#4b4948" d="M 634.5,164.5 C 635.833,165.167 635.833,165.167 634.5,164.5 Z"/></g>
<g><path style="opacity:0.004" fill="#4e4e4b" d="M 472.5,166.5 C 473.833,167.167 473.833,167.167 472.5,166.5 Z"/></g>
<g><path style="opacity:0.005" fill="#4f4f4d" d="M 319.5,167.5 C 320.239,167.369 320.906,167.536 321.5,168C 320.167,168.667 320.167,169.333 321.5,170C 319.939,170.188 319.272,169.355 319.5,167.5 Z"/></g>
<g><path style="opacity:0.016" fill="#525452" d="M 328.5,168.5 C 327.833,167.167 327.833,167.167 328.5,168.5 Z"/></g>
<g><path style="opacity:0.991" fill="#292928" d="M 651.5,171.5 C 655.725,170.731 658.391,172.398 659.5,176.5C 657.833,175.833 656.167,175.167 654.5,174.5C 653.306,173.728 652.306,172.728 651.5,171.5 Z"/></g>
<g><path style="opacity:0.004" fill="#4d4f4e" d="M 771.5,173.5 C 772.833,174.167 772.833,174.167 771.5,173.5 Z"/></g>
<g><path style="opacity:0.012" fill="#464845" d="M 654.5,174.5 C 653.833,175.167 653.833,175.167 654.5,174.5 Z"/></g>
<g><path style="opacity:0.008" fill="#494948" d="M 446.5,176.5 C 447.833,177.167 447.833,177.167 446.5,176.5 Z"/></g>
<g><path style="opacity:0.733" fill="#474644" d="M 659.5,176.5 C 661.027,176.427 662.027,177.094 662.5,178.5C 660.973,178.573 659.973,177.906 659.5,176.5 Z"/></g>
<g><path style="opacity:0.997" fill="#222221" d="M 442.5,177.5 C 439.048,180.399 435.382,183.066 431.5,185.5C 431.33,184.178 431.663,183.011 432.5,182C 435.5,180.167 438.5,178.333 441.5,176.5C 442.107,176.624 442.44,176.957 442.5,177.5 Z"/></g>
<g><path style="opacity:0.004" fill="#474742" d="M 666.5,182.5 C 665.833,183.167 665.833,183.167 666.5,182.5 Z"/></g>
<g><path style="opacity:0.993" fill="#1c1c1b" d="M 665.5,180.5 C 666.873,180.343 668.207,180.51 669.5,181C 674.319,184.488 678.819,188.321 683,192.5C 683.333,192.167 683.667,191.833 684,191.5C 684.813,193.436 685.313,195.436 685.5,197.5C 684.167,196.5 682.833,195.5 681.5,194.5C 677.102,189.771 672.102,185.771 666.5,182.5C 666.167,181.833 665.833,181.167 665.5,180.5 Z"/></g>
<g><path style="opacity:0.004" fill="#4d4e4d" d="M 304.5,185.5 C 305.833,186.167 305.833,186.167 304.5,185.5 Z"/></g>
<g><path style="opacity:0.004" fill="#484945" d="M 429.5,187.5 C 430.833,188.167 430.833,188.167 429.5,187.5 Z"/></g>
<g><path style="opacity:0.004" fill="#4a4a46" d="M 428.5,188.5 C 428.833,188.5 429.167,188.5 429.5,188.5C 429.315,189.17 428.981,189.17 428.5,188.5 Z"/></g>
<g><path style="opacity:0.99" fill="#252524" d="M 766.5,180.5 C 762.01,191.326 757.343,201.993 752.5,212.5C 752.395,208.313 753.228,204.313 755,200.5C 757.93,194.543 760.763,188.543 763.5,182.5C 764.357,181.575 765.357,180.908 766.5,180.5 Z"/></g>
<g><path style="opacity:0.004" fill="#4d4e4a" d="M 298.5,194.5 C 297.833,193.167 297.833,193.167 298.5,194.5 Z"/></g>
<g><path style="opacity:0.004" fill="#4a4945" d="M 681.5,194.5 C 680.833,195.167 680.833,195.167 681.5,194.5 Z"/></g>
<g><path style="opacity:0.004" fill="#4a4847" d="M 417.5,196.5 C 418.239,196.369 418.906,196.536 419.5,197C 418.563,197.692 417.897,197.525 417.5,196.5 Z"/></g>
<g><path style="opacity:0.004" fill="#494b48" d="M 679.5,197.5 C 680.833,198.167 680.833,198.167 679.5,197.5 Z"/></g>
<g><path style="opacity:0.004" fill="#484747" d="M 685.5,198.5 C 684.833,199.167 684.833,199.167 685.5,198.5 Z"/></g>
<g><path style="opacity:0.004" fill="#494948" d="M 413.5,200.5 C 414.833,201.167 414.833,201.167 413.5,200.5 Z"/></g>
<g><path style="opacity:0.004" fill="#4d4d4b" d="M 758.5,201.5 C 759.833,202.167 759.833,202.167 758.5,201.5 Z"/></g>
<g><path style="opacity:0.012" fill="#4c4d4a" d="M 689.5,202.5 C 688.833,203.167 688.833,203.167 689.5,202.5 Z"/></g>
<g><path style="opacity:0.004" fill="#4d4d49" d="M 687.5,205.5 C 688.833,206.167 688.833,206.167 687.5,205.5 Z"/></g>
<g><path style="opacity:0.989" fill="#262525" d="M 752.5,213.5 C 747.467,228.929 742.467,244.262 737.5,259.5C 737.739,257.533 737.406,255.699 736.5,254C 741.1,240.11 745.933,226.277 751,212.5C 751.383,213.056 751.883,213.389 752.5,213.5 Z"/></g>
<g><path style="opacity:0.004" fill="#4f4e4d" d="M 754.5,212.5 C 755.833,213.167 755.833,213.167 754.5,212.5 Z"/></g>
<g><path style="opacity:0.012" fill="#4e4b49" d="M 696.5,212.5 C 697.525,212.897 697.692,213.563 697,214.5C 696.536,213.906 696.369,213.239 696.5,212.5 Z"/></g>
<g><path style="opacity:0.008" fill="#4f4d4f" d="M 271.5,217.5 C 272.833,218.167 272.833,218.167 271.5,217.5 Z"/></g>
<g><path style="opacity:0.004" fill="#4e4d4a" d="M 273.5,220.5 C 272.833,219.167 272.833,219.167 273.5,220.5 Z"/></g>
<g><path style="opacity:0.995" fill="#212120" d="M 394.5,217.5 C 393.167,219.167 391.833,220.833 390.5,222.5C 387.167,226.167 383.833,229.833 380.5,233.5C 380.269,230.215 381.603,227.715 384.5,226C 384.167,225.667 383.833,225.333 383.5,225C 386.02,223.237 388.353,221.237 390.5,219C 390.167,218.667 389.833,218.333 389.5,218C 390.962,216.372 392.628,216.205 394.5,217.5 Z"/></g>
<g><path style="opacity:0.993" fill="#232221" d="M 690.5,202.5 C 692.929,202.585 694.929,203.585 696.5,205.5C 708.771,220.829 718.438,237.329 725.5,255C 727.627,258.884 728.627,263.051 728.5,267.5C 725.407,259.552 721.74,251.885 717.5,244.5C 716.207,239.247 713.874,234.581 710.5,230.5C 709.331,227.489 707.664,224.822 705.5,222.5C 701.294,215.286 696.294,208.62 690.5,202.5 Z"/></g>
<g><path style="opacity:0.004" fill="#515252" d="M 390.5,222.5 C 391.833,223.167 391.833,223.167 390.5,222.5 Z"/></g>
<g><path style="opacity:0.004" fill="#4a4847" d="M 705.5,222.5 C 704.833,223.167 704.833,223.167 705.5,222.5 Z"/></g>
<g><path style="opacity:0.004" fill="#4d4f4c" d="M 750.5,222.5 C 751.833,223.167 751.833,223.167 750.5,222.5 Z"/></g>
<g><path style="opacity:0.004" fill="#52514b" d="M 263.5,225.5 C 264.833,226.167 264.833,226.167 263.5,225.5 Z"/></g>
<g><path style="opacity:0.004" fill="#4e504e" d="M 706.5,229.5 C 707.833,230.167 707.833,230.167 706.5,229.5 Z"/></g>
<g><path style="opacity:0.004" fill="#4c4e4b" d="M 710.5,230.5 C 709.833,231.167 709.833,231.167 710.5,230.5 Z"/></g>
<g><path style="opacity:0.991" fill="#1d1d1c" d="M 277.5,217.5 C 274.946,223.436 271.279,228.603 266.5,233C 266.833,233.333 267.167,233.667 267.5,234C 264.148,237.546 260.481,240.713 256.5,243.5C 261.923,235.655 267.589,227.989 273.5,220.5C 274.833,219.5 276.167,218.5 277.5,217.5 Z"/></g>
<g><path style="opacity:0.004" fill="#4c4a45" d="M 380.5,234.5 C 381.833,235.167 381.833,235.167 380.5,234.5 Z"/></g>
<g><path style="opacity:0.004" fill="#4e4d48" d="M 379.5,236.5 C 380.833,237.167 380.833,237.167 379.5,236.5 Z"/></g>
<g><path style="opacity:0.012" fill="#4c4d48" d="M 712.5,236.5 C 713.833,237.167 713.833,237.167 712.5,236.5 Z"/></g>
<g><path style="opacity:0.004" fill="#4a4949" d="M 255.5,239.5 C 256.833,240.167 256.833,240.167 255.5,239.5 Z"/></g>
<g><path style="opacity:0.008" fill="#50514d" d="M 713.5,242.5 C 714.833,243.167 714.833,243.167 713.5,242.5 Z"/></g>
<g><path style="opacity:0.004" fill="#504e4d" d="M 717.5,244.5 C 716.833,245.167 716.833,245.167 717.5,244.5 Z"/></g>
<g><path style="opacity:0.008" fill="#4a4949" d="M 251.5,248.5 C 250.833,247.167 250.833,247.167 251.5,248.5 Z"/></g>
<g><path style="opacity:0.522" fill="#545452" d="M 251.5,248.5 C 251.833,248.5 252.167,248.5 252.5,248.5C 252.573,250.027 251.906,251.027 250.5,251.5C 250.557,250.391 250.89,249.391 251.5,248.5 Z"/></g>
<g><path style="opacity:0.004" fill="#4d4e4a" d="M 240.5,264.5 C 239.833,263.167 239.833,263.167 240.5,264.5 Z"/></g>
<g><path style="opacity:0.988" fill="#212120" d="M 242.5,263.5 C 241.909,269.75 238.909,274.417 233.5,277.5C 235.579,273.007 237.912,268.674 240.5,264.5C 241.167,264.167 241.833,263.833 242.5,263.5 Z"/></g>
<g><path style="opacity:0.004" fill="#4e4c4c" d="M 231.5,272.5 C 232.833,273.167 232.833,273.167 231.5,272.5 Z"/></g>
<g><path style="opacity:0.008" fill="#5e5e5b" d="M 729.5,274.5 C 728.833,275.167 728.833,275.167 729.5,274.5 Z"/></g>
<g><path style="opacity:0.004" fill="#4d4b49" d="M 231.5,275.5 C 232.833,276.167 232.833,276.167 231.5,275.5 Z"/></g>
<g><path style="opacity:0.004" fill="#5c5c5b" d="M 734.5,275.5 C 735.833,276.167 735.833,276.167 734.5,275.5 Z"/></g>
<g><path style="opacity:0.055" fill="#555553" d="M 730.5,274.5 C 731.5,274.5 732.5,274.5 733.5,274.5C 732.219,280.576 731.219,280.576 730.5,274.5 Z"/></g>
<g><path style="opacity:0.004" fill="#4f4e4c" d="M 223.5,286.5 C 224.833,287.167 224.833,287.167 223.5,286.5 Z"/></g>
<g><path style="opacity:0.989" fill="#212020" d="M 233.5,277.5 C 233.005,279.482 232.505,281.482 232,283.5C 222.715,299.143 214.715,315.476 208,332.5C 207.23,331.402 206.397,331.402 205.5,332.5C 213.018,313.129 222.351,294.796 233.5,277.5 Z"/></g>
<g><path style="opacity:0.994" fill="#252423" d="M 359.5,263.5 C 352.559,276.383 345.892,289.383 339.5,302.5C 339.338,300.473 339.505,298.473 340,296.5C 344.573,287.032 349.573,277.365 355,267.5C 356.468,266.011 357.968,264.677 359.5,263.5 Z"/></g>
<g><path style="opacity:0.004" fill="#4f504d" d="M 215.5,296.5 C 216.833,297.167 216.833,297.167 215.5,296.5 Z"/></g>
<g><path style="opacity:0.004" fill="#4e4d49" d="M 341.5,306.5 C 342.833,307.167 342.833,307.167 341.5,306.5 Z"/></g>
<g><path style="opacity:0.989" fill="#252524" d="M 339.5,302.5 C 333.211,318.705 327.544,335.038 322.5,351.5C 322.739,349.533 322.406,347.699 321.5,346C 325.806,331.916 330.806,318.083 336.5,304.5C 337.357,303.575 338.357,302.908 339.5,302.5 Z"/></g>
<g><path style="opacity:0.008" fill="#4c4d48" d="M 207.5,321.5 C 208.833,322.167 208.833,322.167 207.5,321.5 Z"/></g>
<g><path style="opacity:0.004" fill="#50504e" d="M 204.5,328.5 C 205.833,329.167 205.833,329.167 204.5,328.5 Z"/></g>
<g><path style="opacity:0.993" fill="#202020" d="M 187.5,387.5 C 187.5,386.5 187.5,385.5 187.5,384.5C 189.307,379.632 190.973,374.632 192.5,369.5C 193.404,368.791 193.737,367.791 193.5,366.5C 196.578,355.47 200.244,345.136 204.5,335.5C 205.65,334.15 206.317,334.316 206.5,336C 200.869,350.227 196.036,364.727 192,379.5C 191.667,379.167 191.333,378.833 191,378.5C 190.495,381.865 189.328,384.865 187.5,387.5 Z"/></g>
<g><path style="opacity:0.004" fill="#4e504d" d="M 199.5,335.5 C 200.833,336.167 200.833,336.167 199.5,335.5 Z"/></g>
<g><path style="opacity:0.004" fill="#4f524d" d="M 195.5,352.5 C 196.833,353.167 196.833,353.167 195.5,352.5 Z"/></g>
<g><path style="opacity:0.004" fill="#4c4c4b" d="M 323.5,353.5 C 324.833,354.167 324.833,354.167 323.5,353.5 Z"/></g>
<g><path style="opacity:0.004" fill="#4f514d" d="M 192.5,360.5 C 193.833,361.167 193.833,361.167 192.5,360.5 Z"/></g>
<g><path style="opacity:0.169" fill="#656463" d="M 193.5,366.5 C 193.737,367.791 193.404,368.791 192.5,369.5C 191.185,368.105 191.519,367.105 193.5,366.5 Z"/></g>
<g><path style="opacity:0.004" fill="#4c4c49" d="M 187.5,384.5 C 186.833,383.167 186.833,383.167 187.5,384.5 Z"/></g>
<g><path style="opacity:0.008" fill="#4b4c4a" d="M 315.5,390.5 C 316.833,391.167 316.833,391.167 315.5,390.5 Z"/></g>
<g><path style="opacity:0.008" fill="#4e4b4b" d="M 184.5,391.5 C 185.833,392.167 185.833,392.167 184.5,391.5 Z"/></g>
<g><path style="opacity:1" fill="#424240" d="M 187.5,389.5 C 187.829,392.228 187.163,394.562 185.5,396.5C 185.721,393.933 186.388,391.599 187.5,389.5 Z"/></g>
<g><path style="opacity:0.004" fill="#4d4a4a" d="M 183.5,394.5 C 184.525,394.897 184.692,395.563 184,396.5C 183.536,395.906 183.369,395.239 183.5,394.5 Z"/></g>
<g><path style="opacity:0.004" fill="#4e4f4a" d="M 179.5,405.5 C 180.833,406.167 180.833,406.167 179.5,405.5 Z"/></g>
<g><path style="opacity:0.008" fill="#4d4d4b" d="M 310.5,423.5 C 311.598,424.601 311.765,425.934 311,427.5C 310.51,426.207 310.343,424.873 310.5,423.5 Z"/></g>
<g><path style="opacity:0.004" fill="#4e504e" d="M 176.5,431.5 C 177.833,432.167 177.833,432.167 176.5,431.5 Z"/></g>
<g><path style="opacity:0.004" fill="#4c4f4b" d="M 176.5,434.5 C 177.833,435.167 177.833,435.167 176.5,434.5 Z"/></g>
<g><path style="opacity:0.004" fill="#4c4b47" d="M 309.5,435.5 C 310.833,436.167 310.833,436.167 309.5,435.5 Z"/></g>
<g><path style="opacity:0.004" fill="#4d4e4e" d="M 563.5,437.5 C 564.833,438.167 564.833,438.167 563.5,437.5 Z"/></g>
<g><path style="opacity:0.004" fill="#4c4e4c" d="M 579.5,437.5 C 580.833,438.167 580.833,438.167 579.5,437.5 Z"/></g>
<g><path style="opacity:0.004" fill="#4b4b49" d="M 595.5,437.5 C 596.833,438.167 596.833,438.167 595.5,437.5 Z"/></g>
<g><path style="opacity:0.004" fill="#4b4b4a" d="M 627.5,437.5 C 628.833,438.167 628.833,438.167 627.5,437.5 Z"/></g>
<g><path style="opacity:0.008" fill="#4b4b49" d="M 635.5,437.5 C 636.833,438.167 636.833,438.167 635.5,437.5 Z"/></g>
<g><path style="opacity:0.008" fill="#4b4d4a" d="M 731.5,437.5 C 732.833,438.167 732.833,438.167 731.5,437.5 Z"/></g>
<g><path style="opacity:0.004" fill="#4b4d4a" d="M 771.5,437.5 C 772.833,438.167 772.833,438.167 771.5,437.5 Z"/></g>
<g><path style="opacity:0.008" fill="#4b4d4a" d="M 309.5,438.5 C 310.833,439.167 310.833,439.167 309.5,438.5 Z"/></g>
<g><path style="opacity:0.004" fill="#4d4f4e" d="M 175.5,440.5 C 176.833,441.167 176.833,441.167 175.5,440.5 Z"/></g>
<g><path style="opacity:0.978" fill="#2e2d2c" d="M 817.5,440.5 C 817.5,440.833 817.5,441.167 817.5,441.5C 726.5,441.5 635.5,441.5 544.5,441.5C 544.167,444.167 543.833,446.833 543.5,449.5C 542.449,446.656 542.449,443.656 543.5,440.5C 635.591,439.879 726.924,439.879 817.5,440.5 Z"/></g>
<g><path style="opacity:0.02" fill="#605f5f" d="M 822.5,440.5 C 823.833,441.167 823.833,441.167 822.5,440.5 Z"/></g>
<g><path style="opacity:0.361" fill="#6b6b68" d="M 817.5,441.5 C 817.5,441.167 817.5,440.833 817.5,440.5C 818.873,440.343 820.207,440.51 821.5,441C 821.381,442.145 821.048,443.312 820.5,444.5C 820.167,444.5 819.833,444.5 819.5,444.5C 819.715,442.821 819.048,441.821 817.5,441.5 Z"/></g>
<g><path style="opacity:0.016" fill="#5c605b" d="M 820.5,444.5 C 821.833,445.167 821.833,445.167 820.5,444.5 Z"/></g>
<g><path style="opacity:0.004" fill="#5a5a59" d="M 812.5,451.5 C 813.833,452.167 813.833,452.167 812.5,451.5 Z"/></g>
<g><path style="opacity:0.008" fill="#585754" d="M 545.5,454.5 C 545.897,453.475 546.563,453.308 547.5,454C 546.906,454.464 546.239,454.631 545.5,454.5 Z"/></g>
<g><path style="opacity:0.004" fill="#4e4b49" d="M 308.5,454.5 C 309.833,455.167 309.833,455.167 308.5,454.5 Z"/></g>
<g><path style="opacity:0.004" fill="#575a54" d="M 559.5,456.5 C 560.833,457.167 560.833,457.167 559.5,456.5 Z"/></g>
<g><path style="opacity:0.004" fill="#565654" d="M 575.5,461.5 C 576.833,462.167 576.833,462.167 575.5,461.5 Z"/></g>
<g><path style="opacity:0.997" fill="#212020" d="M 805.5,455.5 C 801.49,460.207 797.49,464.874 793.5,469.5C 794.985,462.681 798.985,458.015 805.5,455.5 Z"/></g>
<g><path style="opacity:0.008" fill="#514e4d" d="M 593.5,468.5 C 594.833,469.167 594.833,469.167 593.5,468.5 Z"/></g>
<g><path style="opacity:0.008" fill="#51514d" d="M 597.5,470.5 C 598.833,471.167 598.833,471.167 597.5,470.5 Z"/></g>
<g><path style="opacity:0.99" fill="#242424" d="M 793.5,469.5 C 791.084,474.667 788.418,479.667 785.5,484.5C 785.29,479.584 786.79,475.251 790,471.5C 790.816,470.177 791.983,469.511 793.5,469.5 Z"/></g>
<g><path style="opacity:0.004" fill="#50504b" d="M 609.5,476.5 C 608.833,477.167 608.833,477.167 609.5,476.5 Z"/></g>
<g><path style="opacity:0.004" fill="#4e4f4b" d="M 612.5,478.5 C 611.833,479.167 611.833,479.167 612.5,478.5 Z"/></g>
<g><path style="opacity:0.004" fill="#4f504e" d="M 616.5,483.5 C 617.833,484.167 617.833,484.167 616.5,483.5 Z"/></g>
<g><path style="opacity:0.004" fill="#4f514e" d="M 616.5,484.5 C 615.833,485.167 615.833,485.167 616.5,484.5 Z"/></g>
<g><path style="opacity:0.994" fill="#262625" d="M 625.5,487.5 C 630.109,488.926 634.109,491.426 637.5,495C 636.663,496.011 636.33,497.178 636.5,498.5C 634.126,495.126 631.126,492.459 627.5,490.5C 626.833,489.5 626.167,488.5 625.5,487.5 Z"/></g>
<g><path style="opacity:0.004" fill="#4c4a48" d="M 627.5,490.5 C 626.833,491.167 626.833,491.167 627.5,490.5 Z"/></g>
<g><path style="opacity:0.006" fill="#4f4e4c" d="M 631.5,499.5 C 631.897,498.475 632.563,498.308 633.5,499C 632.906,499.464 632.239,499.631 631.5,499.5 Z"/></g>
<g><path style="opacity:0.004" fill="#4e4f4b" d="M 640.5,504.5 C 639.833,505.167 639.833,505.167 640.5,504.5 Z"/></g>
<g><path style="opacity:0.99" fill="#282827" d="M 655.5,529.5 C 654.5,528.5 653.5,527.5 652.5,526.5C 653.108,524.316 652.441,522.316 650.5,520.5C 649.5,517.833 648.5,515.167 647.5,512.5C 647.369,511.761 647.536,511.094 648,510.5C 652.744,515.981 655.244,522.315 655.5,529.5 Z"/></g>
<g><path style="opacity:0.012" fill="#4c4c48" d="M 649.5,520.5 C 648.833,519.167 648.833,519.167 649.5,520.5 Z"/></g>
<g><path style="opacity:0.004" fill="#494a49" d="M 649.5,520.5 C 649.833,520.5 650.167,520.5 650.5,520.5C 650.315,521.17 649.981,521.17 649.5,520.5 Z"/></g>
<g><path style="opacity:0.004" fill="#4c4a4a" d="M 310.5,521.5 C 311.833,522.167 311.833,522.167 310.5,521.5 Z"/></g>
<g><path style="opacity:0.004" fill="#4c4d4a" d="M 647.5,521.5 C 648.833,522.167 648.833,522.167 647.5,521.5 Z"/></g>
<g><path style="opacity:0.004" fill="#4b4b46" d="M 649.5,522.5 C 650.833,523.167 650.833,523.167 649.5,522.5 Z"/></g>
<g><path style="opacity:0.004" fill="#4a4947" d="M 310.5,524.5 C 311.573,525.251 311.74,526.251 311,527.5C 310.517,526.552 310.351,525.552 310.5,524.5 Z"/></g>
<g><path style="opacity:0.004" fill="#4b4b47" d="M 652.5,526.5 C 651.833,525.167 651.833,525.167 652.5,526.5 Z"/></g>
<g><path style="opacity:0.004" fill="#4b4b47" d="M 655.5,535.5 C 656.833,536.167 656.833,536.167 655.5,535.5 Z"/></g>
<g><path style="opacity:0.012" fill="#4c4d4c" d="M 774.5,537.5 C 775.833,538.167 775.833,538.167 774.5,537.5 Z"/></g>
<g><path style="opacity:0.004" fill="#4a4b46" d="M 655.5,538.5 C 656.833,539.167 656.833,539.167 655.5,538.5 Z"/></g>
<g><path style="opacity:0.016" fill="#4e4c4b" d="M 774.5,539.5 C 775.833,540.167 775.833,540.167 774.5,539.5 Z"/></g>
<g><path style="opacity:0.208" fill="#5d5c5a" d="M 176.5,533.5 C 177.483,537.298 177.817,541.298 177.5,545.5C 176.778,545.918 176.278,546.584 176,547.5C 175.833,546.833 175.667,546.167 175.5,545.5C 176.347,541.368 176.681,537.368 176.5,533.5 Z"/></g>
<g><path style="opacity:0.004" fill="#4b4c48" d="M 656.5,540.5 C 657.833,541.167 657.833,541.167 656.5,540.5 Z"/></g>
<g><path style="opacity:0.004" fill="#50504d" d="M 774.5,542.5 C 775.833,543.167 775.833,543.167 774.5,542.5 Z"/></g>
<g><path style="opacity:0.006" fill="#4c4c4a" d="M 175.5,548.5 C 176.598,549.601 176.765,550.934 176,552.5C 175.51,551.207 175.343,549.873 175.5,548.5 Z"/></g>
<g><path style="opacity:0.243" fill="#666564" d="M 177.5,546.5 C 178.806,551.616 179.473,556.949 179.5,562.5C 179.167,562.5 178.833,562.5 178.5,562.5C 178.02,557.178 177.687,551.845 177.5,546.5 Z"/></g>
<g><path style="opacity:0.004" fill="#454743" d="M 660.5,550.5 C 659.833,551.167 659.833,551.167 660.5,550.5 Z"/></g>
<g><path style="opacity:0.006" fill="#4c4c47" d="M 178.5,562.5 C 178.631,563.239 178.464,563.906 178,564.5C 177.308,563.563 177.475,562.897 178.5,562.5 Z"/></g>
<g><path style="opacity:0.004" fill="#4d4b47" d="M 315.5,564.5 C 316.833,565.167 316.833,565.167 315.5,564.5 Z"/></g>
<g><path style="opacity:0.004" fill="#4f4d4c" d="M 177.5,566.5 C 178.525,566.897 178.692,567.563 178,568.5C 177.536,567.906 177.369,567.239 177.5,566.5 Z"/></g>
<g><path style="opacity:1" fill="#3f3f3e" d="M 317.5,582.5 C 318.612,584.599 319.279,586.933 319.5,589.5C 317.837,587.562 317.171,585.228 317.5,582.5 Z"/></g>
<g><path style="opacity:0.988" fill="#434442" d="M 319.5,590.5 C 320.612,592.599 321.279,594.933 321.5,597.5C 319.837,595.562 319.171,593.228 319.5,590.5 Z"/></g>
<g><path style="opacity:0.825" fill="#2f2f2e" d="M 771.5,572.5 C 771.536,594.684 771.536,617.018 771.5,639.5C 771.167,639.5 770.833,639.5 770.5,639.5C 770.169,616.994 770.503,594.66 771.5,572.5 Z"/></g>
<g><path style="opacity:0.004" fill="#4c4d4a" d="M 183.5,608.5 C 184.833,609.167 184.833,609.167 183.5,608.5 Z"/></g>
<g><path style="opacity:0.004" fill="#4c4b48" d="M 186.5,608.5 C 187.833,609.167 187.833,609.167 186.5,608.5 Z"/></g>
<g><path style="opacity:0.004" fill="#4c4c4a" d="M 663.5,610.5 C 664.833,611.167 664.833,611.167 663.5,610.5 Z"/></g>
<g><path style="opacity:0.004" fill="#4b4a4a" d="M 663.5,618.5 C 664.525,618.897 664.692,619.563 664,620.5C 663.536,619.906 663.369,619.239 663.5,618.5 Z"/></g>
<g><path style="opacity:0.008" fill="#4c4c49" d="M 192.5,625.5 C 191.833,626.167 191.833,626.167 192.5,625.5 Z"/></g>
<g><path style="opacity:0.008" fill="#4d4d4a" d="M 192.5,629.5 C 193.573,630.251 193.74,631.251 193,632.5C 192.517,631.552 192.351,630.552 192.5,629.5 Z"/></g>
<g><path style="opacity:0.012" fill="#4b4c4a" d="M 192.5,634.5 C 192.897,633.475 193.563,633.308 194.5,634C 193.906,634.464 193.239,634.631 192.5,634.5 Z"/></g>
<g><path style="opacity:0.004" fill="#4e4c4b" d="M 196.5,637.5 C 196.631,638.239 196.464,638.906 196,639.5C 195.308,638.563 195.475,637.897 196.5,637.5 Z"/></g>
<g><path style="opacity:0.004" fill="#4e4c4a" d="M 201.5,651.5 C 201.631,652.239 201.464,652.906 201,653.5C 200.308,652.563 200.475,651.897 201.5,651.5 Z"/></g>
<g><path style="opacity:0.016" fill="#494641" d="M 342.5,655.5 C 343.833,656.167 343.833,656.167 342.5,655.5 Z"/></g>
<g><path style="opacity:0.004" fill="#4d4d4b" d="M 202.5,657.5 C 203.833,658.167 203.833,658.167 202.5,657.5 Z"/></g>
<g><path style="opacity:0.004" fill="#4d4d49" d="M 203.5,659.5 C 204.833,660.167 204.833,660.167 203.5,659.5 Z"/></g>
<g><path style="opacity:0.992" fill="#1f1e1e" d="M 324.5,609.5 C 329.715,625.48 335.715,641.146 342.5,656.5C 346.449,667.065 351.449,677.065 357.5,686.5C 359.833,691.167 362.167,695.833 364.5,700.5C 363.603,699.402 362.77,699.402 362,700.5C 346.687,675.389 334.854,648.889 326.5,621C 324.209,617.34 323.542,613.507 324.5,609.5 Z"/></g>
<g><path style="opacity:0.004" fill="#4a4947" d="M 663.5,665.5 C 664.833,666.167 664.833,666.167 663.5,665.5 Z"/></g>
<g><path style="opacity:0.004" fill="#4d4e4b" d="M 350.5,667.5 C 351.833,668.167 351.833,668.167 350.5,667.5 Z"/></g>
<g><path style="opacity:0.012" fill="#4c4b47" d="M 207.5,668.5 C 208.833,669.167 208.833,669.167 207.5,668.5 Z"/></g>
<g><path style="opacity:0.004" fill="#4b4b46" d="M 350.5,670.5 C 349.833,669.167 349.833,669.167 350.5,670.5 Z"/></g>
<g><path style="opacity:0.012" fill="#484645" d="M 350.5,670.5 C 351.525,670.897 351.692,671.563 351,672.5C 350.536,671.906 350.369,671.239 350.5,670.5 Z"/></g>
<g><path style="opacity:0.004" fill="#4a4b4a" d="M 209.5,672.5 C 210.833,673.167 210.833,673.167 209.5,672.5 Z"/></g>
<g><path style="opacity:0.004" fill="#4b4c4a" d="M 211.5,674.5 C 210.833,675.167 210.833,675.167 211.5,674.5 Z"/></g>
<g><path style="opacity:0.914" fill="#1d1e1c" d="M 770.5,639.5 C 770.833,639.5 771.167,639.5 771.5,639.5C 771.651,658.315 771.651,676.982 771.5,695.5C 770.503,677.007 770.17,658.341 770.5,639.5 Z"/></g>
<g><path style="opacity:0.993" fill="#222121" d="M 255.5,742.5 C 254.5,741.833 253.5,741.167 252.5,740.5C 252.573,738.973 251.906,737.973 250.5,737.5C 249.557,734.891 247.89,732.891 245.5,731.5C 242.655,726.473 239.321,721.806 235.5,717.5C 235.25,715.326 234.25,713.659 232.5,712.5C 230.336,707.5 227.669,702.833 224.5,698.5C 220.163,690.492 215.83,682.492 211.5,674.5C 208.929,666.438 205.596,658.771 201.5,651.5C 200.714,646.825 199.047,642.159 196.5,637.5C 195.739,633.216 194.405,629.216 192.5,625.5C 192.041,622.123 191.374,618.789 190.5,615.5C 191.222,615.082 191.722,614.416 192,613.5C 204.936,659.371 225.936,701.371 255,739.5C 255.483,740.448 255.649,741.448 255.5,742.5 Z"/></g>
<g><path style="opacity:0.004" fill="#4d4b48" d="M 357.5,682.5 C 358.833,683.167 358.833,683.167 357.5,682.5 Z"/></g>
<g><path style="opacity:0.004" fill="#484746" d="M 357.5,685.5 C 358.833,686.167 358.833,686.167 357.5,685.5 Z"/></g>
<g><path style="opacity:0.004" fill="#4d4e4b" d="M 215.5,687.5 C 216.833,688.167 216.833,688.167 215.5,687.5 Z"/></g>
<g><path style="opacity:0.008" fill="#4c4d4b" d="M 217.5,688.5 C 218.833,689.167 218.833,689.167 217.5,688.5 Z"/></g>
<g><path style="opacity:0.004" fill="#4e4f49" d="M 215.5,690.5 C 216.833,691.167 216.833,691.167 215.5,690.5 Z"/></g>
<g><path style="opacity:0.004" fill="#4d4e4c" d="M 218.5,690.5 C 219.833,691.167 219.833,691.167 218.5,690.5 Z"/></g>
<g><path style="opacity:0.004" fill="#4d4b49" d="M 224.5,698.5 C 224.631,699.239 224.464,699.906 224,700.5C 223.308,699.563 223.475,698.897 224.5,698.5 Z"/></g>
<g><path style="opacity:0.008" fill="#4c4b48" d="M 224.5,701.5 C 225.833,702.167 225.833,702.167 224.5,701.5 Z"/></g>
<g><path style="opacity:0.986" fill="#21201f" d="M 364.5,700.5 C 365.833,701.833 367.167,703.167 368.5,704.5C 369.383,707.704 371.05,710.371 373.5,712.5C 374.167,714.167 374.833,715.833 375.5,717.5C 369.089,713.695 365.423,708.028 364.5,700.5 Z"/></g>
<g><path style="opacity:0.004" fill="#494845" d="M 368.5,703.5 C 369.833,704.167 369.833,704.167 368.5,703.5 Z"/></g>
<g><path style="opacity:0.004" fill="#474542" d="M 374.5,712.5 C 373.833,711.167 373.833,711.167 374.5,712.5 Z"/></g>
<g><path style="opacity:0.012" fill="#4b4d4a" d="M 232.5,712.5 C 231.833,713.167 231.833,713.167 232.5,712.5 Z"/></g>
<g><path style="opacity:0.012" fill="#484843" d="M 374.5,712.5 C 375.833,713.167 375.833,713.167 374.5,712.5 Z"/></g>
<g><path style="opacity:0.008" fill="#4d4b4b" d="M 231.5,715.5 C 231.897,714.475 232.563,714.308 233.5,715C 232.906,715.464 232.239,715.631 231.5,715.5 Z"/></g>
<g><path style="opacity:0.004" fill="#474a48" d="M 663.5,715.5 C 664.833,716.167 664.833,716.167 663.5,715.5 Z"/></g>
<g><path style="opacity:0.004" fill="#4e4d4b" d="M 235.5,717.5 C 235.217,718.289 234.717,718.956 234,719.5C 233.472,718.184 233.972,717.517 235.5,717.5 Z"/></g>
<g><path style="opacity:0.004" fill="#4a4d49" d="M 663.5,727.5 C 664.833,728.167 664.833,728.167 663.5,727.5 Z"/></g>
<g><path style="opacity:0.004" fill="#4d4e4c" d="M 244.5,731.5 C 243.833,730.167 243.833,730.167 244.5,731.5 Z"/></g>
<g><path style="opacity:0.004" fill="#4f4e4a" d="M 244.5,731.5 C 244.833,731.5 245.167,731.5 245.5,731.5C 245.315,732.17 244.981,732.17 244.5,731.5 Z"/></g>
<g><path style="opacity:0.004" fill="#464643" d="M 250.5,737.5 C 249.833,738.167 249.833,738.167 250.5,737.5 Z"/></g>
<g><path style="opacity:0.008" fill="#4d4e4c" d="M 773.5,737.5 C 774.833,738.167 774.833,738.167 773.5,737.5 Z"/></g>
<g><path style="opacity:0.008" fill="#4a4847" d="M 252.5,740.5 C 252.217,741.289 251.717,741.956 251,742.5C 250.472,741.184 250.972,740.517 252.5,740.5 Z"/></g>
<g><path style="opacity:0.004" fill="#494947" d="M 663.5,740.5 C 664.833,741.167 664.833,741.167 663.5,740.5 Z"/></g>
<g><path style="opacity:0.008" fill="#484944" d="M 397.5,743.5 C 398.833,744.167 398.833,744.167 397.5,743.5 Z"/></g>
<g><path style="opacity:0.008" fill="#4c4f4b" d="M 773.5,743.5 C 774.833,744.167 774.833,744.167 773.5,743.5 Z"/></g>
<g><path style="opacity:0.004" fill="#4e4c4b" d="M 773.5,746.5 C 774.833,747.167 774.833,747.167 773.5,746.5 Z"/></g>
<g><path style="opacity:0.004" fill="#4d4b4a" d="M 257.5,746.5 C 257.631,747.239 257.464,747.906 257,748.5C 256.308,747.563 256.475,746.897 257.5,746.5 Z"/></g>
<g><path style="opacity:0.976" fill="#444442" d="M 398.5,746.5 C 400.914,747.911 402.581,749.911 403.5,752.5C 401.086,751.089 399.419,749.089 398.5,746.5 Z"/></g>
<g><path style="opacity:0.004" fill="#4a4a46" d="M 259.5,749.5 C 258.833,750.167 258.833,750.167 259.5,749.5 Z"/></g>
<g><path style="opacity:0.008" fill="#4d4c4b" d="M 773.5,754.5 C 774.833,755.167 774.833,755.167 773.5,754.5 Z"/></g>
<g><path style="opacity:0.004" fill="#4d4c47" d="M 266.5,757.5 C 265.833,758.167 265.833,758.167 266.5,757.5 Z"/></g>
<g><path style="opacity:0.991" fill="#232322" d="M 280.5,771.5 C 278.167,769.5 275.833,767.5 273.5,765.5C 272.079,762.991 270.412,760.657 268.5,758.5C 268.369,757.761 268.536,757.094 269,756.5C 272.333,759.833 275.667,763.167 279,766.5C 279.608,768.154 280.108,769.821 280.5,771.5 Z"/></g>
<g><path style="opacity:0.992" fill="#242322" d="M 408.5,757.5 C 412.559,761.565 416.893,765.232 421.5,768.5C 422.5,769.833 423.5,771.167 424.5,772.5C 423.167,772.5 421.833,772.5 420.5,772.5C 420.5,771.5 420.5,770.5 420.5,769.5C 419.448,769.649 418.448,769.483 417.5,769C 413.459,765.815 410.459,761.981 408.5,757.5 Z"/></g>
<g><path style="opacity:0.008" fill="#4b4946" d="M 273.5,765.5 C 272.833,766.167 272.833,766.167 273.5,765.5 Z"/></g>
<g><path style="opacity:0.008" fill="#4a4a48" d="M 272.5,766.5 C 271.833,767.167 271.833,767.167 272.5,766.5 Z"/></g>
<g><path style="opacity:0.004" fill="#494946" d="M 421.5,767.5 C 422.833,768.167 422.833,768.167 421.5,767.5 Z"/></g>
<g><path style="opacity:0.969" fill="#434242" d="M 771.5,725.5 C 772.174,739.902 772.841,754.402 773.5,769C 772.944,769.383 772.611,769.883 772.5,770.5C 771.504,755.676 771.171,740.676 771.5,725.5 Z"/></g>
<g><path style="opacity:0.008" fill="#4b4a48" d="M 280.5,772.5 C 279.833,773.167 279.833,773.167 280.5,772.5 Z"/></g>
<g><path style="opacity:0.004" fill="#4d4b48" d="M 655.5,778.5 C 656.833,779.167 656.833,779.167 655.5,778.5 Z"/></g>
<g><path style="opacity:0.004" fill="#484b48" d="M 774.5,778.5 C 775.833,779.167 775.833,779.167 774.5,778.5 Z"/></g>
<g><path style="opacity:0.008" fill="#494945" d="M 289.5,781.5 C 288.833,782.167 288.833,782.167 289.5,781.5 Z"/></g>
<g><path style="opacity:0.008" fill="#4a4946" d="M 288.5,782.5 C 287.833,783.167 287.833,783.167 288.5,782.5 Z"/></g>
<g><path style="opacity:0.004" fill="#5f5f5e" d="M 436.5,782.5 C 438.027,782.427 439.027,783.094 439.5,784.5C 437.973,784.573 436.973,783.906 436.5,782.5 Z"/></g>
<g><path style="opacity:0.004" fill="#484946" d="M 655.5,784.5 C 656.833,785.167 656.833,785.167 655.5,784.5 Z"/></g>
<g><path style="opacity:0.997" fill="#2c2c2a" d="M 445.5,789.5 C 441.385,789.694 439.385,788.027 439.5,784.5C 440.117,784.389 440.617,784.056 441,783.5C 442.752,785.351 444.252,787.351 445.5,789.5 Z"/></g>
<g><path style="opacity:0.004" fill="#494745" d="M 297.5,788.5 C 296.833,789.167 296.833,789.167 297.5,788.5 Z"/></g>
<g><path style="opacity:0.8" fill="#474848" d="M 657.5,788.5 C 657.573,790.027 656.906,791.027 655.5,791.5C 655.427,789.973 656.094,788.973 657.5,788.5 Z"/></g>
<g><path style="opacity:0.004" fill="#4a4945" d="M 454.5,792.5 C 455.833,793.167 455.833,793.167 454.5,792.5 Z"/></g>
<g><path style="opacity:0.706" fill="#4f504d" d="M 655.5,791.5 C 655.573,793.027 654.906,794.027 653.5,794.5C 653.427,792.973 654.094,791.973 655.5,791.5 Z"/></g>
<g><path style="opacity:0.004" fill="#4a4a47" d="M 304.5,794.5 C 303.833,795.167 303.833,795.167 304.5,794.5 Z"/></g>
<g><path style="opacity:0.963" fill="#292927" d="M 451.5,793.5 C 455.647,796.075 459.98,798.409 464.5,800.5C 464.5,800.833 464.5,801.167 464.5,801.5C 458.726,801.116 454.393,798.449 451.5,793.5 Z"/></g>
<g><path style="opacity:0.008" fill="#4b4a47" d="M 303.5,798.5 C 304.833,799.167 304.833,799.167 303.5,798.5 Z"/></g>
<g><path style="opacity:0.004" fill="#4c4a49" d="M 464.5,800.5 C 464.897,799.475 465.563,799.308 466.5,800C 465.906,800.464 465.239,800.631 464.5,800.5 Z"/></g>
<g><path style="opacity:0.004" fill="#4d4c48" d="M 469.5,799.5 C 470.833,800.167 470.833,800.167 469.5,799.5 Z"/></g>
<g><path style="opacity:0.004" fill="#4a4b46" d="M 467.5,800.5 C 468.833,801.167 468.833,801.167 467.5,800.5 Z"/></g>
<g><path style="opacity:0.004" fill="#4d4c48" d="M 639.5,800.5 C 640.833,801.167 640.833,801.167 639.5,800.5 Z"/></g>
<g><path style="opacity:0.004" fill="#4d4c4a" d="M 469.5,801.5 C 470.833,802.167 470.833,802.167 469.5,801.5 Z"/></g>
<g><path style="opacity:0.004" fill="#4d4d49" d="M 639.5,802.5 C 640.833,803.167 640.833,803.167 639.5,802.5 Z"/></g>
<g><path style="opacity:0.992" fill="#222120" d="M 653.5,794.5 C 653.108,796.179 652.608,797.846 652,799.5C 646.673,805.032 640.839,809.866 634.5,814C 632.866,814.494 631.199,814.66 629.5,814.5C 634.519,811.657 639.186,808.324 643.5,804.5C 647.194,801.473 650.527,798.14 653.5,794.5 Z"/></g>
<g><path style="opacity:0.008" fill="#4c4b47" d="M 643.5,804.5 C 642.833,803.167 642.833,803.167 643.5,804.5 Z"/></g>
<g><path style="opacity:0.004" fill="#4c4d49" d="M 311.5,806.5 C 312.833,807.167 312.833,807.167 311.5,806.5 Z"/></g>
<g><path style="opacity:0.983" fill="#1b1b1a" d="M 297.5,788.5 C 297.5,788.167 297.5,787.833 297.5,787.5C 298.873,787.343 300.207,787.51 301.5,788C 311.393,796.527 321.559,804.693 332,812.5C 332.333,811.833 332.667,811.167 333,810.5C 334.122,812.42 334.956,814.42 335.5,816.5C 324.669,809.913 314.335,802.58 304.5,794.5C 302.393,792.273 300.06,790.273 297.5,788.5 Z"/></g>
<g><path style="opacity:0.008" fill="#4d4c49" d="M 481.5,808.5 C 480.833,807.167 480.833,807.167 481.5,808.5 Z"/></g>
<g><path style="opacity:0.008" fill="#4a4c48" d="M 631.5,807.5 C 632.833,808.167 632.833,808.167 631.5,807.5 Z"/></g>
<g><path style="opacity:0.008" fill="#494c47" d="M 481.5,808.5 C 482.833,809.167 482.833,809.167 481.5,808.5 Z"/></g>
<g><path style="opacity:0.004" fill="#4c4b4a" d="M 633.5,808.5 C 634.833,809.167 634.833,809.167 633.5,808.5 Z"/></g>
<g><path style="opacity:0.992" fill="#282827" d="M 466.5,802.5 C 471.349,805.09 476.349,807.424 481.5,809.5C 486.756,812.622 492.423,814.955 498.5,816.5C 514.971,822.868 531.971,826.868 549.5,828.5C 542.698,828.334 536.198,828.668 530,829.5C 529.612,828.572 528.945,827.905 528,827.5C 525.795,827.088 523.462,827.088 521,827.5C 520.147,825.875 519.147,825.542 518,826.5C 515.903,825.009 513.57,824.009 511,823.5C 510.667,823.833 510.333,824.167 510,824.5C 508.432,822.763 506.432,821.763 504,821.5C 493.72,818.471 483.554,814.304 473.5,809C 470.642,807.306 468.309,805.139 466.5,802.5 Z"/></g>
<g><path style="opacity:0.012" fill="#4a4849" d="M 498.5,816.5 C 498.897,815.475 499.563,815.308 500.5,816C 499.906,816.464 499.239,816.631 498.5,816.5 Z"/></g>
<g><path style="opacity:0.008" fill="#4a4a44" d="M 502.5,816.5 C 501.833,815.167 501.833,815.167 502.5,816.5 Z"/></g>
<g><path style="opacity:0.006" fill="#4e4b49" d="M 502.5,816.5 C 503.239,816.369 503.906,816.536 504.5,817C 503.563,817.692 502.897,817.525 502.5,816.5 Z"/></g>
<g><path style="opacity:0.004" fill="#4c4d49" d="M 505.5,817.5 C 506.833,818.167 506.833,818.167 505.5,817.5 Z"/></g>
<g><path style="opacity:0.016" fill="#4a4946" d="M 336.5,818.5 C 336.5,818.833 336.5,819.167 336.5,819.5C 335.83,819.019 335.83,818.685 336.5,818.5 Z"/></g>
<g><path style="opacity:0.008" fill="#4b4946" d="M 336.5,819.5 C 337.525,819.897 337.692,820.563 337,821.5C 336.536,820.906 336.369,820.239 336.5,819.5 Z"/></g>
<g><path style="opacity:0.008" fill="#4a4a46" d="M 609.5,821.5 C 608.833,820.167 608.833,820.167 609.5,821.5 Z"/></g>
<g><path style="opacity:0.004" fill="#4c4946" d="M 338.5,821.5 C 339.525,821.897 339.692,822.563 339,823.5C 338.536,822.906 338.369,822.239 338.5,821.5 Z"/></g>
<g><path style="opacity:0.004" fill="#4a4a47" d="M 342.5,822.5 C 341.833,823.167 341.833,823.167 342.5,822.5 Z"/></g>
<g><path style="opacity:0.004" fill="#4a4845" d="M 528.5,823.5 C 529.833,824.167 529.833,824.167 528.5,823.5 Z"/></g>
<g><path style="opacity:0.004" fill="#494a48" d="M 535.5,824.5 C 534.833,823.167 534.833,823.167 535.5,824.5 Z"/></g>
<g><path style="opacity:0.004" fill="#4e504b" d="M 543.5,823.5 C 544.833,824.167 544.833,824.167 543.5,823.5 Z"/></g>
<g><path style="opacity:0.004" fill="#4f4f4d" d="M 593.5,823.5 C 594.833,824.167 594.833,824.167 593.5,823.5 Z"/></g>
<g><path style="opacity:0.98" fill="#42423f" d="M 609.5,822.5 C 606.237,824.568 602.57,825.568 598.5,825.5C 601.937,824.055 605.603,823.055 609.5,822.5 Z"/></g>
<g><path style="opacity:0.004" fill="#4d4c47" d="M 535.5,824.5 C 536.833,825.167 536.833,825.167 535.5,824.5 Z"/></g>
<g><path style="opacity:0.008" fill="#4a4946" d="M 593.5,824.5 C 593.5,824.833 593.5,825.167 593.5,825.5C 592.83,825.019 592.83,824.685 593.5,824.5 Z"/></g>
<g><path style="opacity:0.008" fill="#4a4a46" d="M 541.5,825.5 C 542.833,826.167 542.833,826.167 541.5,825.5 Z"/></g>
<g><path style="opacity:0.643" fill="#4b4c48" d="M 349.5,825.5 C 351.027,825.427 352.027,826.094 352.5,827.5C 350.973,827.573 349.973,826.906 349.5,825.5 Z"/></g>
<g><path style="opacity:0.004" fill="#4d4c49" d="M 560.5,826.5 C 561.833,827.167 561.833,827.167 560.5,826.5 Z"/></g>
<g><path style="opacity:0.004" fill="#4c4a48" d="M 575.5,826.5 C 576.833,827.167 576.833,827.167 575.5,826.5 Z"/></g>
<g><path style="opacity:0.993" fill="#262625" d="M 352.5,827.5 C 360.422,829.123 367.089,832.789 372.5,838.5C 369.833,837.5 367.167,836.5 364.5,835.5C 363.71,834.599 362.71,833.932 361.5,833.5C 360.152,832.399 358.652,831.399 357,830.5C 355.984,831.634 355.317,831.301 355,829.5C 354.617,830.056 354.117,830.389 353.5,830.5C 353.443,829.391 353.11,828.391 352.5,827.5 Z"/></g>
<g><path style="opacity:0.004" fill="#4a4c49" d="M 353.5,830.5 C 352.833,831.167 352.833,831.167 353.5,830.5 Z"/></g>
<g><path style="opacity:0.008" fill="#454441" d="M 361.5,833.5 C 360.833,834.167 360.833,834.167 361.5,833.5 Z"/></g>
<g><path style="opacity:0.004" fill="#4c4c47" d="M 364.5,835.5 C 364.5,835.833 364.5,836.167 364.5,836.5C 363.83,836.019 363.83,835.685 364.5,835.5 Z"/></g>
<g><path style="opacity:0.004" fill="#4c4d4a" d="M 364.5,836.5 C 365.833,837.167 365.833,837.167 364.5,836.5 Z"/></g>
<g><path style="opacity:0.996" fill="#21201f" d="M 372.5,838.5 C 379.342,839.42 385.676,841.753 391.5,845.5C 392.425,846.357 393.092,847.357 393.5,848.5C 386.078,845.922 379.078,842.589 372.5,838.5 Z"/></g>
<g><path style="opacity:0.08" fill="#565653" d="M 779.5,846.5 C 780.768,848.905 781.435,851.572 781.5,854.5C 779.96,852.162 779.294,849.495 779.5,846.5 Z"/></g>
<g><path style="opacity:0.004" fill="#4c4a47" d="M 398.5,851.5 C 397.833,852.167 397.833,852.167 398.5,851.5 Z"/></g>
<g><path style="opacity:0.004" fill="#4d4c48" d="M 399.5,852.5 C 400.833,853.167 400.833,853.167 399.5,852.5 Z"/></g>
<g><path style="opacity:0.004" fill="#4c4c4a" d="M 667.5,853.5 C 666.761,853.631 666.094,853.464 665.5,853C 666.437,852.308 667.103,852.475 667.5,853.5 Z"/></g>
<g><path style="opacity:0.004" fill="#4c4947" d="M 689.5,852.5 C 689.103,853.525 688.437,853.692 687.5,853C 688.094,852.536 688.761,852.369 689.5,852.5 Z"/></g>
<g><path style="opacity:0.004" fill="#4b4b49" d="M 667.5,853.5 C 668.833,854.167 668.833,854.167 667.5,853.5 Z"/></g>
<g><path style="opacity:0.004" fill="#4b4a47" d="M 691.5,853.5 C 692.833,854.167 692.833,854.167 691.5,853.5 Z"/></g>
<g><path style="opacity:0.004" fill="#4e4f4b" d="M 401.5,854.5 C 402.833,855.167 402.833,855.167 401.5,854.5 Z"/></g>
<g><path style="opacity:0.004" fill="#464744" d="M 406.5,854.5 C 405.833,855.167 405.833,855.167 406.5,854.5 Z"/></g>
<g><path style="opacity:0.004" fill="#4c4c48" d="M 685.5,854.5 C 686.833,855.167 686.833,855.167 685.5,854.5 Z"/></g>
<g><path style="opacity:0.004" fill="#4b4845" d="M 695.5,855.5 C 695.897,854.475 696.563,854.308 697.5,855C 696.906,855.464 696.239,855.631 695.5,855.5 Z"/></g>
<g><path style="opacity:0.992" fill="#1a1a19" d="M 398.5,851.5 C 398.5,851.167 398.5,850.833 398.5,850.5C 400.857,850.337 403.19,850.503 405.5,851C 413.311,854.487 421.977,857.654 431.5,860.5C 433.005,857.869 433.671,858.203 433.5,861.5C 437.476,861.993 441.31,862.993 445,864.5C 445.561,863.978 446.228,863.645 447,863.5C 455.393,867.209 464.56,869.709 474.5,871C 473.263,871.232 472.263,871.732 471.5,872.5C 470.833,872.5 470.167,872.5 469.5,872.5C 467.562,870.837 465.228,870.171 462.5,870.5C 462.167,870.5 461.833,870.5 461.5,870.5C 459.095,869.232 456.428,868.565 453.5,868.5C 453.167,868.5 452.833,868.5 452.5,868.5C 450.562,866.837 448.228,866.171 445.5,866.5C 432.257,863.273 419.257,859.273 406.5,854.5C 404.11,852.98 401.443,851.98 398.5,851.5 Z"/></g>
<g><path style="opacity:0.991" fill="#2d2d2c" d="M 645.5,857.5 C 642.164,859.731 638.497,861.397 634.5,862.5C 636.956,858.442 640.623,856.775 645.5,857.5 Z"/></g>
<g><path style="opacity:0.984" fill="#4c4b49" d="M 781.5,855.5 C 782.612,857.599 783.279,859.933 783.5,862.5C 781.837,860.562 781.171,858.228 781.5,855.5 Z"/></g>
<g><path style="opacity:0.012" fill="#4a4846" d="M 714.5,860.5 C 714.5,860.833 714.5,861.167 714.5,861.5C 713.83,861.019 713.83,860.685 714.5,860.5 Z"/></g>
<g><path style="opacity:0.004" fill="#4d4c49" d="M 711.5,861.5 C 712.833,862.167 712.833,862.167 711.5,861.5 Z"/></g>
<g><path style="opacity:0.008" fill="#4e4c48" d="M 714.5,861.5 C 715.833,862.167 715.833,862.167 714.5,861.5 Z"/></g>
<g><path style="opacity:0.994" fill="#212120" d="M 631.5,863.5 C 622.27,867.563 612.604,870.563 602.5,872.5C 602.082,871.778 601.416,871.278 600.5,871C 609.814,868.46 619.314,865.627 629,862.5C 629.902,862.743 630.735,863.077 631.5,863.5 Z"/></g>
<g><path style="opacity:0.008" fill="#4b4d4b" d="M 440.5,866.5 C 441.833,867.167 441.833,867.167 440.5,866.5 Z"/></g>
<g><path style="opacity:0.996" fill="#40403e" d="M 445.5,866.5 C 448.228,866.171 450.562,866.837 452.5,868.5C 449.933,868.279 447.599,867.612 445.5,866.5 Z"/></g>
<g><path style="opacity:0.965" fill="#41413e" d="M 783.5,863.5 C 784.612,865.599 785.279,867.933 785.5,870.5C 783.837,868.562 783.171,866.228 783.5,863.5 Z"/></g>
<g><path style="opacity:0.004" fill="#4f504b" d="M 447.5,868.5 C 448.833,869.167 448.833,869.167 447.5,868.5 Z"/></g>
<g><path style="opacity:0.91" fill="#4a4946" d="M 453.5,868.5 C 456.428,868.565 459.095,869.232 461.5,870.5C 458.505,870.706 455.838,870.04 453.5,868.5 Z"/></g>
<g><path style="opacity:0.004" fill="#4d4c4a" d="M 450.5,869.5 C 451.833,870.167 451.833,870.167 450.5,869.5 Z"/></g>
<g><path style="opacity:0.988" fill="#444342" d="M 462.5,870.5 C 465.228,870.171 467.562,870.837 469.5,872.5C 466.933,872.279 464.599,871.612 462.5,870.5 Z"/></g>
<g><path style="opacity:0.004" fill="#4a4847" d="M 728.5,869.5 C 729.289,869.783 729.956,870.283 730.5,871C 729.184,871.528 728.517,871.028 728.5,869.5 Z"/></g>
<g><path style="opacity:0.012" fill="#5d5c59" d="M 736.5,872.5 C 737.71,872.932 738.71,873.599 739.5,874.5C 738.5,874.5 737.5,874.5 736.5,874.5C 736.5,873.833 736.5,873.167 736.5,872.5 Z"/></g>
<g><path style="opacity:0.004" fill="#4b4c48" d="M 736.5,874.5 C 735.833,875.167 735.833,875.167 736.5,874.5 Z"/></g>
<g><path style="opacity:0.008" fill="#504f4b" d="M 476.5,875.5 C 477.833,876.167 477.833,876.167 476.5,875.5 Z"/></g>
<g><path style="opacity:0.004" fill="#4f4f4e" d="M 590.5,876.5 C 591.833,877.167 591.833,877.167 590.5,876.5 Z"/></g>
<g><path style="opacity:0.004" fill="#4c4c49" d="M 491.5,877.5 C 492.833,878.167 492.833,878.167 491.5,877.5 Z"/></g>
<g><path style="opacity:0.004" fill="#4f4e4b" d="M 497.5,878.5 C 498.833,879.167 498.833,879.167 497.5,878.5 Z"/></g>
<g><path style="opacity:0.006" fill="#4f4b49" d="M 499.5,879.5 C 499.897,878.475 500.563,878.308 501.5,879C 500.906,879.464 500.239,879.631 499.5,879.5 Z"/></g>
<g><path style="opacity:0.004" fill="#4b4b49" d="M 753.5,885.5 C 752.833,886.167 752.833,886.167 753.5,885.5 Z"/></g>
<g><path style="opacity:0.004" fill="#4a4a47" d="M 752.5,886.5 C 751.833,887.167 751.833,887.167 752.5,886.5 Z"/></g>
<g><path style="opacity:0.004" fill="#4e4d4b" d="M 792.5,887.5 C 793.833,888.167 793.833,888.167 792.5,887.5 Z"/></g>
<g><path style="opacity:0.004" fill="#504e4a" d="M 759.5,892.5 C 760.525,892.897 760.692,893.563 760,894.5C 759.536,893.906 759.369,893.239 759.5,892.5 Z"/></g>
<g><path style="opacity:0.008" fill="#4d4e4a" d="M 763.5,893.5 C 764.833,894.167 764.833,894.167 763.5,893.5 Z"/></g>
<g><path style="opacity:0.008" fill="#4d4e4a" d="M 766.5,894.5 C 765.833,895.167 765.833,895.167 766.5,894.5 Z"/></g>
<g><path style="opacity:0.004" fill="#4e4c4a" d="M 773.5,899.5 C 772.833,900.167 772.833,900.167 773.5,899.5 Z"/></g>
<g><path style="opacity:0.004" fill="#50514f" d="M 798.5,901.5 C 799.833,902.167 799.833,902.167 798.5,901.5 Z"/></g>
<g><path style="opacity:0.984" fill="#1d1d1c" d="M 789.5,882.5 C 790.5,884.5 791.5,886.5 792.5,888.5C 793.935,893.49 795.935,898.156 798.5,902.5C 800.833,907.833 803.167,913.167 805.5,918.5C 805.649,919.552 805.483,920.552 805,921.5C 804.184,920.177 803.017,919.511 801.5,919.5C 798.19,917.518 795.19,915.185 792.5,912.5C 793.822,912.67 794.989,912.337 796,911.5C 796.615,913.116 797.615,914.449 799,915.5C 799.167,914.667 799.333,913.833 799.5,913C 796.581,906.579 794.248,899.912 792.5,893C 789.9,890.008 788.9,886.508 789.5,882.5 Z"/></g>
<g><path style="opacity:0.008" fill="#505452" d="M 797.5,918.5 C 798.833,919.167 798.833,919.167 797.5,918.5 Z"/></g>
<g><path style="opacity:0.004" fill="#5c5b5a" d="M 805.5,918.5 C 807.28,919.99 807.946,921.99 807.5,924.5C 804.893,923.684 802.893,922.017 801.5,919.5C 803.017,919.511 804.184,920.177 805,921.5C 805.483,920.552 805.649,919.552 805.5,918.5 Z"/></g>
<g><path style="opacity:0.004" fill="#515250" d="M 307.5,933.5 C 308.833,934.167 308.833,934.167 307.5,933.5 Z"/></g>
</svg>
