<?xml version="1.0" encoding="UTF-8"?>
<!DOCTYPE svg PUBLIC "-//W3C//DTD SVG 1.1//EN" "http://www.w3.org/Graphics/SVG/1.1/DTD/svg11.dtd">
<svg xmlns="http://www.w3.org/2000/svg" version="1.1" width="1024px" height="1024px" style="shape-rendering:geometricPrecision; text-rendering:geometricPrecision; image-rendering:optimizeQuality; fill-rule:evenodd; clip-rule:evenodd" xmlns:xlink="http://www.w3.org/1999/xlink">
<g><path style="opacity:1" fill="#fefefc" d="M -0.5,-0.5 C 340.833,-0.5 682.167,-0.5 1023.5,-0.5C 1023.5,340.833 1023.5,682.167 1023.5,1023.5C 682.167,1023.5 340.833,1023.5 -0.5,1023.5C -0.5,682.167 -0.5,340.833 -0.5,-0.5 Z"/></g>
<g><path style="opacity:1" fill="#0d0f0d" d="M 502.5,117.5 C 532.256,116.677 561.589,119.843 590.5,127C 606.5,131.667 622.5,136.333 638.5,141C 687.808,148.173 734.808,140.673 779.5,118.5C 782.014,120.218 782.847,122.551 782,125.5C 763.913,150.659 747.58,176.993 733,204.5C 716.744,198.316 699.911,195.483 682.5,196C 678.264,197.715 677.43,200.548 680,204.5C 713.439,270.55 706.439,331.883 659,388.5C 610.587,439.537 551.087,462.703 480.5,458C 468.134,456.547 455.801,455.214 443.5,454C 429.422,463.741 418.588,476.241 411,491.5C 405.387,509.108 411.22,521.275 428.5,528C 433.457,529.489 438.457,530.822 443.5,532C 460.923,534.215 478.423,535.382 496,535.5C 534.52,534.063 573.02,534.23 611.5,536C 652.529,539.003 689.196,553.003 721.5,578C 761.68,619.207 770.847,666.707 749,720.5C 734.68,753.948 713.846,782.781 686.5,807C 641.069,845.381 589.069,871.048 530.5,884C 485.976,892.602 441.309,893.602 396.5,887C 373.829,882.11 352.163,874.444 331.5,864C 284.747,835.328 263.914,793.495 269,738.5C 271.815,711.701 281.815,688.034 299,667.5C 323.36,639.739 352.193,617.906 385.5,602C 386.357,601.311 387.023,600.478 387.5,599.5C 368.805,593.072 352.638,582.739 339,568.5C 325.371,549.172 325.038,529.506 338,509.5C 346.391,498.104 355.891,487.604 366.5,478C 378.5,468 390.5,458 402.5,448C 404.557,446.281 406.224,444.281 407.5,442C 336.033,407.255 305.866,350.088 317,270.5C 327,222.514 352.167,184.68 392.5,157C 425.957,134.793 462.624,121.626 502.5,117.5 Z"/></g>
<g><path style="opacity:1" fill="#fefdfc" d="M 494.5,153.5 C 536.607,151.132 568.44,167.798 590,203.5C 615.733,256.971 619.399,311.971 601,368.5C 580.076,412.38 545.576,429.88 497.5,421C 474.23,415.283 455.063,403.116 440,384.5C 415.073,352.216 403.24,315.549 404.5,274.5C 403.846,248.118 409.346,223.118 421,199.5C 437.745,171.872 462.245,156.539 494.5,153.5 Z"/></g>
<g><path style="opacity:1" fill="#fdfdfc" d="M 443.5,611.5 C 479.502,611.333 515.502,611.5 551.5,612C 577.778,612.213 603.444,616.213 628.5,624C 682.608,646.38 700.108,685.214 681,740.5C 662.06,779.106 632.56,806.273 592.5,822C 536.42,845.216 480.42,845.216 424.5,822C 393.118,808.618 370.285,786.451 356,755.5C 343.595,719.248 347.928,685.248 369,653.5C 388.62,630.273 413.453,616.273 443.5,611.5 Z"/></g>
</svg>
