<?xml version="1.0" encoding="UTF-8"?>
<!DOCTYPE svg PUBLIC "-//W3C//DTD SVG 1.1//EN" "http://www.w3.org/Graphics/SVG/1.1/DTD/svg11.dtd">
<svg xmlns="http://www.w3.org/2000/svg" version="1.1" width="1024px" height="1024px" style="shape-rendering:geometricPrecision; text-rendering:geometricPrecision; image-rendering:optimizeQuality; fill-rule:evenodd; clip-rule:evenodd" xmlns:xlink="http://www.w3.org/1999/xlink">
<g><path style="opacity:1" fill="#fefefd" d="M -0.5,-0.5 C 340.833,-0.5 682.167,-0.5 1023.5,-0.5C 1023.5,340.833 1023.5,682.167 1023.5,1023.5C 682.167,1023.5 340.833,1023.5 -0.5,1023.5C -0.5,682.167 -0.5,340.833 -0.5,-0.5 Z"/></g>
<g><path style="opacity:1" fill="#0d0e0c" d="M 866.5,157.5 C 868.288,157.215 869.955,157.548 871.5,158.5C 860.195,165.155 849.195,172.322 838.5,180C 814.418,201.651 799.251,228.485 793,260.5C 787.106,290.547 783.773,320.881 783,351.5C 780.861,446.84 781.194,542.173 784,637.5C 784.792,667.004 787.459,696.337 792,725.5C 795.868,754.786 806.201,781.452 823,805.5C 839.087,822.62 857.587,836.453 878.5,847C 877.127,847.875 875.627,848.375 874,848.5C 848.459,846.458 822.959,843.958 797.5,841C 760.521,838.175 723.521,837.842 686.5,840C 664.992,841.713 643.492,843.546 622,845.5C 613.925,845.806 613.425,843.973 620.5,840C 637.854,831.406 653.354,820.24 667,806.5C 677.502,793.497 684.835,778.83 689,762.5C 694.297,740.127 697.63,717.46 699,694.5C 701.72,635.511 702.053,576.511 700,517.5C 655.086,495.396 607.586,482.896 557.5,480C 486.956,473.208 417.29,478.208 348.5,495C 337.454,497.905 326.62,501.405 316,505.5C 315.33,557.839 315.664,610.172 317,662.5C 317.786,695.578 321.786,728.245 329,760.5C 341.735,799.57 367.235,826.737 405.5,842C 406.357,842.689 407.023,843.522 407.5,844.5C 404,844.833 400.5,845.167 397,845.5C 374.151,843.887 351.318,842.054 328.5,840C 294.137,837.707 259.804,838.041 225.5,841C 200.346,843.647 175.179,846.147 150,848.5C 148.833,848.167 147.667,847.833 146.5,847.5C 157.3,840.93 167.967,834.097 178.5,827C 200.369,809.442 214.535,786.942 221,759.5C 227.494,731.871 231.16,703.871 232,675.5C 236.203,555.842 236.536,436.175 233,316.5C 233.329,283.132 226.996,251.132 214,220.5C 204.338,203.173 191.505,188.673 175.5,177C 165.664,170.914 155.664,165.081 145.5,159.5C 146.5,159.167 147.5,158.833 148.5,158.5C 216.196,168.898 284.196,171.731 352.5,167C 366.009,165.866 379.509,164.699 393,163.5C 393.833,163.833 394.667,164.167 395.5,164.5C 386.325,170.83 376.992,176.996 367.5,183C 339.283,205.592 323.783,235.092 321,271.5C 316.764,332.755 314.931,394.089 315.5,455.5C 364.351,444.878 413.684,437.378 463.5,433C 529.46,428.492 595.126,431.159 660.5,441C 674.189,443.141 687.689,445.974 701,449.5C 701.667,405.833 701.667,362.167 701,318.5C 700.525,291.698 696.858,265.365 690,239.5C 683.374,216.886 670.541,198.719 651.5,185C 640.833,178.333 630.167,171.667 619.5,165C 621.116,163.923 622.949,163.423 625,163.5C 693.526,170.306 762.026,170.139 830.5,163C 842.708,161.567 854.708,159.734 866.5,157.5 Z"/></g>
</svg>
