<?xml version="1.0" encoding="UTF-8"?>
<!DOCTYPE svg PUBLIC "-//W3C//DTD SVG 1.1//EN" "http://www.w3.org/Graphics/SVG/1.1/DTD/svg11.dtd">
<svg xmlns="http://www.w3.org/2000/svg" version="1.1" width="1024px" height="1024px" style="shape-rendering:geometricPrecision; text-rendering:geometricPrecision; image-rendering:optimizeQuality; fill-rule:evenodd; clip-rule:evenodd" xmlns:xlink="http://www.w3.org/1999/xlink">
<g><path style="opacity:1" fill="#fefefe" d="M -0.5,-0.5 C 340.833,-0.5 682.167,-0.5 1023.5,-0.5C 1023.5,340.833 1023.5,682.167 1023.5,1023.5C 682.167,1023.5 340.833,1023.5 -0.5,1023.5C -0.5,682.167 -0.5,340.833 -0.5,-0.5 Z"/></g>
<g><path style="opacity:1" fill="#121312" d="M 330.5,784.5 C 332.427,755.873 333.594,727.206 334,698.5C 335.444,566.503 335.778,434.503 335,302.5C 334.333,273.821 333.333,245.154 332,216.5C 331.161,206.452 329.994,196.452 328.5,186.5C 329.341,185.991 329.841,186.657 330,188.5C 333.039,208.713 334.706,229.046 335,249.5C 338.128,409.497 338.128,569.497 335,729.5C 334.756,749.244 333.423,768.91 331,788.5C 330.51,787.207 330.343,785.873 330.5,784.5 Z"/></g>
<g><path style="opacity:1" fill="#121412" d="M 330.5,784.5 C 330.343,785.873 330.51,787.207 331,788.5C 333.423,768.91 334.756,749.244 335,729.5C 338.128,569.497 338.128,409.497 335,249.5C 334.706,229.046 333.039,208.713 330,188.5C 329.841,186.657 329.341,185.991 328.5,186.5C 325.16,172.299 317.827,160.466 306.5,151C 300.103,146.273 293.436,141.94 286.5,138C 285.289,137.107 285.289,136.274 286.5,135.5C 315.526,130.595 344.192,124.095 372.5,116C 378.579,113.863 384.579,111.529 390.5,109C 402.439,102.857 414.439,97.0241 426.5,91.5C 423.514,108.718 421.348,126.052 420,143.5C 416.297,242.814 415.63,342.147 418,441.5C 444.978,406.12 478.478,378.953 518.5,360C 542.133,349.758 566.799,343.925 592.5,342.5C 645.309,342.873 681.809,367.206 702,415.5C 709.5,435.5 713.833,456.167 715,477.5C 715.667,502.167 715.667,526.833 715,551.5C 712.996,583.223 710.329,614.89 707,646.5C 703.804,690.782 702.804,735.116 704,779.5C 704.811,798.929 710.145,816.929 720,833.5C 729.532,843.521 741.032,850.354 754.5,854C 755.687,855.019 756.687,856.186 757.5,857.5C 734.863,863.244 712.53,870.077 690.5,878C 664.728,884.032 646.895,874.865 637,850.5C 627.238,820.285 623.405,789.285 625.5,757.5C 625.667,745.833 625.833,734.167 626,722.5C 629.951,673.856 633.617,625.189 637,576.5C 637.667,557.5 637.667,538.5 637,519.5C 636.935,485.978 627.269,455.645 608,428.5C 586.535,406.344 560.368,397.511 529.5,402C 482.83,410.902 448.664,436.402 427,478.5C 420.008,495.46 416.341,513.126 416,531.5C 415.333,592.167 415.333,652.833 416,713.5C 416.387,741.956 418.387,770.29 422,798.5C 426.266,828.873 442.766,849.373 471.5,860C 472.5,861 473.5,862 474.5,863C 466.766,864.136 458.932,864.636 451,864.5C 423.011,863.362 395.011,862.695 367,862.5C 336.161,863.116 305.328,863.616 274.5,864C 273.5,861.909 274.167,860.243 276.5,859C 290.823,853.931 302.989,845.764 313,834.5C 322.737,819.117 328.571,802.451 330.5,784.5 Z"/></g>
</svg>
