<?xml version="1.0" encoding="UTF-8"?>
<!DOCTYPE svg PUBLIC "-//W3C//DTD SVG 1.1//EN" "http://www.w3.org/Graphics/SVG/1.1/DTD/svg11.dtd">
<svg xmlns="http://www.w3.org/2000/svg" version="1.1" width="1024px" height="1536px" style="shape-rendering:geometricPrecision; text-rendering:geometricPrecision; image-rendering:optimizeQuality; fill-rule:evenodd; clip-rule:evenodd" xmlns:xlink="http://www.w3.org/1999/xlink">
<g><path style="opacity:1" fill="#fefefe" d="M -0.5,-0.5 C 340.833,-0.5 682.167,-0.5 1023.5,-0.5C 1023.5,511.5 1023.5,1023.5 1023.5,1535.5C 682.167,1535.5 340.833,1535.5 -0.5,1535.5C -0.5,1023.5 -0.5,511.5 -0.5,-0.5 Z"/></g>
<g><path style="opacity:1" fill="#090a08" d="M 354.5,337.5 C 409.33,338.908 464.163,340.242 519,341.5C 567.488,339.384 615.988,338.717 664.5,339.5C 661.972,340.517 661.972,341.684 664.5,343C 636.111,351.104 611.945,365.937 592,387.5C 581.235,402.121 574.568,418.454 572,436.5C 569.513,451.061 568.18,465.728 568,480.5C 560.757,669.839 560.757,859.172 568,1048.5C 568.239,1079.16 577.239,1106.82 595,1131.5C 606.812,1144.16 620.645,1153.99 636.5,1161C 647.247,1165.14 657.914,1169.47 668.5,1174C 669.051,1175.4 669.384,1176.73 669.5,1178C 665.903,1178.97 662.236,1179.47 658.5,1179.5C 607.509,1177.53 556.509,1175.86 505.5,1174.5C 480.138,1174.46 454.805,1175.29 429.5,1177C 402.161,1177.83 374.827,1177.67 347.5,1176.5C 349.493,1174.5 351.827,1173 354.5,1172C 380.318,1163.85 402.485,1150.02 421,1130.5C 431.079,1116.29 438.079,1100.62 442,1083.5C 444.226,1071.92 445.893,1060.25 447,1048.5C 453.583,853.174 453.916,657.841 448,462.5C 447.482,411.91 424.648,375.744 379.5,354C 369.914,349.805 360.248,345.805 350.5,342C 349.5,341.167 348.5,340.333 347.5,339.5C 349.969,338.832 352.302,338.165 354.5,337.5 Z"/></g>
</svg>
