<?xml version="1.0" encoding="UTF-8"?>
<!DOCTYPE svg PUBLIC "-//W3C//DTD SVG 1.1//EN" "http://www.w3.org/Graphics/SVG/1.1/DTD/svg11.dtd">
<svg xmlns="http://www.w3.org/2000/svg" version="1.1" width="1024px" height="1536px" style="shape-rendering:geometricPrecision; text-rendering:geometricPrecision; image-rendering:optimizeQuality; fill-rule:evenodd; clip-rule:evenodd" xmlns:xlink="http://www.w3.org/1999/xlink">
<g><path style="opacity:1" fill="#fefefd" d="M -0.5,-0.5 C 340.833,-0.5 682.167,-0.5 1023.5,-0.5C 1023.5,511.5 1023.5,1023.5 1023.5,1535.5C 682.167,1535.5 340.833,1535.5 -0.5,1535.5C -0.5,1023.5 -0.5,511.5 -0.5,-0.5 Z"/></g>
<g><path style="opacity:1" fill="#0f110f" d="M 510.5,316.5 C 543.353,317.008 568.186,331.341 585,359.5C 601.201,392.555 597.535,423.222 574,451.5C 561.87,465.633 547.037,475.799 529.5,482C 504.738,487.976 482.738,482.643 463.5,466C 429.992,436.147 423.492,401.313 444,361.5C 460.289,337.62 482.456,322.62 510.5,316.5 Z"/></g>
<g><path style="opacity:1" fill="#0f100f" d="M 572.5,536.5 C 582.819,536.327 587.486,541.493 586.5,552C 581.593,588.049 577.76,624.216 575,660.5C 567.002,781.101 565.669,901.768 571,1022.5C 571.954,1041.19 573.288,1059.86 575,1078.5C 576.241,1103.14 582.908,1126.14 595,1147.5C 603.369,1158.11 613.869,1165.94 626.5,1171C 631.833,1173 637.167,1175 642.5,1177C 643.576,1178.73 643.743,1180.56 643,1182.5C 636.257,1184.93 629.257,1185.93 622,1185.5C 587.188,1183.58 552.354,1182.25 517.5,1181.5C 489.466,1181.83 461.466,1182.99 433.5,1185C 419.5,1185.67 405.5,1185.67 391.5,1185C 389.363,1182.82 389.029,1180.32 390.5,1177.5C 406.808,1169.69 421.308,1159.36 434,1146.5C 441.114,1137.61 446.114,1127.61 449,1116.5C 454.481,1083.73 457.814,1050.73 459,1017.5C 463.87,916.151 463.536,814.818 458,713.5C 457.041,690.372 452.375,668.039 444,646.5C 438.373,634.205 429.873,624.371 418.5,617C 409.653,612.41 400.653,608.077 391.5,604C 388.75,600.136 389.084,596.469 392.5,593C 395.674,591.275 399.007,589.942 402.5,589C 434.581,580.98 466.581,572.646 498.5,564C 523.613,555.689 548.28,546.522 572.5,536.5 Z"/></g>
</svg>
