<?xml version="1.0" encoding="UTF-8"?>
<!DOCTYPE svg PUBLIC "-//W3C//DTD SVG 1.1//EN" "http://www.w3.org/Graphics/SVG/1.1/DTD/svg11.dtd">
<svg xmlns="http://www.w3.org/2000/svg" version="1.1" width="1024px" height="1024px" style="shape-rendering:geometricPrecision; text-rendering:geometricPrecision; image-rendering:optimizeQuality; fill-rule:evenodd; clip-rule:evenodd" xmlns:xlink="http://www.w3.org/1999/xlink">
<g><path style="opacity:1" fill="#fefefe" d="M -0.5,-0.5 C 340.833,-0.5 682.167,-0.5 1023.5,-0.5C 1023.5,340.833 1023.5,682.167 1023.5,1023.5C 682.167,1023.5 340.833,1023.5 -0.5,1023.5C -0.5,682.167 -0.5,340.833 -0.5,-0.5 Z"/></g>
<g><path style="opacity:1" fill="#111313" d="M 552.5,50.5 C 598.148,49.0035 626.315,70.3369 637,114.5C 640.321,151.702 625.154,178.202 591.5,194C 548.993,206.823 516.827,193.99 495,155.5C 480.724,116.334 490.557,84.8344 524.5,61C 533.467,56.1823 542.8,52.6823 552.5,50.5 Z"/></g>
<g><path style="opacity:1" fill="#111313" d="M 621.5,241.5 C 625.308,241.163 628.974,241.663 632.5,243C 634.742,244.986 635.742,247.486 635.5,250.5C 632.173,261.645 628.34,272.645 624,283.5C 621.438,292.331 619.771,301.331 619,310.5C 617.733,429.16 617.066,547.826 617,666.5C 616.146,695.215 614.48,723.881 612,752.5C 600.721,843.426 553.221,907.259 469.5,944C 431.758,960.269 392.425,969.936 351.5,973C 348.793,971.136 347.959,968.636 349,965.5C 359.928,933.187 367.928,900.187 373,866.5C 375.332,863.209 378.165,862.709 381.5,865C 389.066,876.567 398.066,886.9 408.5,896C 429.717,909.94 449.717,908.273 468.5,891C 486.815,871.209 498.982,848.042 505,821.5C 512.152,788.567 515.818,755.233 516,721.5C 518.42,600.409 516.086,479.409 509,358.5C 506.129,336.569 495.962,319.069 478.5,306C 467.803,300.4 456.969,295.233 446,290.5C 444.357,285.572 445.857,282.072 450.5,280C 507.869,268.238 564.869,255.405 621.5,241.5 Z"/></g>
</svg>
