<?xml version="1.0" encoding="UTF-8"?>
<!DOCTYPE svg PUBLIC "-//W3C//DTD SVG 1.1//EN" "http://www.w3.org/Graphics/SVG/1.1/DTD/svg11.dtd">
<svg xmlns="http://www.w3.org/2000/svg" version="1.1" width="1024px" height="1024px" style="shape-rendering:geometricPrecision; text-rendering:geometricPrecision; image-rendering:optimizeQuality; fill-rule:evenodd; clip-rule:evenodd" xmlns:xlink="http://www.w3.org/1999/xlink">
<g><path style="opacity:1" fill="#fefefe" d="M -0.5,-0.5 C 340.833,-0.5 682.167,-0.5 1023.5,-0.5C 1023.5,340.833 1023.5,682.167 1023.5,1023.5C 682.167,1023.5 340.833,1023.5 -0.5,1023.5C -0.5,682.167 -0.5,340.833 -0.5,-0.5 Z"/></g>
<g><path style="opacity:1" fill="#0c0c0b" d="M 415.5,83.5 C 524.167,83.8188 632.834,84.3188 741.5,85C 745.695,88.7946 745.028,91.7946 739.5,94C 723.897,97.4005 708.564,101.734 693.5,107C 665.437,118.3 648.603,138.8 643,168.5C 641.626,176.118 640.626,183.785 640,191.5C 639.667,333.833 639.333,476.167 639,618.5C 638.665,654.846 633.665,690.512 624,725.5C 605.461,785.67 569.961,832.837 517.5,867C 451.997,903.156 383.997,908.489 313.5,883C 258.945,856.774 227.112,813.607 218,753.5C 206.074,669.259 232.241,599.759 296.5,545C 303.197,539.472 310.53,534.972 318.5,531.5C 321.082,531.747 321.915,533.08 321,535.5C 295.588,571.727 281.254,612.061 278,656.5C 277.333,673.833 277.333,691.167 278,708.5C 279.591,741.942 289.924,772.275 309,799.5C 336.755,832.43 372.255,847.263 415.5,844C 452.363,838.807 477.863,818.973 492,784.5C 499.742,764.13 505.075,743.13 508,721.5C 511.263,697.942 513.263,674.275 514,650.5C 514.985,493.815 514.652,337.149 513,180.5C 511.504,162.343 505.837,145.676 496,130.5C 486.564,120.731 475.731,112.897 463.5,107C 448.073,101.56 432.407,96.8929 416.5,93C 412.846,90.2094 412.513,87.0428 415.5,83.5 Z"/></g>
</svg>
