<?xml version="1.0" encoding="UTF-8"?>
<!DOCTYPE svg PUBLIC "-//W3C//DTD SVG 1.1//EN" "http://www.w3.org/Graphics/SVG/1.1/DTD/svg11.dtd">
<svg xmlns="http://www.w3.org/2000/svg" version="1.1" width="1024px" height="1024px" style="shape-rendering:geometricPrecision; text-rendering:geometricPrecision; image-rendering:optimizeQuality; fill-rule:evenodd; clip-rule:evenodd" xmlns:xlink="http://www.w3.org/1999/xlink">
<g><path style="opacity:1" fill="#fefefe" d="M -0.5,-0.5 C 340.833,-0.5 682.167,-0.5 1023.5,-0.5C 1023.5,340.833 1023.5,682.167 1023.5,1023.5C 682.167,1023.5 340.833,1023.5 -0.5,1023.5C -0.5,682.167 -0.5,340.833 -0.5,-0.5 Z"/></g>
<g><path style="opacity:1" fill="#050505" d="M 207.5,781.5 C 210.76,760.63 212.926,739.63 214,718.5C 214.667,566.833 214.667,415.167 214,263.5C 213.916,238.567 211.416,213.901 206.5,189.5C 206.369,188.761 206.536,188.094 207,187.5C 212.126,208.512 214.793,229.845 215,251.5C 216.489,402.173 216.823,552.839 216,703.5C 215.896,730.767 213.229,757.767 208,784.5C 207.517,783.552 207.351,782.552 207.5,781.5 Z"/></g>
<g><path style="opacity:1" fill="#111211" d="M 207.5,781.5 C 207.351,782.552 207.517,783.552 208,784.5C 213.229,757.767 215.896,730.767 216,703.5C 216.823,552.839 216.489,402.173 215,251.5C 214.793,229.845 212.126,208.512 207,187.5C 206.536,188.094 206.369,188.761 206.5,189.5C 200.865,167.366 188.198,150.533 168.5,139C 159.802,134.651 151.136,130.318 142.5,126C 148.937,124.921 155.437,124.421 162,124.5C 236.162,125.45 310.329,125.783 384.5,125.5C 384.719,126.675 384.386,127.675 383.5,128.5C 348.626,143.551 328.126,169.885 322,207.5C 319.411,223.058 318.078,238.725 318,254.5C 317.333,314.833 317.333,375.167 318,435.5C 396.015,370.151 467.349,298.151 532,219.5C 539.414,209.677 546.081,199.344 552,188.5C 558.509,175.566 557.509,163.233 549,151.5C 539.163,139.236 526.496,131.236 511,127.5C 509.131,126.631 508.631,125.465 509.5,124C 597.82,125.592 686.153,126.592 774.5,127C 775.308,127.308 775.975,127.808 776.5,128.5C 731.471,144.422 690.471,167.256 653.5,197C 640.5,208 627.5,219 614.5,230C 555.292,286.71 495.958,343.21 436.5,399.5C 449.035,418.536 462.535,436.87 477,454.5C 529.757,517.92 581.757,581.92 633,646.5C 663.709,682.207 694.042,718.207 724,754.5C 753.422,784.936 784.922,812.769 818.5,838C 844.224,855.195 871.558,869.195 900.5,880C 900.095,880.945 899.428,881.612 898.5,882C 842.028,892.292 786.028,890.292 730.5,876C 693.243,864.728 661.743,844.561 636,815.5C 629.373,807.204 622.373,799.204 615,791.5C 561.667,722.833 508.333,654.167 455,585.5C 423.379,545.544 391.379,505.877 359,466.5C 345.037,478.128 331.37,490.128 318,502.5C 317.041,583.515 317.374,664.515 319,745.5C 319.58,770.16 325.913,793.16 338,814.5C 345.922,825.757 355.755,834.923 367.5,842C 374.658,845.412 381.658,849.078 388.5,853C 378.989,854.156 369.322,854.656 359.5,854.5C 326.666,853.87 293.833,853.204 261,852.5C 228.832,853.083 196.665,853.75 164.5,854.5C 157.473,854.464 150.473,854.131 143.5,853.5C 142.833,853.167 142.167,852.833 141.5,852.5C 159,844.672 174.5,834.006 188,820.5C 197.188,808.792 203.688,795.792 207.5,781.5 Z"/></g>
</svg>
