<?xml version="1.0" encoding="UTF-8"?>
<!DOCTYPE svg PUBLIC "-//W3C//DTD SVG 1.1//EN" "http://www.w3.org/Graphics/SVG/1.1/DTD/svg11.dtd">
<svg xmlns="http://www.w3.org/2000/svg" version="1.1" width="1024px" height="1024px" style="shape-rendering:geometricPrecision; text-rendering:geometricPrecision; image-rendering:optimizeQuality; fill-rule:evenodd; clip-rule:evenodd" xmlns:xlink="http://www.w3.org/1999/xlink">
<g><path style="opacity:1" fill="#fefefd" d="M -0.5,-0.5 C 340.833,-0.5 682.167,-0.5 1023.5,-0.5C 1023.5,340.833 1023.5,682.167 1023.5,1023.5C 682.167,1023.5 340.833,1023.5 -0.5,1023.5C -0.5,682.167 -0.5,340.833 -0.5,-0.5 Z"/></g>
<g><path style="opacity:1" fill="#141513" d="M 422.5,161.5 C 422.649,160.448 422.483,159.448 422,158.5C 417.709,196.032 415.375,233.699 415,271.5C 413.833,338.496 413,405.496 412.5,472.5C 412.351,501.681 413.017,530.681 414.5,559.5C 416.544,560.778 418.544,560.612 420.5,559C 463.029,516.804 505.862,474.971 549,433.5C 560.149,421.355 570.149,408.355 579,394.5C 584.01,379.532 579.843,367.699 566.5,359C 559.58,355.207 552.246,352.54 544.5,351C 541.518,348.809 541.185,346.476 543.5,344C 578.791,345.831 614.125,346.664 649.5,346.5C 680.519,346.415 711.519,345.915 742.5,345C 743.86,346.938 743.527,348.604 741.5,350C 706.432,360.201 674.432,376.201 645.5,398C 597.539,434.951 551.039,473.784 506,514.5C 505.833,515.333 505.667,516.167 505.5,517C 544.485,580.657 586.652,642.157 632,701.5C 653.014,728.52 676.181,753.686 701.5,777C 719.769,792.473 740.436,803.806 763.5,811C 786.49,812.272 787.157,816.272 765.5,823C 741.615,830.011 717.281,834.511 692.5,836.5C 661.349,836.29 634.349,825.79 611.5,805C 596.383,790.875 582.55,775.708 570,759.5C 556.176,741.185 542.843,722.519 530,703.5C 503.163,661.824 475.83,620.49 448,579.5C 445.613,575.612 442.447,572.612 438.5,570.5C 429.88,577.286 422.046,584.953 415,593.5C 414.984,625.498 415.317,657.498 416,689.5C 416.183,711.571 417.516,733.571 420,755.5C 421.743,770.639 427.076,784.306 436,796.5C 447.844,807.012 461.344,814.845 476.5,820C 480.462,821.211 481.129,823.211 478.5,826C 474.167,826.167 469.833,826.333 465.5,826.5C 430.683,824.744 395.849,823.411 361,822.5C 330.819,823.345 300.653,824.178 270.5,825C 269.5,822.909 270.167,821.243 272.5,820C 285.599,814.619 297.933,807.952 309.5,800C 318.595,790.98 324.428,780.146 327,767.5C 328.591,760.212 329.924,752.879 331,745.5C 333.306,720.722 334.806,696.055 335.5,671.5C 335.334,677.176 335.501,682.843 336,688.5C 337.574,576.839 337.907,465.173 337,353.5C 337.116,316.41 335.449,279.41 332,242.5C 331.667,240.833 331.333,239.167 331,237.5C 330.517,238.448 330.351,239.448 330.5,240.5C 328.323,224.147 322.49,209.147 313,195.5C 306.48,188.154 298.647,182.654 289.5,179C 279.861,176.174 270.195,173.507 260.5,171C 259.594,169.301 259.261,167.467 259.5,165.5C 304.525,163.395 348.192,154.562 390.5,139C 402.278,134.361 414.112,129.861 426,125.5C 428.291,126.124 429.457,127.624 429.5,130C 426.569,140.504 424.235,151.004 422.5,161.5 Z"/></g>
<g><path style="opacity:1" fill="#090909" d="M 422.5,161.5 C 418.703,203.739 416.536,246.073 416,288.5C 414.755,378.829 414.255,469.162 414.5,559.5C 413.017,530.681 412.351,501.681 412.5,472.5C 413,405.496 413.833,338.496 415,271.5C 415.375,233.699 417.709,196.032 422,158.5C 422.483,159.448 422.649,160.448 422.5,161.5 Z"/></g>
<g><path style="opacity:1" fill="#121212" d="M 335.5,671.5 C 337.249,542.491 336.749,413.491 334,284.5C 333.163,269.802 331.997,255.135 330.5,240.5C 330.351,239.448 330.517,238.448 331,237.5C 331.333,239.167 331.667,240.833 332,242.5C 335.449,279.41 337.116,316.41 337,353.5C 337.907,465.173 337.574,576.839 336,688.5C 335.501,682.843 335.334,677.176 335.5,671.5 Z"/></g>
</svg>
