<?xml version="1.0" encoding="UTF-8"?>
<!DOCTYPE svg PUBLIC "-//W3C//DTD SVG 1.1//EN" "http://www.w3.org/Graphics/SVG/1.1/DTD/svg11.dtd">
<svg xmlns="http://www.w3.org/2000/svg" version="1.1" width="1024px" height="1536px" style="shape-rendering:geometricPrecision; text-rendering:geometricPrecision; image-rendering:optimizeQuality; fill-rule:evenodd; clip-rule:evenodd" xmlns:xlink="http://www.w3.org/1999/xlink">
<g><path style="opacity:1" fill="#fefefe" d="M -0.5,-0.5 C 340.833,-0.5 682.167,-0.5 1023.5,-0.5C 1023.5,511.5 1023.5,1023.5 1023.5,1535.5C 682.167,1535.5 340.833,1535.5 -0.5,1535.5C -0.5,1023.5 -0.5,511.5 -0.5,-0.5 Z"/></g>
<g><path style="opacity:1" fill="#0b0b0a" d="M 261.5,290.5 C 338.834,290.333 416.167,290.5 493.5,291C 500.5,291.333 507.5,291.667 514.5,292C 515.337,293.011 515.67,294.178 515.5,295.5C 499.158,300.991 485.325,310.324 474,323.5C 457.531,343.881 447.864,367.214 445,393.5C 441.456,416.695 439.789,440.029 440,463.5C 439.333,655.5 439.333,847.5 440,1039.5C 440.542,1070.23 442.209,1100.9 445,1131.5C 446.648,1132.72 448.481,1133.55 450.5,1134C 496.06,1138.51 541.727,1140.51 587.5,1140C 624.784,1138.34 661.45,1132.67 697.5,1123C 755.271,1106.73 800.438,1073.56 833,1023.5C 838.67,1020.15 840.67,1021.82 839,1028.5C 821.211,1089.2 802.211,1149.53 782,1209.5C 781.266,1211.74 779.766,1213.07 777.5,1213.5C 738.681,1204.65 699.348,1199.82 659.5,1199C 532.134,1195.08 404.8,1195.91 277.5,1201.5C 266.496,1201.1 255.496,1200.6 244.5,1200C 243.692,1199.69 243.025,1199.19 242.5,1198.5C 243.605,1197.11 244.939,1195.94 246.5,1195C 285.943,1178.54 309.61,1149.21 317.5,1107C 321.975,1085.06 324.475,1062.89 325,1040.5C 326.332,912.999 326.832,785.499 326.5,658C 326.377,576.149 325.21,494.316 323,412.5C 321.652,387.752 315.985,364.085 306,341.5C 292.485,319.649 273.819,303.982 250,294.5C 249.544,293.256 250.044,292.423 251.5,292C 255.025,291.821 258.359,291.321 261.5,290.5 Z"/></g>
</svg>
