<?xml version="1.0" encoding="UTF-8"?>
<!DOCTYPE svg PUBLIC "-//W3C//DTD SVG 1.1//EN" "http://www.w3.org/Graphics/SVG/1.1/DTD/svg11.dtd">
<svg xmlns="http://www.w3.org/2000/svg" version="1.1" width="1024px" height="1024px" style="shape-rendering:geometricPrecision; text-rendering:geometricPrecision; image-rendering:optimizeQuality; fill-rule:evenodd; clip-rule:evenodd" xmlns:xlink="http://www.w3.org/1999/xlink">
<g><path style="opacity:1" fill="#fefefe" d="M -0.5,-0.5 C 340.833,-0.5 682.167,-0.5 1023.5,-0.5C 1023.5,340.833 1023.5,682.167 1023.5,1023.5C 682.167,1023.5 340.833,1023.5 -0.5,1023.5C -0.5,682.167 -0.5,340.833 -0.5,-0.5 Z"/></g>
<g><path style="opacity:1" fill="#0d0e0d" d="M 566.5,101.5 C 571.179,101.334 575.845,101.501 580.5,102C 581.022,102.561 581.355,103.228 581.5,104C 577.697,108.132 573.531,111.966 569,115.5C 555.65,133.201 547.983,153.201 546,175.5C 544.18,192.461 542.847,209.461 542,226.5C 540.059,283.483 538.893,340.483 538.5,397.5C 539.2,481.499 539.7,565.499 540,649.5C 540.034,689.86 541.034,730.194 543,770.5C 544.173,795.851 548.839,820.518 557,844.5C 565.412,865.913 580.246,881.079 601.5,890C 609.844,893.003 618.178,896.003 626.5,899C 629.326,901.522 628.993,903.522 625.5,905C 616.042,906.077 606.542,906.577 597,906.5C 530.5,905.525 464,905.358 397.5,906C 396.328,905.581 395.328,904.915 394.5,904C 402.5,899 410.5,894 418.5,889C 435.673,871.843 444.507,851.01 445,826.5C 449.819,701.052 452.319,575.552 452.5,450C 452.439,388.81 451.273,327.643 449,266.5C 448.21,244.085 443.877,222.419 436,201.5C 426.716,182.566 411.55,171.732 390.5,169C 388.697,168.363 387.364,167.197 386.5,165.5C 389.503,162.327 393.17,160.161 397.5,159C 432.157,146.006 466.823,133.006 501.5,120C 522.901,112.404 544.568,106.238 566.5,101.5 Z"/></g>
</svg>
