<?xml version="1.0" encoding="UTF-8"?>
<!DOCTYPE svg PUBLIC "-//W3C//DTD SVG 1.1//EN" "http://www.w3.org/Graphics/SVG/1.1/DTD/svg11.dtd">
<svg xmlns="http://www.w3.org/2000/svg" version="1.1" width="810px" height="754px" style="shape-rendering:geometricPrecision; text-rendering:geometricPrecision; image-rendering:optimizeQuality; fill-rule:evenodd; clip-rule:evenodd" xmlns:xlink="http://www.w3.org/1999/xlink">
<g><path style="opacity:0.989" fill="#161615" d="M 13.5,-0.5 C 28.5,-0.5 43.5,-0.5 58.5,-0.5C 101.855,1.22599 142.189,13.3927 179.5,36C 234.189,69.8491 285.856,107.849 334.5,150C 368.074,180.718 395.741,215.885 417.5,255.5C 468.587,193.579 524.921,136.746 586.5,85C 615.62,60.9257 647.286,40.5924 681.5,24C 704.924,13.8491 729.424,9.34913 755,10.5C 771.175,10.9597 787.342,11.6264 803.5,12.5C 783.117,25.037 764.617,40.037 748,57.5C 736.595,71.0339 730.262,86.7006 729,104.5C 727.538,115.458 726.538,126.458 726,137.5C 724.848,169.828 723.848,202.162 723,234.5C 722.031,334.841 720.864,435.175 719.5,535.5C 719.862,567.553 721.362,599.553 724,631.5C 725.368,653.263 731.368,673.596 742,692.5C 746.959,698.465 752.792,703.298 759.5,707C 772.198,713.349 784.864,719.682 797.5,726C 801.8,729.292 805.8,732.792 809.5,736.5C 809.5,737.5 809.5,738.5 809.5,739.5C 804.151,744.346 797.817,747.18 790.5,748C 769.762,750.786 749.095,752.619 728.5,753.5C 717.167,753.5 705.833,753.5 694.5,753.5C 652.266,751.701 609.932,749.035 567.5,745.5C 578.021,736.478 588.688,727.645 599.5,719C 623.854,699.8 637.354,674.633 640,643.5C 641.615,628.044 642.448,612.544 642.5,597C 641.462,562.481 639.962,527.981 638,493.5C 637.069,450.005 636.569,406.505 636.5,363C 636.901,295.821 637.734,228.654 639,161.5C 617.241,175.629 595.741,190.129 574.5,205C 551.526,221.63 530.026,240.13 510,260.5C 491.643,280.53 477.31,303.197 467,328.5C 460.507,347.634 456.84,367.301 456,387.5C 455.913,444.834 455.913,502.167 456,559.5C 456.099,612.237 447.766,663.571 431,713.5C 428.644,720.077 425.811,726.41 422.5,732.5C 415.338,718.855 409.838,704.521 406,689.5C 394.889,631.945 386.889,573.945 382,515.5C 380.063,468.476 377.729,421.476 375,374.5C 370.656,332.501 355.323,295.168 329,262.5C 299.178,228.658 264.678,200.825 225.5,179C 212.413,171.706 199.247,164.54 186,157.5C 187.717,175.771 189.05,194.104 190,212.5C 190.167,223.5 190.333,234.5 190.5,245.5C 186.766,374.486 185.266,503.486 186,632.5C 186.546,652.778 190.212,672.445 197,691.5C 200.042,694.933 203.542,697.766 207.5,700C 222.31,706.903 236.643,714.57 250.5,723C 254.886,726.212 257.886,730.378 259.5,735.5C 250.684,737.79 241.684,738.957 232.5,739C 158.522,741.579 84.5216,742.579 10.5,742C 22.3467,732.569 35.3467,724.903 49.5,719C 65.1212,711.046 77.9545,699.879 88,685.5C 91.1235,679.463 93.4568,673.13 95,666.5C 100.271,632.711 103.271,598.711 104,564.5C 107.571,440.813 106.905,317.147 102,193.5C 101.121,171.139 99.788,148.806 98,126.5C 96.6402,94.6191 84.1402,68.1191 60.5,47C 40.1383,33.8228 19.805,20.6561 -0.5,7.5C -0.5,6.5 -0.5,5.5 -0.5,4.5C 0.309426,3.53128 1.30943,2.69794 2.5,2C 6.34736,1.36663 10.014,0.533292 13.5,-0.5 Z"/></g>
</svg>
