<?xml version="1.0" encoding="UTF-8"?>
<!DOCTYPE svg PUBLIC "-//W3C//DTD SVG 1.1//EN" "http://www.w3.org/Graphics/SVG/1.1/DTD/svg11.dtd">
<svg xmlns="http://www.w3.org/2000/svg" version="1.1" width="1024px" height="1024px" style="shape-rendering:geometricPrecision; text-rendering:geometricPrecision; image-rendering:optimizeQuality; fill-rule:evenodd; clip-rule:evenodd" xmlns:xlink="http://www.w3.org/1999/xlink">
<g><path style="opacity:1" fill="#fefefe" d="M -0.5,-0.5 C 340.833,-0.5 682.167,-0.5 1023.5,-0.5C 1023.5,340.833 1023.5,682.167 1023.5,1023.5C 682.167,1023.5 340.833,1023.5 -0.5,1023.5C -0.5,682.167 -0.5,340.833 -0.5,-0.5 Z"/></g>
<g><path style="opacity:1" fill="#121312" d="M 241.5,249.5 C 244.187,249.336 246.854,249.503 249.5,250C 250.893,251.171 251.727,252.671 252,254.5C 252.333,283.167 252.667,311.833 253,340.5C 276.399,302.433 308.899,275.267 350.5,259C 394.185,243.796 436.519,246.796 477.5,268C 503.774,286.301 520.608,311.135 528,342.5C 544.427,321.405 562.927,302.238 583.5,285C 629.661,250.973 680.328,241.973 735.5,258C 769.794,271.628 793.294,295.795 806,330.5C 815.514,357.517 819.347,385.35 817.5,414C 816.167,482.503 816.333,551.003 818,619.5C 818.982,640.271 820.982,660.938 824,681.5C 827.828,701.329 836.995,718.162 851.5,732C 860.755,737.879 870.255,743.379 880,748.5C 880.896,751.025 880.396,753.192 878.5,755C 875.167,755.333 871.833,755.667 868.5,756C 809.5,756.667 750.5,756.667 691.5,756C 688.383,754.28 687.717,751.78 689.5,748.5C 717.963,733.145 733.463,709.145 736,676.5C 738.603,649.565 740.27,622.565 741,595.5C 742.127,554.504 742.461,513.504 742,472.5C 741.085,447.691 738.752,423.024 735,398.5C 720.512,336.171 681.346,307.337 617.5,312C 595.085,316.791 576.919,328.291 563,346.5C 549.788,363.941 541.788,383.608 539,405.5C 535.891,431.734 534.391,458.067 534.5,484.5C 535.298,540.189 536.798,595.856 539,651.5C 540.075,668.955 543.409,685.955 549,702.5C 554.529,716.353 563.362,727.52 575.5,736C 582.707,740.103 590.041,743.937 597.5,747.5C 598.952,750.282 598.619,752.782 596.5,755C 583.693,756.049 570.86,756.549 558,756.5C 510.992,755.315 463.992,755.315 417,756.5C 414.409,756.435 411.909,755.935 409.5,755C 408.22,752.868 408.22,750.702 409.5,748.5C 439.198,732.57 455.031,707.57 457,673.5C 459.194,655.897 460.527,638.23 461,620.5C 463.333,562.148 463,503.815 460,445.5C 459.77,414.339 452.437,385.005 438,357.5C 411.876,318.872 375.709,304.039 329.5,313C 301.543,321.953 281.377,339.786 269,366.5C 263.357,383.382 260.024,400.715 259,418.5C 258.186,429.157 257.519,439.824 257,450.5C 256.333,497.5 256.333,544.5 257,591.5C 257.579,618.906 259.246,646.239 262,673.5C 263.661,691.823 269.661,708.49 280,723.5C 290.415,733.963 302.582,741.797 316.5,747C 319.167,749.667 319.167,752.333 316.5,755C 256.32,755.18 196.154,755.68 136,756.5C 130.86,756.695 128.527,754.362 129,749.5C 136.642,744.025 144.142,738.359 151.5,732.5C 166.454,716.503 174.954,697.503 177,675.5C 180.236,644.928 181.903,614.261 182,583.5C 182.667,529.167 182.667,474.833 182,420.5C 181.887,402.115 180.887,383.782 179,365.5C 177.817,352.097 174.15,339.431 168,327.5C 162.909,319.693 156.076,313.86 147.5,310C 138.423,306.863 129.423,303.53 120.5,300C 119.409,297.936 119.242,295.769 120,293.5C 122.304,291.932 124.804,290.765 127.5,290C 167.291,281.128 205.291,267.628 241.5,249.5 Z"/></g>
</svg>
