<?xml version="1.0" encoding="UTF-8"?>
<!DOCTYPE svg PUBLIC "-//W3C//DTD SVG 1.1//EN" "http://www.w3.org/Graphics/SVG/1.1/DTD/svg11.dtd">
<svg xmlns="http://www.w3.org/2000/svg" version="1.1" width="814px" height="748px" style="shape-rendering:geometricPrecision; text-rendering:geometricPrecision; image-rendering:optimizeQuality; fill-rule:evenodd; clip-rule:evenodd" xmlns:xlink="http://www.w3.org/1999/xlink">
<g><path style="opacity:0.99" fill="#161615" d="M 40.5,-0.5 C 46.1667,-0.5 51.8333,-0.5 57.5,-0.5C 107.929,1.68933 156.263,13.1893 202.5,34C 329.875,95.0125 439.708,179.179 532,286.5C 569.18,330.159 599.847,378.159 624,430.5C 627.151,361.523 629.651,292.523 631.5,223.5C 631.787,183.211 628.621,143.211 622,103.5C 616.867,70.6965 600.367,45.5299 572.5,28C 556.783,19.1415 540.783,10.8082 524.5,3C 601.473,3.16697 678.473,2.83364 755.5,2C 771.357,1.78568 787.023,0.952346 802.5,-0.5C 806.167,-0.5 809.833,-0.5 813.5,-0.5C 813.5,0.166667 813.5,0.833333 813.5,1.5C 808.951,6.53539 803.617,10.7021 797.5,14C 780.118,21.5708 763.118,29.9042 746.5,39C 726.066,50.4623 714.899,67.9623 713,91.5C 710.719,110.766 709.386,130.1 709,149.5C 708.544,231.853 709.711,314.186 712.5,396.5C 711.123,455.332 709.789,514.166 708.5,573C 708.983,604.2 710.149,635.366 712,666.5C 713.49,683.315 720.657,697.149 733.5,708C 749.737,718.948 767.404,726.948 786.5,732C 760.312,735.821 733.978,738.155 707.5,739C 668.504,740.085 629.504,740.918 590.5,741.5C 600.624,718.904 608.791,695.571 615,671.5C 620.399,640.283 618.065,609.616 608,579.5C 591.813,529.464 569.48,482.464 541,438.5C 493.213,364.028 434.713,298.862 365.5,243C 337.537,221.679 308.204,202.345 277.5,185C 253.747,171.706 229.914,158.54 206,145.5C 205.974,285.173 205.14,424.84 203.5,564.5C 203.225,591.871 204.058,619.204 206,646.5C 209.747,672.498 221.247,694.332 240.5,712C 250.5,720.667 260.5,729.333 270.5,738C 254.7,741.308 238.7,743.308 222.5,744C 196.009,745.233 169.676,746.4 143.5,747.5C 135.833,747.5 128.167,747.5 120.5,747.5C 89.1931,746.566 57.8598,744.066 26.5,740C 30.9397,734.958 35.9397,730.625 41.5,727C 59.1785,715.829 76.5118,704.162 93.5,692C 104.342,683.502 112.508,673.002 118,660.5C 121.097,645.345 122.763,630.012 123,614.5C 126.859,470.107 125.192,325.774 118,181.5C 116.656,150.716 113.989,120.049 110,89.5C 107.59,69.4209 98.0897,53.5876 81.5,42C 73.6639,36.2454 65.3306,31.2454 56.5,27C 37.7486,18.8064 18.7486,11.3064 -0.5,4.5C -0.5,4.16667 -0.5,3.83333 -0.5,3.5C 13.266,1.6897 26.9327,0.356363 40.5,-0.5 Z"/></g>
</svg>
