<?xml version="1.0" encoding="UTF-8"?>
<!DOCTYPE svg PUBLIC "-//W3C//DTD SVG 1.1//EN" "http://www.w3.org/Graphics/SVG/1.1/DTD/svg11.dtd">
<svg xmlns="http://www.w3.org/2000/svg" version="1.1" width="1024px" height="1024px" style="shape-rendering:geometricPrecision; text-rendering:geometricPrecision; image-rendering:optimizeQuality; fill-rule:evenodd; clip-rule:evenodd" xmlns:xlink="http://www.w3.org/1999/xlink">
<g><path style="opacity:1" fill="#fefefe" d="M -0.5,-0.5 C 340.833,-0.5 682.167,-0.5 1023.5,-0.5C 1023.5,340.833 1023.5,682.167 1023.5,1023.5C 682.167,1023.5 340.833,1023.5 -0.5,1023.5C -0.5,682.167 -0.5,340.833 -0.5,-0.5 Z"/></g>
<g><path style="opacity:1" fill="#151514" d="M 685.5,791.5 C 686.097,791.265 686.43,790.765 686.5,790C 679.409,766.031 675.576,741.531 675,716.5C 675.439,635.167 676.273,553.833 677.5,472.5C 677.333,453.5 677.167,434.5 677,415.5C 676.513,409.147 675.847,402.814 675,396.5C 674.51,397.793 674.343,399.127 674.5,400.5C 671.645,362.098 658.812,327.431 636,296.5C 604.213,260.004 564.046,244.504 515.5,250C 464.267,257.364 421.1,279.864 386,317.5C 373.971,332.555 364.805,349.221 358.5,367.5C 357.069,367.881 356.236,368.881 356,370.5C 354.35,376.432 353.017,382.432 352,388.5C 351.333,491.833 351.333,595.167 352,698.5C 352.333,701.833 352.667,705.167 353,708.5C 353.495,706.527 353.662,704.527 353.5,702.5C 355.029,729.938 362.196,755.938 375,780.5C 388.892,800.889 407.392,815.723 430.5,825C 433.134,827.293 433.134,829.46 430.5,831.5C 430.631,830.624 430.298,829.957 429.5,829.5C 342.373,830.164 255.373,830.831 168.5,831.5C 165.5,829.678 164.833,827.178 166.5,824C 206.53,805.156 229.363,773.656 235,729.5C 240.871,687.715 243.371,645.715 242.5,603.5C 243.317,605.969 243.817,608.635 244,611.5C 243.815,534.503 243.482,457.503 243,380.5C 242.973,374.082 242.473,369.749 241.5,367.5C 240.346,341.928 235.512,316.928 227,292.5C 217.991,268.494 201.825,251.327 178.5,241C 170.745,239.026 163.245,236.526 156,233.5C 155.257,231.559 155.424,229.726 156.5,228C 218.071,207.143 279.737,186.476 341.5,166C 345.781,164.542 348.947,165.708 351,169.5C 351.167,214.17 351.667,258.837 352.5,303.5C 389.466,257.352 433.799,220.186 485.5,192C 516.655,175.961 549.655,165.961 584.5,162C 649.638,157.336 703.472,179.503 746,228.5C 771.062,262.661 785.728,300.994 790,343.5C 792.464,377.789 793.13,412.122 792,446.5C 790.221,481.18 788.221,515.846 786,550.5C 783.735,597.477 783.068,644.477 784,691.5C 784.667,717.511 790.667,742.178 802,765.5C 811.221,783.054 824.721,796.221 842.5,805C 852.435,809.067 862.768,811.4 873.5,812C 876.915,813.143 877.249,814.81 874.5,817C 851.149,828.561 827.149,838.561 802.5,847C 786.036,851.428 769.369,852.761 752.5,851C 719.059,843.622 696.726,823.788 685.5,791.5 Z"/></g>
<g><path style="opacity:1" fill="#020202" d="M 242.5,603.5 C 242.747,524.829 242.414,446.162 241.5,367.5C 242.473,369.749 242.973,374.082 243,380.5C 243.482,457.503 243.815,534.503 244,611.5C 243.817,608.635 243.317,605.969 242.5,603.5 Z"/></g>
<g><path style="opacity:1" fill="#1a1a19" d="M 685.5,791.5 C 677.492,763.782 673.326,735.448 673,706.5C 673.67,621.165 674.836,535.831 676.5,450.5C 676.35,433.808 675.684,417.142 674.5,400.5C 674.343,399.127 674.51,397.793 675,396.5C 675.847,402.814 676.513,409.147 677,415.5C 677.167,434.5 677.333,453.5 677.5,472.5C 676.273,553.833 675.439,635.167 675,716.5C 675.576,741.531 679.409,766.031 686.5,790C 686.43,790.765 686.097,791.265 685.5,791.5 Z"/></g>
<g><path style="opacity:1" fill="#020202" d="M 358.5,367.5 C 356.1,374.991 354.267,382.658 353,390.5C 352.191,494.508 352.358,598.508 353.5,702.5C 353.662,704.527 353.495,706.527 353,708.5C 352.667,705.167 352.333,701.833 352,698.5C 351.333,595.167 351.333,491.833 352,388.5C 353.017,382.432 354.35,376.432 356,370.5C 356.236,368.881 357.069,367.881 358.5,367.5 Z"/></g>
<g><path style="opacity:1" fill="#000000" d="M 430.5,831.5 C 343.167,831.5 255.833,831.5 168.5,831.5C 255.373,830.831 342.373,830.164 429.5,829.5C 430.298,829.957 430.631,830.624 430.5,831.5 Z"/></g>
</svg>
