<?xml version="1.0" encoding="UTF-8"?>
<!DOCTYPE svg PUBLIC "-//W3C//DTD SVG 1.1//EN" "http://www.w3.org/Graphics/SVG/1.1/DTD/svg11.dtd">
<svg xmlns="http://www.w3.org/2000/svg" version="1.1" width="1024px" height="1024px" style="shape-rendering:geometricPrecision; text-rendering:geometricPrecision; image-rendering:optimizeQuality; fill-rule:evenodd; clip-rule:evenodd" xmlns:xlink="http://www.w3.org/1999/xlink">
<g><path style="opacity:1" fill="#fefefe" d="M -0.5,-0.5 C 340.833,-0.5 682.167,-0.5 1023.5,-0.5C 1023.5,340.833 1023.5,682.167 1023.5,1023.5C 682.167,1023.5 340.833,1023.5 -0.5,1023.5C -0.5,682.167 -0.5,340.833 -0.5,-0.5 Z"/></g>
<g><path style="opacity:1" fill="#0f100e" d="M 491.5,166.5 C 581.853,162.895 661.853,189.395 731.5,246C 807.354,313.982 845.687,399.149 846.5,501.5C 846.323,588.533 820.156,666.533 768,735.5C 707.1,807.705 629.267,847.872 534.5,856C 413.534,862.416 315.034,818.916 239,725.5C 178.081,636.028 158.414,538.028 180,431.5C 210.251,309.92 284.084,227.42 401.5,184C 430.921,174.482 460.921,168.648 491.5,166.5 Z"/></g>
<g><path style="opacity:1" fill="#fefefe" d="M 473.5,218.5 C 535.881,217.23 588.381,239.23 631,284.5C 664.876,323.568 688.876,368.235 703,418.5C 724.329,494.306 724.995,570.306 705,646.5C 694.854,685.466 676.854,720.132 651,750.5C 602.754,798.855 545.587,813.688 479.5,795C 433.155,779.308 395.988,751.475 368,711.5C 335.747,664.294 315.08,612.294 306,555.5C 293.474,481.454 301.474,409.787 330,340.5C 346.646,300.864 372.479,268.698 407.5,244C 427.759,230.693 449.759,222.193 473.5,218.5 Z"/></g>
</svg>
