<?xml version="1.0" encoding="UTF-8"?>
<!DOCTYPE svg PUBLIC "-//W3C//DTD SVG 1.1//EN" "http://www.w3.org/Graphics/SVG/1.1/DTD/svg11.dtd">
<svg xmlns="http://www.w3.org/2000/svg" version="1.1" width="1024px" height="1024px" style="shape-rendering:geometricPrecision; text-rendering:geometricPrecision; image-rendering:optimizeQuality; fill-rule:evenodd; clip-rule:evenodd" xmlns:xlink="http://www.w3.org/1999/xlink">
<g><path style="opacity:1" fill="#fefefe" d="M -0.5,-0.5 C 340.833,-0.5 682.167,-0.5 1023.5,-0.5C 1023.5,340.833 1023.5,682.167 1023.5,1023.5C 682.167,1023.5 340.833,1023.5 -0.5,1023.5C -0.5,682.167 -0.5,340.833 -0.5,-0.5 Z"/></g>
<g><path style="opacity:1" fill="#151715" d="M 415.5,70.5 C 445.11,67.5448 464.276,80.2115 473,108.5C 476.532,134.946 466.366,153.78 442.5,165C 420.686,171.392 402.186,166.225 387,149.5C 375.539,131.407 374.539,112.741 384,93.5C 391.605,81.7888 402.105,74.1221 415.5,70.5 Z"/></g>
<g><path style="opacity:1" fill="#161715" d="M 589.5,69.5 C 619.716,68.8447 638.216,83.178 645,112.5C 646.891,132.516 639.724,148.349 623.5,160C 596.638,173.74 573.804,168.907 555,145.5C 541.345,118.295 546.511,95.4614 570.5,77C 576.599,73.5847 582.932,71.0847 589.5,69.5 Z"/></g>
<g><path style="opacity:1" fill="#151715" d="M 493.5,204.5 C 588.613,200.022 669.779,231.022 737,297.5C 798.365,365.713 829.199,446.046 829.5,538.5C 828.537,604.021 812.703,665.687 782,723.5C 710.929,838.62 607.429,890.453 471.5,879C 354.55,863.647 271.717,802.48 223,695.5C 181.471,595.907 181.137,496.24 222,396.5C 269.369,296.375 347.202,234.208 455.5,210C 468.266,207.83 480.933,205.997 493.5,204.5 Z"/></g>
<g><path style="opacity:1" fill="#fefefe" d="M 476.5,246.5 C 524.121,243.545 567.121,256.045 605.5,284C 643.371,312.559 671.538,348.726 690,392.5C 720.737,466.728 730.737,543.728 720,623.5C 713.773,671.515 698.773,716.515 675,758.5C 628.603,828.758 564.103,854.591 481.5,836C 441.707,823.851 408.207,802.018 381,770.5C 342.309,722.853 317.642,668.52 307,607.5C 297.353,554.028 296.02,500.362 303,446.5C 309.983,401.532 325.983,360.199 351,322.5C 382.392,279.945 424.225,254.612 476.5,246.5 Z"/></g>
</svg>
