<?xml version="1.0" encoding="UTF-8"?>
<!DOCTYPE svg PUBLIC "-//W3C//DTD SVG 1.1//EN" "http://www.w3.org/Graphics/SVG/1.1/DTD/svg11.dtd">
<svg xmlns="http://www.w3.org/2000/svg" version="1.1" width="1024px" height="1024px" style="shape-rendering:geometricPrecision; text-rendering:geometricPrecision; image-rendering:optimizeQuality; fill-rule:evenodd; clip-rule:evenodd" xmlns:xlink="http://www.w3.org/1999/xlink">
<g><path style="opacity:1" fill="#fefefe" d="M -0.5,-0.5 C 340.833,-0.5 682.167,-0.5 1023.5,-0.5C 1023.5,340.833 1023.5,682.167 1023.5,1023.5C 682.167,1023.5 340.833,1023.5 -0.5,1023.5C -0.5,682.167 -0.5,340.833 -0.5,-0.5 Z"/></g>
<g><path style="opacity:1" fill="#010101" d="M 419.5,132.5 C 452.56,131.078 472.727,146.411 480,178.5C 481.886,201.563 473.052,219.063 453.5,231C 432.545,241.227 412.879,239.227 394.5,225C 374.475,204.193 371.308,181.026 385,155.5C 393.679,143.423 405.179,135.757 419.5,132.5 Z"/></g>
<g><path style="opacity:1" fill="#000000" d="M 586.5,132.5 C 616.901,130.274 636.735,143.607 646,172.5C 650.608,200.45 640.442,220.95 615.5,234C 589.243,242.276 568.409,235.109 553,212.5C 539.752,186.438 543.585,163.271 564.5,143C 571.266,138.115 578.6,134.615 586.5,132.5 Z"/></g>
<g><path style="opacity:1" fill="#000000" d="M 496.5,281.5 C 582.378,277.22 655.212,305.554 715,366.5C 757.314,415.837 780.981,473.17 786,538.5C 793.665,621.517 773.998,697.183 727,765.5C 656.246,854.657 564.412,889.49 451.5,870C 365.028,852.515 302.861,804.015 265,724.5C 231.441,648.782 225.107,570.782 246,490.5C 274.9,391.934 338.066,326.434 435.5,294C 455.547,287.732 475.88,283.565 496.5,281.5 Z"/></g>
<g><path style="opacity:1" fill="#fefefe" d="M 474.5,325.5 C 515.462,323.656 552.129,335.156 584.5,360C 627.795,395.716 656.628,440.882 671,495.5C 688.698,563.855 690.032,632.522 675,701.5C 664.775,742.337 643.941,776.504 612.5,804C 560.386,840.164 507.053,841.831 452.5,809C 425.861,791.362 404.361,768.862 388,741.5C 364.388,702.333 349.721,660 344,614.5C 336.738,560.792 338.738,507.458 350,454.5C 360.04,416.178 378.873,383.011 406.5,355C 426.235,338.296 448.902,328.463 474.5,325.5 Z"/></g>
</svg>
