<?xml version="1.0" encoding="UTF-8"?>
<!DOCTYPE svg PUBLIC "-//W3C//DTD SVG 1.1//EN" "http://www.w3.org/Graphics/SVG/1.1/DTD/svg11.dtd">
<svg xmlns="http://www.w3.org/2000/svg" version="1.1" width="1024px" height="1024px" style="shape-rendering:geometricPrecision; text-rendering:geometricPrecision; image-rendering:optimizeQuality; fill-rule:evenodd; clip-rule:evenodd" xmlns:xlink="http://www.w3.org/1999/xlink">
<g><path style="opacity:1" fill="#fefdfb" d="M -0.5,-0.5 C 340.833,-0.5 682.167,-0.5 1023.5,-0.5C 1023.5,340.833 1023.5,682.167 1023.5,1023.5C 682.167,1023.5 340.833,1023.5 -0.5,1023.5C -0.5,682.167 -0.5,340.833 -0.5,-0.5 Z"/></g>
<g><path style="opacity:1" fill="#10130f" d="M 302.5,734.5 C 302.335,738.182 302.501,741.848 303,745.5C 303.958,728.845 304.625,712.179 305,695.5C 305.667,558.5 305.667,421.5 305,284.5C 305.418,252.011 301.751,220.011 294,188.5C 293.333,186.5 292.667,184.5 292,182.5C 291.536,183.094 291.369,183.761 291.5,184.5C 286.991,169.473 278.325,157.306 265.5,148C 249.269,137.221 231.603,129.721 212.5,125.5C 212.281,124.325 212.614,123.325 213.5,122.5C 215.444,121.811 217.444,121.311 219.5,121C 262.83,121.348 306.164,121.348 349.5,121C 390.908,118.608 432.242,115.275 473.5,111C 527.342,107.47 580.342,112.47 632.5,126C 685.585,140.804 727.752,170.637 759,215.5C 793.842,273.132 799.175,333.465 775,396.5C 743.527,466.967 690.36,511.8 615.5,531C 569.775,541.726 525.442,537.726 482.5,519C 469.598,513.26 458.931,504.76 450.5,493.5C 451.348,490.825 453.182,489.491 456,489.5C 492.55,502.754 529.717,504.921 567.5,496C 628.882,477.618 666.382,437.118 680,374.5C 692.386,305.671 673.886,246.838 624.5,198C 596.163,174.318 563.497,160.318 526.5,156C 495.529,151.883 465.196,154.549 435.5,164C 421.963,168.17 410.796,175.67 402,186.5C 399.006,191.816 397.006,197.482 396,203.5C 394.759,228.141 394.093,252.807 394,277.5C 392.667,397.498 392.333,517.498 393,637.5C 393.671,690.601 396.338,743.601 401,796.5C 403.728,819.036 411.728,839.369 425,857.5C 432.334,865.405 440.501,872.238 449.5,878C 461.656,884.413 473.989,890.247 486.5,895.5C 485.624,896.251 484.624,896.751 483.5,897C 478,897.167 472.5,897.333 467,897.5C 429.846,895.987 392.679,894.987 355.5,894.5C 309.817,895.418 264.15,896.584 218.5,898C 217.289,897.107 217.289,896.274 218.5,895.5C 237.755,887.631 254.921,876.631 270,862.5C 283.737,846.351 292.07,827.684 295,806.5C 298.58,782.46 301.08,758.46 302.5,734.5 Z"/></g>
<g><path style="opacity:1" fill="#0c0c0c" d="M 302.5,734.5 C 304.868,576.175 305.035,417.842 303,259.5C 302.099,234.023 298.266,209.023 291.5,184.5C 291.369,183.761 291.536,183.094 292,182.5C 292.667,184.5 293.333,186.5 294,188.5C 301.751,220.011 305.418,252.011 305,284.5C 305.667,421.5 305.667,558.5 305,695.5C 304.625,712.179 303.958,728.845 303,745.5C 302.501,741.848 302.335,738.182 302.5,734.5 Z"/></g>
</svg>
