<?xml version="1.0" encoding="UTF-8"?>
<!DOCTYPE svg PUBLIC "-//W3C//DTD SVG 1.1//EN" "http://www.w3.org/Graphics/SVG/1.1/DTD/svg11.dtd">
<svg xmlns="http://www.w3.org/2000/svg" version="1.1" width="1024px" height="1536px" style="shape-rendering:geometricPrecision; text-rendering:geometricPrecision; image-rendering:optimizeQuality; fill-rule:evenodd; clip-rule:evenodd" xmlns:xlink="http://www.w3.org/1999/xlink">
<g><path style="opacity:1" fill="#fefefe" d="M -0.5,-0.5 C 340.833,-0.5 682.167,-0.5 1023.5,-0.5C 1023.5,511.5 1023.5,1023.5 1023.5,1535.5C 682.167,1535.5 340.833,1535.5 -0.5,1535.5C -0.5,1023.5 -0.5,511.5 -0.5,-0.5 Z"/></g>
<g><path style="opacity:1" fill="#0e100d" d="M 289.5,1147.5 C 291.586,1132.57 292.752,1114.91 293,1094.5C 293.481,890.992 293.981,687.492 294.5,484C 294.266,455.121 293.099,426.288 291,397.5C 289.959,384.589 287.626,371.922 284,359.5C 283.215,356.564 282.049,354.564 280.5,353.5C 270.191,330.303 253.191,313.803 229.5,304C 221.093,300.292 212.426,297.459 203.5,295.5C 203.5,293.5 203.5,291.5 203.5,289.5C 263.525,289.595 321.191,278.095 376.5,255C 390.561,248.891 403.728,241.391 416,232.5C 413.924,266.473 412.091,300.473 410.5,334.5C 411.552,334.649 412.552,334.483 413.5,334C 479.955,257.408 562.622,231.408 661.5,256C 743.959,282.458 799.459,336.624 828,418.5C 853.336,495.588 856.336,573.588 837,652.5C 814.527,740.047 765.36,807.88 689.5,856C 618.026,896.642 543.026,904.642 464.5,880C 445.132,873.486 428.132,863.153 413.5,849C 412.833,848.333 412.167,848.333 411.5,849C 412.332,940.763 412.832,1032.6 413,1124.5C 413.14,1158.87 419.807,1191.87 433,1223.5C 447.927,1253.26 470.76,1274.59 501.5,1287.5C 502.466,1289.4 502.799,1291.4 502.5,1293.5C 454.356,1291.4 406.189,1290.06 358,1289.5C 305.477,1290 252.977,1291.33 200.5,1293.5C 200.178,1291.28 200.845,1289.44 202.5,1288C 248.439,1266 275.939,1229.83 285,1179.5C 286.574,1168.7 288.074,1158.03 289.5,1147.5 Z"/></g>
<g><path style="opacity:1" fill="#fefefd" d="M 413.5,759.5 C 411.354,638.177 411.02,516.844 412.5,395.5C 414.09,387.183 416.924,379.183 421,371.5C 459.254,333.652 505.087,319.152 558.5,328C 599.656,335.99 633.489,356.157 660,388.5C 691.334,431.123 711.001,478.79 719,531.5C 726.283,579.167 726.283,626.834 719,674.5C 713.337,709.802 701.003,742.469 682,772.5C 651.404,815.037 609.904,839.204 557.5,845C 511.917,847.252 472.084,833.419 438,803.5C 425.907,790.977 417.74,776.311 413.5,759.5 Z"/></g>
<g><path style="opacity:1" fill="#0b0b0a" d="M 412.5,395.5 C 411.02,516.844 411.354,638.177 413.5,759.5C 411.889,756.796 410.889,752.63 410.5,747C 410.833,746.667 411.167,746.333 411.5,746C 410.762,657.568 410.096,569.068 409.5,480.5C 410,454.5 410.5,428.5 411,402.5C 410.99,398.654 411.49,396.321 412.5,395.5 Z"/></g>
<g><path style="opacity:1" fill="#020302" d="M 289.5,1147.5 C 290.373,1125.84 291.206,1104.17 292,1082.5C 292.667,865.5 292.667,648.5 292,431.5C 291.926,404.898 288.092,378.898 280.5,353.5C 282.049,354.564 283.215,356.564 284,359.5C 287.626,371.922 289.959,384.589 291,397.5C 293.099,426.288 294.266,455.121 294.5,484C 293.981,687.492 293.481,890.992 293,1094.5C 292.752,1114.91 291.586,1132.57 289.5,1147.5 Z"/></g>
</svg>
