<?xml version="1.0" encoding="UTF-8"?>
<!DOCTYPE svg PUBLIC "-//W3C//DTD SVG 1.1//EN" "http://www.w3.org/Graphics/SVG/1.1/DTD/svg11.dtd">
<svg xmlns="http://www.w3.org/2000/svg" version="1.1" width="1024px" height="1024px" style="shape-rendering:geometricPrecision; text-rendering:geometricPrecision; image-rendering:optimizeQuality; fill-rule:evenodd; clip-rule:evenodd" xmlns:xlink="http://www.w3.org/1999/xlink">
<g><path style="opacity:0.008" fill="#161614" d="M 527.5,242.5 C 528.833,243.167 528.833,243.167 527.5,242.5 Z"/></g>
<g><path style="opacity:0.025" fill="#1c1c1a" d="M 513.5,244.5 C 509.833,244.5 506.167,244.5 502.5,244.5C 502.783,243.711 503.283,243.044 504,242.5C 507.27,243.132 510.437,243.799 513.5,244.5 Z"/></g>
<g><path style="opacity:0.998" fill="#000000" d="M 565.5,249.5 C 581.364,253.583 597.031,258.583 612.5,264.5C 619.667,268.257 626.667,271.591 633.5,274.5C 633.842,275.338 634.508,275.672 635.5,275.5C 649.138,283.655 662.471,292.322 675.5,301.5C 679.515,305.513 683.848,309.179 688.5,312.5C 709.844,331.836 727.844,353.836 742.5,378.5C 777.029,443.756 784.196,511.756 764,582.5C 756.334,607.688 745.5,631.354 731.5,653.5C 714.241,678.091 693.907,699.758 670.5,718.5C 668.246,719.124 666.579,720.457 665.5,722.5C 647.001,734.748 627.667,745.415 607.5,754.5C 594.143,758.733 580.81,762.733 567.5,766.5C 499.55,779.09 435.716,768.757 376,735.5C 340.623,712.29 311.456,682.956 288.5,647.5C 286.07,642.963 283.403,638.63 280.5,634.5C 278.341,628.849 275.674,623.516 272.5,618.5C 271.925,615.088 270.592,612.088 268.5,609.5C 242.382,544.244 241.049,478.244 264.5,411.5C 267.538,405.406 270.204,399.073 272.5,392.5C 293.277,351.816 321.61,318.816 357.5,293.5C 374.021,282.158 391.021,272.491 408.5,264.5C 433.53,254.243 459.53,247.743 486.5,245C 491.823,244.501 497.156,244.334 502.5,244.5C 506.167,244.5 509.833,244.5 513.5,244.5C 530.854,244.389 548.187,246.056 565.5,249.5 Z"/></g>
<g><path style="opacity:0.008" fill="#141213" d="M 455.5,247.5 C 456.833,248.167 456.833,248.167 455.5,247.5 Z"/></g>
<g><path style="opacity:0.004" fill="#131515" d="M 457.5,247.5 C 458.833,248.167 458.833,248.167 457.5,247.5 Z"/></g>
<g><path style="opacity:0.004" fill="#111315" d="M 562.5,248.5 C 562.897,247.475 563.563,247.308 564.5,248C 563.906,248.464 563.239,248.631 562.5,248.5 Z"/></g>
<g><path style="opacity:0.008" fill="#131312" d="M 565.5,249.5 C 565.897,248.475 566.563,248.308 567.5,249C 566.906,249.464 566.239,249.631 565.5,249.5 Z"/></g>
<g><path style="opacity:0.004" fill="#151614" d="M 446.5,249.5 C 447.833,250.167 447.833,250.167 446.5,249.5 Z"/></g>
<g><path style="opacity:0.008" fill="#151412" d="M 573.5,249.5 C 574.833,250.167 574.833,250.167 573.5,249.5 Z"/></g>
<g><path style="opacity:0.004" fill="#131412" d="M 591.5,255.5 C 592.833,256.167 592.833,256.167 591.5,255.5 Z"/></g>
<g><path style="opacity:0.02" fill="#121612" d="M 408.5,264.5 C 407.833,263.167 407.833,263.167 408.5,264.5 Z"/></g>
<g><path style="opacity:0.004" fill="#111212" d="M 612.5,263.5 C 613.833,264.167 613.833,264.167 612.5,263.5 Z"/></g>
<g><path style="opacity:0.008" fill="#111311" d="M 615.5,264.5 C 614.833,263.167 614.833,263.167 615.5,264.5 Z"/></g>
<g><path style="opacity:0.004" fill="#141513" d="M 615.5,264.5 C 616.833,265.167 616.833,265.167 615.5,264.5 Z"/></g>
<g><path style="opacity:0.004" fill="#141211" d="M 633.5,273.5 C 634.833,274.167 634.833,274.167 633.5,273.5 Z"/></g>
<g><path style="opacity:0.008" fill="#111311" d="M 383.5,274.5 C 384.833,275.167 384.833,275.167 383.5,274.5 Z"/></g>
<g><path style="opacity:0.008" fill="#101211" d="M 635.5,274.5 C 636.833,275.167 636.833,275.167 635.5,274.5 Z"/></g>
<g><path style="opacity:0.02" fill="#151417" d="M 375.5,279.5 C 376.833,280.167 376.833,280.167 375.5,279.5 Z"/></g>
<g><path style="opacity:0.004" fill="#131311" d="M 648.5,281.5 C 649.833,282.167 649.833,282.167 648.5,281.5 Z"/></g>
<g><path style="opacity:0.008" fill="#121413" d="M 362.5,287.5 C 363.833,288.167 363.833,288.167 362.5,287.5 Z"/></g>
<g><path style="opacity:0.004" fill="#141614" d="M 357.5,293.5 C 356.833,292.167 356.833,292.167 357.5,293.5 Z"/></g>
<g><path style="opacity:0.004" fill="#151412" d="M 675.5,300.5 C 676.833,301.167 676.833,301.167 675.5,300.5 Z"/></g>
<g><path style="opacity:0.008" fill="#131012" d="M 688.5,311.5 C 689.833,312.167 689.833,312.167 688.5,311.5 Z"/></g>
<g><path style="opacity:0.004" fill="#212220" d="M 275.5,333.5 C 276.833,334.167 276.833,334.167 275.5,333.5 Z"/></g>
<g><path style="opacity:0.004" fill="#121212" d="M 287.5,362.5 C 288.833,363.167 288.833,363.167 287.5,362.5 Z"/></g>
<g><path style="opacity:0.004" fill="#121212" d="M 280.5,367.5 C 281.833,368.167 281.833,368.167 280.5,367.5 Z"/></g>
<g><path style="opacity:0.006" fill="#111413" d="M 742.5,378.5 C 742.369,377.761 742.536,377.094 743,376.5C 743.692,377.437 743.525,378.103 742.5,378.5 Z"/></g>
<g><path style="opacity:0.004" fill="#141616" d="M 272.5,392.5 C 271.833,391.167 271.833,391.167 272.5,392.5 Z"/></g>
<g><path style="opacity:0.012" fill="#141513" d="M 264.5,411.5 C 263.833,410.167 263.833,410.167 264.5,411.5 Z"/></g>
<g><path style="opacity:0.006" fill="#151315" d="M 765.5,429.5 C 766.525,429.897 766.692,430.563 766,431.5C 765.536,430.906 765.369,430.239 765.5,429.5 Z"/></g>
<g><path style="opacity:0.004" fill="#131412" d="M 248.5,466.5 C 249.833,467.167 249.833,467.167 248.5,466.5 Z"/></g>
<g><path style="opacity:0.004" fill="#121312" d="M 774.5,471.5 C 775.833,472.167 775.833,472.167 774.5,471.5 Z"/></g>
<g><path style="opacity:0.004" fill="#131513" d="M 247.5,534.5 C 248.833,535.167 248.833,535.167 247.5,534.5 Z"/></g>
<g><path style="opacity:0.008" fill="#141412" d="M 247.5,537.5 C 248.833,538.167 248.833,538.167 247.5,537.5 Z"/></g>
<g><path style="opacity:0.012" fill="#141516" d="M 774.5,537.5 C 775.833,538.167 775.833,538.167 774.5,537.5 Z"/></g>
<g><path style="opacity:0.004" fill="#151413" d="M 250.5,557.5 C 251.833,558.167 251.833,558.167 250.5,557.5 Z"/></g>
<g><path style="opacity:0.006" fill="#151516" d="M 255.5,575.5 C 256.525,575.897 256.692,576.563 256,577.5C 255.536,576.906 255.369,576.239 255.5,575.5 Z"/></g>
<g><path style="opacity:0.012" fill="#141615" d="M 256.5,578.5 C 257.833,579.167 257.833,579.167 256.5,578.5 Z"/></g>
<g><path style="opacity:0.004" fill="#171715" d="M 257.5,582.5 C 258.833,583.167 258.833,583.167 257.5,582.5 Z"/></g>
<g><path style="opacity:0.008" fill="#171515" d="M 263.5,600.5 C 264.525,600.897 264.692,601.563 264,602.5C 263.536,601.906 263.369,601.239 263.5,600.5 Z"/></g>
<g><path style="opacity:0.008" fill="#171616" d="M 265.5,605.5 C 266.833,606.167 266.833,606.167 265.5,605.5 Z"/></g>
<g><path style="opacity:0.004" fill="#141615" d="M 268.5,609.5 C 267.833,610.167 267.833,610.167 268.5,609.5 Z"/></g>
<g><path style="opacity:0.012" fill="#141313" d="M 272.5,618.5 C 271.833,619.167 271.833,619.167 272.5,618.5 Z"/></g>
<g><path style="opacity:0.004" fill="#151713" d="M 275.5,627.5 C 276.833,628.167 276.833,628.167 275.5,627.5 Z"/></g>
<g><path style="opacity:0.004" fill="#161613" d="M 280.5,634.5 C 279.833,635.167 279.833,635.167 280.5,634.5 Z"/></g>
<g><path style="opacity:0.004" fill="#141613" d="M 281.5,642.5 C 282.833,643.167 282.833,643.167 281.5,642.5 Z"/></g>
<g><path style="opacity:0.006" fill="#141416" d="M 288.5,647.5 C 288.631,648.239 288.464,648.906 288,649.5C 287.308,648.563 287.475,647.897 288.5,647.5 Z"/></g>
<g><path style="opacity:0.004" fill="#141616" d="M 731.5,653.5 C 732.833,654.167 732.833,654.167 731.5,653.5 Z"/></g>
<g><path style="opacity:0.004" fill="#161514" d="M 676.5,714.5 C 677.833,715.167 677.833,715.167 676.5,714.5 Z"/></g>
<g><path style="opacity:0.012" fill="#141617" d="M 670.5,718.5 C 671.833,719.167 671.833,719.167 670.5,718.5 Z"/></g>
<g><path style="opacity:0.004" fill="#151615" d="M 665.5,722.5 C 666.833,723.167 666.833,723.167 665.5,722.5 Z"/></g>
<g><path style="opacity:0.004" fill="#151413" d="M 607.5,754.5 C 608.833,755.167 608.833,755.167 607.5,754.5 Z"/></g>
<g><path style="opacity:0.004" fill="#101311" d="M 424.5,758.5 C 425.833,759.167 425.833,759.167 424.5,758.5 Z"/></g>
<g><path style="opacity:0.008" fill="#10130e" d="M 567.5,766.5 C 568.833,767.167 568.833,767.167 567.5,766.5 Z"/></g>
<g><path style="opacity:0.008" fill="#131312" d="M 467.5,769.5 C 468.833,770.167 468.833,770.167 467.5,769.5 Z"/></g>
<g><path style="opacity:0.004" fill="#141412" d="M 549.5,770.5 C 550.833,771.167 550.833,771.167 549.5,770.5 Z"/></g>
<g><path style="opacity:0.004" fill="#121312" d="M 483.5,772.5 C 484.601,771.402 485.934,771.235 487.5,772C 486.207,772.49 484.873,772.657 483.5,772.5 Z"/></g>
<g><path style="opacity:0.008" fill="#141512" d="M 540.5,771.5 C 541.833,772.167 541.833,772.167 540.5,771.5 Z"/></g>
<g><path style="opacity:0.004" fill="#595a59" d="M 307.5,933.5 C 308.833,934.167 308.833,934.167 307.5,933.5 Z"/></g>
</svg>
