<?xml version="1.0" encoding="UTF-8"?>
<!DOCTYPE svg PUBLIC "-//W3C//DTD SVG 1.1//EN" "http://www.w3.org/Graphics/SVG/1.1/DTD/svg11.dtd">
<svg xmlns="http://www.w3.org/2000/svg" version="1.1" width="1024px" height="1024px" style="shape-rendering:geometricPrecision; text-rendering:geometricPrecision; image-rendering:optimizeQuality; fill-rule:evenodd; clip-rule:evenodd" xmlns:xlink="http://www.w3.org/1999/xlink">
<g><path style="opacity:1" fill="#fefdfc" d="M -0.5,-0.5 C 340.833,-0.5 682.167,-0.5 1023.5,-0.5C 1023.5,340.833 1023.5,682.167 1023.5,1023.5C 682.167,1023.5 340.833,1023.5 -0.5,1023.5C -0.5,682.167 -0.5,340.833 -0.5,-0.5 Z"/></g>
<g><path style="opacity:1" fill="#121412" d="M 487.5,112.5 C 597.676,110.505 684.843,153.839 749,242.5C 798.548,316.883 817.548,398.55 806,487.5C 788.95,599.514 731.784,684.014 634.5,741C 615.757,751.026 596.09,758.692 575.5,764C 624.242,790.038 673.575,815.038 723.5,839C 740.319,847.717 757.985,854.051 776.5,858C 786.833,858.667 797.167,858.667 807.5,858C 820.763,855.766 833.763,852.766 846.5,849C 848.26,852.83 847.26,855.83 843.5,858C 820.167,876.667 796.833,895.333 773.5,914C 764.675,920.579 755.675,926.913 746.5,933C 742.262,933.823 738.262,933.156 734.5,931C 709.659,917.412 684.659,904.079 659.5,891C 597.172,855.505 535.172,819.505 473.5,783C 454.251,775.937 434.585,770.271 414.5,766C 345.154,744.97 287.988,706.137 243,649.5C 189.59,574.189 168.923,490.523 181,398.5C 194.99,290.294 248.49,208.461 341.5,153C 387.317,128.777 435.983,115.277 487.5,112.5 Z"/></g>
<g><path style="opacity:1" fill="#fefdfc" d="M 454.5,152.5 C 498.239,148.697 538.572,158.53 575.5,182C 619.198,211.031 653.032,248.864 677,295.5C 722.292,388.999 730.292,485.665 701,585.5C 684.52,640.688 652.02,683.521 603.5,714C 557.356,738.414 509.356,742.747 459.5,727C 428.713,716.617 401.38,700.617 377.5,679C 315.984,621.243 281.151,550.076 273,465.5C 265.916,403.156 272.916,342.489 294,283.5C 311.907,238.608 341.073,203.108 381.5,177C 404.36,164.102 428.693,155.936 454.5,152.5 Z"/></g>
</svg>
