<?xml version="1.0" encoding="UTF-8"?>
<!DOCTYPE svg PUBLIC "-//W3C//DTD SVG 1.1//EN" "http://www.w3.org/Graphics/SVG/1.1/DTD/svg11.dtd">
<svg xmlns="http://www.w3.org/2000/svg" version="1.1" width="1024px" height="1024px" style="shape-rendering:geometricPrecision; text-rendering:geometricPrecision; image-rendering:optimizeQuality; fill-rule:evenodd; clip-rule:evenodd" xmlns:xlink="http://www.w3.org/1999/xlink">
<g><path style="opacity:1" fill="#fefefe" d="M -0.5,-0.5 C 340.833,-0.5 682.167,-0.5 1023.5,-0.5C 1023.5,340.833 1023.5,682.167 1023.5,1023.5C 682.167,1023.5 340.833,1023.5 -0.5,1023.5C -0.5,682.167 -0.5,340.833 -0.5,-0.5 Z"/></g>
<g><path style="opacity:1" fill="#151615" d="M 718.5,153.5 C 718.631,152.761 718.464,152.094 718,151.5C 715.718,162.369 714.385,173.369 714,184.5C 712.846,217.488 712.18,250.488 712,283.5C 711.333,432.833 711.333,582.167 712,731.5C 712.177,727.644 712.677,723.977 713.5,720.5C 712.438,757.214 715.605,793.548 723,829.5C 728.085,843.67 734.752,857.003 743,869.5C 751.489,879.988 760.655,889.821 770.5,899C 731.289,895.148 691.955,894.481 652.5,897C 601.944,901.199 551.611,907.033 501.5,914.5C 498.553,913.219 496.219,911.219 494.5,908.5C 523.134,898.852 549.467,885.018 573.5,867C 587.93,854.568 598.43,839.401 605,821.5C 614.699,791.278 620.032,760.278 621,728.5C 622.736,668.508 622.902,608.508 621.5,548.5C 600.086,566.413 577.419,582.58 553.5,597C 485.096,634.173 414.096,640.173 340.5,615C 287.578,593.745 248.411,557.579 223,506.5C 208.155,472.939 201.322,437.772 202.5,401C 203.426,323.364 228.593,254.864 278,195.5C 323.741,144.539 380.241,112.039 447.5,98C 494.138,90.179 539.471,94.8456 583.5,112C 603.496,121.499 623.829,130.166 644.5,138C 656.588,139.382 667.921,137.049 678.5,131C 696.651,120.508 715.151,110.675 734,101.5C 736.897,102.523 739.064,104.357 740.5,107C 732.179,122.137 724.846,137.637 718.5,153.5 Z"/></g>
<g><path style="opacity:1" fill="#fefefe" d="M 460.5,148.5 C 502.527,145.003 540.527,155.503 574.5,180C 605.79,206.416 622.29,240.25 624,281.5C 624.635,335.172 624.301,388.838 623,442.5C 620.637,473.059 607.804,498.226 584.5,518C 531.978,559.903 473.645,570.57 409.5,550C 364.747,530.58 334.581,497.747 319,451.5C 300.94,387.651 302.607,324.318 324,261.5C 347.355,196.97 392.855,159.304 460.5,148.5 Z"/></g>
<g><path style="opacity:1" fill="#202020" d="M 718.5,153.5 C 715.74,175.065 714.24,196.732 714,218.5C 713.77,365.502 713.27,512.502 712.5,659.5C 712.702,679.837 713.035,700.171 713.5,720.5C 712.677,723.977 712.177,727.644 712,731.5C 711.333,582.167 711.333,432.833 712,283.5C 712.18,250.488 712.846,217.488 714,184.5C 714.385,173.369 715.718,162.369 718,151.5C 718.464,152.094 718.631,152.761 718.5,153.5 Z"/></g>
</svg>
