<?xml version="1.0" encoding="UTF-8"?>
<!DOCTYPE svg PUBLIC "-//W3C//DTD SVG 1.1//EN" "http://www.w3.org/Graphics/SVG/1.1/DTD/svg11.dtd">
<svg xmlns="http://www.w3.org/2000/svg" version="1.1" width="1024px" height="1024px" style="shape-rendering:geometricPrecision; text-rendering:geometricPrecision; image-rendering:optimizeQuality; fill-rule:evenodd; clip-rule:evenodd" xmlns:xlink="http://www.w3.org/1999/xlink">
<g><path style="opacity:1" fill="#fefefe" d="M -0.5,-0.5 C 340.833,-0.5 682.167,-0.5 1023.5,-0.5C 1023.5,340.833 1023.5,682.167 1023.5,1023.5C 682.167,1023.5 340.833,1023.5 -0.5,1023.5C -0.5,682.167 -0.5,340.833 -0.5,-0.5 Z"/></g>
<g><path style="opacity:1" fill="#171716" d="M 512.5,831.5 C 511.761,831.369 511.094,831.536 510.5,832C 519.48,834.586 519.48,836.252 510.5,837C 468.997,837.653 427.497,837.486 386,836.5C 342.325,837.498 298.825,838.164 255.5,838.5C 253.436,838.313 251.436,837.813 249.5,837C 248.483,835.951 248.316,834.784 249,833.5C 291.471,810.27 316.471,774.603 324,726.5C 326.922,709.947 328.922,693.28 330,676.5C 335.501,566.517 335.835,456.517 331,346.5C 330.178,323.609 327.511,300.942 323,278.5C 317.407,251.773 302.907,231.607 279.5,218C 266.614,212.39 253.614,207.057 240.5,202C 237.833,200 237.833,198 240.5,196C 242.957,194.438 245.624,193.438 248.5,193C 277.344,189.831 306.01,185.498 334.5,180C 367.785,171.571 400.952,162.737 434,153.5C 438.322,153.492 440.155,155.658 439.5,160C 434.521,204.188 429.354,248.355 424,292.5C 423.169,298.859 423.336,305.193 424.5,311.5C 437.714,290.779 451.547,270.446 466,250.5C 494.318,213.434 529.818,185.601 572.5,167C 628.16,148.136 682.826,150.803 736.5,175C 745.493,179.495 754.16,184.495 762.5,190C 765.432,192.423 767.765,195.257 769.5,198.5C 741.639,226.913 717.139,257.913 696,291.5C 688.885,303.395 682.552,315.728 677,328.5C 676.311,329.357 675.478,330.023 674.5,330.5C 672.554,300.118 660.887,274.284 639.5,253C 613.512,232.83 584.846,228.163 553.5,239C 527.817,249.429 505.651,264.929 487,285.5C 442.643,335.887 421.643,394.887 424,462.5C 423.179,523.84 423.513,585.174 425,646.5C 425.678,669.95 427.678,693.283 431,716.5C 434.967,746.747 446.3,773.747 465,797.5C 478.733,811.933 494.566,823.266 512.5,831.5 Z"/></g>
<g><path style="opacity:1" fill="#0e0e0e" d="M 512.5,831.5 C 514.593,832.045 516.593,832.878 518.5,834C 519.451,834.718 519.617,835.551 519,836.5C 514.687,838.085 510.187,838.919 505.5,839C 422.153,838.548 338.819,838.382 255.5,838.5C 298.825,838.164 342.325,837.498 386,836.5C 427.497,837.486 468.997,837.653 510.5,837C 519.48,836.252 519.48,834.586 510.5,832C 511.094,831.536 511.761,831.369 512.5,831.5 Z"/></g>
</svg>
