<?xml version="1.0" encoding="UTF-8"?>
<!DOCTYPE svg PUBLIC "-//W3C//DTD SVG 1.1//EN" "http://www.w3.org/Graphics/SVG/1.1/DTD/svg11.dtd">
<svg xmlns="http://www.w3.org/2000/svg" version="1.1" width="1024px" height="1024px" style="shape-rendering:geometricPrecision; text-rendering:geometricPrecision; image-rendering:optimizeQuality; fill-rule:evenodd; clip-rule:evenodd" xmlns:xlink="http://www.w3.org/1999/xlink">
<g><path style="opacity:1" fill="#fefefe" d="M -0.5,-0.5 C 340.833,-0.5 682.167,-0.5 1023.5,-0.5C 1023.5,340.833 1023.5,682.167 1023.5,1023.5C 682.167,1023.5 340.833,1023.5 -0.5,1023.5C -0.5,682.167 -0.5,340.833 -0.5,-0.5 Z"/></g>
<g><path style="opacity:1" fill="#0e0f0e" d="M 488.5,117.5 C 514.321,116.559 539.988,118.059 565.5,122C 594.408,128.394 623.075,135.727 651.5,144C 678.029,149.308 704.696,150.808 731.5,148.5C 710.094,198.383 693.094,249.716 680.5,302.5C 668.6,270.678 652.1,241.678 631,215.5C 578.953,161.195 516.453,143.362 443.5,162C 392.889,182.387 371.723,219.554 380,273.5C 386.296,294.121 397.129,311.954 412.5,327C 432.753,344.797 454.753,360.131 478.5,373C 519.833,394.333 561.167,415.667 602.5,437C 631.692,452.42 659.359,470.087 685.5,490C 753.197,549.113 773.364,621.613 746,707.5C 720.526,768.974 677.026,812.474 615.5,838C 571.09,855.154 525.09,862.154 477.5,859C 459.035,857.234 440.702,854.567 422.5,851C 390.263,842.921 357.929,835.254 325.5,828C 297.799,824.516 270.132,824.683 242.5,828.5C 241.833,828.167 241.167,827.833 240.5,827.5C 257.713,781.317 270.88,733.984 280,685.5C 283.333,667.5 286.667,649.5 290,631.5C 300.441,665.379 315.441,697.046 335,726.5C 383.199,791.013 447.699,821.846 528.5,819C 573.788,813.955 609.622,793.121 636,756.5C 665.045,703.338 660.045,653.671 621,607.5C 597.855,583.687 571.355,564.52 541.5,550C 500.551,529.526 459.884,508.526 419.5,487C 398.691,475.181 378.691,462.181 359.5,448C 319.861,417.57 295.361,377.736 286,328.5C 280.61,258.461 305.776,202.294 361.5,160C 392.17,139.549 425.837,126.549 462.5,121C 471.342,120.045 480.009,118.879 488.5,117.5 Z"/></g>
</svg>
