<?xml version="1.0" encoding="UTF-8"?>
<!DOCTYPE svg PUBLIC "-//W3C//DTD SVG 1.1//EN" "http://www.w3.org/Graphics/SVG/1.1/DTD/svg11.dtd">
<svg xmlns="http://www.w3.org/2000/svg" version="1.1" width="1024px" height="1024px" style="shape-rendering:geometricPrecision; text-rendering:geometricPrecision; image-rendering:optimizeQuality; fill-rule:evenodd; clip-rule:evenodd" xmlns:xlink="http://www.w3.org/1999/xlink">
<g><path style="opacity:0.004" fill="#818076" d="M 466.5,151.5 C 467.833,152.167 467.833,152.167 466.5,151.5 Z"/></g>
<g><path style="opacity:0.008" fill="#858274" d="M 469.5,151.5 C 470.833,152.167 470.833,152.167 469.5,151.5 Z"/></g>
<g><path style="opacity:0.004" fill="#838074" d="M 563.5,152.5 C 564.601,151.402 565.934,151.235 567.5,152C 566.207,152.49 564.873,152.657 563.5,152.5 Z"/></g>
<g><path style="opacity:0.004" fill="#848276" d="M 447.5,152.5 C 448.833,153.167 448.833,153.167 447.5,152.5 Z"/></g>
<g><path style="opacity:0.004" fill="#818075" d="M 464.5,151.5 C 465.773,152.077 465.773,152.743 464.5,153.5C 463.537,153.03 463.537,152.363 464.5,151.5 Z"/></g>
<g><path style="opacity:0.357" fill="#8e8c83" d="M 592.5,159.5 C 558.512,152.668 524.179,150.002 489.5,151.5C 506.197,149.484 523.364,149.484 541,151.5C 558.398,152.058 575.565,154.725 592.5,159.5 Z"/></g>
<g><path style="opacity:0.004" fill="#827e72" d="M 570.5,152.5 C 571.833,153.167 571.833,153.167 570.5,152.5 Z"/></g>
<g><path style="opacity:0.004" fill="#838277" d="M 581.5,152.5 C 582.833,153.167 582.833,153.167 581.5,152.5 Z"/></g>
<g><path style="opacity:0.004" fill="#828176" d="M 449.5,153.5 C 450.833,154.167 450.833,154.167 449.5,153.5 Z"/></g>
<g><path style="opacity:0.004" fill="#817f74" d="M 452.5,153.5 C 453.833,154.167 453.833,154.167 452.5,153.5 Z"/></g>
<g><path style="opacity:0.004" fill="#7d7c70" d="M 454.5,154.5 C 455.833,155.167 455.833,155.167 454.5,154.5 Z"/></g>
<g><path style="opacity:0.999" fill="#090a0a" d="M 489.5,151.5 C 524.179,150.002 558.512,152.668 592.5,159.5C 594.099,159.232 595.432,159.566 596.5,160.5C 597.919,161.451 599.585,161.784 601.5,161.5C 608.941,163.945 616.608,165.945 624.5,167.5C 626.565,167.517 628.565,167.85 630.5,168.5C 631.209,169.404 632.209,169.737 633.5,169.5C 635.838,171.04 638.505,171.706 641.5,171.5C 644.219,172.913 647.219,173.58 650.5,173.5C 652.099,173.232 653.432,173.566 654.5,174.5C 657.273,175.657 660.273,176.324 663.5,176.5C 663.833,176.5 664.167,176.5 664.5,176.5C 666.948,177.473 669.615,177.806 672.5,177.5C 678.601,178.972 684.935,179.639 691.5,179.5C 697.74,179.667 703.74,179 709.5,177.5C 710.167,177.5 710.833,177.5 711.5,177.5C 714.553,177.889 717.22,177.223 719.5,175.5C 720.919,174.549 722.585,174.216 724.5,174.5C 725.239,174.369 725.906,174.536 726.5,175C 725.748,175.671 725.414,176.504 725.5,177.5C 720.814,186.872 716.147,196.205 711.5,205.5C 710.603,204.402 709.77,204.402 709,205.5C 708.049,209.243 706.215,212.41 703.5,215C 703.957,215.414 704.291,215.914 704.5,216.5C 698.235,231.231 692.735,246.231 688,261.5C 686.878,266.102 686.378,270.768 686.5,275.5C 686.074,279.427 685.074,283.093 683.5,286.5C 681.742,289.854 680.742,293.521 680.5,297.5C 678.143,308.26 675.477,318.927 672.5,329.5C 671.076,331.515 670.41,333.848 670.5,336.5C 670.5,336.833 670.5,337.167 670.5,337.5C 669.685,338.429 668.852,339.429 668,340.5C 667.617,339.944 667.117,339.611 666.5,339.5C 666.5,339.167 666.5,338.833 666.5,338.5C 666.678,334.878 666.011,331.544 664.5,328.5C 663.566,327.432 663.232,326.099 663.5,324.5C 663.416,320.163 662.416,316.163 660.5,312.5C 659.5,310.5 658.5,308.5 657.5,306.5C 656.077,300.317 654.077,294.317 651.5,288.5C 651.598,286.447 650.931,284.78 649.5,283.5C 647.659,281.151 646.326,278.485 645.5,275.5C 645.573,273.973 644.906,272.973 643.5,272.5C 643.167,272.5 642.833,272.5 642.5,272.5C 640.833,269.167 639.167,265.833 637.5,262.5C 637.262,260.596 636.262,259.262 634.5,258.5C 634.573,256.973 633.906,255.973 632.5,255.5C 632.573,253.973 631.906,252.973 630.5,252.5C 629.5,252.167 628.833,251.5 628.5,250.5C 628.573,248.973 627.906,247.973 626.5,247.5C 624.5,246.167 622.833,244.5 621.5,242.5C 619.833,238.833 617.167,236.167 613.5,234.5C 610.474,231.805 607.474,229.138 604.5,226.5C 603.415,224.413 601.749,223.08 599.5,222.5C 597.5,221.5 595.5,220.5 593.5,219.5C 593.5,219.167 593.5,218.833 593.5,218.5C 593.027,217.094 592.027,216.427 590.5,216.5C 590.027,215.094 589.027,214.427 587.5,214.5C 585.847,214.34 584.514,213.674 583.5,212.5C 582.101,211.11 580.434,210.11 578.5,209.5C 577.56,207.388 576.394,205.388 575,203.5C 574.586,203.957 574.086,204.291 573.5,204.5C 569.469,202.484 565.469,200.484 561.5,198.5C 560.707,198.931 559.873,199.265 559,199.5C 554.154,196.869 549.154,194.536 544,192.5C 543.586,192.957 543.086,193.291 542.5,193.5C 536.293,191.817 529.96,191.15 523.5,191.5C 507.516,189.673 491.85,190.673 476.5,194.5C 470.262,196.466 463.929,198.466 457.5,200.5C 455.447,200.402 453.78,201.069 452.5,202.5C 450.819,204.008 448.819,205.008 446.5,205.5C 443.291,204.829 440.457,205.829 438,208.5C 436.16,207.167 435.66,207.334 436.5,209C 432.667,212.167 428.833,215.333 425,218.5C 423.331,220.169 422.498,222.169 422.5,224.5C 422.5,225.167 422.167,225.5 421.5,225.5C 421.631,224.761 421.464,224.094 421,223.5C 417.19,227.131 413.857,231.131 411,235.5C 410.505,237.473 410.338,239.473 410.5,241.5C 410.672,242.492 410.338,243.158 409.5,243.5C 408.325,243.281 407.325,243.614 406.5,244.5C 397.46,260.292 394.794,277.125 398.5,295C 397.14,296.938 397.473,298.604 399.5,300C 399.043,300.414 398.709,300.914 398.5,301.5C 400.673,308.487 403.506,315.154 407,321.5C 407.77,320.402 408.603,320.402 409.5,321.5C 409.427,323.027 410.094,324.027 411.5,324.5C 411.833,324.5 412.167,324.5 412.5,324.5C 412.5,325.167 412.5,325.833 412.5,326.5C 412.738,328.404 413.738,329.738 415.5,330.5C 415.427,332.027 416.094,333.027 417.5,333.5C 418.5,333.833 419.167,334.5 419.5,335.5C 420.419,338.089 422.086,340.089 424.5,341.5C 426.5,342.833 428.167,344.5 429.5,346.5C 430.585,348.587 432.251,349.92 434.5,350.5C 434.5,352.167 434.5,353.833 434.5,355.5C 439.96,358.279 445.627,361.779 451.5,366C 453.345,367.128 455.345,367.628 457.5,367.5C 459.215,370.201 461.215,372.701 463.5,375C 465.921,376.048 468.254,376.214 470.5,375.5C 472.153,375.66 473.486,376.326 474.5,377.5C 474.389,378.117 474.056,378.617 473.5,379C 477.594,383.262 482.594,385.429 488.5,385.5C 492.151,386.659 495.485,388.326 498.5,390.5C 499.659,392.25 501.326,393.25 503.5,393.5C 504.492,393.328 505.158,393.662 505.5,394.5C 508.751,396.957 512.418,398.624 516.5,399.5C 517.833,399.833 519.167,400.167 520.5,400.5C 520.5,400.833 520.5,401.167 520.5,401.5C 521.287,403.104 522.62,403.771 524.5,403.5C 526.153,403.66 527.486,404.326 528.5,405.5C 529.911,407.539 531.911,408.539 534.5,408.5C 540.5,411.167 546.5,413.833 552.5,416.5C 552.5,416.833 552.5,417.167 552.5,417.5C 553.514,418.674 554.847,419.34 556.5,419.5C 555.942,420.79 554.942,421.623 553.5,422C 560.849,424.204 568.182,427.371 575.5,431.5C 576.417,430.873 577.417,430.539 578.5,430.5C 580.421,431.363 582.421,432.029 584.5,432.5C 584.5,432.833 584.5,433.167 584.5,433.5C 586.336,435.588 588.669,436.921 591.5,437.5C 594.992,438.41 597.992,440.076 600.5,442.5C 601.117,444.229 602.117,445.729 603.5,447C 610.164,449.996 616.497,453.496 622.5,457.5C 623.386,458.325 623.719,459.325 623.5,460.5C 626.828,462.437 630.495,463.937 634.5,465C 635.126,465.75 635.626,466.584 636,467.5C 637.209,467.347 638.375,467.014 639.5,466.5C 640.391,467.11 641.391,467.443 642.5,467.5C 642.5,467.833 642.5,468.167 642.5,468.5C 642.062,468.435 641.728,468.601 641.5,469C 644.884,470.932 647.718,473.432 650,476.5C 651.558,475.655 652.558,476.321 653,478.5C 653.333,478.167 653.667,477.833 654,477.5C 654.374,478.416 654.874,479.25 655.5,480C 657.765,481.118 660.099,481.951 662.5,482.5C 663.605,483.6 664.938,484.267 666.5,484.5C 667.167,484.5 667.5,484.833 667.5,485.5C 667.973,486.906 668.973,487.573 670.5,487.5C 671.167,487.833 671.833,488.167 672.5,488.5C 672.5,488.833 672.5,489.167 672.5,489.5C 673.262,491.262 674.596,492.262 676.5,492.5C 678.341,493.402 679.674,494.736 680.5,496.5C 681.262,498.262 682.596,499.262 684.5,499.5C 688.833,503.167 692.833,507.167 696.5,511.5C 697.419,514.089 699.086,516.089 701.5,517.5C 702.419,520.089 704.086,522.089 706.5,523.5C 707.08,525.749 708.413,527.415 710.5,528.5C 710.427,530.027 711.094,531.027 712.5,531.5C 712.427,533.027 713.094,534.027 714.5,534.5C 714.511,536.017 715.177,537.184 716.5,538C 715.483,539.049 715.316,540.216 716,541.5C 723.136,551.156 728.136,561.489 731,572.5C 732.113,573.305 733.279,573.972 734.5,574.5C 735.404,575.209 735.737,576.209 735.5,577.5C 735.395,581.258 736.395,584.592 738.5,587.5C 740.754,593.87 742.087,600.536 742.5,607.5C 743.255,621.153 743.588,634.82 743.5,648.5C 743.736,651.609 743.403,654.609 742.5,657.5C 740.549,663.923 739.215,670.589 738.5,677.5C 737.076,679.515 736.41,681.848 736.5,684.5C 736.737,685.791 736.404,686.791 735.5,687.5C 734.262,689.214 733.595,691.214 733.5,693.5C 731.961,699.566 729.628,705.233 726.5,710.5C 725.603,709.402 724.77,709.402 724,710.5C 718.822,722.209 712.155,732.876 704,742.5C 703.53,743.577 703.697,744.577 704.5,745.5C 703.094,745.973 702.427,746.973 702.5,748.5C 701.833,749.833 700.833,750.833 699.5,751.5C 698.094,751.973 697.427,752.973 697.5,754.5C 696.833,755.833 695.833,756.833 694.5,757.5C 694.631,756.761 694.464,756.094 694,755.5C 688.833,760.667 683.667,765.833 678.5,771C 679.056,771.383 679.389,771.883 679.5,772.5C 679.5,773.167 679.167,773.5 678.5,773.5C 677.577,772.697 676.577,772.53 675.5,773C 671.5,776.333 667.5,779.667 663.5,783C 664.598,783.77 664.598,784.603 663.5,785.5C 662.564,786.974 661.23,787.974 659.5,788.5C 657.973,788.427 656.973,789.094 656.5,790.5C 654.973,790.427 653.973,791.094 653.5,792.5C 651.011,792.298 648.677,792.798 646.5,794C 643.715,796.436 641.048,798.936 638.5,801.5C 635.485,803.674 632.151,805.341 628.5,806.5C 626.447,806.402 624.78,807.069 623.5,808.5C 617.032,812.326 610.032,814.993 602.5,816.5C 600.214,816.595 598.214,817.262 596.5,818.5C 582.13,821.906 567.797,824.906 553.5,827.5C 551.052,828.473 548.385,828.806 545.5,828.5C 528.843,829.214 512.176,829.547 495.5,829.5C 483.931,829.541 472.598,828.541 461.5,826.5C 457.1,824.896 452.434,824.229 447.5,824.5C 441.951,823.989 436.617,822.989 431.5,821.5C 428.411,820.215 425.078,819.549 421.5,819.5C 419.562,817.837 417.228,817.171 414.5,817.5C 409.88,817.26 405.547,816.26 401.5,814.5C 399.562,812.837 397.228,812.171 394.5,812.5C 392.901,812.768 391.568,812.434 390.5,811.5C 388.162,809.96 385.495,809.294 382.5,809.5C 381.041,809.567 379.708,809.234 378.5,808.5C 376.562,806.837 374.228,806.171 371.5,806.5C 365.191,806.041 359.191,804.707 353.5,802.5C 351.735,801.539 349.735,801.205 347.5,801.5C 345.379,801.675 343.379,801.341 341.5,800.5C 341.082,799.778 340.416,799.278 339.5,799C 340.5,798.667 341.5,798.333 342.5,798C 328.595,795.543 314.595,793.876 300.5,793C 301.696,792.346 301.696,791.846 300.5,791.5C 299.5,792.167 298.5,792.833 297.5,793.5C 296.808,792.975 296.308,792.308 296,791.5C 294.667,792.833 293.333,792.833 292,791.5C 290.182,793.645 288.682,793.645 287.5,791.5C 286.304,791.846 286.304,792.346 287.5,793C 282.47,793.271 277.47,793.771 272.5,794.5C 270.396,793.669 268.396,793.336 266.5,793.5C 273.315,780.466 278.982,767.299 283.5,754C 285.145,752.968 285.478,751.801 284.5,750.5C 285.62,745.266 286.453,745.266 287,750.5C 286.64,745.423 286.807,740.09 287.5,734.5C 287.263,733.209 287.596,732.209 288.5,731.5C 290.163,729.562 290.829,727.228 290.5,724.5C 292.074,722.898 292.741,720.898 292.5,718.5C 293.328,712.687 294.662,707.02 296.5,701.5C 298.834,696.183 300.167,690.516 300.5,684.5C 300.5,684.167 300.5,683.833 300.5,683.5C 301.913,680.781 302.58,677.781 302.5,674.5C 303.717,666.53 304.717,658.53 305.5,650.5C 307.991,637.235 309.991,623.902 311.5,610.5C 312.29,609.391 312.79,608.058 313,606.5C 313.383,607.056 313.883,607.389 314.5,607.5C 318.871,618.272 322.871,629.272 326.5,640.5C 326.15,644.054 326.816,647.388 328.5,650.5C 336.443,669.244 346.609,686.577 359,702.5C 359.383,701.944 359.883,701.611 360.5,701.5C 361.5,703.167 362.833,704.5 364.5,705.5C 364.427,707.027 365.094,708.027 366.5,708.5C 367.5,708.833 368.167,709.5 368.5,710.5C 369.08,712.749 370.413,714.415 372.5,715.5C 374.833,717.167 376.833,719.167 378.5,721.5C 378.833,723.833 380.167,725.167 382.5,725.5C 385.5,727.833 388.167,730.5 390.5,733.5C 391.262,735.262 392.596,736.262 394.5,736.5C 395.833,737.167 396.833,738.167 397.5,739.5C 398.262,741.262 399.596,742.262 401.5,742.5C 403.909,743.701 405.909,745.367 407.5,747.5C 407.973,748.906 408.973,749.573 410.5,749.5C 411.71,749.932 412.71,750.599 413.5,751.5C 413.973,752.906 414.973,753.573 416.5,753.5C 416.973,754.906 417.973,755.573 419.5,755.5C 421.434,756.11 423.101,757.11 424.5,758.5C 424.973,759.906 425.973,760.573 427.5,760.5C 429.153,760.66 430.486,761.326 431.5,762.5C 431.973,763.906 432.973,764.573 434.5,764.5C 436.153,764.66 437.486,765.326 438.5,766.5C 440.426,768.293 442.759,769.293 445.5,769.5C 449.739,770.796 453.739,772.462 457.5,774.5C 458.78,775.931 460.447,776.598 462.5,776.5C 463.209,777.404 464.209,777.737 465.5,777.5C 467.786,777.595 469.786,778.262 471.5,779.5C 477.187,781.752 483.187,783.086 489.5,783.5C 493.5,783.833 497.5,784.167 501.5,784.5C 501.5,785.167 501.833,785.5 502.5,785.5C 512.992,786.659 523.659,786.825 534.5,786C 536.382,785.802 538.048,785.302 539.5,784.5C 542.096,783.735 544.763,783.401 547.5,783.5C 550.495,783.706 553.162,783.04 555.5,781.5C 558.228,781.829 560.562,781.163 562.5,779.5C 563.791,779.737 564.791,779.404 565.5,778.5C 565.833,778.5 566.167,778.5 566.5,778.5C 568.553,778.598 570.22,777.931 571.5,776.5C 579.261,776.362 585.927,773.695 591.5,768.5C 593.187,768.24 594.687,767.573 596,766.5C 596.333,766.833 596.667,767.167 597,767.5C 598.457,765.342 600.29,763.509 602.5,762C 601.906,761.536 601.239,761.369 600.5,761.5C 600.5,760.833 600.833,760.5 601.5,760.5C 603.404,760.262 604.738,759.262 605.5,757.5C 605.5,756.833 605.833,756.5 606.5,756.5C 609.764,754.906 612.431,752.573 614.5,749.5C 614.5,748.833 614.833,748.5 615.5,748.5C 618.573,746.431 620.906,743.764 622.5,740.5C 624.262,739.738 625.262,738.404 625.5,736.5C 626.906,736.027 627.573,735.027 627.5,733.5C 631.48,731.249 634.313,727.916 636,723.5C 637.316,720.312 637.816,716.978 637.5,713.5C 638.13,709.952 639.13,706.619 640.5,703.5C 641.451,702.081 641.784,700.415 641.5,698.5C 641.5,696.5 641.5,694.5 641.5,692.5C 642.167,692.5 642.5,692.167 642.5,691.5C 645.012,680.446 644.679,669.446 641.5,658.5C 640.055,655.063 639.055,651.397 638.5,647.5C 638.598,645.447 637.931,643.78 636.5,642.5C 634.185,637.244 631.852,631.91 629.5,626.5C 629.804,625.85 630.137,625.183 630.5,624.5C 628.924,620.762 626.757,617.429 624,614.5C 623.667,612.833 623.333,611.167 623,609.5C 615.276,602.796 607.443,595.296 599.5,587C 598.207,586.51 596.873,586.343 595.5,586.5C 593.431,583.427 590.764,581.094 587.5,579.5C 586.415,577.413 584.749,576.08 582.5,575.5C 579.792,572.791 576.792,570.458 573.5,568.5C 573.027,567.094 572.027,566.427 570.5,566.5C 570.027,565.094 569.027,564.427 567.5,564.5C 566.738,562.738 565.404,561.738 563.5,561.5C 563.027,560.094 562.027,559.427 560.5,559.5C 560.027,558.094 559.027,557.427 557.5,557.5C 557.027,556.094 556.027,555.427 554.5,555.5C 554.027,554.094 553.027,553.427 551.5,553.5C 550.508,553.672 549.842,553.338 549.5,552.5C 549.027,551.094 548.027,550.427 546.5,550.5C 543.86,549.18 541.193,547.847 538.5,546.5C 538.5,546.167 538.5,545.833 538.5,545.5C 537.71,544.599 536.71,543.932 535.5,543.5C 535.586,542.504 535.252,541.671 534.5,541C 513.988,529.435 493.321,518.435 472.5,508C 471.663,506.989 471.33,505.822 471.5,504.5C 464.159,504.508 457.826,501.674 452.5,496C 450.527,495.505 448.527,495.338 446.5,495.5C 445.833,495.5 445.167,495.5 444.5,495.5C 443.508,495.672 442.842,495.338 442.5,494.5C 441.766,493.292 441.433,491.959 441.5,490.5C 439.095,490.134 436.762,489.467 434.5,488.5C 431.217,485.194 427.217,483.527 422.5,483.5C 421.833,483.5 421.167,483.5 420.5,483.5C 420.5,483.167 420.5,482.833 420.5,482.5C 420.027,481.094 419.027,480.427 417.5,480.5C 415.109,476.298 411.442,473.798 406.5,473C 405.833,472 405.167,471 404.5,470C 403.563,469.308 402.897,469.475 402.5,470.5C 401.609,469.89 400.609,469.557 399.5,469.5C 398.738,467.738 397.404,466.738 395.5,466.5C 395.027,465.094 394.027,464.427 392.5,464.5C 392.027,463.094 391.027,462.427 389.5,462.5C 388.738,460.738 387.404,459.738 385.5,459.5C 384.738,457.738 383.404,456.738 381.5,456.5C 379.596,456.262 378.262,455.262 377.5,453.5C 377.027,452.094 376.027,451.427 374.5,451.5C 373.5,451.167 372.833,450.5 372.5,449.5C 371.089,447.086 369.089,445.419 366.5,444.5C 360.833,438.167 354.833,432.167 348.5,426.5C 347.833,426.167 347.167,425.833 346.5,425.5C 344.833,423.167 343.167,420.833 341.5,418.5C 341.573,416.973 340.906,415.973 339.5,415.5C 337.1,413.704 335.433,411.37 334.5,408.5C 334.693,404.961 333.359,401.794 330.5,399C 330.833,398.667 331.167,398.333 331.5,398C 329.702,395.219 327.369,393.052 324.5,391.5C 323.833,390.833 323.167,390.167 322.5,389.5C 322.672,388.508 322.338,387.842 321.5,387.5C 321.5,386.833 321.5,386.167 321.5,385.5C 321.598,383.447 320.931,381.78 319.5,380.5C 317.98,378.11 316.98,375.443 316.5,372.5C 316.737,371.209 316.404,370.209 315.5,369.5C 312.403,360.348 310.07,351.014 308.5,341.5C 307.68,332.429 307.68,323.429 308.5,314.5C 309.728,306.335 310.728,298.002 311.5,289.5C 311.366,287.708 311.699,286.042 312.5,284.5C 314.163,282.562 314.829,280.228 314.5,277.5C 316.617,267.47 320.283,258.136 325.5,249.5C 329.828,246.559 332.995,242.559 335,237.5C 340.496,230.929 345.329,224.596 349.5,218.5C 356.26,212.744 362.26,206.411 367.5,199.5C 371.568,195.101 376.235,191.435 381.5,188.5C 383.027,188.573 384.027,187.906 384.5,186.5C 386.027,186.573 387.027,185.906 387.5,184.5C 388.822,184.33 389.989,184.663 391,185.5C 398.431,180.532 406.264,176.199 414.5,172.5C 416.373,173.089 418.04,172.422 419.5,170.5C 419.137,169.817 418.804,169.15 418.5,168.5C 418.842,167.662 419.508,167.328 420.5,167.5C 423.716,167.655 426.383,166.655 428.5,164.5C 430.898,164.741 432.898,164.074 434.5,162.5C 435.209,161.596 436.209,161.263 437.5,161.5C 439.898,161.741 441.898,161.074 443.5,159.5C 445.042,158.699 446.708,158.366 448.5,158.5C 453.12,158.26 457.453,157.26 461.5,155.5C 470.558,153.158 479.891,151.825 489.5,151.5 Z"/></g>
<g><path style="opacity:0.945" fill="#6c6b63" d="M 461.5,155.5 C 457.453,157.26 453.12,158.26 448.5,158.5C 452.547,156.74 456.88,155.74 461.5,155.5 Z"/></g>
<g><path style="opacity:0.004" fill="#7c7a70" d="M 602.5,159.5 C 603.833,160.167 603.833,160.167 602.5,159.5 Z"/></g>
<g><path style="opacity:0.004" fill="#7d7b71" d="M 604.5,159.5 C 605.833,160.167 605.833,160.167 604.5,159.5 Z"/></g>
<g><path style="opacity:0.008" fill="#808076" d="M 432.5,160.5 C 433.833,161.167 433.833,161.167 432.5,160.5 Z"/></g>
<g><path style="opacity:0.988" fill="#7b7b73" d="M 443.5,159.5 C 441.898,161.074 439.898,161.741 437.5,161.5C 439.214,160.262 441.214,159.595 443.5,159.5 Z"/></g>
<g><path style="opacity:0.149" fill="#9d9b92" d="M 601.5,161.5 C 599.585,161.784 597.919,161.451 596.5,160.5C 598.144,160.714 599.644,160.38 601,159.5C 601.464,160.094 601.631,160.761 601.5,161.5 Z"/></g>
<g><path style="opacity:0.012" fill="#807f74" d="M 607.5,160.5 C 608.833,161.167 608.833,161.167 607.5,160.5 Z"/></g>
<g><path style="opacity:0.005" fill="#828074" d="M 423.5,161.5 C 424.473,161.987 425.473,162.487 426.5,163C 424.843,163.725 423.843,163.225 423.5,161.5 Z"/></g>
<g><path style="opacity:0.188" fill="#97968c" d="M 601.5,161.5 C 609.555,162.429 617.222,164.429 624.5,167.5C 616.608,165.945 608.941,163.945 601.5,161.5 Z"/></g>
<g><path style="opacity:0.976" fill="#6e6d66" d="M 434.5,162.5 C 432.898,164.074 430.898,164.741 428.5,164.5C 430.214,163.262 432.214,162.595 434.5,162.5 Z"/></g>
<g><path style="opacity:0.988" fill="#53534d" d="M 428.5,164.5 C 426.383,166.655 423.716,167.655 420.5,167.5C 422.89,165.98 425.557,164.98 428.5,164.5 Z"/></g>
<g><path style="opacity:0.008" fill="#7c7c70" d="M 408.5,167.5 C 409.833,168.167 409.833,168.167 408.5,167.5 Z"/></g>
<g><path style="opacity:0.004" fill="#7a7b70" d="M 415.5,168.5 C 414.833,167.167 414.833,167.167 415.5,168.5 Z"/></g>
<g><path style="opacity:0.008" fill="#838277" d="M 635.5,167.5 C 636.833,168.167 636.833,168.167 635.5,167.5 Z"/></g>
<g><path style="opacity:0.004" fill="#a9a69c" d="M 633.5,169.5 C 632.209,169.737 631.209,169.404 630.5,168.5C 631.496,168.586 632.329,168.252 633,167.5C 633.464,168.094 633.631,168.761 633.5,169.5 Z"/></g>
<g><path style="opacity:0.004" fill="#828076" d="M 638.5,167.5 C 639.289,167.783 639.956,168.283 640.5,169C 639.184,169.528 638.517,169.028 638.5,167.5 Z"/></g>
<g><path style="opacity:0.008" fill="#7d7d6f" d="M 409.5,169.5 C 410.833,170.167 410.833,170.167 409.5,169.5 Z"/></g>
<g><path style="opacity:0.004" fill="#807e75" d="M 642.5,170.5 C 643.251,169.427 644.251,169.26 645.5,170C 644.552,170.483 643.552,170.649 642.5,170.5 Z"/></g>
<g><path style="opacity:0.004" fill="#8e8d80" d="M 720.5,169.5 C 721.833,170.167 721.833,170.167 720.5,169.5 Z"/></g>
<g><path style="opacity:0.012" fill="#78776a" d="M 409.5,170.5 C 409.5,170.833 409.5,171.167 409.5,171.5C 406.833,171.167 406.833,170.833 409.5,170.5 Z"/></g>
<g><path style="opacity:0.176" fill="#9d9d95" d="M 633.5,169.5 C 636.428,169.565 639.095,170.232 641.5,171.5C 638.505,171.706 635.838,171.04 633.5,169.5 Z"/></g>
<g><path style="opacity:0.141" fill="#9c9b91" d="M 641.5,171.5 C 644.781,171.42 647.781,172.087 650.5,173.5C 647.219,173.58 644.219,172.913 641.5,171.5 Z"/></g>
<g><path style="opacity:0.012" fill="#8f8d82" d="M 726.5,171.5 C 727.833,172.167 727.833,172.167 726.5,171.5 Z"/></g>
<g><path style="opacity:0.153" fill="#9a988f" d="M 654.5,174.5 C 657.829,174.215 660.829,174.882 663.5,176.5C 660.273,176.324 657.273,175.657 654.5,174.5 Z"/></g>
<g><path style="opacity:0.082" fill="#ababa1" d="M 726.5,172.5 C 728.023,174.586 727.69,176.252 725.5,177.5C 725.414,176.504 725.748,175.671 726.5,175C 725.906,174.536 725.239,174.369 724.5,174.5C 724.833,173.5 725.5,172.833 726.5,172.5 Z"/></g>
<g><path style="opacity:0.012" fill="#7c796d" d="M 394.5,175.5 C 395.833,176.167 395.833,176.167 394.5,175.5 Z"/></g>
<g><path style="opacity:0.008" fill="#848074" d="M 672.5,175.5 C 673.833,176.167 673.833,176.167 672.5,175.5 Z"/></g>
<g><path style="opacity:0.004" fill="#858175" d="M 674.5,175.5 C 675.833,176.167 675.833,176.167 674.5,175.5 Z"/></g>
<g><path style="opacity:0.009" fill="#88857a" d="M 677.5,176.5 C 679.288,175.378 681.288,175.211 683.5,176C 681.527,176.495 679.527,176.662 677.5,176.5 Z"/></g>
<g><path style="opacity:0.008" fill="#8f8b80" d="M 703.5,176.5 C 704.251,175.427 705.251,175.26 706.5,176C 705.552,176.483 704.552,176.649 703.5,176.5 Z"/></g>
<g><path style="opacity:0.008" fill="#7d7a70" d="M 393.5,178.5 C 393.5,178.833 393.5,179.167 393.5,179.5C 391.775,179.157 391.275,178.157 392,176.5C 392.278,177.416 392.778,178.082 393.5,178.5 Z"/></g>
<g><path style="opacity:0.994" fill="#353432" d="M 415.5,168.5 C 416.5,168.5 417.5,168.5 418.5,168.5C 418.804,169.15 419.137,169.817 419.5,170.5C 418.04,172.422 416.373,173.089 414.5,172.5C 406.264,176.199 398.431,180.532 391,185.5C 389.989,184.663 388.822,184.33 387.5,184.5C 389.5,182.833 391.5,181.167 393.5,179.5C 394.492,179.672 395.158,179.338 395.5,178.5C 400.484,176.674 405.151,174.341 409.5,171.5C 411.819,171.008 413.819,170.008 415.5,168.5 Z"/></g>
<g><path style="opacity:0.047" fill="#a5a197" d="M 672.5,176.5 C 672.5,176.833 672.5,177.167 672.5,177.5C 669.615,177.806 666.948,177.473 664.5,176.5C 666.856,176.316 669.523,176.316 672.5,176.5 Z"/></g>
<g><path style="opacity:0.004" fill="#868379" d="M 687.5,176.5 C 688.849,175.203 690.182,175.37 691.5,177C 690.181,177.195 688.847,177.028 687.5,176.5 Z"/></g>
<g><path style="opacity:0.004" fill="#89857c" d="M 695.5,176.5 C 696.833,177.167 696.833,177.167 695.5,176.5 Z"/></g>
<g><path style="opacity:0.969" fill="#76746e" d="M 719.5,175.5 C 717.22,177.223 714.553,177.889 711.5,177.5C 713.961,176.469 716.627,175.802 719.5,175.5 Z"/></g>
<g><path style="opacity:0.004" fill="#7a786e" d="M 394.5,176.5 C 394.833,177.167 395.167,177.833 395.5,178.5C 394.833,178.5 394.167,178.5 393.5,178.5C 393.328,177.508 393.662,176.842 394.5,176.5 Z"/></g>
<g><path style="opacity:0.808" fill="#88867e" d="M 709.5,177.5 C 703.74,179 697.74,179.667 691.5,179.5C 684.935,179.639 678.601,178.972 672.5,177.5C 685.771,178.822 698.105,178.822 709.5,177.5 Z"/></g>
<g><path style="opacity:0.004" fill="#7d7b70" d="M 380.5,183.5 C 381.833,184.167 381.833,184.167 380.5,183.5 Z"/></g>
<g><path style="opacity:0.004" fill="#7d7c70" d="M 375.5,185.5 C 376.833,186.167 376.833,186.167 375.5,185.5 Z"/></g>
<g><path style="opacity:0.004" fill="#77776a" d="M 382.5,186.5 C 381.833,185.167 381.833,185.167 382.5,186.5 Z"/></g>
<g><path style="opacity:0.961" fill="#817f7a" d="M 387.5,184.5 C 387.027,185.906 386.027,186.573 384.5,186.5C 384.973,185.094 385.973,184.427 387.5,184.5 Z"/></g>
<g><path style="opacity:0.949" fill="#6a6b63" d="M 382.5,186.5 C 383.167,186.5 383.833,186.5 384.5,186.5C 384.027,187.906 383.027,188.573 381.5,188.5C 381.833,187.833 382.167,187.167 382.5,186.5 Z"/></g>
<g><path style="opacity:0.004" fill="#7b7d6f" d="M 368.5,191.5 C 369.833,192.167 369.833,192.167 368.5,191.5 Z"/></g>
<g><path style="opacity:0.231" fill="#9a9991" d="M 523.5,191.5 C 523.5,191.833 523.5,192.167 523.5,192.5C 507.776,191.427 492.11,192.094 476.5,194.5C 491.85,190.673 507.516,189.673 523.5,191.5 Z"/></g>
<g><path style="opacity:0.986" fill="#343431" d="M 523.5,192.5 C 523.5,192.167 523.5,191.833 523.5,191.5C 529.96,191.15 536.293,191.817 542.5,193.5C 543.086,193.291 543.586,192.957 544,192.5C 549.154,194.536 554.154,196.869 559,199.5C 559.873,199.265 560.707,198.931 561.5,198.5C 565.469,200.484 569.469,202.484 573.5,204.5C 574.086,204.291 574.586,203.957 575,203.5C 576.394,205.388 577.56,207.388 578.5,209.5C 572.947,206.89 567.281,204.557 561.5,202.5C 549.398,197.361 536.732,194.027 523.5,192.5 Z"/></g>
<g><path style="opacity:0.008" fill="#7a786b" d="M 367.5,194.5 C 368.833,195.167 368.833,195.167 367.5,194.5 Z"/></g>
<g><path style="opacity:0.012" fill="#8d8a7d" d="M 527.5,195.5 C 528.251,194.427 529.251,194.26 530.5,195C 529.552,195.483 528.552,195.649 527.5,195.5 Z"/></g>
<g><path style="opacity:0.004" fill="#8b8a7c" d="M 532.5,195.5 C 533.833,196.167 533.833,196.167 532.5,195.5 Z"/></g>
<g><path style="opacity:0.004" fill="#818275" d="M 717.5,195.5 C 718.833,196.167 718.833,196.167 717.5,195.5 Z"/></g>
<g><path style="opacity:0.004" fill="#8b877c" d="M 543.5,197.5 C 544.525,197.897 544.692,198.563 544,199.5C 543.536,198.906 543.369,198.239 543.5,197.5 Z"/></g>
<g><path style="opacity:0.004" fill="#8b877b" d="M 545.5,198.5 C 546.833,199.167 546.833,199.167 545.5,198.5 Z"/></g>
<g><path style="opacity:0.004" fill="#828178" d="M 716.5,197.5 C 717.525,197.897 717.692,198.563 717,199.5C 716.536,198.906 716.369,198.239 716.5,197.5 Z"/></g>
<g><path style="opacity:0.004" fill="#79746b" d="M 359.5,200.5 C 359.897,199.475 360.563,199.308 361.5,200C 360.906,200.464 360.239,200.631 359.5,200.5 Z"/></g>
<g><path style="opacity:0.008" fill="#9b9890" d="M 457.5,200.5 C 456.22,201.931 454.553,202.598 452.5,202.5C 453.78,201.069 455.447,200.402 457.5,200.5 Z"/></g>
<g><path style="opacity:0.004" fill="#848178" d="M 561.5,202.5 C 562.368,204.892 561.701,205.059 559.5,203C 560.094,202.536 560.761,202.369 561.5,202.5 Z"/></g>
<g><path style="opacity:0.008" fill="#75746b" d="M 355.5,208.5 C 354.833,207.167 354.833,207.167 355.5,208.5 Z"/></g>
<g><path style="opacity:0.925" fill="#71706b" d="M 361.5,204.5 C 358.5,208.167 355.167,211.5 351.5,214.5C 352.415,212.246 353.748,210.246 355.5,208.5C 357.246,206.748 359.246,205.415 361.5,204.5 Z"/></g>
<g><path style="opacity:0.988" fill="#302f2d" d="M 446.5,205.5 C 443.709,207.735 440.709,209.735 437.5,211.5C 435.973,211.427 434.973,212.094 434.5,213.5C 434.5,213.833 434.5,214.167 434.5,214.5C 430.208,217.457 426.208,220.79 422.5,224.5C 422.498,222.169 423.331,220.169 425,218.5C 428.833,215.333 432.667,212.167 436.5,209C 435.66,207.334 436.16,207.167 438,208.5C 440.457,205.829 443.291,204.829 446.5,205.5 Z"/></g>
<g><path style="opacity:0.016" fill="#7a786b" d="M 578.5,210.5 C 577.833,211.167 577.833,211.167 578.5,210.5 Z"/></g>
<g><path style="opacity:0.494" fill="#908f85" d="M 578.5,210.5 C 578.5,210.167 578.5,209.833 578.5,209.5C 580.434,210.11 582.101,211.11 583.5,212.5C 582.504,212.414 581.671,212.748 581,213.5C 580.623,212.058 579.79,211.058 578.5,210.5 Z"/></g>
<g><path style="opacity:0.004" fill="#979790" d="M 437.5,211.5 C 437.027,212.906 436.027,213.573 434.5,213.5C 434.973,212.094 435.973,211.427 437.5,211.5 Z"/></g>
<g><path style="opacity:0.004" fill="#79776a" d="M 434.5,214.5 C 435.833,215.167 435.833,215.167 434.5,214.5 Z"/></g>
<g><path style="opacity:0.004" fill="#817e73" d="M 579.5,214.5 C 580.833,215.167 580.833,215.167 579.5,214.5 Z"/></g>
<g><path style="opacity:0.012" fill="#7a786c" d="M 343.5,215.5 C 344.833,216.167 344.833,216.167 343.5,215.5 Z"/></g>
<g><path style="opacity:0.675" fill="#6e6d65" d="M 587.5,214.5 C 589.027,214.427 590.027,215.094 590.5,216.5C 588.973,216.573 587.973,215.906 587.5,214.5 Z"/></g>
<g><path style="opacity:0.569" fill="#8f8d85" d="M 590.5,216.5 C 592.027,216.427 593.027,217.094 593.5,218.5C 591.973,218.573 590.973,217.906 590.5,216.5 Z"/></g>
<g><path style="opacity:0.004" fill="#7e7870" d="M 593.5,219.5 C 593.5,219.833 593.5,220.167 593.5,220.5C 592.83,220.019 592.83,219.685 593.5,219.5 Z"/></g>
<g><path style="opacity:0.004" fill="#7e7a71" d="M 593.5,220.5 C 594.833,221.167 594.833,221.167 593.5,220.5 Z"/></g>
<g><path style="opacity:0.986" fill="#31302e" d="M 711.5,205.5 C 706.95,216.496 702.617,227.496 698.5,238.5C 697.069,239.78 696.402,241.447 696.5,243.5C 695.565,247.969 694.232,252.303 692.5,256.5C 690.926,258.102 690.259,260.102 690.5,262.5C 689.612,267.072 688.279,271.405 686.5,275.5C 686.378,270.768 686.878,266.102 688,261.5C 692.735,246.231 698.235,231.231 704.5,216.5C 704.291,215.914 703.957,215.414 703.5,215C 706.215,212.41 708.049,209.243 709,205.5C 709.77,204.402 710.603,204.402 711.5,205.5 Z"/></g>
<g><path style="opacity:0.012" fill="#837e76" d="M 591.5,222.5 C 592.833,223.167 592.833,223.167 591.5,222.5 Z"/></g>
<g><path style="opacity:0.004" fill="#78746b" d="M 600.5,224.5 C 599.833,225.167 599.833,225.167 600.5,224.5 Z"/></g>
<g><path style="opacity:0.816" fill="#72726b" d="M 599.5,222.5 C 601.749,223.08 603.415,224.413 604.5,226.5C 602.938,226.267 601.605,225.6 600.5,224.5C 600.167,223.833 599.833,223.167 599.5,222.5 Z"/></g>
<g><path style="opacity:0.004" fill="#727266" d="M 339.5,226.5 C 338.833,225.167 338.833,225.167 339.5,226.5 Z"/></g>
<g><path style="opacity:0.995" fill="#252523" d="M 367.5,199.5 C 362.26,206.411 356.26,212.744 349.5,218.5C 345.329,224.596 340.496,230.929 335,237.5C 332.995,242.559 329.828,246.559 325.5,249.5C 327.036,245.493 329.036,242.16 331.5,239.5C 332.906,239.027 333.573,238.027 333.5,236.5C 335.898,233.429 337.898,230.095 339.5,226.5C 343.14,222.194 347.14,218.194 351.5,214.5C 355.167,211.5 358.5,208.167 361.5,204.5C 362.911,202.086 364.911,200.419 367.5,199.5 Z"/></g>
<g><path style="opacity:0.004" fill="#77786a" d="M 336.5,226.5 C 337.833,227.167 337.833,227.167 336.5,226.5 Z"/></g>
<g><path style="opacity:0.004" fill="#7f7f73" d="M 599.5,226.5 C 600.833,227.167 600.833,227.167 599.5,226.5 Z"/></g>
<g><path style="opacity:0.985" fill="#343432" d="M 421.5,225.5 C 417.801,230.856 414.134,236.19 410.5,241.5C 410.338,239.473 410.505,237.473 411,235.5C 413.857,231.131 417.19,227.131 421,223.5C 421.464,224.094 421.631,224.761 421.5,225.5 Z"/></g>
<g><path style="opacity:0.004" fill="#7a776c" d="M 327.5,234.5 C 328.833,235.167 328.833,235.167 327.5,234.5 Z"/></g>
<g><path style="opacity:0.996" fill="#6c6b64" d="M 613.5,234.5 C 617.167,236.167 619.833,238.833 621.5,242.5C 618.5,240.167 615.833,237.5 613.5,234.5 Z"/></g>
<g><path style="opacity:0.475" fill="#8c8981" d="M 333.5,236.5 C 333.573,238.027 332.906,239.027 331.5,239.5C 331.427,237.973 332.094,236.973 333.5,236.5 Z"/></g>
<g><path style="opacity:0.004" fill="#7e7c6f" d="M 614.5,238.5 C 615.833,239.167 615.833,239.167 614.5,238.5 Z"/></g>
<g><path style="opacity:0.004" fill="#99988e" d="M 698.5,238.5 C 698.598,240.553 697.931,242.22 696.5,243.5C 696.402,241.447 697.069,239.78 698.5,238.5 Z"/></g>
<g><path style="opacity:0.004" fill="#7f7d73" d="M 414.5,242.5 C 415.833,243.167 415.833,243.167 414.5,242.5 Z"/></g>
<g><path style="opacity:0.004" fill="#817e71" d="M 615.5,242.5 C 616.833,243.167 616.833,243.167 615.5,242.5 Z"/></g>
<g><path style="opacity:0.004" fill="#7d7d70" d="M 620.5,245.5 C 621.833,246.167 621.833,246.167 620.5,245.5 Z"/></g>
<g><path style="opacity:0.987" fill="#30302d" d="M 409.5,243.5 C 407.148,248.91 404.815,254.244 402.5,259.5C 401.087,262.219 400.42,265.219 400.5,268.5C 400.5,277.5 400.5,286.5 400.5,295.5C 400.215,298.829 400.882,301.829 402.5,304.5C 403.641,307.254 404.975,309.921 406.5,312.5C 407.213,315.594 408.213,318.594 409.5,321.5C 408.603,320.402 407.77,320.402 407,321.5C 403.506,315.154 400.673,308.487 398.5,301.5C 398.709,300.914 399.043,300.414 399.5,300C 397.473,298.604 397.14,296.938 398.5,295C 394.794,277.125 397.46,260.292 406.5,244.5C 407.325,243.614 408.325,243.281 409.5,243.5 Z"/></g>
<g><path style="opacity:0.039" fill="#949389" d="M 626.5,247.5 C 627.906,247.973 628.573,248.973 628.5,250.5C 627.094,250.027 626.427,249.027 626.5,247.5 Z"/></g>
<g><path style="opacity:0.004" fill="#78756a" d="M 320.5,250.5 C 320.897,249.475 321.563,249.308 322.5,250C 321.906,250.464 321.239,250.631 320.5,250.5 Z"/></g>
<g><path style="opacity:0.02" fill="#94918c" d="M 630.5,252.5 C 631.906,252.973 632.573,253.973 632.5,255.5C 631.094,255.027 630.427,254.027 630.5,252.5 Z"/></g>
<g><path style="opacity:0.008" fill="#7a766f" d="M 694.5,254.5 C 695.833,255.167 695.833,255.167 694.5,254.5 Z"/></g>
<g><path style="opacity:0.016" fill="#9a988e" d="M 632.5,255.5 C 633.906,255.973 634.573,256.973 634.5,258.5C 634.167,258.5 633.833,258.5 633.5,258.5C 632.89,257.609 632.557,256.609 632.5,255.5 Z"/></g>
<g><path style="opacity:0.004" fill="#7d7a6f" d="M 406.5,258.5 C 407.833,259.167 407.833,259.167 406.5,258.5 Z"/></g>
<g><path style="opacity:0.004" fill="#7d7d71" d="M 633.5,258.5 C 632.833,259.167 632.833,259.167 633.5,258.5 Z"/></g>
<g><path style="opacity:0.016" fill="#96948b" d="M 634.5,258.5 C 636.262,259.262 637.262,260.596 637.5,262.5C 636.833,262.167 636.167,261.833 635.5,261.5C 634.89,260.609 634.557,259.609 634.5,258.5 Z"/></g>
<g><path style="opacity:0.714" fill="#8e8d85" d="M 692.5,256.5 C 692.405,258.786 691.738,260.786 690.5,262.5C 690.259,260.102 690.926,258.102 692.5,256.5 Z"/></g>
<g><path style="opacity:0.004" fill="#7d7c70" d="M 632.5,261.5 C 631.833,260.167 631.833,260.167 632.5,261.5 Z"/></g>
<g><path style="opacity:0.004" fill="#7e7b71" d="M 632.5,261.5 C 633.833,262.167 633.833,262.167 632.5,261.5 Z"/></g>
<g><path style="opacity:0.008" fill="#7f7b71" d="M 635.5,261.5 C 634.833,262.167 634.833,262.167 635.5,261.5 Z"/></g>
<g><path style="opacity:0.039" fill="#919087" d="M 402.5,259.5 C 402.58,262.781 401.913,265.781 400.5,268.5C 400.42,265.219 401.087,262.219 402.5,259.5 Z"/></g>
<g><path style="opacity:0.004" fill="#7d7b72" d="M 403.5,261.5 C 404.525,261.897 404.692,262.563 404,263.5C 403.536,262.906 403.369,262.239 403.5,261.5 Z"/></g>
<g><path style="opacity:0.004" fill="#7f7c71" d="M 639.5,272.5 C 640.833,273.167 640.833,273.167 639.5,272.5 Z"/></g>
<g><path style="opacity:0.004" fill="#7a786d" d="M 642.5,272.5 C 641.833,273.167 641.833,273.167 642.5,272.5 Z"/></g>
<g><path style="opacity:0.008" fill="#9f9e93" d="M 643.5,272.5 C 644.906,272.973 645.573,273.973 645.5,275.5C 644.833,275.167 644.167,274.833 643.5,274.5C 643.5,273.833 643.5,273.167 643.5,272.5 Z"/></g>
<g><path style="opacity:0.004" fill="#7c7a70" d="M 643.5,274.5 C 642.833,275.167 642.833,275.167 643.5,274.5 Z"/></g>
<g><path style="opacity:0.008" fill="#817d72" d="M 643.5,277.5 C 644.525,277.897 644.692,278.563 644,279.5C 643.536,278.906 643.369,278.239 643.5,277.5 Z"/></g>
<g><path style="opacity:1" fill="#6e6d68" d="M 314.5,277.5 C 314.829,280.228 314.163,282.562 312.5,284.5C 312.41,281.848 313.076,279.515 314.5,277.5 Z"/></g>
<g><path style="opacity:0.008" fill="#828177" d="M 686.5,281.5 C 687.833,282.167 687.833,282.167 686.5,281.5 Z"/></g>
<g><path style="opacity:0.278" fill="#9f9b94" d="M 649.5,283.5 C 650.931,284.78 651.598,286.447 651.5,288.5C 650.069,287.22 649.402,285.553 649.5,283.5 Z"/></g>
<g><path style="opacity:0.004" fill="#939289" d="M 683.5,286.5 C 683.258,290.479 682.258,294.146 680.5,297.5C 680.742,293.521 681.742,289.854 683.5,286.5 Z"/></g>
<g><path style="opacity:0.004" fill="#818075" d="M 647.5,290.5 C 648.833,291.167 648.833,291.167 647.5,290.5 Z"/></g>
<g><path style="opacity:0.004" fill="#7f7e73" d="M 649.5,292.5 C 650.833,293.167 650.833,293.167 649.5,292.5 Z"/></g>
<g><path style="opacity:0.006" fill="#87847c" d="M 683.5,293.5 C 684.525,293.897 684.692,294.563 684,295.5C 683.536,294.906 683.369,294.239 683.5,293.5 Z"/></g>
<g><path style="opacity:0.008" fill="#807d73" d="M 651.5,293.5 C 652.525,293.897 652.692,294.563 652,295.5C 651.536,294.906 651.369,294.239 651.5,293.5 Z"/></g>
<g><path style="opacity:0.08" fill="#99988f" d="M 311.5,289.5 C 310.728,298.002 309.728,306.335 308.5,314.5C 308.286,305.883 309.286,297.55 311.5,289.5 Z"/></g>
<g><path style="opacity:0.004" fill="#818173" d="M 404.5,296.5 C 405.833,297.167 405.833,297.167 404.5,296.5 Z"/></g>
<g><path style="opacity:0.2" fill="#939289" d="M 400.5,295.5 C 401.657,298.273 402.324,301.273 402.5,304.5C 400.882,301.829 400.215,298.829 400.5,295.5 Z"/></g>
<g><path style="opacity:0.004" fill="#7d7d72" d="M 306.5,303.5 C 307.833,304.167 307.833,304.167 306.5,303.5 Z"/></g>
<g><path style="opacity:0.004" fill="#7c7c71" d="M 306.5,305.5 C 307.833,306.167 307.833,306.167 306.5,305.5 Z"/></g>
<g><path style="opacity:0.004" fill="#7d7a6e" d="M 404.5,306.5 C 404.897,305.475 405.563,305.308 406.5,306C 405.906,306.464 405.239,306.631 404.5,306.5 Z"/></g>
<g><path style="opacity:0.004" fill="#7e7c71" d="M 306.5,306.5 C 306.103,307.525 305.437,307.692 304.5,307C 305.094,306.536 305.761,306.369 306.5,306.5 Z"/></g>
<g><path style="opacity:0.004" fill="#868379" d="M 657.5,306.5 C 657.631,307.239 657.464,307.906 657,308.5C 656.308,307.563 656.475,306.897 657.5,306.5 Z"/></g>
<g><path style="opacity:0.004" fill="#87857a" d="M 657.5,310.5 C 656.833,309.167 656.833,309.167 657.5,310.5 Z"/></g>
<g><path style="opacity:0.004" fill="#858176" d="M 657.5,310.5 C 658.833,311.167 658.833,311.167 657.5,310.5 Z"/></g>
<g><path style="opacity:0.004" fill="#818077" d="M 678.5,310.5 C 679.833,311.167 679.833,311.167 678.5,310.5 Z"/></g>
<g><path style="opacity:0.008" fill="#767369" d="M 406.5,311.5 C 407.833,312.167 407.833,312.167 406.5,311.5 Z"/></g>
<g><path style="opacity:0.004" fill="#827f75" d="M 306.5,313.5 C 307.833,314.167 307.833,314.167 306.5,313.5 Z"/></g>
<g><path style="opacity:0.004" fill="#828174" d="M 306.5,314.5 C 305.833,315.167 305.833,315.167 306.5,314.5 Z"/></g>
<g><path style="opacity:0.02" fill="#a2a095" d="M 660.5,312.5 C 662.416,316.163 663.416,320.163 663.5,324.5C 661.898,320.761 660.898,316.761 660.5,312.5 Z"/></g>
<g><path style="opacity:0.004" fill="#908c80" d="M 659.5,318.5 C 660.833,319.167 660.833,319.167 659.5,318.5 Z"/></g>
<g><path style="opacity:0.004" fill="#928e82" d="M 676.5,318.5 C 677.833,319.167 677.833,319.167 676.5,318.5 Z"/></g>
<g><path style="opacity:0.004" fill="#949285" d="M 676.5,320.5 C 677.833,321.167 677.833,321.167 676.5,320.5 Z"/></g>
<g><path style="opacity:0.004" fill="#827f73" d="M 303.5,321.5 C 304.525,321.897 304.692,322.563 304,323.5C 303.536,322.906 303.369,322.239 303.5,321.5 Z"/></g>
<g><path style="opacity:0.006" fill="#7f7e71" d="M 305.5,321.5 C 306.525,321.897 306.692,322.563 306,323.5C 305.536,322.906 305.369,322.239 305.5,321.5 Z"/></g>
<g><path style="opacity:0.008" fill="#76766a" d="M 411.5,321.5 C 412.833,322.167 412.833,322.167 411.5,321.5 Z"/></g>
<g><path style="opacity:0.004" fill="#7b7b6e" d="M 414.5,322.5 C 415.833,323.167 415.833,323.167 414.5,322.5 Z"/></g>
<g><path style="opacity:0.706" fill="#87857d" d="M 409.5,321.5 C 410.167,321.833 410.833,322.167 411.5,322.5C 411.5,323.167 411.5,323.833 411.5,324.5C 410.094,324.027 409.427,323.027 409.5,321.5 Z"/></g>
<g><path style="opacity:0.012" fill="#76736a" d="M 412.5,323.5 C 413.833,324.167 413.833,324.167 412.5,323.5 Z"/></g>
<g><path style="opacity:0.925" fill="#767371" d="M 412.5,326.5 C 414.262,327.262 415.262,328.596 415.5,330.5C 413.738,329.738 412.738,328.404 412.5,326.5 Z"/></g>
<g><path style="opacity:0.004" fill="#817f73" d="M 303.5,330.5 C 304.833,331.167 304.833,331.167 303.5,330.5 Z"/></g>
<g><path style="opacity:0.918" fill="#74716b" d="M 415.5,330.5 C 416.906,330.973 417.573,331.973 417.5,333.5C 416.094,333.027 415.427,332.027 415.5,330.5 Z"/></g>
<g><path style="opacity:0.004" fill="#aeada3" d="M 672.5,329.5 C 672.59,332.152 671.924,334.485 670.5,336.5C 670.41,333.848 671.076,331.515 672.5,329.5 Z"/></g>
<g><path style="opacity:0.004" fill="#848476" d="M 275.5,333.5 C 276.833,334.167 276.833,334.167 275.5,333.5 Z"/></g>
<g><path style="opacity:0.278" fill="#a5a299" d="M 664.5,328.5 C 666.011,331.544 666.678,334.878 666.5,338.5C 666.167,338.5 665.833,338.5 665.5,338.5C 665.167,335.167 664.833,331.833 664.5,328.5 Z"/></g>
<g><path style="opacity:0.882" fill="#85837e" d="M 419.5,335.5 C 421.914,336.911 423.581,338.911 424.5,341.5C 422.086,340.089 420.419,338.089 419.5,335.5 Z"/></g>
<g><path style="opacity:0.012" fill="#9d9b8d" d="M 665.5,338.5 C 664.833,339.167 664.833,339.167 665.5,338.5 Z"/></g>
<g><path style="opacity:0.008" fill="#7f7c72" d="M 307.5,341.5 C 306.833,340.167 306.833,340.167 307.5,341.5 Z"/></g>
<g><path style="opacity:0.294" fill="#9c988d" d="M 670.5,337.5 C 670.5,338.5 670.5,339.5 670.5,340.5C 668.493,344.515 667.16,344.182 666.5,339.5C 667.117,339.611 667.617,339.944 668,340.5C 668.852,339.429 669.685,338.429 670.5,337.5 Z"/></g>
<g><path style="opacity:0.006" fill="#929085" d="M 670.5,340.5 C 671.525,340.897 671.692,341.563 671,342.5C 670.536,341.906 670.369,341.239 670.5,340.5 Z"/></g>
<g><path style="opacity:0.006" fill="#797569" d="M 307.5,341.5 C 307.833,341.5 308.167,341.5 308.5,341.5C 308.167,344.167 307.833,344.167 307.5,341.5 Z"/></g>
<g><path style="opacity:0.012" fill="#9c9a8b" d="M 663.5,341.5 C 664.833,342.167 664.833,342.167 663.5,341.5 Z"/></g>
<g><path style="opacity:0.008" fill="#93928a" d="M 429.5,346.5 C 431.749,347.08 433.415,348.413 434.5,350.5C 432.251,349.92 430.585,348.587 429.5,346.5 Z"/></g>
<g><path style="opacity:0.004" fill="#5e5e55" d="M 883.5,349.5 C 884.833,350.167 884.833,350.167 883.5,349.5 Z"/></g>
<g><path style="opacity:0.004" fill="#7e7a6f" d="M 308.5,350.5 C 309.833,351.167 309.833,351.167 308.5,350.5 Z"/></g>
<g><path style="opacity:0.989" fill="#2d2d2b" d="M 434.5,350.5 C 437.06,352.273 439.393,354.273 441.5,356.5C 441.973,357.906 442.973,358.573 444.5,358.5C 449.132,361.143 453.465,364.143 457.5,367.5C 455.345,367.628 453.345,367.128 451.5,366C 445.627,361.779 439.96,358.279 434.5,355.5C 434.5,353.833 434.5,352.167 434.5,350.5 Z"/></g>
<g><path style="opacity:0.055" fill="#93938a" d="M 441.5,356.5 C 443.027,356.427 444.027,357.094 444.5,358.5C 442.973,358.573 441.973,357.906 441.5,356.5 Z"/></g>
<g><path style="opacity:0.004" fill="#7b7b6c" d="M 309.5,358.5 C 310.833,359.167 310.833,359.167 309.5,358.5 Z"/></g>
<g><path style="opacity:0.004" fill="#77766a" d="M 449.5,359.5 C 450.833,360.167 450.833,360.167 449.5,359.5 Z"/></g>
<g><path style="opacity:0.012" fill="#79766c" d="M 312.5,367.5 C 313.833,368.167 313.833,368.167 312.5,367.5 Z"/></g>
<g><path style="opacity:0.004" fill="#737469" d="M 461.5,367.5 C 462.833,368.167 462.833,368.167 461.5,367.5 Z"/></g>
<g><path style="opacity:0.004" fill="#827f73" d="M 468.5,367.5 C 469.833,368.167 469.833,368.167 468.5,367.5 Z"/></g>
<g><path style="opacity:0.008" fill="#79766a" d="M 312.5,368.5 C 311.833,369.167 311.833,369.167 312.5,368.5 Z"/></g>
<g><path style="opacity:0.008" fill="#78766b" d="M 463.5,368.5 C 464.833,369.167 464.833,369.167 463.5,368.5 Z"/></g>
<g><path style="opacity:0.012" fill="#878479" d="M 315.5,369.5 C 316.404,370.209 316.737,371.209 316.5,372.5C 315.325,372.719 314.325,372.386 313.5,371.5C 313.846,370.304 314.346,370.304 315,371.5C 315.464,370.906 315.631,370.239 315.5,369.5 Z"/></g>
<g><path style="opacity:0.977" fill="#31312e" d="M 457.5,367.5 C 462.343,369.418 466.677,372.084 470.5,375.5C 468.254,376.214 465.921,376.048 463.5,375C 461.215,372.701 459.215,370.201 457.5,367.5 Z"/></g>
<g><path style="opacity:0.004" fill="#777469" d="M 314.5,373.5 C 315.833,374.167 315.833,374.167 314.5,373.5 Z"/></g>
<g><path style="opacity:0.004" fill="#77746b" d="M 476.5,376.5 C 477.833,377.167 477.833,377.167 476.5,376.5 Z"/></g>
<g><path style="opacity:0.988" fill="#333330" d="M 474.5,377.5 C 475.167,377.5 475.833,377.5 476.5,377.5C 478.657,379.412 480.991,381.079 483.5,382.5C 483.973,383.906 484.973,384.573 486.5,384.5C 487.167,384.5 487.833,384.5 488.5,384.5C 488.5,384.833 488.5,385.167 488.5,385.5C 482.594,385.429 477.594,383.262 473.5,379C 474.056,378.617 474.389,378.117 474.5,377.5 Z"/></g>
<g><path style="opacity:0.016" fill="#9d9a91" d="M 483.5,382.5 C 485.027,382.427 486.027,383.094 486.5,384.5C 484.973,384.573 483.973,383.906 483.5,382.5 Z"/></g>
<g><path style="opacity:0.529" fill="#9c9c94" d="M 319.5,380.5 C 320.931,381.78 321.598,383.447 321.5,385.5C 320.069,384.22 319.402,382.553 319.5,380.5 Z"/></g>
<g><path style="opacity:0.004" fill="#757368" d="M 488.5,383.5 C 489.833,384.167 489.833,384.167 488.5,383.5 Z"/></g>
<g><path style="opacity:0.004" fill="#7c7a70" d="M 491.5,384.5 C 490.833,383.167 490.833,383.167 491.5,384.5 Z"/></g>
<g><path style="opacity:0.008" fill="#7f7c71" d="M 493.5,383.5 C 494.833,384.167 494.833,384.167 493.5,383.5 Z"/></g>
<g><path style="opacity:0.008" fill="#79796c" d="M 491.5,384.5 C 492.833,385.167 492.833,385.167 491.5,384.5 Z"/></g>
<g><path style="opacity:0.004" fill="#767469" d="M 320.5,387.5 C 319.833,386.167 319.833,386.167 320.5,387.5 Z"/></g>
<g><path style="opacity:0.006" fill="#747167" d="M 320.5,387.5 C 320.833,387.5 321.167,387.5 321.5,387.5C 321.328,388.492 321.662,389.158 322.5,389.5C 322.483,391.028 321.816,391.528 320.5,391C 319.829,390.014 319.829,388.847 320.5,387.5 Z"/></g>
<g><path style="opacity:0.024" fill="#a09c96" d="M 498.5,390.5 C 500.674,390.75 502.341,391.75 503.5,393.5C 501.326,393.25 499.659,392.25 498.5,390.5 Z"/></g>
<g><path style="opacity:0.012" fill="#7d7c71" d="M 508.5,393.5 C 509.833,394.167 509.833,394.167 508.5,393.5 Z"/></g>
<g><path style="opacity:0.459" fill="#8d8c84" d="M 505.5,394.5 C 506.5,394.5 507.5,394.5 508.5,394.5C 511.167,396.167 513.833,397.833 516.5,399.5C 512.418,398.624 508.751,396.957 505.5,394.5 Z"/></g>
<g><path style="opacity:0.004" fill="#79776c" d="M 325.5,398.5 C 326.833,399.167 326.833,399.167 325.5,398.5 Z"/></g>
<g><path style="opacity:0.99" fill="#383734" d="M 324.5,391.5 C 327.369,393.052 329.702,395.219 331.5,398C 331.167,398.333 330.833,398.667 330.5,399C 333.359,401.794 334.693,404.961 334.5,408.5C 333.272,407.694 332.272,406.694 331.5,405.5C 328.642,401.117 326.308,396.45 324.5,391.5 Z"/></g>
<g><path style="opacity:0.004" fill="#7e7a70" d="M 520.5,399.5 C 521.833,400.167 521.833,400.167 520.5,399.5 Z"/></g>
<g><path style="opacity:0.004" fill="#817e73" d="M 522.5,401.5 C 522.897,400.475 523.563,400.308 524.5,401C 523.906,401.464 523.239,401.631 522.5,401.5 Z"/></g>
<g><path style="opacity:0.004" fill="#77746a" d="M 327.5,401.5 C 328.833,402.167 328.833,402.167 327.5,401.5 Z"/></g>
<g><path style="opacity:0.039" fill="#9f9d94" d="M 520.5,401.5 C 521.167,401.5 521.833,401.5 522.5,401.5C 523.167,402.167 523.833,402.833 524.5,403.5C 522.62,403.771 521.287,403.104 520.5,401.5 Z"/></g>
<g><path style="opacity:0.004" fill="#79756d" d="M 328.5,403.5 C 329.833,404.167 329.833,404.167 328.5,403.5 Z"/></g>
<g><path style="opacity:0.004" fill="#727065" d="M 331.5,405.5 C 330.833,406.167 330.833,406.167 331.5,405.5 Z"/></g>
<g><path style="opacity:0.502" fill="#908f86" d="M 528.5,405.5 C 530.819,405.992 532.819,406.992 534.5,408.5C 531.911,408.539 529.911,407.539 528.5,405.5 Z"/></g>
<g><path style="opacity:0.004" fill="#7d7c6f" d="M 541.5,409.5 C 542.833,410.167 542.833,410.167 541.5,409.5 Z"/></g>
<g><path style="opacity:0.004" fill="#737268" d="M 552.5,415.5 C 553.833,416.167 553.833,416.167 552.5,415.5 Z"/></g>
<g><path style="opacity:0.01" fill="#7d7b72" d="M 557.5,416.5 C 557.897,415.475 558.563,415.308 559.5,416C 558.906,416.464 558.239,416.631 557.5,416.5 Z"/></g>
<g><path style="opacity:0.016" fill="#9c9a92" d="M 339.5,415.5 C 340.906,415.973 341.573,416.973 341.5,418.5C 340.094,418.027 339.427,417.027 339.5,415.5 Z"/></g>
<g><path style="opacity:0.208" fill="#8e8d84" d="M 556.5,419.5 C 554.847,419.34 553.514,418.674 552.5,417.5C 553.822,417.67 554.989,417.337 556,416.5C 556.483,417.448 556.649,418.448 556.5,419.5 Z"/></g>
<g><path style="opacity:0.008" fill="#77766b" d="M 557.5,417.5 C 558.833,418.167 558.833,418.167 557.5,417.5 Z"/></g>
<g><path style="opacity:0.988" fill="#353532" d="M 556.5,419.5 C 560.5,421.167 564.5,422.833 568.5,424.5C 571.833,426.5 575.167,428.5 578.5,430.5C 577.417,430.539 576.417,430.873 575.5,431.5C 568.182,427.371 560.849,424.204 553.5,422C 554.942,421.623 555.942,420.79 556.5,419.5 Z"/></g>
<g><path style="opacity:0.012" fill="#76756c" d="M 568.5,423.5 C 569.833,424.167 569.833,424.167 568.5,423.5 Z"/></g>
<g><path style="opacity:0.004" fill="#7b7a6e" d="M 573.5,425.5 C 574.833,426.167 574.833,426.167 573.5,425.5 Z"/></g>
<g><path style="opacity:0.004" fill="#78766a" d="M 346.5,425.5 C 346.631,426.239 346.464,426.906 346,427.5C 345.308,426.563 345.475,425.897 346.5,425.5 Z"/></g>
<g><path style="opacity:0.027" fill="#888880" d="M 348.5,426.5 C 354.833,432.167 360.833,438.167 366.5,444.5C 362.227,441.566 358.227,438.233 354.5,434.5C 354.167,433.5 353.5,432.833 352.5,432.5C 352.167,431.5 351.5,430.833 350.5,430.5C 350.167,429.5 349.5,428.833 348.5,428.5C 348.5,427.833 348.5,427.167 348.5,426.5 Z"/></g>
<g><path style="opacity:0.004" fill="#7d7b6f" d="M 344.5,428.5 C 345.833,429.167 345.833,429.167 344.5,428.5 Z"/></g>
<g><path style="opacity:0.008" fill="#77766b" d="M 348.5,428.5 C 347.833,429.167 347.833,429.167 348.5,428.5 Z"/></g>
<g><path style="opacity:0.008" fill="#79776c" d="M 350.5,430.5 C 349.833,431.167 349.833,431.167 350.5,430.5 Z"/></g>
<g><path style="opacity:0.008" fill="#7d796f" d="M 584.5,431.5 C 585.833,432.167 585.833,432.167 584.5,431.5 Z"/></g>
<g><path style="opacity:0.004" fill="#7c796f" d="M 352.5,432.5 C 352.631,433.239 352.464,433.906 352,434.5C 351.308,433.563 351.475,432.897 352.5,432.5 Z"/></g>
<g><path style="opacity:0.004" fill="#777769" d="M 354.5,434.5 C 353.833,435.167 353.833,435.167 354.5,434.5 Z"/></g>
<g><path style="opacity:0.004" fill="#9c9b93" d="M 584.5,433.5 C 587.331,434.079 589.664,435.412 591.5,437.5C 588.669,436.921 586.336,435.588 584.5,433.5 Z"/></g>
<g><path style="opacity:0.004" fill="#807f72" d="M 351.5,438.5 C 352.833,439.167 352.833,439.167 351.5,438.5 Z"/></g>
<g><path style="opacity:0.004" fill="#7e7c70" d="M 354.5,438.5 C 355.833,439.167 355.833,439.167 354.5,438.5 Z"/></g>
<g><path style="opacity:0.004" fill="#7d7d72" d="M 602.5,439.5 C 603.833,440.167 603.833,440.167 602.5,439.5 Z"/></g>
<g><path style="opacity:0.004" fill="#7f7d71" d="M 605.5,441.5 C 606.833,442.167 606.833,442.167 605.5,441.5 Z"/></g>
<g><path style="opacity:0.004" fill="#7a786a" d="M 605.5,442.5 C 604.833,443.167 604.833,443.167 605.5,442.5 Z"/></g>
<g><path style="opacity:0.004" fill="#7b796f" d="M 365.5,446.5 C 366.833,447.167 366.833,447.167 365.5,446.5 Z"/></g>
<g><path style="opacity:0.004" fill="#74736a" d="M 615.5,448.5 C 614.833,447.167 614.833,447.167 615.5,448.5 Z"/></g>
<g><path style="opacity:0.004" fill="#7d7d71" d="M 367.5,448.5 C 368.833,449.167 368.833,449.167 367.5,448.5 Z"/></g>
<g><path style="opacity:0.757" fill="#7e7e75" d="M 366.5,444.5 C 369.089,445.419 371.089,447.086 372.5,449.5C 369.911,448.581 367.911,446.914 366.5,444.5 Z"/></g>
<g><path style="opacity:0.004" fill="#79786e" d="M 615.5,448.5 C 616.833,449.167 616.833,449.167 615.5,448.5 Z"/></g>
<g><path style="opacity:0.004" fill="#807e71" d="M 368.5,452.5 C 369.833,453.167 369.833,453.167 368.5,452.5 Z"/></g>
<g><path style="opacity:0.831" fill="#8d8d84" d="M 374.5,451.5 C 376.027,451.427 377.027,452.094 377.5,453.5C 375.973,453.573 374.973,452.906 374.5,451.5 Z"/></g>
<g><path style="opacity:0.922" fill="#787870" d="M 381.5,456.5 C 383.404,456.738 384.738,457.738 385.5,459.5C 383.596,459.262 382.262,458.262 381.5,456.5 Z"/></g>
<g><path style="opacity:0.99" fill="#2c2c2a" d="M 600.5,442.5 C 601.833,442.833 603.167,443.167 604.5,443.5C 616.335,450.583 628.002,457.917 639.5,465.5C 639.5,465.833 639.5,466.167 639.5,466.5C 638.375,467.014 637.209,467.347 636,467.5C 635.626,466.584 635.126,465.75 634.5,465C 630.495,463.937 626.828,462.437 623.5,460.5C 623.719,459.325 623.386,458.325 622.5,457.5C 616.497,453.496 610.164,449.996 603.5,447C 602.117,445.729 601.117,444.229 600.5,442.5 Z"/></g>
<g><path style="opacity:0.875" fill="#7b7972" d="M 385.5,459.5 C 387.404,459.738 388.738,460.738 389.5,462.5C 387.596,462.262 386.262,461.262 385.5,459.5 Z"/></g>
<g><path style="opacity:0.71" fill="#87887e" d="M 389.5,462.5 C 391.027,462.427 392.027,463.094 392.5,464.5C 390.973,464.573 389.973,463.906 389.5,462.5 Z"/></g>
<g><path style="opacity:0.012" fill="#7b7a6e" d="M 640.5,463.5 C 641.833,464.167 641.833,464.167 640.5,463.5 Z"/></g>
<g><path style="opacity:0.765" fill="#82827a" d="M 392.5,464.5 C 394.027,464.427 395.027,465.094 395.5,466.5C 394.833,466.5 394.167,466.5 393.5,466.5C 393.167,465.833 392.833,465.167 392.5,464.5 Z"/></g>
<g><path style="opacity:0.027" fill="#949188" d="M 639.5,466.5 C 639.5,466.167 639.5,465.833 639.5,465.5C 641.027,465.427 642.027,466.094 642.5,467.5C 641.391,467.443 640.391,467.11 639.5,466.5 Z"/></g>
<g><path style="opacity:0.004" fill="#77746b" d="M 393.5,466.5 C 392.833,467.167 392.833,467.167 393.5,466.5 Z"/></g>
<g><path style="opacity:0.792" fill="#807f76" d="M 395.5,466.5 C 397.404,466.738 398.738,467.738 399.5,469.5C 397.596,469.262 396.262,468.262 395.5,466.5 Z"/></g>
<g><path style="opacity:0.02" fill="#8e8d83" d="M 642.5,468.5 C 642.5,468.167 642.5,467.833 642.5,467.5C 644.027,467.427 645.027,468.094 645.5,469.5C 644.391,469.443 643.391,469.11 642.5,468.5 Z"/></g>
<g><path style="opacity:0.557" fill="#9b9996" d="M 399.5,469.5 C 400.609,469.557 401.609,469.89 402.5,470.5C 402.5,470.833 402.5,471.167 402.5,471.5C 400.973,471.573 399.973,470.906 399.5,469.5 Z"/></g>
<g><path style="opacity:0.024" fill="#95958e" d="M 648.5,471.5 C 650.027,471.427 651.027,472.094 651.5,473.5C 649.973,473.573 648.973,472.906 648.5,471.5 Z"/></g>
<g><path style="opacity:0.991" fill="#232321" d="M 642.5,468.5 C 643.391,469.11 644.391,469.443 645.5,469.5C 646.71,469.932 647.71,470.599 648.5,471.5C 648.973,472.906 649.973,473.573 651.5,473.5C 655.736,475.445 659.403,478.112 662.5,481.5C 662.5,481.833 662.5,482.167 662.5,482.5C 660.099,481.951 657.765,481.118 655.5,480C 654.874,479.25 654.374,478.416 654,477.5C 653.667,477.833 653.333,478.167 653,478.5C 652.558,476.321 651.558,475.655 650,476.5C 647.718,473.432 644.884,470.932 641.5,469C 641.728,468.601 642.062,468.435 642.5,468.5 Z"/></g>
<g><path style="opacity:0.991" fill="#373734" d="M 417.5,480.5 C 415.313,479.242 412.98,478.242 410.5,477.5C 407.833,475.5 405.167,473.5 402.5,471.5C 402.5,471.167 402.5,470.833 402.5,470.5C 402.897,469.475 403.563,469.308 404.5,470C 405.167,471 405.833,472 406.5,473C 411.442,473.798 415.109,476.298 417.5,480.5 Z"/></g>
<g><path style="opacity:0.004" fill="#757266" d="M 410.5,477.5 C 410.217,478.289 409.717,478.956 409,479.5C 408.472,478.184 408.972,477.517 410.5,477.5 Z"/></g>
<g><path style="opacity:0.471" fill="#898982" d="M 417.5,481.5 C 417.5,481.167 417.5,480.833 417.5,480.5C 419.027,480.427 420.027,481.094 420.5,482.5C 419.833,482.5 419.167,482.5 418.5,482.5C 418.5,481.833 418.167,481.5 417.5,481.5 Z"/></g>
<g><path style="opacity:0.004" fill="#919088" d="M 662.5,482.5 C 662.5,482.167 662.5,481.833 662.5,481.5C 664.404,481.738 665.738,482.738 666.5,484.5C 664.938,484.267 663.605,483.6 662.5,482.5 Z"/></g>
<g><path style="opacity:0.012" fill="#78756a" d="M 417.5,481.5 C 418.167,481.5 418.5,481.833 418.5,482.5C 417.503,483.713 416.503,483.546 415.5,482C 416.094,481.536 416.761,481.369 417.5,481.5 Z"/></g>
<g><path style="opacity:0.012" fill="#77776a" d="M 420.5,483.5 C 419.833,484.167 419.833,484.167 420.5,483.5 Z"/></g>
<g><path style="opacity:0.004" fill="#919186" d="M 667.5,485.5 C 669.027,485.427 670.027,486.094 670.5,487.5C 668.973,487.573 667.973,486.906 667.5,485.5 Z"/></g>
<g><path style="opacity:0.008" fill="#7f7c70" d="M 419.5,485.5 C 420.525,485.897 420.692,486.563 420,487.5C 419.536,486.906 419.369,486.239 419.5,485.5 Z"/></g>
<g><path style="opacity:0.008" fill="#736e66" d="M 672.5,487.5 C 673.833,488.167 673.833,488.167 672.5,487.5 Z"/></g>
<g><path style="opacity:0.992" fill="#3b3b37" d="M 422.5,483.5 C 427.217,483.527 431.217,485.194 434.5,488.5C 436.762,489.467 439.095,490.134 441.5,490.5C 441.433,491.959 441.766,493.292 442.5,494.5C 439.378,493.439 436.378,492.105 433.5,490.5C 430.313,488.65 427.147,486.65 424,484.5C 422.913,486.932 422.413,486.598 422.5,483.5 Z"/></g>
<g><path style="opacity:0.02" fill="#939289" d="M 672.5,489.5 C 674.404,489.738 675.738,490.738 676.5,492.5C 674.596,492.262 673.262,491.262 672.5,489.5 Z"/></g>
<g><path style="opacity:0.004" fill="#77756b" d="M 433.5,490.5 C 433.5,491.167 433.5,491.833 433.5,492.5C 431.067,491.452 431.067,490.786 433.5,490.5 Z"/></g>
<g><path style="opacity:0.004" fill="#7b7a6f" d="M 433.5,492.5 C 434.833,493.167 434.833,493.167 433.5,492.5 Z"/></g>
<g><path style="opacity:0.012" fill="#7d7c71" d="M 431.5,494.5 C 432.833,495.167 432.833,495.167 431.5,494.5 Z"/></g>
<g><path style="opacity:0.008" fill="#7d7d6e" d="M 435.5,494.5 C 436.833,495.167 436.833,495.167 435.5,494.5 Z"/></g>
<g><path style="opacity:0.278" fill="#949389" d="M 444.5,495.5 C 445.167,495.5 445.833,495.5 446.5,495.5C 446.833,496.167 447.167,496.833 447.5,497.5C 445.973,497.573 444.973,496.906 444.5,495.5 Z"/></g>
<g><path style="opacity:0.055" fill="#88877f" d="M 680.5,496.5 C 682.404,496.738 683.738,497.738 684.5,499.5C 682.596,499.262 681.262,498.262 680.5,496.5 Z"/></g>
<g><path style="opacity:0.008" fill="#7c786f" d="M 451.5,500.5 C 451.631,501.239 451.464,501.906 451,502.5C 450.308,501.563 450.475,500.897 451.5,500.5 Z"/></g>
<g><path style="opacity:0.008" fill="#7d7b6f" d="M 447.5,502.5 C 448.833,503.167 448.833,503.167 447.5,502.5 Z"/></g>
<g><path style="opacity:0.004" fill="#7a776d" d="M 693.5,503.5 C 694.833,504.167 694.833,504.167 693.5,503.5 Z"/></g>
<g><path style="opacity:0.008" fill="#7a776d" d="M 463.5,508.5 C 464.833,509.167 464.833,509.167 463.5,508.5 Z"/></g>
<g><path style="opacity:0.369" fill="#929288" d="M 467.5,508.5 C 467.5,508.167 467.5,507.833 467.5,507.5C 469.027,507.427 470.027,508.094 470.5,509.5C 469.833,509.5 469.167,509.5 468.5,509.5C 468.5,508.833 468.167,508.5 467.5,508.5 Z"/></g>
<g><path style="opacity:0.012" fill="#787368" d="M 467.5,508.5 C 468.167,508.5 468.5,508.833 468.5,509.5C 467.503,510.713 466.503,510.546 465.5,509C 466.094,508.536 466.761,508.369 467.5,508.5 Z"/></g>
<g><path style="opacity:0.004" fill="#747368" d="M 469.5,510.5 C 470.833,511.167 470.833,511.167 469.5,510.5 Z"/></g>
<g><path style="opacity:0.004" fill="#747369" d="M 698.5,511.5 C 699.833,512.167 699.833,512.167 698.5,511.5 Z"/></g>
<g><path style="opacity:0.004" fill="#78796c" d="M 701.5,511.5 C 702.833,512.167 702.833,512.167 701.5,511.5 Z"/></g>
<g><path style="opacity:0.992" fill="#777670" d="M 696.5,511.5 C 697.167,511.833 697.833,512.167 698.5,512.5C 699.925,513.922 700.925,515.589 701.5,517.5C 699.086,516.089 697.419,514.089 696.5,511.5 Z"/></g>
<g><path style="opacity:0.004" fill="#76766c" d="M 701.5,512.5 C 700.833,513.167 700.833,513.167 701.5,512.5 Z"/></g>
<g><path style="opacity:0.004" fill="#767369" d="M 482.5,516.5 C 481.833,517.167 481.833,517.167 482.5,516.5 Z"/></g>
<g><path style="opacity:0.412" fill="#8e8e86" d="M 488.5,518.5 C 490.027,518.427 491.027,519.094 491.5,520.5C 489.973,520.573 488.973,519.906 488.5,518.5 Z"/></g>
<g><path style="opacity:0.82" fill="#73736c" d="M 701.5,517.5 C 703.914,518.911 705.581,520.911 706.5,523.5C 704.086,522.089 702.419,520.089 701.5,517.5 Z"/></g>
<g><path style="opacity:0.004" fill="#7a796e" d="M 497.5,525.5 C 498.833,526.167 498.833,526.167 497.5,525.5 Z"/></g>
<g><path style="opacity:0.875" fill="#777670" d="M 706.5,523.5 C 708.587,524.585 709.92,526.251 710.5,528.5C 708.413,527.415 707.08,525.749 706.5,523.5 Z"/></g>
<g><path style="opacity:0.991" fill="#282826" d="M 446.5,495.5 C 448.527,495.338 450.527,495.505 452.5,496C 457.826,501.674 464.159,504.508 471.5,504.5C 471.33,505.822 471.663,506.989 472.5,508C 493.321,518.435 513.988,529.435 534.5,541C 535.252,541.671 535.586,542.504 535.5,543.5C 535.167,543.5 534.833,543.5 534.5,543.5C 533.508,543.672 532.842,543.338 532.5,542.5C 532.027,541.094 531.027,540.427 529.5,540.5C 527.847,540.34 526.514,539.674 525.5,538.5C 525.027,537.094 524.027,536.427 522.5,536.5C 522.167,536.5 521.833,536.5 521.5,536.5C 521.027,535.094 520.027,534.427 518.5,534.5C 516.5,533.833 514.5,533.167 512.5,532.5C 511.167,531.5 509.833,530.5 508.5,529.5C 508.027,528.094 507.027,527.427 505.5,527.5C 500.516,525.674 495.849,523.341 491.5,520.5C 491.027,519.094 490.027,518.427 488.5,518.5C 486.5,517.833 484.5,517.167 482.5,516.5C 478.535,514.182 474.535,511.848 470.5,509.5C 470.027,508.094 469.027,507.427 467.5,507.5C 462.167,505.167 456.833,502.833 451.5,500.5C 450.167,499.5 448.833,498.5 447.5,497.5C 447.167,496.833 446.833,496.167 446.5,495.5 Z"/></g>
<g><path style="opacity:0.373" fill="#98978e" d="M 505.5,527.5 C 507.027,527.427 508.027,528.094 508.5,529.5C 506.973,529.573 505.973,528.906 505.5,527.5 Z"/></g>
<g><path style="opacity:0.871" fill="#6d6e67" d="M 710.5,528.5 C 711.906,528.973 712.573,529.973 712.5,531.5C 711.094,531.027 710.427,530.027 710.5,528.5 Z"/></g>
<g><path style="opacity:0.004" fill="#79796c" d="M 512.5,532.5 C 511.833,533.167 511.833,533.167 512.5,532.5 Z"/></g>
<g><path style="opacity:0.906" fill="#6a6a65" d="M 712.5,531.5 C 713.906,531.973 714.573,532.973 714.5,534.5C 713.094,534.027 712.427,533.027 712.5,531.5 Z"/></g>
<g><path style="opacity:0.004" fill="#817f74" d="M 503.5,534.5 C 504.833,535.167 504.833,535.167 503.5,534.5 Z"/></g>
<g><path style="opacity:0.275" fill="#94928a" d="M 518.5,534.5 C 520.027,534.427 521.027,535.094 521.5,536.5C 519.973,536.573 518.973,535.906 518.5,534.5 Z"/></g>
<g><path style="opacity:0.631" fill="#87877c" d="M 522.5,536.5 C 524.027,536.427 525.027,537.094 525.5,538.5C 523.973,538.573 522.973,537.906 522.5,536.5 Z"/></g>
<g><path style="opacity:0.012" fill="#737067" d="M 718.5,538.5 C 718.369,537.761 718.536,537.094 719,536.5C 719.692,537.437 719.525,538.103 718.5,538.5 Z"/></g>
<g><path style="opacity:0.004" fill="#7b7a6f" d="M 520.5,538.5 C 521.833,539.167 521.833,539.167 520.5,538.5 Z"/></g>
<g><path style="opacity:0.376" fill="#9d9a92" d="M 529.5,540.5 C 531.027,540.427 532.027,541.094 532.5,542.5C 530.973,542.573 529.973,541.906 529.5,540.5 Z"/></g>
<g><path style="opacity:0.835" fill="#8c8c83" d="M 534.5,543.5 C 534.833,543.5 535.167,543.5 535.5,543.5C 536.71,543.932 537.71,544.599 538.5,545.5C 536.62,545.771 535.287,545.104 534.5,543.5 Z"/></g>
<g><path style="opacity:0.988" fill="#343432" d="M 714.5,534.5 C 716.194,535.527 717.527,536.861 718.5,538.5C 722.542,546.191 726.542,553.858 730.5,561.5C 732.121,565.743 733.454,570.076 734.5,574.5C 733.279,573.972 732.113,573.305 731,572.5C 728.136,561.489 723.136,551.156 716,541.5C 715.316,540.216 715.483,539.049 716.5,538C 715.177,537.184 714.511,536.017 714.5,534.5 Z"/></g>
<g><path style="opacity:0.006" fill="#7a796e" d="M 724.5,544.5 C 724.897,543.475 725.563,543.308 726.5,544C 725.906,544.464 725.239,544.631 724.5,544.5 Z"/></g>
<g><path style="opacity:0.006" fill="#747367" d="M 538.5,546.5 C 538.103,547.525 537.437,547.692 536.5,547C 537.094,546.536 537.761,546.369 538.5,546.5 Z"/></g>
<g><path style="opacity:0.612" fill="#7a7a6f" d="M 546.5,550.5 C 548.027,550.427 549.027,551.094 549.5,552.5C 547.973,552.573 546.973,551.906 546.5,550.5 Z"/></g>
<g><path style="opacity:0.812" fill="#70716a" d="M 551.5,553.5 C 553.027,553.427 554.027,554.094 554.5,555.5C 552.973,555.573 551.973,554.906 551.5,553.5 Z"/></g>
<g><path style="opacity:0.784" fill="#77766e" d="M 554.5,555.5 C 556.027,555.427 557.027,556.094 557.5,557.5C 555.973,557.573 554.973,556.906 554.5,555.5 Z"/></g>
<g><path style="opacity:0.855" fill="#7a7973" d="M 557.5,557.5 C 559.027,557.427 560.027,558.094 560.5,559.5C 558.973,559.573 557.973,558.906 557.5,557.5 Z"/></g>
<g><path style="opacity:0.006" fill="#7b796f" d="M 731.5,560.5 C 731.897,559.475 732.563,559.308 733.5,560C 732.906,560.464 732.239,560.631 731.5,560.5 Z"/></g>
<g><path style="opacity:0.843" fill="#706f68" d="M 560.5,559.5 C 562.027,559.427 563.027,560.094 563.5,561.5C 561.973,561.573 560.973,560.906 560.5,559.5 Z"/></g>
<g><path style="opacity:0.008" fill="#727366" d="M 731.5,560.5 C 730.833,561.167 730.833,561.167 731.5,560.5 Z"/></g>
<g><path style="opacity:0.012" fill="#7c7a6f" d="M 733.5,561.5 C 734.833,562.167 734.833,562.167 733.5,561.5 Z"/></g>
<g><path style="opacity:0.902" fill="#6b6a61" d="M 563.5,561.5 C 565.404,561.738 566.738,562.738 567.5,564.5C 565.596,564.262 564.262,563.262 563.5,561.5 Z"/></g>
<g><path style="opacity:0.835" fill="#686761" d="M 567.5,564.5 C 569.027,564.427 570.027,565.094 570.5,566.5C 568.973,566.573 567.973,565.906 567.5,564.5 Z"/></g>
<g><path style="opacity:0.012" fill="#78776d" d="M 733.5,566.5 C 734.833,567.167 734.833,567.167 733.5,566.5 Z"/></g>
<g><path style="opacity:0.851" fill="#67665e" d="M 570.5,566.5 C 572.027,566.427 573.027,567.094 573.5,568.5C 571.973,568.573 570.973,567.906 570.5,566.5 Z"/></g>
<g><path style="opacity:0.01" fill="#79736b" d="M 734.5,568.5 C 735.525,568.897 735.692,569.563 735,570.5C 734.536,569.906 734.369,569.239 734.5,568.5 Z"/></g>
<g><path style="opacity:0.686" fill="#807f76" d="M 573.5,568.5 C 576.792,570.458 579.792,572.791 582.5,575.5C 580.716,575.107 579.05,574.441 577.5,573.5C 577.5,572.833 577.167,572.5 576.5,572.5C 575.5,571.167 574.5,569.833 573.5,568.5 Z"/></g>
<g><path style="opacity:0.004" fill="#78766b" d="M 576.5,572.5 C 577.167,572.5 577.5,572.833 577.5,573.5C 577.44,574.043 577.107,574.376 576.5,574.5C 575.227,573.743 575.227,573.077 576.5,572.5 Z"/></g>
<g><path style="opacity:0.678" fill="#7a7972" d="M 582.5,575.5 C 584.749,576.08 586.415,577.413 587.5,579.5C 586.833,579.5 586.167,579.5 585.5,579.5C 584.5,578.167 583.5,576.833 582.5,575.5 Z"/></g>
<g><path style="opacity:0.004" fill="#79756d" d="M 585.5,579.5 C 585.842,580.338 586.508,580.672 587.5,580.5C 586.791,581.404 585.791,581.737 584.5,581.5C 584.328,580.508 584.662,579.842 585.5,579.5 Z"/></g>
<g><path style="opacity:0.004" fill="#7b7b6f" d="M 584.5,581.5 C 583.833,582.167 583.833,582.167 584.5,581.5 Z"/></g>
<g><path style="opacity:0.227" fill="#8e8f86" d="M 735.5,577.5 C 737.277,580.505 738.277,583.838 738.5,587.5C 736.395,584.592 735.395,581.258 735.5,577.5 Z"/></g>
<g><path style="opacity:0.949" fill="#807e77" d="M 587.5,580.5 C 587.5,580.167 587.5,579.833 587.5,579.5C 590.764,581.094 593.431,583.427 595.5,586.5C 594.504,586.414 593.671,586.748 593,587.5C 592.093,584.428 590.26,582.095 587.5,580.5 Z"/></g>
<g><path style="opacity:0.008" fill="#7a766a" d="M 595.5,587.5 C 594.833,588.167 594.833,588.167 595.5,587.5 Z"/></g>
<g><path style="opacity:0.965" fill="#808078" d="M 597.5,588.5 C 602.833,591.833 607.167,596.167 610.5,601.5C 609.448,601.649 608.448,601.483 607.5,601C 607.833,600.667 608.167,600.333 608.5,600C 606.963,598.293 605.296,596.793 603.5,595.5C 601.5,593.167 599.5,590.833 597.5,588.5 Z"/></g>
<g><path style="opacity:0.008" fill="#79796f" d="M 741.5,591.5 C 742.833,592.167 742.833,592.167 741.5,591.5 Z"/></g>
<g><path style="opacity:0.004" fill="#7a796e" d="M 599.5,593.5 C 600.833,594.167 600.833,594.167 599.5,593.5 Z"/></g>
<g><path style="opacity:0.004" fill="#78766c" d="M 741.5,593.5 C 742.833,594.167 742.833,594.167 741.5,593.5 Z"/></g>
<g><path style="opacity:0.004" fill="#777669" d="M 603.5,595.5 C 602.833,596.167 602.833,596.167 603.5,595.5 Z"/></g>
<g><path style="opacity:0.004" fill="#7b7d70" d="M 599.5,596.5 C 600.833,597.167 600.833,597.167 599.5,596.5 Z"/></g>
<g><path style="opacity:0.004" fill="#7c7b70" d="M 602.5,597.5 C 603.833,598.167 603.833,598.167 602.5,597.5 Z"/></g>
<g><path style="opacity:0.995" fill="#21201f" d="M 595.5,587.5 C 595.5,587.167 595.5,586.833 595.5,586.5C 596.873,586.343 598.207,586.51 599.5,587C 607.443,595.296 615.276,602.796 623,609.5C 623.333,611.167 623.667,612.833 624,614.5C 626.757,617.429 628.924,620.762 630.5,624.5C 630.137,625.183 629.804,625.85 629.5,626.5C 626.266,622.378 623.266,618.045 620.5,613.5C 620.573,611.973 619.906,610.973 618.5,610.5C 618.167,610.5 617.833,610.5 617.5,610.5C 615.549,607.214 613.215,604.214 610.5,601.5C 607.167,596.167 602.833,591.833 597.5,588.5C 596.833,588.167 596.167,587.833 595.5,587.5 Z"/></g>
<g><path style="opacity:0.016" fill="#95948a" d="M 314.5,607.5 C 313.883,607.389 313.383,607.056 313,606.5C 312.79,608.058 312.29,609.391 311.5,610.5C 311.5,608.167 311.5,605.833 311.5,603.5C 312.552,603.351 313.552,603.517 314.5,604C 313.829,604.986 313.829,606.153 314.5,607.5 Z"/></g>
<g><path style="opacity:0.004" fill="#949487" d="M 315.5,605.5 C 316.833,606.167 316.833,606.167 315.5,605.5 Z"/></g>
<g><path style="opacity:0.004" fill="#706d64" d="M 617.5,610.5 C 616.833,611.167 616.833,611.167 617.5,610.5 Z"/></g>
<g><path style="opacity:0.008" fill="#939284" d="M 308.5,611.5 C 309.833,612.167 309.833,612.167 308.5,611.5 Z"/></g>
<g><path style="opacity:0.02" fill="#9a9890" d="M 618.5,610.5 C 619.906,610.973 620.573,611.973 620.5,613.5C 620.167,613.5 619.833,613.5 619.5,613.5C 618.89,612.609 618.557,611.609 618.5,610.5 Z"/></g>
<g><path style="opacity:0.008" fill="#757066" d="M 619.5,613.5 C 618.833,614.167 618.833,614.167 619.5,613.5 Z"/></g>
<g><path style="opacity:0.143" fill="#a1a099" d="M 742.5,607.5 C 744.006,615.445 744.673,623.612 744.5,632C 744.499,637.677 744.166,643.177 743.5,648.5C 743.588,634.82 743.255,621.153 742.5,607.5 Z"/></g>
<g><path style="opacity:0.004" fill="#8f8b7f" d="M 307.5,623.5 C 308.525,623.897 308.692,624.563 308,625.5C 307.536,624.906 307.369,624.239 307.5,623.5 Z"/></g>
<g><path style="opacity:0.004" fill="#8a897d" d="M 304.5,633.5 C 305.833,634.167 305.833,634.167 304.5,633.5 Z"/></g>
<g><path style="opacity:0.008" fill="#7c7a70" d="M 632.5,638.5 C 633.525,638.897 633.692,639.563 633,640.5C 632.536,639.906 632.369,639.239 632.5,638.5 Z"/></g>
<g><path style="opacity:0.004" fill="#89877c" d="M 303.5,639.5 C 304.525,639.897 304.692,640.563 304,641.5C 303.536,640.906 303.369,640.239 303.5,639.5 Z"/></g>
<g><path style="opacity:0.012" fill="#848076" d="M 305.5,640.5 C 306.525,640.897 306.692,641.563 306,642.5C 305.536,641.906 305.369,641.239 305.5,640.5 Z"/></g>
<g><path style="opacity:0.004" fill="#807c72" d="M 631.5,642.5 C 632.833,643.167 632.833,643.167 631.5,642.5 Z"/></g>
<g><path style="opacity:0.004" fill="#858278" d="M 304.5,643.5 C 305.833,644.167 305.833,644.167 304.5,643.5 Z"/></g>
<g><path style="opacity:0.008" fill="#7a786b" d="M 636.5,645.5 C 635.833,646.167 635.833,646.167 636.5,645.5 Z"/></g>
<g><path style="opacity:0.42" fill="#9d9c92" d="M 636.5,642.5 C 637.931,643.78 638.598,645.447 638.5,647.5C 637.833,646.833 637.167,646.167 636.5,645.5C 636.5,644.5 636.5,643.5 636.5,642.5 Z"/></g>
<g><path style="opacity:0.004" fill="#858378" d="M 304.5,647.5 C 305.833,648.167 305.833,648.167 304.5,647.5 Z"/></g>
<g><path style="opacity:0.004" fill="#848175" d="M 304.5,648.5 C 304.833,649.167 305.167,649.833 305.5,650.5C 304.732,651.263 304.232,652.263 304,653.5C 303.22,651.613 303.387,649.946 304.5,648.5 Z"/></g>
<g><path style="opacity:0.004" fill="#7d7a6e" d="M 303.5,654.5 C 304.833,655.167 304.833,655.167 303.5,654.5 Z"/></g>
<g><path style="opacity:0.004" fill="#77756b" d="M 334.5,655.5 C 335.833,656.167 335.833,656.167 334.5,655.5 Z"/></g>
<g><path style="opacity:0.004" fill="#7e7d73" d="M 639.5,660.5 C 640.525,660.897 640.692,661.563 640,662.5C 639.536,661.906 639.369,661.239 639.5,660.5 Z"/></g>
<g><path style="opacity:0.004" fill="#807e70" d="M 340.5,663.5 C 341.833,664.167 341.833,664.167 340.5,663.5 Z"/></g>
<g><path style="opacity:0.008" fill="#7d7c70" d="M 639.5,663.5 C 640.833,664.167 640.833,664.167 639.5,663.5 Z"/></g>
<g><path style="opacity:0.004" fill="#818074" d="M 342.5,664.5 C 343.833,665.167 343.833,665.167 342.5,664.5 Z"/></g>
<g><path style="opacity:0.008" fill="#79776f" d="M 742.5,664.5 C 743.573,665.251 743.74,666.251 743,667.5C 742.517,666.552 742.351,665.552 742.5,664.5 Z"/></g>
<g><path style="opacity:0.989" fill="#282825" d="M 326.5,640.5 C 329.167,645.833 331.833,651.167 334.5,656.5C 336.5,661.167 338.5,665.833 340.5,670.5C 340.427,672.027 341.094,673.027 342.5,673.5C 343.338,673.842 343.672,674.508 343.5,675.5C 343.427,677.027 344.094,678.027 345.5,678.5C 347.664,680.822 349.331,683.489 350.5,686.5C 350.738,688.404 351.738,689.738 353.5,690.5C 356.323,693.475 358.656,696.808 360.5,700.5C 360.5,700.833 360.5,701.167 360.5,701.5C 359.883,701.611 359.383,701.944 359,702.5C 346.609,686.577 336.443,669.244 328.5,650.5C 326.816,647.388 326.15,644.054 326.5,640.5 Z"/></g>
<g><path style="opacity:0.008" fill="#7e7d72" d="M 342.5,665.5 C 341.833,666.167 341.833,666.167 342.5,665.5 Z"/></g>
<g><path style="opacity:0.302" fill="#95958e" d="M 742.5,657.5 C 742.041,664.46 740.708,671.127 738.5,677.5C 739.215,670.589 740.549,663.923 742.5,657.5 Z"/></g>
<g><path style="opacity:0.012" fill="#8d8b82" d="M 641.5,658.5 C 644.679,669.446 645.012,680.446 642.5,691.5C 642.896,688.956 642.229,686.789 640.5,685C 641.672,684.581 642.672,683.915 643.5,683C 643.484,680.651 643.484,678.318 643.5,676C 642.815,673.205 642.315,670.372 642,667.5C 641.016,669.795 640.183,669.461 639.5,666.5C 639.846,665.304 640.346,665.304 641,666.5C 641.497,663.854 641.664,661.187 641.5,658.5 Z"/></g>
<g><path style="opacity:0.004" fill="#7d7b6f" d="M 639.5,670.5 C 640.833,671.167 640.833,671.167 639.5,670.5 Z"/></g>
<g><path style="opacity:0.004" fill="#77766d" d="M 741.5,670.5 C 742.833,671.167 742.833,671.167 741.5,670.5 Z"/></g>
<g><path style="opacity:0.765" fill="#7f7c76" d="M 340.5,670.5 C 341.906,670.973 342.573,671.973 342.5,673.5C 341.094,673.027 340.427,672.027 340.5,670.5 Z"/></g>
<g><path style="opacity:0.004" fill="#807e71" d="M 639.5,674.5 C 640.833,675.167 640.833,675.167 639.5,674.5 Z"/></g>
<g><path style="opacity:0.604" fill="#908f86" d="M 343.5,675.5 C 344.906,675.973 345.573,676.973 345.5,678.5C 344.094,678.027 343.427,677.027 343.5,675.5 Z"/></g>
<g><path style="opacity:0.008" fill="#7a7871" d="M 739.5,678.5 C 740.833,679.167 740.833,679.167 739.5,678.5 Z"/></g>
<g><path style="opacity:0.008" fill="#808175" d="M 296.5,679.5 C 297.833,680.167 297.833,680.167 296.5,679.5 Z"/></g>
<g><path style="opacity:0.016" fill="#9e9c93" d="M 302.5,674.5 C 302.58,677.781 301.913,680.781 300.5,683.5C 300.42,680.219 301.087,677.219 302.5,674.5 Z"/></g>
<g><path style="opacity:0.008" fill="#838276" d="M 296.5,680.5 C 295.833,681.167 295.833,681.167 296.5,680.5 Z"/></g>
<g><path style="opacity:0.004" fill="#828074" d="M 298.5,680.5 C 299.833,681.167 299.833,681.167 298.5,680.5 Z"/></g>
<g><path style="opacity:0.004" fill="#7f7d72" d="M 640.5,681.5 C 639.833,680.167 639.833,680.167 640.5,681.5 Z"/></g>
<g><path style="opacity:0.004" fill="#98988f" d="M 738.5,677.5 C 738.59,680.152 737.924,682.485 736.5,684.5C 736.41,681.848 737.076,679.515 738.5,677.5 Z"/></g>
<g><path style="opacity:0.004" fill="#807e71" d="M 640.5,681.5 C 641.833,682.167 641.833,682.167 640.5,681.5 Z"/></g>
<g><path style="opacity:0.008" fill="#807e73" d="M 640.5,682.5 C 639.833,683.167 639.833,683.167 640.5,682.5 Z"/></g>
<g><path style="opacity:0.004" fill="#7d796f" d="M 356.5,687.5 C 357.525,687.897 357.692,688.563 357,689.5C 356.536,688.906 356.369,688.239 356.5,687.5 Z"/></g>
<g><path style="opacity:0.01" fill="#817e74" d="M 641.5,692.5 C 640.35,693.85 639.683,693.684 639.5,692C 640.035,690.463 640.368,688.963 640.5,687.5C 641.452,689.045 641.785,690.712 641.5,692.5 Z"/></g>
<g><path style="opacity:0.808" fill="#878680" d="M 350.5,686.5 C 352.262,687.262 353.262,688.596 353.5,690.5C 351.738,689.738 350.738,688.404 350.5,686.5 Z"/></g>
<g><path style="opacity:0.006" fill="#807e74" d="M 296.5,689.5 C 297.525,689.897 297.692,690.563 297,691.5C 296.536,690.906 296.369,690.239 296.5,689.5 Z"/></g>
<g><path style="opacity:0.11" fill="#898880" d="M 300.5,684.5 C 300.167,690.516 298.834,696.183 296.5,701.5C 297.342,695.603 298.676,689.936 300.5,684.5 Z"/></g>
<g><path style="opacity:0.004" fill="#979690" d="M 735.5,687.5 C 735.741,689.898 735.074,691.898 733.5,693.5C 733.595,691.214 734.262,689.214 735.5,687.5 Z"/></g>
<g><path style="opacity:0.004" fill="#7d7c71" d="M 295.5,695.5 C 296.833,696.167 296.833,696.167 295.5,695.5 Z"/></g>
<g><path style="opacity:0.004" fill="#77766f" d="M 734.5,694.5 C 735.525,694.897 735.692,695.563 735,696.5C 734.536,695.906 734.369,695.239 734.5,694.5 Z"/></g>
<g><path style="opacity:0.059" fill="#96958c" d="M 641.5,698.5 C 641.784,700.415 641.451,702.081 640.5,703.5C 639.992,700.824 639.825,698.157 640,695.5C 640.232,696.737 640.732,697.737 641.5,698.5 Z"/></g>
<g><path style="opacity:0.004" fill="#78756d" d="M 732.5,700.5 C 733.833,701.167 733.833,701.167 732.5,700.5 Z"/></g>
<g><path style="opacity:0.376" fill="#8c8b83" d="M 360.5,700.5 C 362.587,701.585 363.92,703.251 364.5,705.5C 362.833,704.5 361.5,703.167 360.5,701.5C 360.5,701.167 360.5,700.833 360.5,700.5 Z"/></g>
<g><path style="opacity:0.004" fill="#737266" d="M 365.5,703.5 C 366.833,704.167 366.833,704.167 365.5,703.5 Z"/></g>
<g><path style="opacity:0.941" fill="#797873" d="M 364.5,705.5 C 365.906,705.973 366.573,706.973 366.5,708.5C 365.094,708.027 364.427,707.027 364.5,705.5 Z"/></g>
<g><path style="opacity:1" fill="#74736c" d="M 368.5,710.5 C 369.833,711.5 371.167,712.5 372.5,713.5C 372.5,714.167 372.5,714.833 372.5,715.5C 370.413,714.415 369.08,712.749 368.5,710.5 Z"/></g>
<g><path style="opacity:0.004" fill="#818175" d="M 290.5,712.5 C 291.833,713.167 291.833,713.167 290.5,712.5 Z"/></g>
<g><path style="opacity:0.004" fill="#77756c" d="M 372.5,713.5 C 373.251,712.427 374.251,712.26 375.5,713C 374.552,713.483 373.552,713.649 372.5,713.5 Z"/></g>
<g><path style="opacity:0.004" fill="#7f7f71" d="M 634.5,712.5 C 635.833,713.167 635.833,713.167 634.5,712.5 Z"/></g>
<g><path style="opacity:0.004" fill="#76756a" d="M 726.5,713.5 C 727.833,714.167 727.833,714.167 726.5,713.5 Z"/></g>
<g><path style="opacity:0.006" fill="#828073" d="M 631.5,715.5 C 631.897,714.475 632.563,714.308 633.5,715C 632.906,715.464 632.239,715.631 631.5,715.5 Z"/></g>
<g><path style="opacity:0.008" fill="#757469" d="M 725.5,715.5 C 726.833,716.167 726.833,716.167 725.5,715.5 Z"/></g>
<g><path style="opacity:0.994" fill="#3c3b39" d="M 637.5,713.5 C 637.816,716.978 637.316,720.312 636,723.5C 634.313,727.916 631.48,731.249 627.5,733.5C 630.853,726.795 634.186,720.128 637.5,713.5 Z"/></g>
<g><path style="opacity:0.004" fill="#7c7b6f" d="M 632.5,718.5 C 633.833,719.167 633.833,719.167 632.5,718.5 Z"/></g>
<g><path style="opacity:0.006" fill="#77756b" d="M 380.5,720.5 C 380.897,719.475 381.563,719.308 382.5,720C 381.906,720.464 381.239,720.631 380.5,720.5 Z"/></g>
<g><path style="opacity:0.004" fill="#807d73" d="M 287.5,722.5 C 287.897,721.475 288.563,721.308 289.5,722C 288.906,722.464 288.239,722.631 287.5,722.5 Z"/></g>
<g><path style="opacity:0.988" fill="#65655e" d="M 292.5,718.5 C 292.741,720.898 292.074,722.898 290.5,724.5C 290.595,722.214 291.262,720.214 292.5,718.5 Z"/></g>
<g><path style="opacity:0.996" fill="#6c6a65" d="M 378.5,721.5 C 380.167,722.5 381.5,723.833 382.5,725.5C 380.167,725.167 378.833,723.833 378.5,721.5 Z"/></g>
<g><path style="opacity:0.004" fill="#79776e" d="M 389.5,727.5 C 390.525,727.897 390.692,728.563 390,729.5C 389.536,728.906 389.369,728.239 389.5,727.5 Z"/></g>
<g><path style="opacity:0.976" fill="#686761" d="M 290.5,724.5 C 290.829,727.228 290.163,729.562 288.5,731.5C 288.721,728.933 289.388,726.599 290.5,724.5 Z"/></g>
<g><path style="opacity:0.004" fill="#7f7f73" d="M 625.5,728.5 C 626.833,729.167 626.833,729.167 625.5,728.5 Z"/></g>
<g><path style="opacity:0.006" fill="#7f7f73" d="M 625.5,729.5 C 625.103,730.525 624.437,730.692 623.5,730C 624.094,729.536 624.761,729.369 625.5,729.5 Z"/></g>
<g><path style="opacity:0.004" fill="#767668" d="M 716.5,730.5 C 717.833,731.167 717.833,731.167 716.5,730.5 Z"/></g>
<g><path style="opacity:0.012" fill="#8e8d84" d="M 390.5,733.5 C 392.404,733.738 393.738,734.738 394.5,736.5C 392.596,736.262 391.262,735.262 390.5,733.5 Z"/></g>
<g><path style="opacity:0.99" fill="#333330" d="M 726.5,710.5 C 723.571,717.412 720.238,724.078 716.5,730.5C 712.74,735.683 708.74,740.683 704.5,745.5C 703.697,744.577 703.53,743.577 704,742.5C 712.155,732.876 718.822,722.209 724,710.5C 724.77,709.402 725.603,709.402 726.5,710.5 Z"/></g>
<g><path style="opacity:0.008" fill="#757469" d="M 397.5,735.5 C 398.833,736.167 398.833,736.167 397.5,735.5 Z"/></g>
<g><path style="opacity:0.855" fill="#706e68" d="M 627.5,733.5 C 627.573,735.027 626.906,736.027 625.5,736.5C 625.427,734.973 626.094,733.973 627.5,733.5 Z"/></g>
<g><path style="opacity:0.937" fill="#6c6c66" d="M 625.5,736.5 C 625.262,738.404 624.262,739.738 622.5,740.5C 622.738,738.596 623.738,737.262 625.5,736.5 Z"/></g>
<g><path style="opacity:0.004" fill="#8a8982" d="M 397.5,739.5 C 399.404,739.738 400.738,740.738 401.5,742.5C 399.596,742.262 398.262,741.262 397.5,739.5 Z"/></g>
<g><path style="opacity:0.987" fill="#292927" d="M 287.5,734.5 C 286.807,740.09 286.64,745.423 287,750.5C 286.453,745.266 285.62,745.266 284.5,750.5C 285.478,751.801 285.145,752.968 283.5,754C 278.982,767.299 273.315,780.466 266.5,793.5C 268.396,793.336 270.396,793.669 272.5,794.5C 277.47,793.771 282.47,793.271 287.5,793C 286.304,792.346 286.304,791.846 287.5,791.5C 288.682,793.645 290.182,793.645 292,791.5C 293.333,792.833 294.667,792.833 296,791.5C 296.308,792.308 296.808,792.975 297.5,793.5C 298.5,792.833 299.5,792.167 300.5,791.5C 301.696,791.846 301.696,792.346 300.5,793C 314.595,793.876 328.595,795.543 342.5,798C 341.5,798.333 340.5,798.667 339.5,799C 340.416,799.278 341.082,799.778 341.5,800.5C 337.394,800.26 333.394,799.593 329.5,798.5C 324.417,796.922 319.084,796.255 313.5,796.5C 306.443,796.76 299.443,796.427 292.5,795.5C 284.311,795.318 276.145,795.651 268,796.5C 266.5,796.167 265,795.833 263.5,795.5C 264.127,794.583 264.461,793.583 264.5,792.5C 265.833,789.167 267.167,785.833 268.5,782.5C 276.015,766.954 282.348,750.954 287.5,734.5 Z"/></g>
<g><path style="opacity:0.004" fill="#716f67" d="M 406.5,743.5 C 407.833,744.167 407.833,744.167 406.5,743.5 Z"/></g>
<g><path style="opacity:0.004" fill="#7b776d" d="M 617.5,744.5 C 616.833,744.5 616.5,744.833 616.5,745.5C 615.957,745.44 615.624,745.107 615.5,744.5C 616.257,743.227 616.923,743.227 617.5,744.5 Z"/></g>
<g><path style="opacity:0.941" fill="#7a7873" d="M 622.5,740.5 C 620.906,743.764 618.573,746.431 615.5,748.5C 615.557,747.391 615.89,746.391 616.5,745.5C 617.167,745.5 617.5,745.167 617.5,744.5C 619.167,743.167 620.833,741.833 622.5,740.5 Z"/></g>
<g><path style="opacity:0.012" fill="#89877f" d="M 704.5,745.5 C 704.573,747.027 703.906,748.027 702.5,748.5C 702.427,746.973 703.094,745.973 704.5,745.5 Z"/></g>
<g><path style="opacity:0.031" fill="#908d84" d="M 407.5,747.5 C 409.027,747.427 410.027,748.094 410.5,749.5C 408.973,749.573 407.973,748.906 407.5,747.5 Z"/></g>
<g><path style="opacity:0.024" fill="#9e9d98" d="M 413.5,751.5 C 414.609,751.557 415.609,751.89 416.5,752.5C 416.5,752.833 416.5,753.167 416.5,753.5C 414.973,753.573 413.973,752.906 413.5,751.5 Z"/></g>
<g><path style="opacity:0.012" fill="#77736a" d="M 416.5,751.5 C 417.833,752.167 417.833,752.167 416.5,751.5 Z"/></g>
<g><path style="opacity:0.008" fill="#7a766d" d="M 609.5,752.5 C 608.761,752.631 608.094,752.464 607.5,752C 608.437,751.308 609.103,751.475 609.5,752.5 Z"/></g>
<g><path style="opacity:0.004" fill="#7b796f" d="M 421.5,751.5 C 424.137,753.154 423.803,753.654 420.5,753C 421.056,752.617 421.389,752.117 421.5,751.5 Z"/></g>
<g><path style="opacity:0.063" fill="#8a8980" d="M 699.5,751.5 C 699.573,753.027 698.906,754.027 697.5,754.5C 697.427,752.973 698.094,751.973 699.5,751.5 Z"/></g>
<g><path style="opacity:0.043" fill="#9f9d92" d="M 416.5,753.5 C 418.027,753.427 419.027,754.094 419.5,755.5C 417.973,755.573 416.973,754.906 416.5,753.5 Z"/></g>
<g><path style="opacity:0.933" fill="#84827b" d="M 614.5,749.5 C 612.431,752.573 609.764,754.906 606.5,756.5C 607.5,755.167 608.5,753.833 609.5,752.5C 610.922,751.075 612.589,750.075 614.5,749.5 Z"/></g>
<g><path style="opacity:0.986" fill="#302f2d" d="M 694.5,757.5 C 694.167,758.5 693.5,759.167 692.5,759.5C 690.738,760.262 689.738,761.596 689.5,763.5C 686.815,767.183 683.482,770.183 679.5,772.5C 679.389,771.883 679.056,771.383 678.5,771C 683.667,765.833 688.833,760.667 694,755.5C 694.464,756.094 694.631,756.761 694.5,757.5 Z"/></g>
<g><path style="opacity:0.929" fill="#74706a" d="M 605.5,757.5 C 604.738,759.262 603.404,760.262 601.5,760.5C 602.262,758.738 603.596,757.738 605.5,757.5 Z"/></g>
<g><path style="opacity:0.349" fill="#929087" d="M 424.5,758.5 C 426.027,758.427 427.027,759.094 427.5,760.5C 425.973,760.573 424.973,759.906 424.5,758.5 Z"/></g>
<g><path style="opacity:0.008" fill="#7e7b71" d="M 594.5,760.5 C 595.833,761.167 595.833,761.167 594.5,760.5 Z"/></g>
<g><path style="opacity:0.094" fill="#939389" d="M 692.5,759.5 C 692.262,761.404 691.262,762.738 689.5,763.5C 689.738,761.596 690.738,760.262 692.5,759.5 Z"/></g>
<g><path style="opacity:0.004" fill="#77766c" d="M 694.5,761.5 C 695.833,762.167 695.833,762.167 694.5,761.5 Z"/></g>
<g><path style="opacity:0.004" fill="#878476" d="M 271.5,762.5 C 272.833,763.167 272.833,763.167 271.5,762.5 Z"/></g>
<g><path style="opacity:0.004" fill="#9c9a8f" d="M 431.5,762.5 C 433.027,762.427 434.027,763.094 434.5,764.5C 432.973,764.573 431.973,763.906 431.5,762.5 Z"/></g>
<g><path style="opacity:0.004" fill="#79786c" d="M 435.5,762.5 C 436.833,763.167 436.833,763.167 435.5,762.5 Z"/></g>
<g><path style="opacity:0.004" fill="#7c7b70" d="M 593.5,762.5 C 594.833,763.167 594.833,763.167 593.5,762.5 Z"/></g>
<g><path style="opacity:0.008" fill="#78776e" d="M 593.5,763.5 C 593.5,763.833 593.5,764.167 593.5,764.5C 592.83,764.019 592.83,763.685 593.5,763.5 Z"/></g>
<g><path style="opacity:0.851" fill="#908d85" d="M 598.5,762.5 C 598.027,763.906 597.027,764.573 595.5,764.5C 595.973,763.094 596.973,762.427 598.5,762.5 Z"/></g>
<g><path style="opacity:0.416" fill="#939088" d="M 438.5,766.5 C 441.241,766.707 443.574,767.707 445.5,769.5C 442.759,769.293 440.426,768.293 438.5,766.5 Z"/></g>
<g><path style="opacity:0.005" fill="#838074" d="M 575.5,767.5 C 576.598,768.601 576.765,769.934 576,771.5C 575.51,770.207 575.343,768.873 575.5,767.5 Z"/></g>
<g><path style="opacity:0.008" fill="#7f7e72" d="M 582.5,768.5 C 583.833,769.167 583.833,769.167 582.5,768.5 Z"/></g>
<g><path style="opacity:0.004" fill="#7c7c71" d="M 451.5,769.5 C 452.833,770.167 452.833,770.167 451.5,769.5 Z"/></g>
<g><path style="opacity:0.99" fill="#343431" d="M 600.5,761.5 C 601.239,761.369 601.906,761.536 602.5,762C 600.29,763.509 598.457,765.342 597,767.5C 596.667,767.167 596.333,766.833 596,766.5C 594.687,767.573 593.187,768.24 591.5,768.5C 585.927,773.695 579.261,776.362 571.5,776.5C 574.591,775.023 577.591,773.356 580.5,771.5C 585.32,769.926 589.653,767.593 593.5,764.5C 594.167,764.5 594.833,764.5 595.5,764.5C 597.027,764.573 598.027,763.906 598.5,762.5C 598.842,761.662 599.508,761.328 600.5,761.5 Z"/></g>
<g><path style="opacity:0.004" fill="#7b7c70" d="M 454.5,770.5 C 455.833,771.167 455.833,771.167 454.5,770.5 Z"/></g>
<g><path style="opacity:0.004" fill="#7c7a6c" d="M 580.5,771.5 C 579.833,770.167 579.833,770.167 580.5,771.5 Z"/></g>
<g><path style="opacity:0.008" fill="#7a786f" d="M 684.5,771.5 C 685.833,772.167 685.833,772.167 684.5,771.5 Z"/></g>
<g><path style="opacity:0.984" fill="#373633" d="M 678.5,773.5 C 675.527,775.806 672.86,778.473 670.5,781.5C 668.167,782.833 665.833,784.167 663.5,785.5C 664.598,784.603 664.598,783.77 663.5,783C 667.5,779.667 671.5,776.333 675.5,773C 676.577,772.53 677.577,772.697 678.5,773.5 Z"/></g>
<g><path style="opacity:0.569" fill="#9a9892" d="M 457.5,774.5 C 459.553,774.402 461.22,775.069 462.5,776.5C 460.447,776.598 458.78,775.931 457.5,774.5 Z"/></g>
<g><path style="opacity:0.008" fill="#7e7d73" d="M 467.5,775.5 C 468.833,776.167 468.833,776.167 467.5,775.5 Z"/></g>
<g><path style="opacity:0.012" fill="#818172" d="M 560.5,775.5 C 561.833,776.167 561.833,776.167 560.5,775.5 Z"/></g>
<g><path style="opacity:0.012" fill="#807d72" d="M 568.5,776.5 C 567.761,776.631 567.094,776.464 566.5,776C 567.437,775.308 568.103,775.475 568.5,776.5 Z"/></g>
<g><path style="opacity:0.071" fill="#9a988e" d="M 465.5,777.5 C 464.209,777.737 463.209,777.404 462.5,776.5C 463.496,776.586 464.329,776.252 465,775.5C 465.464,776.094 465.631,776.761 465.5,777.5 Z"/></g>
<g><path style="opacity:0.004" fill="#807e72" d="M 470.5,776.5 C 471.833,777.167 471.833,777.167 470.5,776.5 Z"/></g>
<g><path style="opacity:0.016" fill="#8f8d83" d="M 565.5,778.5 C 564.791,779.404 563.791,779.737 562.5,779.5C 561.737,778.732 560.737,778.232 559.5,778C 561.545,777.51 563.545,777.677 565.5,778.5 Z"/></g>
<g><path style="opacity:0.561" fill="#9c9993" d="M 568.5,776.5 C 569.5,776.5 570.5,776.5 571.5,776.5C 570.22,777.931 568.553,778.598 566.5,778.5C 567.167,777.833 567.833,777.167 568.5,776.5 Z"/></g>
<g><path style="opacity:0.063" fill="#a09f95" d="M 471.5,779.5 C 477.748,780.231 483.748,781.565 489.5,783.5C 483.187,783.086 477.187,781.752 471.5,779.5 Z"/></g>
<g><path style="opacity:0.004" fill="#817f74" d="M 552.5,779.5 C 553.833,780.167 553.833,780.167 552.5,779.5 Z"/></g>
<g><path style="opacity:0.965" fill="#7f7f77" d="M 562.5,779.5 C 560.562,781.163 558.228,781.829 555.5,781.5C 557.599,780.388 559.933,779.721 562.5,779.5 Z"/></g>
<g><path style="opacity:0.004" fill="#878779" d="M 268.5,782.5 C 267.833,781.167 267.833,781.167 268.5,782.5 Z"/></g>
<g><path style="opacity:0.004" fill="#777369" d="M 670.5,781.5 C 671.833,782.167 671.833,782.167 670.5,781.5 Z"/></g>
<g><path style="opacity:0.925" fill="#87877e" d="M 555.5,781.5 C 553.162,783.04 550.495,783.706 547.5,783.5C 549.905,782.232 552.572,781.565 555.5,781.5 Z"/></g>
<g><path style="opacity:0.004" fill="#7b7a70" d="M 501.5,783.5 C 502.833,784.167 502.833,784.167 501.5,783.5 Z"/></g>
<g><path style="opacity:0.018" fill="#7c796f" d="M 504.5,784.5 C 507.304,783.362 510.304,783.195 513.5,784C 510.518,784.498 507.518,784.665 504.5,784.5 Z"/></g>
<g><path style="opacity:0.004" fill="#858176" d="M 514.5,783.5 C 515.833,784.167 515.833,784.167 514.5,783.5 Z"/></g>
<g><path style="opacity:0.014" fill="#858078" d="M 518.5,784.5 C 520.288,783.378 522.288,783.211 524.5,784C 522.527,784.495 520.527,784.662 518.5,784.5 Z"/></g>
<g><path style="opacity:0.013" fill="#837f76" d="M 525.5,784.5 C 527.628,783.371 529.961,783.204 532.5,784C 530.19,784.497 527.857,784.663 525.5,784.5 Z"/></g>
<g><path style="opacity:0.137" fill="#b2afa5" d="M 504.5,784.5 C 516.012,785.706 527.679,785.706 539.5,784.5C 538.048,785.302 536.382,785.802 534.5,786C 523.659,786.825 512.992,786.659 502.5,785.5C 503.167,785.167 503.833,784.833 504.5,784.5 Z"/></g>
<g><path style="opacity:0.012" fill="#9a9992" d="M 659.5,788.5 C 659.027,789.906 658.027,790.573 656.5,790.5C 656.973,789.094 657.973,788.427 659.5,788.5 Z"/></g>
<g><path style="opacity:0.02" fill="#96968e" d="M 656.5,790.5 C 656.027,791.906 655.027,792.573 653.5,792.5C 653.973,791.094 654.973,790.427 656.5,790.5 Z"/></g>
<g><path style="opacity:0.004" fill="#8c8c80" d="M 258.5,792.5 C 259.833,793.167 259.833,793.167 258.5,792.5 Z"/></g>
<g><path style="opacity:0.99" fill="#4a4a45" d="M 653.5,792.5 C 651.5,794.167 649.5,795.833 647.5,797.5C 644.5,798.833 641.5,800.167 638.5,801.5C 641.048,798.936 643.715,796.436 646.5,794C 648.677,792.798 651.011,792.298 653.5,792.5 Z"/></g>
<g><path style="opacity:0.024" fill="#9c9b91" d="M 264.5,792.5 C 264.461,793.583 264.127,794.583 263.5,795.5C 265,795.833 266.5,796.167 268,796.5C 276.145,795.651 284.311,795.318 292.5,795.5C 282.954,796.241 273.287,797.241 263.5,798.5C 262.263,798.444 261.263,797.944 260.5,797C 261.733,795.333 263.067,793.833 264.5,792.5 Z"/></g>
<g><path style="opacity:0.957" fill="#8a897f" d="M 313.5,796.5 C 319.084,796.255 324.417,796.922 329.5,798.5C 323.966,798.332 318.633,797.665 313.5,796.5 Z"/></g>
<g><path style="opacity:0.008" fill="#8e8a7e" d="M 279.5,798.5 C 279.897,797.475 280.563,797.308 281.5,798C 280.906,798.464 280.239,798.631 279.5,798.5 Z"/></g>
<g><path style="opacity:0.004" fill="#8e8b7e" d="M 283.5,797.5 C 284.833,798.167 284.833,798.167 283.5,797.5 Z"/></g>
<g><path style="opacity:0.004" fill="#8b877a" d="M 299.5,797.5 C 300.833,798.167 300.833,798.167 299.5,797.5 Z"/></g>
<g><path style="opacity:0.004" fill="#898678" d="M 304.5,797.5 C 305.833,798.167 305.833,798.167 304.5,797.5 Z"/></g>
<g><path style="opacity:0.012" fill="#868377" d="M 306.5,798.5 C 306.897,797.475 307.563,797.308 308.5,798C 307.906,798.464 307.239,798.631 306.5,798.5 Z"/></g>
<g><path style="opacity:0.008" fill="#7c7b70" d="M 647.5,797.5 C 648.833,798.167 648.833,798.167 647.5,797.5 Z"/></g>
<g><path style="opacity:0.098" fill="#9a998e" d="M 347.5,801.5 C 349.735,801.205 351.735,801.539 353.5,802.5C 351.444,803.161 349.444,802.828 347.5,801.5 Z"/></g>
<g><path style="opacity:0.004" fill="#828072" d="M 343.5,803.5 C 344.251,802.427 345.251,802.26 346.5,803C 345.552,803.483 344.552,803.649 343.5,803.5 Z"/></g>
<g><path style="opacity:0.012" fill="#838274" d="M 348.5,803.5 C 349.833,804.167 349.833,804.167 348.5,803.5 Z"/></g>
<g><path style="opacity:0.004" fill="#827f73" d="M 351.5,804.5 C 352.833,805.167 352.833,805.167 351.5,804.5 Z"/></g>
<g><path style="opacity:0.004" fill="#818073" d="M 359.5,805.5 C 360.833,806.167 360.833,806.167 359.5,805.5 Z"/></g>
<g><path style="opacity:0.004" fill="#7b7a6e" d="M 635.5,805.5 C 636.833,806.167 636.833,806.167 635.5,805.5 Z"/></g>
<g><path style="opacity:0.004" fill="#848174" d="M 361.5,806.5 C 362.833,807.167 362.833,807.167 361.5,806.5 Z"/></g>
<g><path style="opacity:1" fill="#696862" d="M 371.5,806.5 C 374.228,806.171 376.562,806.837 378.5,808.5C 375.933,808.279 373.599,807.612 371.5,806.5 Z"/></g>
<g><path style="opacity:0.557" fill="#9b9991" d="M 628.5,806.5 C 627.22,807.931 625.553,808.598 623.5,808.5C 624.78,807.069 626.447,806.402 628.5,806.5 Z"/></g>
<g><path style="opacity:0.004" fill="#7b7a6d" d="M 377.5,809.5 C 378.833,810.167 378.833,810.167 377.5,809.5 Z"/></g>
<g><path style="opacity:0.173" fill="#86867d" d="M 382.5,809.5 C 385.495,809.294 388.162,809.96 390.5,811.5C 387.572,811.435 384.905,810.768 382.5,809.5 Z"/></g>
<g><path style="opacity:0.004" fill="#7d7b6e" d="M 385.5,812.5 C 386.833,813.167 386.833,813.167 385.5,812.5 Z"/></g>
<g><path style="opacity:0.945" fill="#75736d" d="M 394.5,812.5 C 397.228,812.171 399.562,812.837 401.5,814.5C 398.933,814.279 396.599,813.612 394.5,812.5 Z"/></g>
<g><path style="opacity:0.008" fill="#807f73" d="M 391.5,813.5 C 392.833,814.167 392.833,814.167 391.5,813.5 Z"/></g>
<g><path style="opacity:0.004" fill="#807d71" d="M 383.5,814.5 C 384.833,815.167 384.833,815.167 383.5,814.5 Z"/></g>
<g><path style="opacity:0.984" fill="#7d7d74" d="M 414.5,817.5 C 417.228,817.171 419.562,817.837 421.5,819.5C 418.933,819.279 416.599,818.612 414.5,817.5 Z"/></g>
<g><path style="opacity:0.02" fill="#9e9c93" d="M 602.5,816.5 C 600.898,818.074 598.898,818.741 596.5,818.5C 598.214,817.262 600.214,816.595 602.5,816.5 Z"/></g>
<g><path style="opacity:0.004" fill="#807f73" d="M 407.5,818.5 C 408.833,819.167 408.833,819.167 407.5,818.5 Z"/></g>
<g><path style="opacity:0.004" fill="#7c7b70" d="M 606.5,818.5 C 607.833,819.167 607.833,819.167 606.5,818.5 Z"/></g>
<g><path style="opacity:0.184" fill="#9f9e94" d="M 596.5,818.5 C 582.39,823.454 568.057,826.454 553.5,827.5C 567.797,824.906 582.13,821.906 596.5,818.5 Z"/></g>
<g><path style="opacity:0.004" fill="#7e7c70" d="M 421.5,820.5 C 420.833,821.167 420.833,821.167 421.5,820.5 Z"/></g>
<g><path style="opacity:0.159" fill="#a29f95" d="M 421.5,820.5 C 421.5,820.167 421.5,819.833 421.5,819.5C 425.078,819.549 428.411,820.215 431.5,821.5C 430.448,821.351 429.448,821.517 428.5,822C 429.888,822.889 429.722,823.389 428,823.5C 426.526,821.084 424.36,820.084 421.5,820.5 Z"/></g>
<g><path style="opacity:0.004" fill="#807e72" d="M 415.5,820.5 C 416.289,820.783 416.956,821.283 417.5,822C 416.184,822.528 415.517,822.028 415.5,820.5 Z"/></g>
<g><path style="opacity:0.008" fill="#827f74" d="M 422.5,822.5 C 423.077,821.227 423.743,821.227 424.5,822.5C 424.03,823.463 423.363,823.463 422.5,822.5 Z"/></g>
<g><path style="opacity:0.047" fill="#9d9b90" d="M 447.5,824.5 C 452.434,824.229 457.1,824.896 461.5,826.5C 456.609,826.468 451.943,825.801 447.5,824.5 Z"/></g>
<g><path style="opacity:0.004" fill="#818274" d="M 449.5,826.5 C 450.833,827.167 450.833,827.167 449.5,826.5 Z"/></g>
<g><path style="opacity:0.008" fill="#807c74" d="M 464.5,829.5 C 464.897,828.475 465.563,828.308 466.5,829C 465.906,829.464 465.239,829.631 464.5,829.5 Z"/></g>
<g><path style="opacity:0.004" fill="#7f7f71" d="M 467.5,829.5 C 468.833,830.167 468.833,830.167 467.5,829.5 Z"/></g>
<g><path style="opacity:0.004" fill="#838376" d="M 471.5,829.5 C 472.833,830.167 472.833,830.167 471.5,829.5 Z"/></g>
<g><path style="opacity:0.01" fill="#828074" d="M 473.5,830.5 C 474.251,829.427 475.251,829.26 476.5,830C 475.552,830.483 474.552,830.649 473.5,830.5 Z"/></g>
<g><path style="opacity:0.092" fill="#b6b4ab" d="M 545.5,828.5 C 535.203,829.933 524.703,830.599 514,830.5C 507.657,830.5 501.491,830.166 495.5,829.5C 512.176,829.547 528.843,829.214 545.5,828.5 Z"/></g>
<g><path style="opacity:0.004" fill="#818173" d="M 467.5,830.5 C 466.833,831.167 466.833,831.167 467.5,830.5 Z"/></g>
<g><path style="opacity:0.008" fill="#848076" d="M 480.5,831.5 C 480.897,830.475 481.563,830.308 482.5,831C 481.906,831.464 481.239,831.631 480.5,831.5 Z"/></g>
<g><path style="opacity:0.008" fill="#7e7d71" d="M 483.5,830.5 C 484.833,831.167 484.833,831.167 483.5,830.5 Z"/></g>
<g><path style="opacity:0.004" fill="#7d7b70" d="M 536.5,830.5 C 537.833,831.167 537.833,831.167 536.5,830.5 Z"/></g>
<g><path style="opacity:0.004" fill="#7e7c71" d="M 538.5,830.5 C 539.833,831.167 539.833,831.167 538.5,830.5 Z"/></g>
<g><path style="opacity:0.008" fill="#7d7a70" d="M 541.5,830.5 C 542.833,831.167 542.833,831.167 541.5,830.5 Z"/></g>
<g><path style="opacity:0.004" fill="#67675c" d="M 307.5,933.5 C 308.833,934.167 308.833,934.167 307.5,933.5 Z"/></g>
</svg>
