<?xml version="1.0" encoding="UTF-8"?>
<!DOCTYPE svg PUBLIC "-//W3C//DTD SVG 1.1//EN" "http://www.w3.org/Graphics/SVG/1.1/DTD/svg11.dtd">
<svg xmlns="http://www.w3.org/2000/svg" version="1.1" width="1024px" height="1024px" style="shape-rendering:geometricPrecision; text-rendering:geometricPrecision; image-rendering:optimizeQuality; fill-rule:evenodd; clip-rule:evenodd" xmlns:xlink="http://www.w3.org/1999/xlink">
<g><path style="opacity:1" fill="#fcfcfa" d="M -0.5,-0.5 C 340.833,-0.5 682.167,-0.5 1023.5,-0.5C 1023.5,340.833 1023.5,682.167 1023.5,1023.5C 682.167,1023.5 340.833,1023.5 -0.5,1023.5C -0.5,682.167 -0.5,340.833 -0.5,-0.5 Z"/></g>
<g><path style="opacity:1" fill="#141514" d="M 524.5,271.5 C 524.611,272.117 524.944,272.617 525.5,273C 594.167,273.333 662.833,273.667 731.5,274C 730.418,275.33 729.751,276.83 729.5,278.5C 721.1,292.956 711.934,306.956 702,320.5C 698.202,324.934 693.369,326.934 687.5,326.5C 687.611,325.883 687.944,325.383 688.5,325C 633.167,324.333 577.833,324.333 522.5,325C 521.874,325.75 521.374,326.584 521,327.5C 518.902,423.328 517.069,519.162 515.5,615C 515.958,638.849 516.791,662.682 518,686.5C 518.494,684.866 518.66,683.199 518.5,681.5C 519.798,702.731 523.298,723.731 529,744.5C 542.619,778.103 567.452,797.603 603.5,803C 632.38,805.53 660.046,800.864 686.5,789C 695.5,784.5 704.5,780 713.5,775.5C 713.833,776.333 714.167,777.167 714.5,778C 713.339,782.156 711.505,785.989 709,789.5C 681.939,816.236 651.773,838.736 618.5,857C 596.691,868.993 573.357,875.16 548.5,875.5C 484.037,871.665 445.537,837.998 433,774.5C 429.346,752.654 427.513,730.654 427.5,708.5C 430.63,601.184 432.63,493.684 433.5,386C 433.101,367.831 432.601,349.664 432,331.5C 431.921,329.264 431.421,327.93 430.5,327.5C 383.901,326.838 337.234,326.171 290.5,325.5C 308.822,309.843 325.488,292.51 340.5,273.5C 370.173,272.819 399.84,271.986 429.5,271C 430.51,253.82 429.676,236.653 427,219.5C 425.798,213.227 423.798,207.227 421,201.5C 417.882,196.714 414.382,192.214 410.5,188C 441.473,163.515 472.806,139.515 504.5,116C 516.707,106.81 529.707,98.8104 543.5,92C 544.793,91.51 546.127,91.3433 547.5,91.5C 540.224,116.715 535.057,142.382 532,168.5C 527.175,202.732 524.675,237.065 524.5,271.5 Z"/></g>
<g><path style="opacity:1" fill="#0a0a0a" d="M 524.5,271.5 C 594.165,272.072 663.832,272.739 733.5,273.5C 732.388,275.419 731.054,277.086 729.5,278.5C 729.751,276.83 730.418,275.33 731.5,274C 662.833,273.667 594.167,273.333 525.5,273C 524.944,272.617 524.611,272.117 524.5,271.5 Z"/></g>
<g><path style="opacity:1" fill="#0f0f0e" d="M 687.5,326.5 C 632.5,326.5 577.5,326.5 522.5,326.5C 519.049,444.815 517.716,563.148 518.5,681.5C 518.66,683.199 518.494,684.866 518,686.5C 516.791,662.682 515.958,638.849 515.5,615C 517.069,519.162 518.902,423.328 521,327.5C 521.374,326.584 521.874,325.75 522.5,325C 577.833,324.333 633.167,324.333 688.5,325C 687.944,325.383 687.611,325.883 687.5,326.5 Z"/></g>
<g><path style="opacity:1" fill="#111110" d="M 427.5,708.5 C 428.086,635.491 429.253,562.491 431,489.5C 431.803,435.487 431.636,381.487 430.5,327.5C 431.421,327.93 431.921,329.264 432,331.5C 432.601,349.664 433.101,367.831 433.5,386C 432.63,493.684 430.63,601.184 427.5,708.5 Z"/></g>
</svg>
