<?xml version="1.0" encoding="UTF-8"?>
<!DOCTYPE svg PUBLIC "-//W3C//DTD SVG 1.1//EN" "http://www.w3.org/Graphics/SVG/1.1/DTD/svg11.dtd">
<svg xmlns="http://www.w3.org/2000/svg" version="1.1" width="1024px" height="1024px" style="shape-rendering:geometricPrecision; text-rendering:geometricPrecision; image-rendering:optimizeQuality; fill-rule:evenodd; clip-rule:evenodd" xmlns:xlink="http://www.w3.org/1999/xlink">
<g><path style="opacity:1" fill="#fefefe" d="M -0.5,-0.5 C 340.833,-0.5 682.167,-0.5 1023.5,-0.5C 1023.5,340.833 1023.5,682.167 1023.5,1023.5C 682.167,1023.5 340.833,1023.5 -0.5,1023.5C -0.5,682.167 -0.5,340.833 -0.5,-0.5 Z"/></g>
<g><path style="opacity:1" fill="#171817" d="M 860.5,144.5 C 859.849,143.909 859.182,143.243 858.5,142.5C 856.678,143.429 855.345,142.762 854.5,140.5C 856.766,139.686 859.1,139.186 861.5,139C 819.597,135.005 777.597,132.671 735.5,132C 577.163,129.849 418.829,130.016 260.5,132.5C 253.991,132.5 247.658,132.166 241.5,131.5C 400.15,128.04 558.817,127.54 717.5,130C 763.921,130.671 810.254,133.004 856.5,137C 859.553,137.179 862.553,137.679 865.5,138.5C 863.81,140.519 862.144,142.519 860.5,144.5 Z"/></g>
<g><path style="opacity:1" fill="#131312" d="M 860.5,144.5 C 846.734,162.937 837.901,183.603 834,206.5C 828.544,240.02 827.211,273.687 830,307.5C 784.757,223.774 714.257,182.607 618.5,184C 590.836,187.668 573.002,202.835 565,229.5C 560.693,247.897 558.36,266.564 558,285.5C 556.306,428.542 557.973,571.542 563,714.5C 563.867,749.045 570.534,782.378 583,814.5C 597.047,844.38 618.88,866.38 648.5,880.5C 556.207,881.662 463.874,881.828 371.5,881C 372.5,880.667 373.5,880.333 374.5,880C 373.906,879.536 373.239,879.369 372.5,879.5C 406.739,862.42 430.239,835.753 443,799.5C 452.078,770.883 457.078,741.549 458,711.5C 460.125,661.189 461.458,610.856 462,560.5C 462.667,466.5 462.667,372.5 462,278.5C 461.92,255.34 456.92,233.34 447,212.5C 437.566,197.408 424.066,188.242 406.5,185C 322.671,179.67 256.171,210.836 207,278.5C 200.749,287.999 194.749,297.666 189,307.5C 191.881,273.74 190.547,240.073 185,206.5C 181.776,188.827 175.776,172.16 167,156.5C 163.115,149.777 158.282,143.777 152.5,138.5C 182.026,134.55 211.693,132.217 241.5,131.5C 247.658,132.166 253.991,132.5 260.5,132.5C 418.829,130.016 577.163,129.849 735.5,132C 777.597,132.671 819.597,135.005 861.5,139C 859.1,139.186 856.766,139.686 854.5,140.5C 855.345,142.762 856.678,143.429 858.5,142.5C 859.182,143.243 859.849,143.909 860.5,144.5 Z"/></g>
<g><path style="opacity:1" fill="#0a0b0a" d="M 372.5,879.5 C 373.239,879.369 373.906,879.536 374.5,880C 373.5,880.333 372.5,880.667 371.5,881C 463.874,881.828 556.207,881.662 648.5,880.5C 650.593,881.045 652.593,881.878 654.5,883C 557.167,883.667 459.833,883.667 362.5,883C 365.894,881.925 369.228,880.758 372.5,879.5 Z"/></g>
</svg>
