<?xml version="1.0" encoding="UTF-8"?>
<!DOCTYPE svg PUBLIC "-//W3C//DTD SVG 1.1//EN" "http://www.w3.org/Graphics/SVG/1.1/DTD/svg11.dtd">
<svg xmlns="http://www.w3.org/2000/svg" version="1.1" width="1024px" height="1024px" style="shape-rendering:geometricPrecision; text-rendering:geometricPrecision; image-rendering:optimizeQuality; fill-rule:evenodd; clip-rule:evenodd" xmlns:xlink="http://www.w3.org/1999/xlink">
<g><path style="opacity:1" fill="#fefefe" d="M -0.5,-0.5 C 340.833,-0.5 682.167,-0.5 1023.5,-0.5C 1023.5,340.833 1023.5,682.167 1023.5,1023.5C 682.167,1023.5 340.833,1023.5 -0.5,1023.5C -0.5,682.167 -0.5,340.833 -0.5,-0.5 Z"/></g>
<g><path style="opacity:1" fill="#020201" d="M 351.5,107.5 C 352.225,106.03 353.891,104.864 356.5,104C 351.5,103.667 346.5,103.333 341.5,103C 263.763,102.17 186.097,102.337 108.5,103.5C 107.244,103.539 106.244,103.039 105.5,102C 190.166,101.5 274.833,101.333 359.5,101.5C 358.092,104.9 355.425,106.9 351.5,107.5 Z"/></g>
<g><path style="opacity:1" fill="#131414" d="M 820.5,273.5 C 818.909,286.112 818.075,301.445 818,319.5C 817.833,340 817.667,360.5 817.5,381C 818.391,453.5 818.891,526 819,598.5C 817.918,627.069 814.752,655.403 809.5,683.5C 809.52,684.726 809.853,685.726 810.5,686.5C 785.805,801.36 716.805,874.194 603.5,905C 536.312,919.545 468.978,920.212 401.5,907C 262.9,877.284 188.233,791.784 177.5,650.5C 178.165,647.686 178.498,644.686 178.5,641.5C 176.543,596.853 176.043,552.186 177,507.5C 179.158,437.181 180.658,366.847 181.5,296.5C 181.405,274.491 180.905,252.491 180,230.5C 179.764,219.674 178.597,209.674 176.5,200.5C 174.035,178.273 166.868,157.606 155,138.5C 142.607,122.569 127.107,110.903 108.5,103.5C 186.097,102.337 263.763,102.17 341.5,103C 346.5,103.333 351.5,103.667 356.5,104C 353.891,104.864 352.225,106.03 351.5,107.5C 320.384,125 300.884,151.333 293,186.5C 288.355,208.97 285.022,231.636 283,254.5C 277.311,353.418 273.811,452.418 272.5,551.5C 271.361,600.051 277.194,647.718 290,694.5C 310.366,762.198 353.532,808.698 419.5,834C 478.292,854.109 537.626,855.776 597.5,839C 668.195,816.971 715.028,770.805 738,700.5C 748.412,666.614 754.079,631.948 755,596.5C 756.065,491.454 754.398,386.454 750,281.5C 748.669,247.18 743.335,213.514 734,180.5C 722.644,143.144 698.81,117.311 662.5,103C 712.33,102.143 762.163,101.643 812,101.5C 838.311,101.337 864.478,101.837 890.5,103C 858.761,120.767 839.261,147.6 832,183.5C 826.016,213.372 822.183,243.372 820.5,273.5 Z"/></g>
<g><path style="opacity:1" fill="#0e0e0e" d="M 177.5,650.5 C 176.004,616.022 175.337,581.522 175.5,547C 176.957,464.505 178.291,382.005 179.5,299.5C 179.889,266.448 178.889,233.448 176.5,200.5C 178.597,209.674 179.764,219.674 180,230.5C 180.905,252.491 181.405,274.491 181.5,296.5C 180.658,366.847 179.158,437.181 177,507.5C 176.043,552.186 176.543,596.853 178.5,641.5C 178.498,644.686 178.165,647.686 177.5,650.5 Z"/></g>
<g><path style="opacity:1" fill="#1a1a1a" d="M 820.5,273.5 C 819.924,310.996 819.59,348.496 819.5,386C 819.891,451.839 820.391,517.672 821,583.5C 820.245,618.128 816.745,652.461 810.5,686.5C 809.853,685.726 809.52,684.726 809.5,683.5C 814.752,655.403 817.918,627.069 819,598.5C 818.891,526 818.391,453.5 817.5,381C 817.667,360.5 817.833,340 818,319.5C 818.075,301.445 818.909,286.112 820.5,273.5 Z"/></g>
</svg>
