<?xml version="1.0" encoding="UTF-8"?>
<!DOCTYPE svg PUBLIC "-//W3C//DTD SVG 1.1//EN" "http://www.w3.org/Graphics/SVG/1.1/DTD/svg11.dtd">
<svg xmlns="http://www.w3.org/2000/svg" version="1.1" width="1024px" height="1024px" style="shape-rendering:geometricPrecision; text-rendering:geometricPrecision; image-rendering:optimizeQuality; fill-rule:evenodd; clip-rule:evenodd" xmlns:xlink="http://www.w3.org/1999/xlink">
<g><path style="opacity:1" fill="#fefefd" d="M -0.5,-0.5 C 340.833,-0.5 682.167,-0.5 1023.5,-0.5C 1023.5,340.833 1023.5,682.167 1023.5,1023.5C 682.167,1023.5 340.833,1023.5 -0.5,1023.5C -0.5,682.167 -0.5,340.833 -0.5,-0.5 Z"/></g>
<g><path style="opacity:1" fill="#0d0e0e" d="M 333.5,173.5 C 339.013,172.744 342.013,175.077 342.5,180.5C 338.859,200.326 337.026,220.326 337,240.5C 334.445,340.486 333.445,440.486 334,540.5C 334.219,567.513 334.885,594.513 336,621.5C 343.547,741.731 406.047,788.898 523.5,763C 558.714,751.449 587.548,730.949 610,701.5C 613.746,695.677 616.08,689.343 617,682.5C 617.923,661.508 618.59,640.508 619,619.5C 619.667,517.167 619.667,414.833 619,312.5C 618.657,291.441 613.99,271.441 605,252.5C 597.181,239.499 586.014,230.665 571.5,226C 563.785,224.155 556.119,222.155 548.5,220C 543.979,217.743 543.312,214.576 546.5,210.5C 547.912,209.194 549.579,208.36 551.5,208C 588.612,202.654 625.612,196.654 662.5,190C 679.558,185.869 696.225,180.536 712.5,174C 716.244,173.071 719.744,173.571 723,175.5C 723.958,177.199 724.458,179.033 724.5,181C 719.49,209.613 716.657,238.446 716,267.5C 713.66,393.157 712.993,518.823 714,644.5C 714.812,671.329 718.812,697.663 726,723.5C 737.05,753.885 758.217,773.052 789.5,781C 797.112,782.943 804.612,785.11 812,787.5C 812.483,788.448 812.649,789.448 812.5,790.5C 773.917,801.416 736.583,815.583 700.5,833C 692.667,837.416 685,842.082 677.5,847C 673.833,847.667 670.167,847.667 666.5,847C 650.292,825.082 638.459,800.915 631,774.5C 627.512,760.558 624.345,746.558 621.5,732.5C 615.4,742.366 608.566,751.699 601,760.5C 575.095,787.743 545.262,809.576 511.5,826C 462.247,845.473 411.914,848.806 360.5,836C 296.469,816.302 256.969,773.802 242,708.5C 236.716,676.567 234.216,644.4 234.5,612C 235.442,565.495 236.608,518.995 238,472.5C 238.752,428.159 238.419,383.825 237,339.5C 236.517,312.6 231.517,286.6 222,261.5C 214.894,244.061 202.727,231.561 185.5,224C 177.5,221.333 169.5,218.667 161.5,216C 158.053,209.045 160.386,205.045 168.5,204C 212.27,200.1 255.603,193.433 298.5,184C 310.429,180.964 322.096,177.464 333.5,173.5 Z"/></g>
</svg>
