<?xml version="1.0" encoding="UTF-8"?>
<!DOCTYPE svg PUBLIC "-//W3C//DTD SVG 1.1//EN" "http://www.w3.org/Graphics/SVG/1.1/DTD/svg11.dtd">
<svg xmlns="http://www.w3.org/2000/svg" version="1.1" width="1024px" height="1024px" style="shape-rendering:geometricPrecision; text-rendering:geometricPrecision; image-rendering:optimizeQuality; fill-rule:evenodd; clip-rule:evenodd" xmlns:xlink="http://www.w3.org/1999/xlink">
<g><path style="opacity:1" fill="#fefefe" d="M -0.5,-0.5 C 340.833,-0.5 682.167,-0.5 1023.5,-0.5C 1023.5,340.833 1023.5,682.167 1023.5,1023.5C 682.167,1023.5 340.833,1023.5 -0.5,1023.5C -0.5,682.167 -0.5,340.833 -0.5,-0.5 Z"/></g>
<g><path style="opacity:1" fill="#151614" d="M 594.5,55.5 C 625.371,53.895 644.871,67.895 653,97.5C 654.223,127.291 640.389,146.124 611.5,154C 591.171,156.116 575.004,148.95 563,132.5C 548.389,105.467 552.889,82.3004 576.5,63C 582.328,59.7883 588.328,57.2883 594.5,55.5 Z"/></g>
<g><path style="opacity:1" fill="#151615" d="M 411.5,56.5 C 433.259,54.4655 450.093,62.4655 462,80.5C 472.914,103.517 469.414,124.017 451.5,142C 438.742,151.772 424.408,155.105 408.5,152C 380.04,142.185 368.206,122.351 373,92.5C 379.298,73.364 392.132,61.364 411.5,56.5 Z"/></g>
<g><path style="opacity:1" fill="#040404" d="M 414.5,224.5 C 418.458,221.633 423.124,218.799 428.5,216C 429.815,214.605 429.481,213.605 427.5,213C 358.167,212.224 288.833,211.891 219.5,212C 218.5,214.091 219.167,215.757 221.5,217C 225.535,219.007 229.535,221.007 233.5,223C 233.272,223.399 232.938,223.565 232.5,223.5C 226.177,221.676 220.844,218.343 216.5,213.5C 216.977,212.522 217.643,211.689 218.5,211C 227.904,209.858 237.404,209.358 247,209.5C 306.829,211.251 366.663,211.751 426.5,211C 427.833,211.667 429.167,212.333 430.5,213C 431.451,213.718 431.617,214.551 431,215.5C 426.006,219.414 420.506,222.414 414.5,224.5 Z"/></g>
<g><path style="opacity:1" fill="#151614" d="M 775.5,235.5 C 775.103,234.475 774.437,234.308 773.5,235C 760.91,245.673 753.076,259.173 750,275.5C 744.647,301.544 741.98,327.877 742,354.5C 741.327,445.504 740.327,536.504 739,627.5C 737.996,660.545 733.996,693.211 727,725.5C 724.232,735.137 721.066,744.637 717.5,754C 717.57,754.765 717.903,755.265 718.5,755.5C 697.076,802.757 662.743,837.257 615.5,859C 587.366,870.691 558.033,877.024 527.5,878C 467.573,882.405 411.24,870.405 358.5,842C 333.767,826.372 314.1,805.872 299.5,780.5C 300.043,780.44 300.376,780.107 300.5,779.5C 284.473,749.207 276.639,716.874 277,682.5C 275.928,650.846 275.428,619.179 275.5,587.5C 276.596,507.502 277.096,427.502 277,347.5C 276.7,322.072 275.034,296.739 272,271.5C 271.22,263.829 269.22,256.496 266,249.5C 265.31,248.262 264.81,248.262 264.5,249.5C 261.546,245.129 258.213,240.963 254.5,237C 247.259,232.24 239.926,227.74 232.5,223.5C 232.938,223.565 233.272,223.399 233.5,223C 229.535,221.007 225.535,219.007 221.5,217C 219.167,215.757 218.5,214.091 219.5,212C 288.833,211.891 358.167,212.224 427.5,213C 429.481,213.605 429.815,214.605 428.5,216C 423.124,218.799 418.458,221.633 414.5,224.5C 399.579,230.92 388.746,241.587 382,256.5C 379.179,264.459 377.013,272.459 375.5,280.5C 375.631,279.761 375.464,279.094 375,278.5C 372.841,290.733 371.508,303.066 371,315.5C 367.656,412.808 365.989,510.142 366,607.5C 366.364,619.173 366.864,630.84 367.5,642.5C 367.522,645.59 368.188,648.257 369.5,650.5C 370.208,677.294 375.041,703.294 384,728.5C 404.076,773.82 438.242,802.653 486.5,815C 523.316,823.622 559.65,821.955 595.5,810C 618.74,800.564 638.073,786.064 653.5,766.5C 653.393,768.379 653.893,768.712 655,767.5C 665.863,753.105 673.53,737.105 678,719.5C 685.357,689.959 689.357,659.959 690,629.5C 692.461,537.837 692.794,446.17 691,354.5C 690.203,332.994 687.87,311.661 684,290.5C 681.542,276.785 676.542,264.118 669,252.5C 668.601,252.728 668.435,253.062 668.5,253.5C 663.735,246.9 658.069,241.067 651.5,236C 641.327,230.079 630.994,224.413 620.5,219C 618.203,217.737 617.37,215.903 618,213.5C 620.266,212.044 622.766,211.21 625.5,211C 684.509,211.753 743.509,211.42 802.5,210C 807.658,212.434 807.658,215.101 802.5,218C 793.131,223.346 784.131,229.179 775.5,235.5 Z"/></g>
<g><path style="opacity:1" fill="#101010" d="M 299.5,780.5 C 284.655,753.46 276.822,724.46 276,693.5C 274.052,657.361 273.219,621.195 273.5,585C 275.156,503.174 275.656,421.341 275,339.5C 274.876,314.008 272.876,288.675 269,263.5C 267.793,258.712 266.293,254.045 264.5,249.5C 264.81,248.262 265.31,248.262 266,249.5C 269.22,256.496 271.22,263.829 272,271.5C 275.034,296.739 276.7,322.072 277,347.5C 277.096,427.502 276.596,507.502 275.5,587.5C 275.428,619.179 275.928,650.846 277,682.5C 276.639,716.874 284.473,749.207 300.5,779.5C 300.376,780.107 300.043,780.44 299.5,780.5 Z"/></g>
<g><path style="opacity:1" fill="#111110" d="M 375.5,280.5 C 373.924,296.126 372.757,311.793 372,327.5C 371.092,380.511 369.758,433.511 368,486.5C 367.028,541.187 367.528,595.854 369.5,650.5C 368.188,648.257 367.522,645.59 367.5,642.5C 366.864,630.84 366.364,619.173 366,607.5C 365.989,510.142 367.656,412.808 371,315.5C 371.508,303.066 372.841,290.733 375,278.5C 375.464,279.094 375.631,279.761 375.5,280.5 Z"/></g>
<g><path style="opacity:1" fill="#0b0b0b" d="M 653.5,766.5 C 666.336,749.19 674.836,729.856 679,708.5C 685.168,677.486 688.502,646.153 689,614.5C 690.852,524.495 690.852,434.495 689,344.5C 688.337,318.52 684.003,293.186 676,268.5C 674.014,263.195 671.514,258.195 668.5,253.5C 668.435,253.062 668.601,252.728 669,252.5C 676.542,264.118 681.542,276.785 684,290.5C 687.87,311.661 690.203,332.994 691,354.5C 692.794,446.17 692.461,537.837 690,629.5C 689.357,659.959 685.357,689.959 678,719.5C 673.53,737.105 665.863,753.105 655,767.5C 653.893,768.712 653.393,768.379 653.5,766.5 Z"/></g>
<g><path style="opacity:1" fill="#080807" d="M 775.5,235.5 C 761.293,247.903 752.793,263.57 750,282.5C 745.536,308.97 743.203,335.637 743,362.5C 742.765,454.512 741.765,546.512 740,638.5C 738.696,669.935 734.362,700.935 727,731.5C 724.455,739.637 721.622,747.637 718.5,755.5C 717.903,755.265 717.57,754.765 717.5,754C 721.066,744.637 724.232,735.137 727,725.5C 733.996,693.211 737.996,660.545 739,627.5C 740.327,536.504 741.327,445.504 742,354.5C 741.98,327.877 744.647,301.544 750,275.5C 753.076,259.173 760.91,245.673 773.5,235C 774.437,234.308 775.103,234.475 775.5,235.5 Z"/></g>
</svg>
