<?xml version="1.0" encoding="UTF-8"?>
<!DOCTYPE svg PUBLIC "-//W3C//DTD SVG 1.1//EN" "http://www.w3.org/Graphics/SVG/1.1/DTD/svg11.dtd">
<svg xmlns="http://www.w3.org/2000/svg" version="1.1" width="1024px" height="1024px" style="shape-rendering:geometricPrecision; text-rendering:geometricPrecision; image-rendering:optimizeQuality; fill-rule:evenodd; clip-rule:evenodd" xmlns:xlink="http://www.w3.org/1999/xlink">
<g><path style="opacity:1" fill="#fefefe" d="M -0.5,-0.5 C 340.833,-0.5 682.167,-0.5 1023.5,-0.5C 1023.5,340.833 1023.5,682.167 1023.5,1023.5C 682.167,1023.5 340.833,1023.5 -0.5,1023.5C -0.5,682.167 -0.5,340.833 -0.5,-0.5 Z"/></g>
<g><path style="opacity:1" fill="#000101" d="M 425.5,132.5 C 454.319,132.832 472.485,146.832 480,174.5C 482.812,206.066 468.979,225.899 438.5,234C 408.011,236.504 388.844,223.004 381,193.5C 378.423,160.268 393.257,139.935 425.5,132.5 Z"/></g>
<g><path style="opacity:1" fill="#010101" d="M 591.5,132.5 C 620.758,132.938 638.925,147.271 646,175.5C 648.729,198.203 640.562,215.703 621.5,228C 594.347,240.753 571.847,235.253 554,211.5C 541,186.311 544.5,163.811 564.5,144C 572.72,138.101 581.72,134.267 591.5,132.5 Z"/></g>
<g><path style="opacity:1" fill="#000000" d="M 421.5,311.5 C 425.754,310.954 428.088,312.788 428.5,317C 419.828,335.186 414.661,354.352 413,374.5C 412.085,383.147 411.418,391.814 411,400.5C 410.333,493.833 410.333,587.167 411,680.5C 411.858,703.467 417.524,725.133 428,745.5C 442.365,766.42 462.365,776.087 488,774.5C 534.032,772.989 570.365,753.656 597,716.5C 607.076,700.272 612.742,682.605 614,663.5C 614.667,586.167 614.667,508.833 614,431.5C 613.411,413.738 608.411,397.405 599,382.5C 594.635,376.797 589.135,372.63 582.5,370C 572.105,366.485 561.772,362.819 551.5,359C 549.496,356.159 548.996,352.993 550,349.5C 550.903,348.299 552.069,347.465 553.5,347C 588.195,343.94 622.528,338.606 656.5,331C 676.032,325.99 695.032,319.49 713.5,311.5C 716.214,311.94 718.38,313.274 720,315.5C 716.107,324.842 712.773,334.509 710,344.5C 706.69,360.334 704.69,376.334 704,392.5C 703.333,490.833 703.333,589.167 704,687.5C 704.853,700.218 706.186,712.885 708,725.5C 712.944,760.218 731.11,770.051 762.5,755C 767.701,751.237 773.034,747.737 778.5,744.5C 783.937,747.531 787.604,752.031 789.5,758C 788.252,760.257 786.585,762.257 784.5,764C 759.716,782.115 734.382,799.448 708.5,816C 696.79,823.188 684.79,829.855 672.5,836C 668.739,836.738 665.072,836.405 661.5,835C 639.88,824.716 625.38,808.216 618,785.5C 615.147,772.641 613.147,759.641 612,746.5C 579.664,779.136 542.164,804.302 499.5,822C 459.27,838.823 419.27,838.489 379.5,821C 344.401,802.522 325.234,773.356 322,733.5C 321.282,725.171 320.616,716.837 320,708.5C 319.667,622.5 319.333,536.5 319,450.5C 318.358,430.95 314.024,412.284 306,394.5C 297.698,380.875 285.865,371.708 270.5,367C 261.438,363.621 252.105,361.455 242.5,360.5C 241.779,357.183 241.612,353.849 242,350.5C 243.648,349.283 245.481,348.45 247.5,348C 293.526,344.33 338.86,336.663 383.5,325C 396.454,320.962 409.121,316.462 421.5,311.5 Z"/></g>
</svg>
