<?xml version="1.0" encoding="UTF-8"?>
<!DOCTYPE svg PUBLIC "-//W3C//DTD SVG 1.1//EN" "http://www.w3.org/Graphics/SVG/1.1/DTD/svg11.dtd">
<svg xmlns="http://www.w3.org/2000/svg" version="1.1" width="1024px" height="1024px" style="shape-rendering:geometricPrecision; text-rendering:geometricPrecision; image-rendering:optimizeQuality; fill-rule:evenodd; clip-rule:evenodd" xmlns:xlink="http://www.w3.org/1999/xlink">
<g><path style="opacity:1" fill="#fcfcfa" d="M -0.5,-0.5 C 340.833,-0.5 682.167,-0.5 1023.5,-0.5C 1023.5,340.833 1023.5,682.167 1023.5,1023.5C 682.167,1023.5 340.833,1023.5 -0.5,1023.5C -0.5,682.167 -0.5,340.833 -0.5,-0.5 Z"/></g>
<g><path style="opacity:1" fill="#10110f" d="M 180.5,184.5 C 261.503,184.167 342.503,184.5 423.5,185.5C 410.123,192.042 398.29,200.708 388,211.5C 375.814,227.432 372.481,245.099 378,264.5C 379.595,271.286 381.595,277.953 384,284.5C 436.078,422.401 488.744,560.068 542,697.5C 544.108,703.523 546.775,709.19 550,714.5C 551.477,713.556 552.477,712.223 553,710.5C 606.611,570.277 659.944,429.944 713,289.5C 733.399,243.19 721.233,208.69 676.5,186C 705.856,184.836 735.356,184.336 765,184.5C 794.167,184.667 823.333,184.833 852.5,185C 853.938,185.219 855.271,185.719 856.5,186.5C 818.4,200.765 791.567,226.765 776,264.5C 768,283.833 760,303.167 752,322.5C 696.725,464.991 641.059,607.325 585,749.5C 571.219,784.395 556.886,819.062 542,853.5C 535.824,868.018 528.99,882.185 521.5,896C 519.299,896.825 517.466,896.325 516,894.5C 501.116,861.399 486.783,828.066 473,794.5C 425.333,671.5 377.667,548.5 330,425.5C 309.886,374.606 289.22,323.939 268,273.5C 257.591,248.82 242.424,227.653 222.5,210C 208.85,200.341 194.184,192.507 178.5,186.5C 179.243,185.818 179.909,185.151 180.5,184.5 Z"/></g>
</svg>
