<?xml version="1.0" encoding="UTF-8"?>
<!DOCTYPE svg PUBLIC "-//W3C//DTD SVG 1.1//EN" "http://www.w3.org/Graphics/SVG/1.1/DTD/svg11.dtd">
<svg xmlns="http://www.w3.org/2000/svg" version="1.1" width="1024px" height="1024px" style="shape-rendering:geometricPrecision; text-rendering:geometricPrecision; image-rendering:optimizeQuality; fill-rule:evenodd; clip-rule:evenodd" xmlns:xlink="http://www.w3.org/1999/xlink">
<g><path style="opacity:1" fill="#fefefe" d="M -0.5,-0.5 C 340.833,-0.5 682.167,-0.5 1023.5,-0.5C 1023.5,340.833 1023.5,682.167 1023.5,1023.5C 682.167,1023.5 340.833,1023.5 -0.5,1023.5C -0.5,682.167 -0.5,340.833 -0.5,-0.5 Z"/></g>
<g><path style="opacity:1" fill="#161716" d="M 420.5,229.5 C 425.844,229.334 431.177,229.501 436.5,230C 437.517,231.049 437.684,232.216 437,233.5C 435.5,235 434,236.5 432.5,238C 420.113,242.693 408.446,248.693 397.5,256C 384.188,267.457 376.855,281.957 375.5,299.5C 377.839,329.188 385.339,357.521 398,384.5C 439.117,478.735 480.784,572.735 523,666.5C 527.333,675.167 531.667,683.833 536,692.5C 537.415,695.218 539.415,695.885 542,694.5C 595.517,584.139 643.517,471.472 686,356.5C 693.584,333.341 696.251,309.675 694,285.5C 688.165,267.661 676.665,254.828 659.5,247C 652.422,244.53 645.422,241.863 638.5,239C 633.813,233.726 634.98,230.892 642,230.5C 675.991,232.023 709.991,233.357 744,234.5C 774.859,233.721 805.692,232.388 836.5,230.5C 841.833,230.667 847.167,230.833 852.5,231C 854.885,231.055 856.219,232.222 856.5,234.5C 856.06,237.214 854.726,239.38 852.5,241C 829.242,248.711 810.075,262.211 795,281.5C 779.41,301.661 766.076,323.328 755,346.5C 719.11,428.834 682.443,510.834 645,592.5C 625.195,634.11 604.861,675.444 584,716.5C 565.329,752.532 543.663,786.532 519,818.5C 512.764,825.407 505.931,831.573 498.5,837C 493.622,839.571 489.456,838.738 486,834.5C 429.65,701.131 371.65,568.464 312,436.5C 295.445,396.17 278.112,356.17 260,316.5C 247.445,293.939 230.611,275.106 209.5,260C 193.619,251.373 176.952,244.706 159.5,240C 157.552,238.561 156.219,236.728 155.5,234.5C 155.59,232.575 156.59,231.408 158.5,231C 177.5,230.333 196.5,230.333 215.5,231C 242.446,233.397 269.446,234.564 296.5,234.5C 338.02,233.522 379.353,231.855 420.5,229.5 Z"/></g>
</svg>
