<?xml version="1.0" encoding="UTF-8"?>
<!DOCTYPE svg PUBLIC "-//W3C//DTD SVG 1.1//EN" "http://www.w3.org/Graphics/SVG/1.1/DTD/svg11.dtd">
<svg xmlns="http://www.w3.org/2000/svg" version="1.1" width="1024px" height="1024px" style="shape-rendering:geometricPrecision; text-rendering:geometricPrecision; image-rendering:optimizeQuality; fill-rule:evenodd; clip-rule:evenodd" xmlns:xlink="http://www.w3.org/1999/xlink">
<g><path style="opacity:1" fill="#fefefd" d="M -0.5,-0.5 C 340.833,-0.5 682.167,-0.5 1023.5,-0.5C 1023.5,340.833 1023.5,682.167 1023.5,1023.5C 682.167,1023.5 340.833,1023.5 -0.5,1023.5C -0.5,682.167 -0.5,340.833 -0.5,-0.5 Z"/></g>
<g><path style="opacity:1" fill="#090a09" d="M 63.5,189.5 C 123.168,189.333 182.834,189.5 242.5,190C 251.851,190.168 261.184,190.668 270.5,191.5C 232.975,207.882 218.141,236.215 226,276.5C 230.731,297.426 236.398,318.092 243,338.5C 284.08,459.74 324.747,581.074 365,702.5C 403.394,594.651 441.394,486.651 479,378.5C 484.244,368.257 484.578,357.924 480,347.5C 469.457,316.748 456.457,287.082 441,258.5C 428.922,239.19 413.755,222.69 395.5,209C 383.04,201.569 369.707,196.402 355.5,193.5C 355.5,192.167 355.5,190.833 355.5,189.5C 438.503,189.167 521.503,189.5 604.5,190.5C 594.371,196.066 584.371,201.899 574.5,208C 549.784,226.281 540.951,250.448 548,280.5C 554.241,307.797 561.574,334.797 570,361.5C 610.088,480.933 651.255,599.933 693.5,718.5C 740.215,590.524 785.048,461.857 828,332.5C 833.293,314.662 837.96,296.662 842,278.5C 844.811,261.89 843.811,245.556 839,229.5C 829.833,210.146 814.667,198.313 793.5,194C 791.697,193.363 790.364,192.197 789.5,190.5C 845.496,189.5 901.496,189.167 957.5,189.5C 957.719,190.675 957.386,191.675 956.5,192.5C 935.86,203.307 920.026,218.974 909,239.5C 898.178,257.145 889.512,275.811 883,295.5C 831.517,447.284 778.85,598.617 725,749.5C 713.117,781.817 700.45,813.817 687,845.5C 683.922,851.991 680.588,858.325 677,864.5C 675.321,867.513 672.987,869.846 670,871.5C 667.679,870.513 666.013,868.846 665,866.5C 661.922,860.009 658.588,853.675 655,847.5C 644,820.167 633,792.833 622,765.5C 581.996,650.322 542.496,534.988 503.5,419.5C 458.302,548.593 412.802,677.593 367,806.5C 359.827,825.846 351.827,844.846 343,863.5C 341.54,866.21 339.54,866.876 337,865.5C 331.781,854.395 327.114,843.062 323,831.5C 260.082,648.079 198.749,464.079 139,279.5C 132.132,259.194 122.799,240.194 111,222.5C 98.2418,207.747 82.4084,197.914 63.5,193C 62.3157,191.855 62.3157,190.688 63.5,189.5 Z"/></g>
</svg>
