<?xml version="1.0" encoding="UTF-8"?>
<!DOCTYPE svg PUBLIC "-//W3C//DTD SVG 1.1//EN" "http://www.w3.org/Graphics/SVG/1.1/DTD/svg11.dtd">
<svg xmlns="http://www.w3.org/2000/svg" version="1.1" width="1024px" height="1024px" style="shape-rendering:geometricPrecision; text-rendering:geometricPrecision; image-rendering:optimizeQuality; fill-rule:evenodd; clip-rule:evenodd" xmlns:xlink="http://www.w3.org/1999/xlink">
<g><path style="opacity:1" fill="#fefefe" d="M -0.5,-0.5 C 340.833,-0.5 682.167,-0.5 1023.5,-0.5C 1023.5,340.833 1023.5,682.167 1023.5,1023.5C 682.167,1023.5 340.833,1023.5 -0.5,1023.5C -0.5,682.167 -0.5,340.833 -0.5,-0.5 Z"/></g>
<g><path style="opacity:1" fill="#0e0f0e" d="M 112.5,280.5 C 187.531,280.018 262.531,280.518 337.5,282C 318.842,289.659 305.008,302.493 296,320.5C 292.137,332.639 291.471,344.972 294,357.5C 299.513,382.374 306.847,406.707 316,430.5C 340.684,499.554 366.351,568.22 393,636.5C 408.138,605.89 422.471,574.89 436,543.5C 456.713,496.192 476.546,448.526 495.5,400.5C 484.28,368.398 470.113,337.731 453,308.5C 443.239,296.59 431.073,287.924 416.5,282.5C 417.729,281.719 419.062,281.219 420.5,281C 460.833,280.333 501.167,280.333 541.5,281C 544.409,284.374 546.576,288.207 548,292.5C 594.742,408.31 641.742,523.977 689,639.5C 722.571,572.685 750.905,503.685 774,432.5C 780.786,410.571 785.786,388.238 789,365.5C 794.938,324.687 778.771,297.021 740.5,282.5C 741.025,281.808 741.692,281.308 742.5,281C 770,280.833 797.5,280.667 825,280.5C 854.205,280.353 883.372,280.853 912.5,282C 888.938,292.562 870.771,309.062 858,331.5C 850.788,345.257 844.121,359.257 838,373.5C 799.736,474.959 758.736,575.292 715,674.5C 701.051,706.416 684.051,736.416 664,764.5C 657.616,772.552 650.283,779.552 642,785.5C 639.974,784.48 638.641,782.813 638,780.5C 630.851,756.538 622.851,732.871 614,709.5C 581.889,623.945 549.222,538.612 516,453.5C 487.292,519.254 458.292,584.92 429,650.5C 417.878,674.745 406.211,698.745 394,722.5C 386.126,737.03 377.459,751.03 368,764.5C 361.628,772.539 354.295,779.539 346,785.5C 313.755,693.437 281.088,601.437 248,509.5C 231.108,463.717 213.108,418.384 194,373.5C 184.847,352.505 173.18,333.172 159,315.5C 145.149,301.494 129.316,290.327 111.5,282C 112.056,281.617 112.389,281.117 112.5,280.5 Z"/></g>
</svg>
