<?xml version="1.0" encoding="UTF-8"?>
<!DOCTYPE svg PUBLIC "-//W3C//DTD SVG 1.1//EN" "http://www.w3.org/Graphics/SVG/1.1/DTD/svg11.dtd">
<svg xmlns="http://www.w3.org/2000/svg" version="1.1" width="1024px" height="1024px" style="shape-rendering:geometricPrecision; text-rendering:geometricPrecision; image-rendering:optimizeQuality; fill-rule:evenodd; clip-rule:evenodd" xmlns:xlink="http://www.w3.org/1999/xlink">
<g><path style="opacity:1" fill="#fefefe" d="M -0.5,-0.5 C 340.833,-0.5 682.167,-0.5 1023.5,-0.5C 1023.5,340.833 1023.5,682.167 1023.5,1023.5C 682.167,1023.5 340.833,1023.5 -0.5,1023.5C -0.5,682.167 -0.5,340.833 -0.5,-0.5 Z"/></g>
<g><path style="opacity:1" fill="#010101" d="M 874.5,186.5 C 873.186,184.105 873.186,181.605 874.5,179C 778.165,178.38 681.832,178.546 585.5,179.5C 585.802,182.059 585.468,184.393 584.5,186.5C 584.5,183.833 584.5,181.167 584.5,178.5C 681.496,177.594 778.496,177.261 875.5,177.5C 875.81,180.713 875.477,183.713 874.5,186.5 Z"/></g>
<g><path style="opacity:1" fill="#131312" d="M 584.5,186.5 C 585.468,184.393 585.802,182.059 585.5,179.5C 681.832,178.546 778.165,178.38 874.5,179C 873.186,181.605 873.186,184.105 874.5,186.5C 840.727,193.051 809.727,206.218 781.5,226C 749.511,249.458 719.678,275.624 692,304.5C 646.982,353.35 602.149,402.35 557.5,451.5C 610.14,524.64 662.973,597.64 716,670.5C 740.805,705.658 768.972,738.158 800.5,768C 829.955,795.397 864.289,813.897 903.5,823.5C 902.761,823.369 902.094,823.536 901.5,824C 903.436,824.813 905.436,825.313 907.5,825.5C 907.5,827.833 907.5,830.167 907.5,832.5C 792.35,833.157 677.35,833.824 562.5,834.5C 560.224,834.244 559.057,832.91 559,830.5C 558.242,828.231 558.409,826.064 559.5,824C 618.982,813.874 633.815,782.707 604,730.5C 562.892,668.063 520.225,606.729 476,546.5C 453,573.833 430,601.167 407,628.5C 385.566,656.301 366.899,685.967 351,717.5C 342.486,735.25 339.153,753.917 341,773.5C 343.181,790.339 351.681,802.839 366.5,811C 373.074,814.348 379.741,817.182 386.5,819.5C 386.062,819.435 385.728,819.601 385.5,820C 392.993,822.332 400.66,823.832 408.5,824.5C 408.5,827.167 408.5,829.833 408.5,832.5C 311.836,833.337 215.169,833.67 118.5,833.5C 118.661,830.19 118.661,827.19 118.5,824.5C 154.838,812.834 187.504,794.667 216.5,770C 240.909,748.594 264.409,726.094 287,702.5C 328.039,656.463 368.706,610.13 409,563.5C 423.181,545.322 437.347,527.156 451.5,509C 402.705,441.917 353.538,375.084 304,308.5C 291.667,293.5 279.333,278.5 267,263.5C 239.947,231.882 206.781,209.049 167.5,195C 157.647,192.037 147.647,189.703 137.5,188C 136.549,184.943 136.216,181.777 136.5,178.5C 248.833,177.167 361.167,177.167 473.5,178.5C 473.82,181.898 473.487,185.232 472.5,188.5C 454.725,190.028 439.559,197.028 427,209.5C 419.628,220.544 417.628,232.544 421,245.5C 426.143,260.785 433.143,275.118 442,288.5C 463.086,319.674 484.42,350.674 506,381.5C 514.603,393.053 523.436,404.387 532.5,415.5C 570.574,375.676 604.074,332.343 633,285.5C 663.932,229.698 647.766,197.698 584.5,189.5C 584.5,188.5 584.5,187.5 584.5,186.5 Z"/></g>
<g><path style="opacity:1" fill="#090909" d="M 386.5,819.5 C 394.121,821.091 401.788,822.424 409.5,823.5C 409.5,826.833 409.5,830.167 409.5,833.5C 311.849,834.486 214.182,834.819 116.5,834.5C 115.931,830.671 116.598,827.337 118.5,824.5C 118.661,827.19 118.661,830.19 118.5,833.5C 215.169,833.67 311.836,833.337 408.5,832.5C 408.5,829.833 408.5,827.167 408.5,824.5C 400.66,823.832 392.993,822.332 385.5,820C 385.728,819.601 386.062,819.435 386.5,819.5 Z"/></g>
<g><path style="opacity:1" fill="#000000" d="M 903.5,823.5 C 904.93,823.421 906.264,823.754 907.5,824.5C 908.487,827.768 908.82,831.102 908.5,834.5C 793.167,834.5 677.833,834.5 562.5,834.5C 677.35,833.824 792.35,833.157 907.5,832.5C 907.5,830.167 907.5,827.833 907.5,825.5C 905.436,825.313 903.436,824.813 901.5,824C 902.094,823.536 902.761,823.369 903.5,823.5 Z"/></g>
</svg>
