<?xml version="1.0" encoding="UTF-8"?>
<!DOCTYPE svg PUBLIC "-//W3C//DTD SVG 1.1//EN" "http://www.w3.org/Graphics/SVG/1.1/DTD/svg11.dtd">
<svg xmlns="http://www.w3.org/2000/svg" version="1.1" width="1024px" height="1536px" style="shape-rendering:geometricPrecision; text-rendering:geometricPrecision; image-rendering:optimizeQuality; fill-rule:evenodd; clip-rule:evenodd" xmlns:xlink="http://www.w3.org/1999/xlink">
<g><path style="opacity:1" fill="#fcfcfb" d="M -0.5,-0.5 C 340.833,-0.5 682.167,-0.5 1023.5,-0.5C 1023.5,511.5 1023.5,1023.5 1023.5,1535.5C 682.167,1535.5 340.833,1535.5 -0.5,1535.5C -0.5,1023.5 -0.5,511.5 -0.5,-0.5 Z"/></g>
<g><path style="opacity:1" fill="#0c0f0a" d="M 839.5,337.5 C 860.529,337.948 881.529,338.948 902.5,340.5C 903.326,341.451 903.492,342.451 903,343.5C 870.831,354.827 841.998,371.66 816.5,394C 783.461,426.031 752.961,460.198 725,496.5C 666.826,573.682 610.993,652.516 557.5,733C 622.208,839.572 686.041,946.739 749,1054.5C 769.26,1089.45 794.094,1120.95 823.5,1149C 844.176,1168.01 868.176,1181.35 895.5,1189C 898.656,1189.94 901.489,1191.44 904,1193.5C 904.783,1195.43 904.283,1196.93 902.5,1198C 896.833,1198.33 891.167,1198.67 885.5,1199C 792.167,1199.67 698.833,1199.67 605.5,1199C 596.922,1198.82 588.422,1198.32 580,1197.5C 579.175,1195.3 579.675,1193.47 581.5,1192C 623.805,1183.55 639.972,1158.38 630,1116.5C 619.426,1087.69 606.426,1060.02 591,1033.5C 552.862,966.384 513.528,900.051 473,834.5C 436.418,889.321 401.084,944.988 367,1001.5C 349.482,1031.87 335.816,1063.87 326,1097.5C 313.18,1137.44 325.68,1165.94 363.5,1183C 373.111,1186.65 382.777,1190.15 392.5,1193.5C 393.747,1195.01 393.747,1196.51 392.5,1198C 297.174,1199.57 201.84,1199.91 106.5,1199C 101.539,1198.1 100.539,1195.76 103.5,1192C 142.001,1179.51 174.834,1158.34 202,1128.5C 225.518,1102.32 247.518,1074.99 268,1046.5C 325.625,965.198 381.292,882.531 435,798.5C 437.912,793.842 440.412,789.009 442.5,784C 383.322,682.483 323.489,581.316 263,480.5C 243.412,446.225 219.245,415.392 190.5,388C 172.02,371.551 151.02,359.218 127.5,351C 119.822,348.663 112.156,346.329 104.5,344C 103.594,342.301 103.261,340.467 103.5,338.5C 200.167,338.333 296.834,338.5 393.5,339C 399.842,339.475 406.176,339.975 412.5,340.5C 412.714,342.144 412.38,343.644 411.5,345C 396.064,348.132 382.898,355.299 372,366.5C 366.304,377.956 364.97,389.956 368,402.5C 370.814,413.61 374.814,424.276 380,434.5C 428.159,518.16 477.326,601.16 527.5,683.5C 564.649,632.547 599.816,580.213 633,526.5C 644.069,507.086 654.735,487.419 665,467.5C 674.58,449.092 681.58,429.759 686,409.5C 687.929,388.527 680.096,372.36 662.5,361C 649.914,353.582 636.581,347.916 622.5,344C 621.483,342.951 621.316,341.784 622,340.5C 624.74,339.718 627.574,339.218 630.5,339C 700.335,338.833 770.001,338.333 839.5,337.5 Z"/></g>
</svg>
