<?xml version="1.0" encoding="UTF-8"?>
<!DOCTYPE svg PUBLIC "-//W3C//DTD SVG 1.1//EN" "http://www.w3.org/Graphics/SVG/1.1/DTD/svg11.dtd">
<svg xmlns="http://www.w3.org/2000/svg" version="1.1" width="1024px" height="1024px" style="shape-rendering:geometricPrecision; text-rendering:geometricPrecision; image-rendering:optimizeQuality; fill-rule:evenodd; clip-rule:evenodd" xmlns:xlink="http://www.w3.org/1999/xlink">
<g><path style="opacity:1" fill="#fefdfb" d="M -0.5,-0.5 C 340.833,-0.5 682.167,-0.5 1023.5,-0.5C 1023.5,340.833 1023.5,682.167 1023.5,1023.5C 682.167,1023.5 340.833,1023.5 -0.5,1023.5C -0.5,682.167 -0.5,340.833 -0.5,-0.5 Z"/></g>
<g><path style="opacity:1" fill="#141414" d="M 703.5,145.5 C 732.169,145.333 760.835,145.5 789.5,146C 792.295,146.297 793.961,147.797 794.5,150.5C 787.883,158.288 781.049,165.955 774,173.5C 749.228,202.049 733.228,235.049 726,272.5C 705.523,387.412 675.523,499.745 636,609.5C 615.424,666.245 590.424,720.912 561,773.5C 547.2,796.649 530.367,817.482 510.5,836C 474.913,865.755 433.746,880.255 387,879.5C 350.865,878.04 315.031,873.874 279.5,867C 278.549,866.282 278.383,865.449 279,864.5C 300.4,841.713 315.067,815.047 323,784.5C 326.844,769.28 330.177,753.946 333,738.5C 333.414,738.043 333.914,737.709 334.5,737.5C 337.144,740.109 339.311,743.109 341,746.5C 348.547,770.451 361.714,790.617 380.5,807C 406.244,824.858 432.911,826.191 460.5,811C 480.402,799.772 497.235,784.939 511,766.5C 542.583,721.331 566.75,672.331 583.5,619.5C 583.129,615.25 581.129,612.083 577.5,610C 523.593,607.525 472.926,593.525 425.5,568C 382.43,540.737 352.596,502.904 336,454.5C 326.506,427.858 319.84,400.525 316,372.5C 312.05,335.861 308.383,299.194 305,262.5C 302.244,234.846 291.077,211.346 271.5,192C 257.364,181.93 242.031,173.93 225.5,168C 221.5,165 221.5,162 225.5,159C 234.266,156.3 243.266,154.967 252.5,155C 309.154,152.556 365.82,150.889 422.5,150C 426.861,152.226 428.361,155.726 427,160.5C 395.508,200.905 384.175,246.571 393,297.5C 396.108,343.708 405.108,388.708 420,432.5C 437.798,476.628 466.298,512.128 505.5,539C 530.175,555.004 557.175,564.17 586.5,566.5C 595.124,567.559 602.291,564.892 608,558.5C 636.792,472.664 655.458,384.664 664,294.5C 664.863,274.807 664.53,255.141 663,235.5C 660.022,212.713 650.522,193.213 634.5,177C 625.058,170.946 615.058,165.946 604.5,162C 593.5,157.052 593.834,153.385 605.5,151C 638.247,147.777 670.914,145.944 703.5,145.5 Z"/></g>
</svg>
