<?xml version="1.0" encoding="UTF-8"?>
<!DOCTYPE svg PUBLIC "-//W3C//DTD SVG 1.1//EN" "http://www.w3.org/Graphics/SVG/1.1/DTD/svg11.dtd">
<svg xmlns="http://www.w3.org/2000/svg" version="1.1" width="1024px" height="1024px" style="shape-rendering:geometricPrecision; text-rendering:geometricPrecision; image-rendering:optimizeQuality; fill-rule:evenodd; clip-rule:evenodd" xmlns:xlink="http://www.w3.org/1999/xlink">
<g><path style="opacity:1" fill="#fefefe" d="M -0.5,-0.5 C 340.833,-0.5 682.167,-0.5 1023.5,-0.5C 1023.5,340.833 1023.5,682.167 1023.5,1023.5C 682.167,1023.5 340.833,1023.5 -0.5,1023.5C -0.5,682.167 -0.5,340.833 -0.5,-0.5 Z"/></g>
<g><path style="opacity:1" fill="#111211" d="M 78.5,125.5 C 170.501,128.116 262.501,128.116 354.5,125.5C 354.439,127.592 353.439,129.092 351.5,130C 339.414,133.803 328.081,139.136 317.5,146C 309.202,154.196 307.368,163.696 312,174.5C 313.393,178.286 315.059,181.952 317,185.5C 332.421,208.008 348.087,230.342 364,252.5C 402.849,304.194 442.182,355.527 482,406.5C 500.163,432.823 517.83,459.49 535,486.5C 537.243,488.282 539.743,488.782 542.5,488C 561.456,461.922 580.289,435.755 599,409.5C 630.308,369.548 660.641,328.881 690,287.5C 708.411,261.06 722.411,232.393 732,201.5C 735.467,190.635 736.134,179.635 734,168.5C 730.375,157.875 723.542,150.041 713.5,145C 702.25,139.806 690.916,134.806 679.5,130C 678.663,128.989 678.33,127.822 678.5,126.5C 719.834,127.071 761.167,127.738 802.5,128.5C 845.504,127.434 888.504,126.601 931.5,126C 932.5,128.091 931.833,129.757 929.5,131C 893.587,138.953 862.254,155.286 835.5,180C 826.303,188.863 817.469,198.03 809,207.5C 793.093,226.984 777.426,246.651 762,266.5C 718.051,325.45 673.718,384.117 629,442.5C 606.957,472.575 587.29,504.241 570,537.5C 561.57,560.744 557.237,584.744 557,609.5C 556.326,653.173 556.659,696.84 558,740.5C 558.913,762.714 561.579,784.714 566,806.5C 569.5,823.826 576.5,839.492 587,853.5C 602.142,867.239 619.809,876.239 640,880.5C 642.827,882.254 642.994,884.088 640.5,886C 637.5,886.333 634.5,886.667 631.5,887C 549.148,886.784 466.815,886.617 384.5,886.5C 384.286,884.856 384.62,883.356 385.5,882C 405.142,877.268 421.975,867.768 436,853.5C 447.111,837.179 454.111,819.179 457,799.5C 460.526,780.328 462.526,760.995 463,741.5C 464.305,704.507 464.639,667.507 464,630.5C 464.231,604.843 461.564,579.509 456,554.5C 449.251,533.336 439.584,513.669 427,495.5C 378.829,426.328 329.495,357.995 279,290.5C 251.412,254.226 221.578,219.726 189.5,187C 169.336,167.745 146.336,152.745 120.5,142C 107.651,137.537 94.6506,133.537 81.5,130C 78.7814,129.195 77.7814,127.695 78.5,125.5 Z"/></g>
</svg>
