<?xml version="1.0" encoding="UTF-8"?>
<!DOCTYPE svg PUBLIC "-//W3C//DTD SVG 1.1//EN" "http://www.w3.org/Graphics/SVG/1.1/DTD/svg11.dtd">
<svg xmlns="http://www.w3.org/2000/svg" version="1.1" width="1024px" height="1024px" style="shape-rendering:geometricPrecision; text-rendering:geometricPrecision; image-rendering:optimizeQuality; fill-rule:evenodd; clip-rule:evenodd" xmlns:xlink="http://www.w3.org/1999/xlink">
<g><path style="opacity:1" fill="#fcfcfb" d="M -0.5,-0.5 C 340.833,-0.5 682.167,-0.5 1023.5,-0.5C 1023.5,340.833 1023.5,682.167 1023.5,1023.5C 682.167,1023.5 340.833,1023.5 -0.5,1023.5C -0.5,682.167 -0.5,340.833 -0.5,-0.5 Z"/></g>
<g><path style="opacity:1" fill="#101110" d="M 262.5,161.5 C 292.929,169.679 323.929,174.179 355.5,175C 377.991,175.883 400.491,176.383 423,176.5C 522.499,175.209 621.999,174.042 721.5,173C 745.865,172.216 770.198,170.883 794.5,169C 802.406,168.27 810.239,167.103 818,165.5C 819.662,165.388 820.829,166.054 821.5,167.5C 795.696,194.463 771.196,222.463 748,251.5C 619.091,420.32 490.424,589.32 362,758.5C 358.667,763.833 355.333,769.167 352,774.5C 351.104,777.025 351.604,779.192 353.5,781C 440.085,801.147 527.419,805.147 615.5,793C 654.317,787.178 689.984,773.511 722.5,752C 747.259,733.247 767.759,710.747 784,684.5C 795.804,665.226 806.304,645.226 815.5,624.5C 816.325,623.614 817.325,623.281 818.5,623.5C 809.017,703.083 791.183,780.75 765,856.5C 764.311,857.357 763.478,858.023 762.5,858.5C 736.692,851.106 710.359,846.606 683.5,845C 551.922,838.151 420.255,835.484 288.5,837C 250.879,838.245 213.545,841.912 176.5,848C 332.881,648.894 488.048,448.394 642,246.5C 647.297,238.736 652.464,230.902 657.5,223C 657.265,222.127 656.931,221.293 656.5,220.5C 589.491,219.886 522.491,220.72 455.5,223C 414.218,224.768 374.218,232.768 335.5,247C 301.269,260.365 272.436,281.199 249,309.5C 236.609,325.716 224.443,342.049 212.5,358.5C 222.721,291.285 239.387,225.618 262.5,161.5 Z"/></g>
</svg>
