<?xml version="1.0" encoding="UTF-8"?>
<!DOCTYPE svg PUBLIC "-//W3C//DTD SVG 1.1//EN" "http://www.w3.org/Graphics/SVG/1.1/DTD/svg11.dtd">
<svg xmlns="http://www.w3.org/2000/svg" version="1.1" width="1024px" height="1024px" style="shape-rendering:geometricPrecision; text-rendering:geometricPrecision; image-rendering:optimizeQuality; fill-rule:evenodd; clip-rule:evenodd" xmlns:xlink="http://www.w3.org/1999/xlink">
<g><path style="opacity:1" fill="#fefdfc" d="M -0.5,-0.5 C 340.833,-0.5 682.167,-0.5 1023.5,-0.5C 1023.5,340.833 1023.5,682.167 1023.5,1023.5C 682.167,1023.5 340.833,1023.5 -0.5,1023.5C -0.5,682.167 -0.5,340.833 -0.5,-0.5 Z"/></g>
<g><path style="opacity:1" fill="#141414" d="M 310.5,189.5 C 416.301,198.597 522.301,202.097 628.5,200C 667.54,198.164 706.54,195.664 745.5,192.5C 758.93,192.693 761.764,198.36 754,209.5C 726.583,240.246 699.917,271.579 674,303.5C 579.333,426.167 484.667,548.833 390,671.5C 383.549,679.566 377.716,688.066 372.5,697C 373.551,698.385 374.884,699.385 376.5,700C 390.51,700.454 404.51,701.12 418.5,702C 469.444,706.884 520.444,711.051 571.5,714.5C 648.52,715.206 705.687,682.206 743,615.5C 748.589,605.323 753.922,594.99 759,584.5C 762.423,579.115 766.423,578.449 771,582.5C 771.768,589.955 771.101,597.289 769,604.5C 753.962,666.65 738.296,728.65 722,790.5C 721.309,798.193 717.143,802.026 709.5,802C 690.449,802.847 671.449,802.18 652.5,800C 590.682,791.641 529.016,782.308 467.5,772C 424.383,765.817 381.05,763.15 337.5,764C 299.759,765.509 262.759,771.509 226.5,782C 214.258,784.762 210.091,780.262 214,768.5C 231.375,748.794 248.375,728.794 265,708.5C 377.694,566.097 488.694,422.431 598,277.5C 600.363,274.107 602.196,270.44 603.5,266.5C 603.471,264.971 602.804,263.804 601.5,263C 596.292,261.358 590.959,260.358 585.5,260C 537.843,257.006 490.176,257.006 442.5,260C 392.198,263.201 347.865,280.867 309.5,313C 298.529,322.97 287.863,333.303 277.5,344C 273.48,347.681 268.813,349.014 263.5,348C 261.496,345.159 260.996,341.993 262,338.5C 280.083,290.826 294.75,242.16 306,192.5C 307.409,191.219 308.909,190.219 310.5,189.5 Z"/></g>
</svg>
